<?xml version="1.0" encoding="UTF-8" standalone="no"?>
<svg
   xmlns:osb="http://www.openswatchbook.org/uri/2009/osb"
   xmlns:dc="http://purl.org/dc/elements/1.1/"
   xmlns:cc="http://creativecommons.org/ns#"
   xmlns:rdf="http://www.w3.org/1999/02/22-rdf-syntax-ns#"
   xmlns:svg="http://www.w3.org/2000/svg"
   xmlns="http://www.w3.org/2000/svg"
   xmlns:xlink="http://www.w3.org/1999/xlink"
   id="svg1694"
   version="1.1"
   viewBox="0 0 53.224125 7.6203498"
   height="7.6203499mm"
   width="53.224125mm">
  <defs
     id="defs1688">
    <linearGradient
       gradientTransform="translate(69.971625,12.771505)"
       gradientUnits="userSpaceOnUse"
       y2="125.11379"
       x2="76.453728"
       y1="125.11379"
       x1="23.229589"
       id="linearGradient1456"
       xlink:href="#linearGradient1454" />
    <linearGradient
       osb:paint="solid"
       id="linearGradient1454">
      <stop
         id="stop1452"
         offset="0"
         style="stop-color:#ffffff;stop-opacity:1;" />
    </linearGradient>
  </defs>
  <metadata
     id="metadata1691">
    <rdf:RDF>
      <cc:Work
         rdf:about="">
        <dc:format>image/svg+xml</dc:format>
        <dc:type
           rdf:resource="http://purl.org/dc/dcmitype/StillImage" />
        <dc:title></dc:title>
      </cc:Work>
    </rdf:RDF>
  </metadata>
  <g
     transform="translate(-93.201215,-134.0751)"
     id="layer1">
    <path
       id="path952-9-8-6"
       d="m 114.20253,134.07523 c -0.64912,0 -1.20279,0.1165 -1.6614,0.34934 -0.45156,0.22577 -0.80054,0.55404 -1.04748,0.98443 -0.23989,0.43039 -0.37434,0.94161 -0.40256,1.53428 -0.007,0.30339 -0.0104,0.62078 -0.0104,0.95239 0,0.33161 0.003,0.64245 0.0104,0.93173 0.0282,0.59972 0.16267,1.11473 0.40256,1.54512 0.23989,0.42334 0.58559,0.75109 1.03714,0.98392 0.45861,0.22578 1.01557,0.339 1.67174,0.339 0.47977,0 0.91039,-0.0637 1.29139,-0.19069 0.381,-0.127 0.70547,-0.29959 0.97358,-0.51831 0.26812,-0.22578 0.47661,-0.48708 0.62477,-0.78342 0.14817,-0.29633 0.22549,-0.61752 0.23255,-0.96324 0.007,-0.0635 -0.0142,-0.11632 -0.0636,-0.15865 -0.0423,-0.0423 -0.0952,-0.0636 -0.15865,-0.0636 h -1.00563 c -0.0776,0 -0.14078,0.0179 -0.19017,0.0532 -0.0494,0.0353 -0.0848,0.10224 -0.10593,0.20102 -0.10584,0.45861 -0.29966,0.776 -0.58188,0.95239 -0.27517,0.16934 -0.61759,0.25425 -1.02681,0.25425 -0.47272,0 -0.85001,-0.13065 -1.13223,-0.39171 -0.28222,-0.26811 -0.4341,-0.7058 -0.45527,-1.31258 -0.0212,-0.60678 -0.0212,-1.19911 0,-1.77767 0.0212,-0.60678 0.17305,-1.04067 0.45527,-1.30173 0.28222,-0.26811 0.65951,-0.40256 1.13223,-0.40256 0.40922,0 0.75164,0.0849 1.02681,0.25425 0.27517,0.16933 0.46899,0.48673 0.58188,0.9524 0.0212,0.0917 0.0566,0.15869 0.10593,0.20102 0.0494,0.0353 0.11256,0.0532 0.19017,0.0532 h 1.00563 c 0.0635,0 0.11631,-0.0212 0.15864,-0.0636 0.0494,-0.0423 0.0706,-0.0951 0.0636,-0.15864 -0.007,-0.34572 -0.0844,-0.66692 -0.23254,-0.96325 -0.14816,-0.29633 -0.35665,-0.55384 -0.62477,-0.77256 -0.26811,-0.22578 -0.59258,-0.40217 -0.97358,-0.52917 -0.381,-0.127 -0.81162,-0.19069 -1.29139,-0.19069 z m 21.8798,5.3e-4 c -0.60678,0 -1.13975,0.10942 -1.59836,0.32815 -0.45155,0.21872 -0.80761,0.54319 -1.06867,0.97358 -0.26105,0.43039 -0.40206,0.96664 -0.42323,1.60869 -0.007,0.31045 -0.0108,0.61369 -0.0108,0.91002 0,0.29633 0.004,0.5963 0.0108,0.89969 0.0212,0.64911 0.15838,1.19243 0.41238,1.62987 0.254,0.43039 0.60678,0.75107 1.05833,0.96274 0.45156,0.20461 0.9916,0.30695 1.61955,0.30695 0.62794,0 1.16746,-0.10234 1.61902,-0.30695 0.45861,-0.21167 0.81518,-0.53235 1.06918,-0.96274 0.254,-0.43744 0.39121,-0.98076 0.41238,-1.62987 0.0141,-0.30339 0.0212,-0.60336 0.0212,-0.89969 0,-0.29633 -0.007,-0.59957 -0.0212,-0.91002 -0.0212,-0.64205 -0.16217,-1.1783 -0.42323,-1.60869 -0.26105,-0.43039 -0.62091,-0.75486 -1.07952,-0.97358 -0.45861,-0.21873 -0.99105,-0.32815 -1.59783,-0.32815 z m -39.938656,0.10542 c -0.105833,0 -0.190748,0.0283 -0.254248,0.0847 -0.05645,0.0494 -0.09511,0.10928 -0.116272,0.17984 l -2.550749,6.82645 c -0.01411,0.0353 -0.02119,0.0669 -0.02119,0.0951 0,0.0635 0.02123,0.11631 0.06356,0.15864 0.04939,0.0423 0.1022,0.0636 0.158647,0.0636 h 0.920874 c 0.09878,0 0.16954,-0.0212 0.211873,-0.0636 0.04939,-0.0494 0.08097,-0.0951 0.09509,-0.13745 l 0.497127,-1.2914 h 3.143477 l 0.497645,1.2914 c 0.0141,0.0423 0.0419,0.0881 0.08423,0.13745 0.04939,0.0423 0.123947,0.0636 0.222724,0.0636 h 0.920358 c 0.0564,0 0.10598,-0.0212 0.14831,-0.0636 0.0423,-0.0423 0.0636,-0.0951 0.0636,-0.15864 0,-0.0282 -0.004,-0.0598 -0.0109,-0.0951 l -2.55023,-6.82645 c -0.02822,-0.0706 -0.07068,-0.13045 -0.127122,-0.17984 -0.05645,-0.0564 -0.137564,-0.0847 -0.243398,-0.0847 z m 5.326806,0 c -0.0706,0 -0.13045,0.0245 -0.17983,0.0739 -0.0494,0.0494 -0.0739,0.11307 -0.0739,0.19069 v 6.88949 c 0,0.0705 0.0245,0.13096 0.0739,0.18035 0.0494,0.0494 0.10927,0.0739 0.17983,0.0739 h 1.00562 c 0.0776,0 0.13751,-0.0245 0.17984,-0.0739 0.0494,-0.0494 0.0744,-0.1098 0.0744,-0.18035 v -2.47634 h 1.57665 c 0.55033,0 1.02996,-0.0844 1.43919,-0.25373 0.40922,-0.16933 0.72713,-0.42356 0.95291,-0.76223 0.22578,-0.34572 0.33848,-0.78289 0.33848,-1.31206 0,-0.52211 -0.1127,-0.95601 -0.33848,-1.30173 -0.22578,-0.35278 -0.54369,-0.61408 -0.95291,-0.78342 -0.40923,-0.17639 -0.88886,-0.26458 -1.43919,-0.26458 z m 6.96599,0 c -0.0706,0 -0.13045,0.0245 -0.17984,0.0739 -0.0494,0.0494 -0.0739,0.10928 -0.0739,0.17983 v 6.90035 c 0,0.0705 0.0245,0.13096 0.0739,0.18035 0.0494,0.0494 0.10928,0.0739 0.17984,0.0739 h 0.99529 c 0.0776,0 0.1375,-0.0245 0.17983,-0.0739 0.0494,-0.0494 0.0739,-0.1098 0.0739,-0.18035 v -6.90036 c 0,-0.0706 -0.0245,-0.13045 -0.0739,-0.17983 -0.0423,-0.0494 -0.10222,-0.0739 -0.17983,-0.0739 z m 10.33374,0 c -0.0706,0 -0.13045,0.0245 -0.17984,0.0739 -0.0494,0.0494 -0.0739,0.11307 -0.0739,0.19069 v 4.30723 c 0,0.67733 0.12358,1.2348 0.37052,1.67225 0.24695,0.43038 0.59593,0.75158 1.04749,0.96325 0.45155,0.20461 0.98451,0.30695 1.59834,0.30695 0.62089,0 1.15334,-0.10234 1.59784,-0.30695 0.45156,-0.21167 0.79726,-0.53287 1.03715,-0.96325 0.24694,-0.43745 0.37052,-0.99492 0.37052,-1.67225 v -4.30723 c 0,-0.0776 -0.0245,-0.1413 -0.0739,-0.19069 -0.0423,-0.0494 -0.10223,-0.0739 -0.17984,-0.0739 h -0.95291 c -0.0776,0 -0.14079,0.0245 -0.19017,0.0739 -0.0494,0.0494 -0.0744,0.11307 -0.0744,0.19069 v 4.30723 c 0,0.57855 -0.13721,1.00917 -0.41238,1.29139 -0.26811,0.27517 -0.64211,0.4129 -1.1219,0.4129 -0.47977,0 -0.85758,-0.13773 -1.13274,-0.4129 -0.27517,-0.28222 -0.41238,-0.71284 -0.41238,-1.29139 v -4.30723 c 0,-0.0776 -0.025,-0.1413 -0.0744,-0.19069 -0.0423,-0.0494 -0.10222,-0.0739 -0.17983,-0.0739 z m 7.60832,0 c -0.0706,0 -0.13045,0.0245 -0.17984,0.0739 -0.0494,0.0494 -0.0739,0.11307 -0.0739,0.19069 v 6.88949 c 0,0.0705 0.0245,0.13096 0.0739,0.18035 0.0494,0.0494 0.10928,0.0739 0.17984,0.0739 h 0.96325 c 0.0776,0 0.1375,-0.0245 0.17983,-0.0739 0.0494,-0.0494 0.0744,-0.1098 0.0744,-0.18035 v -2.5399 h 1.47071 l 1.36529,2.50837 c 0.0353,0.0635 0.0848,0.12719 0.14832,0.19069 0.0635,0.0635 0.15497,0.0951 0.27491,0.0951 h 0.96325 c 0.0564,0 0.10598,-0.0212 0.14831,-0.0636 0.0494,-0.0423 0.0739,-0.0952 0.0739,-0.15865 0,-0.0353 -0.0103,-0.0739 -0.0315,-0.11627 l -1.54512,-2.69906 c 0.43038,-0.15522 0.77229,-0.40565 1.02629,-0.75137 0.26105,-0.34572 0.39171,-0.77962 0.39171,-1.30173 0,-0.75495 -0.24715,-1.32985 -0.74104,-1.72496 -0.49389,-0.39511 -1.16735,-0.59273 -2.02107,-0.59273 z m 14.4694,0 c -0.0706,0 -0.13045,0.0245 -0.17984,0.0739 -0.0494,0.0494 -0.0739,0.11307 -0.0739,0.19069 v 6.88949 c 0,0.0705 0.0245,0.13096 0.0739,0.18035 0.0494,0.0494 0.10928,0.0739 0.17984,0.0739 h 0.88935 c 0.0776,0 0.14078,-0.0245 0.19016,-0.0739 0.0494,-0.0494 0.0744,-0.1098 0.0744,-0.18035 v -4.55063 l 3.03702,4.63537 c 0.0212,0.0141 0.0533,0.0462 0.0956,0.0956 0.0423,0.0494 0.11258,0.0739 0.21136,0.0739 h 0.82579 c 0.0706,0 0.13044,-0.0245 0.17983,-0.0739 0.0494,-0.0494 0.0739,-0.11308 0.0739,-0.19069 v -6.87916 c 0,-0.0776 -0.0245,-0.1413 -0.0739,-0.19068 -0.0494,-0.0494 -0.11307,-0.0739 -0.19069,-0.0739 h -0.88883 c -0.0776,0 -0.1413,0.0245 -0.19069,0.0739 -0.0423,0.0494 -0.063,0.11307 -0.063,0.19068 v 4.64623 l -3.04838,-4.74131 c -0.0141,-0.0212 -0.0457,-0.0533 -0.0951,-0.0956 -0.0423,-0.0494 -0.1131,-0.0739 -0.21188,-0.0739 z m -38.13877,1.17461 h 1.54513 c 0.43745,0 0.75812,0.10942 0.96273,0.32814 0.20461,0.21167 0.30696,0.4942 0.30696,0.84698 0,0.381 -0.10942,0.67009 -0.32814,0.86765 -0.21873,0.1905 -0.53233,0.28577 -0.94155,0.28577 h -1.54513 z m 24.88686,0 h 1.4919 c 0.43745,0 0.75864,0.10234 0.96325,0.30696 0.21167,0.19755 0.31729,0.47301 0.31729,0.82579 0,0.35277 -0.10562,0.62771 -0.31729,0.82527 -0.21167,0.1905 -0.53286,0.28577 -0.96325,0.28577 h -1.4919 z m 6.5903,0.19999 h 1.13636 c 0.0703,8e-4 0.1355,0.0369 0.17415,0.0956 l 0.36587,0.52968 -0.73587,1.0697 -1.02888,-1.49189 c -0.0572,-0.0831 -0.004,-0.20309 0.0884,-0.20309 z m 2.67632,0 h 1.13636 c 0.0922,0 0.14556,0.11995 0.0884,0.20309 l -1.18804,1.7265 c -0.25146,-0.12159 -0.52736,-0.1848 -0.80668,-0.18448 -0.20789,-1.4e-4 -0.41402,0.0349 -0.6103,0.10335 l 1.20613,-1.75286 c 0.0387,-0.0587 0.10385,-0.0947 0.17415,-0.0956 z m -40.147426,0.0543 1.20613,3.27008 h -2.402438 z m 39.329906,2.06189 c 0.77533,-0.0195 1.53065,0.57692 1.53065,1.48518 0,0.81891 -0.6642,1.48259 -1.48311,1.48259 -1.3211,0 -1.98256,-1.59706 -1.04851,-2.53111 0.29188,-0.29189 0.64854,-0.42782 1.00097,-0.43666 z"
       style="font-style:normal;font-variant:normal;font-weight:500;font-stretch:normal;font-size:medium;line-height:1.25;font-family:Rubik;-inkscape-font-specification:'Rubik Medium';letter-spacing:0px;word-spacing:0px;fill:url(#linearGradient1456);fill-opacity:1;stroke:none;stroke-width:0.26458332" />
  </g>
</svg>
