<svg viewBox="0 0 154.358 38.1" xml:space="preserve" xmlns:xlink="http://www.w3.org/1999/xlink" xmlns="http://www.w3.org/2000/svg">
  <defs>
    <linearGradient id="a">
      <stop offset="0"/>
      <stop offset=".183" stop-color="#3a86ff"/>
      <stop offset=".387" stop-color="#8338ec"/>
      <stop offset=".594" stop-color="#ff006e"/>
      <stop offset=".745" stop-color="#fb5607"/>
      <stop offset="1" stop-color="#ffbe0b"/>
    </linearGradient>
    <linearGradient xlink:href="#a" id="e" gradientUnits="userSpaceOnUse" gradientTransform="matrix(.14946 0 0 .14946 460.058 131.38)" x1="-2747.735" y1="-584.572" x2="-2075.523" y2="-584.572"/>
    <linearGradient id="d">
      <stop offset="0"/>
      <stop offset=".183" stop-color="#3a86ff"/>
      <stop offset=".387" stop-color="#8338ec"/>
      <stop offset=".594" stop-color="#ff006e"/>
      <stop offset=".745" stop-color="#fb5607"/>
      <stop offset="1" stop-color="#ffbe0b"/>
    </linearGradient>
    <radialGradient fx="0" fy="0" cx="0" cy="0" r="1" gradientUnits="userSpaceOnUse" gradientTransform="matrix(136.52995 0 0 136.53076 86.622 160.544)" spreadMethod="pad" id="b">
      <stop offset="0" stop-color="#e30613"/>
      <stop offset=".002" stop-color="#fff"/>
      <stop offset=".033" stop-color="#fff"/>
      <stop offset=".084" stop-color="#fff"/>
      <stop offset="1" stop-color="red"/>
    </radialGradient>
    <radialGradient fx="0" fy="0" cx="0" cy="0" r="1" gradientUnits="userSpaceOnUse" gradientTransform="matrix(139.52888 0 0 139.52971 98.043 160.536)" spreadMethod="pad" id="c">
      <stop offset="0" stop-color="#fff"/>
      <stop offset=".968" stop-color="red"/>
      <stop offset="1" stop-color="red"/>
      <stop offset="1" stop-color="red"/>
    </radialGradient>
  </defs>
  <path style="font-variation-settings:'wdth' 75, 'wght' 400" fill="#999" d="M99.939-15.748h.087V1.898h-.087z" transform="translate(-13.14 25.327) scale(.92937)"/>
  <path style="-inkscape-stroke:none" d="M95.194 24.775c-.314 0-.609.2-.734.485l-2.172 4.388c-1.64.237-3.28.468-4.918.71a.798.798 0 0 0-.654.794c-.003.263.15.496.343.662l3.428 3.352c-.281 1.633-.569 3.266-.845 4.9a.8.8 0 0 0 .566.87c.23.075.472.022.682-.105l4.286-2.246c1.475.776 2.946 1.56 4.423 2.33a.8.8 0 0 0 1.047-.409c.14-.293.017-.613-.021-.913l-.75-4.414c1.186-1.156 2.379-2.308 3.562-3.468a.798.798 0 0 0 .061-1.025c-.154-.218-.42-.315-.679-.335l-4.73-.694c-.731-1.486-1.457-2.975-2.193-4.457a.805.805 0 0 0-.702-.425zm-.002 2.596.068.14c.534 1.08 1.06 2.166 1.598 3.245.132.256.406.41.689.43l3.604.53c-.9.879-1.806 1.752-2.703 2.633-.204.205-.262.514-.196.79l.61 3.59c-1.114-.585-2.224-1.178-3.34-1.76-.262-.132-.577-.085-.82.066-1.071.56-2.142 1.122-3.214 1.684.213-1.24.433-2.48.641-3.721.044-.285-.09-.57-.305-.752l-2.604-2.547c1.244-.18 2.49-.355 3.732-.54.285-.046.515-.26.622-.522l1.618-3.266zm-13.76 4.196-.002.003c-.883 0-1.624.089-2.258.308-.633.219-1.189.605-1.486 1.178l-.007.014-.007.014c-.203.436-.346.851-.414 1.258v.029l-.007.028c-.031.335-.044.787-.044 1.393v18.427c0 2.83.347 4.952 1.194 6.438.77 1.371 2.355 2.103 4.473 2.378h.007c1.293.159 2.363.229 3.236.187.873-.043 1.563-.158 2.13-.55v-.008c.493-.345.743-.878.9-1.48.155-.6.221-1.308.221-2.164 0-.796-.061-1.46-.222-2.03-.16-.565-.43-1.074-.914-1.393-.3-.209-.594-.368-.958-.429-.362-.092-.699-.1-1.236-.1-.172 0-.258-.014-.3-.02-.02-.135-.129-.612-.129-1.295V35.826c0-.59-.019-1.038-.078-1.42 0-.007-.006-.011-.006-.015-.041-.455-.197-.901-.436-1.35l-.007-.009c-.307-.553-.844-.938-1.464-1.158-.62-.22-1.34-.307-2.186-.307zm-16.673.775c-4.114 0-7.757 1.476-10.78 4.365-3.04 2.876-4.588 6.558-4.588 10.853 0 4.291 1.514 8.043 4.486 11.097 2.968 3.021 6.562 4.58 10.611 4.58 4.477 0 7.983-1.175 10.34-3.615.826-.857 1.313-1.867 1.313-2.93v-8.517c0-1.017-.12-1.837-.47-2.515-.253-.538-.724-.936-1.28-1.173-.56-.237-1.211-.35-1.972-.378h-6.845c-.856 0-1.596.123-2.222.436-.529.264-.897.774-1.073 1.336l-.007.022-.007.022c-.129.517-.178 1.127-.178 1.864 0 .713.05 1.31.178 1.823v.016c.15.565.525 1.066 1.022 1.372.581.358 1.26.429 2.13.429h2.243v2.75c-.914.31-1.876.544-3.015.544-1.744 0-3.262-.657-4.687-2.079l-.007-.008c-1.41-1.437-2.086-3.09-2.086-5.117 0-2.062.656-3.595 2.015-4.815h.007c1.394-1.276 2.91-1.88 4.68-1.88 1.366 0 2.474.316 3.415.943l.007.008h.007c1.13.727 1.925 1.179 2.8 1.179 1.276 0 2.339-.933 3.409-2.386v-.008c.65-.905 1.043-1.765 1.043-2.644 0-.938-.544-1.78-1.371-2.393-2.828-2.1-5.893-3.18-9.118-3.18zm16.671.859c.727 0 1.283.086 1.644.214.361.129.506.264.585.408.167.315.238.564.25.721l.008.029v.035c.038.227.071.653.071 1.223v17.927c0 .974-.033 1.572.343 2.2l.015.014.006.014c.387.58 1.048.715 1.686.715.516 0 .883.05.858.043l.057.014.05.008c-.027-.005.108.031.307.171l.014.008.014.008c.026.017.138.132.236.479.098.346.165.891.165 1.593 0 .77-.063 1.365-.165 1.758-.1.386-.23.53-.257.55h-.007c-.107.073-.548.23-1.272.264-.727.036-1.723-.02-2.959-.171v.008c-1.857-.242-2.847-.827-3.264-1.572-.597-1.044-.979-2.947-.979-5.638V35.798c0-.562.016-.963.036-1.2.035-.204.119-.478.264-.794l.006-.008c.065-.122.19-.253.557-.38.374-.129.96-.214 1.73-.214zm-16.67.767c2.866 0 5.552.933 8.145 2.859.566.42.722.733.722 1.086 0 .36-.206.945-.743 1.693-.94 1.271-1.712 1.714-2.087 1.714-.104 0-.882-.251-1.908-.907l-.014-.008c-1.225-.813-2.685-1.214-4.308-1.214-2.15 0-4.124.793-5.773 2.3-1.688 1.516-2.552 3.594-2.552 6.024 0 2.409.876 4.555 2.559 6.266 1.67 1.67 3.668 2.564 5.844 2.564 1.508 0 2.892-.247 4.137-.756l.508-.208v-5.58h-3.873c-.73 0-1.189-.138-1.279-.193a.573.573 0 0 1-.293-.392v-.008c-.077-.313-.128-.796-.128-1.423 0-.647.053-1.133.128-1.443.077-.226.142-.3.228-.342.303-.152.808-.265 1.501-.265h6.781c.633.023 1.108.119 1.4.242.292.124.39.244.45.373l.007.014.008.022c.156.298.293.904.293 1.786v8.517c0 .589-.232 1.16-.85 1.8-1.98 2.051-4.979 3.116-9.175 3.116-3.642 0-6.735-1.328-9.445-4.088-2.706-2.78-4.03-6.043-4.03-9.96 0-3.912 1.343-7.077 4.087-9.674 2.758-2.634 5.927-3.915 9.66-3.915zm57.054.269c-.879 0-1.61.085-2.236.285-.626.201-1.182.548-1.492 1.101v.008l-.008.008c-.211.392-.358.772-.43 1.165l-.007.037v.036c-.03.335-.042.788-.042 1.393v3.044l-2.36-.028h-.006c-.83 0-1.727.02-2.63.036v-2.858c0-.942-.049-1.642-.228-2.216l-.008-.014-.008-.014c-.241-.687-.785-1.233-1.464-1.543-.68-.31-1.485-.436-2.437-.436-.879 0-1.614.083-2.237.286-.617.2-1.154.558-1.45 1.115-.231.383-.413.763-.486 1.165v.036l-.008.035c-.03.336-.043.788-.043 1.393v3.066c-2.34-.092-3.026 1.1-3.333 2.11-.17.618-.221 1.407-.221 2.495 0 1.15.163 2.07.728 2.757l.008.014.007.009c.512.58 1.248.935 2.01.935.28 0 .536-.039.806-.057v4.859c0 2.781.79 5.036 2.43 6.559 1.622 1.506 3.872 2.229 6.594 2.229.58 0 1.018-.012 1.351-.043h.028l.028-.008a4.89 4.89 0 0 0 1.257-.415l.015-.008h.007c.58-.29.986-.833 1.215-1.464.23-.63.322-1.37.322-2.244 0-.755-.08-1.398-.272-1.957-.192-.56-.53-1.057-1.036-1.343a3.33 3.33 0 0 0-1.343-.443c-.392-.063-.864-.093-1.494-.093-.435 0-.534-.083-.57-.129-.053-.089-.166-.43-.166-1.029v-4.494l2.694.114h.014c.621 0 1.462-.06 2.287-.114v4.88c0 2.782.79 5.036 2.43 6.559 1.622 1.507 3.865 2.23 6.587 2.23.58 0 1.017-.012 1.35-.044h.036l.028-.008c.408-.068.822-.21 1.258-.414l.008-.008h.008c.58-.29.984-.833 1.214-1.464.229-.63.321-1.37.321-2.243 0-.757-.077-1.41-.278-1.973-.2-.56-.56-1.048-1.071-1.329a3.085 3.085 0 0 0-1.302-.442c-.39-.063-.865-.094-1.492-.094-.44 0-.537-.084-.572-.13-.053-.088-.164-.429-.164-1.028v-4.48l1.679.1h.028c.605 0 1.05-.006 1.386-.036l.028-.008h.036c.407-.068.815-.211 1.25-.414l.014-.008.023-.008c.57-.296.95-.846 1.17-1.473.22-.628.308-1.365.308-2.236 0-.883-.087-1.62-.308-2.25-.218-.623-.604-1.167-1.178-1.45-.422-.238-.853-.398-1.3-.437h-.008c-.37-.06-.802-.086-1.387-.086-.409 0-1.105.06-1.742.107v-2.93c0-.937-.056-1.637-.273-2.228 0-.005-.005-.005-.007-.008-.226-.688-.757-1.24-1.43-1.55-.674-.313-1.483-.437-2.434-.437zm0 1.635c.804 0 1.393.12 1.75.286.357.165.494.322.579.585v.014l.007.02c.086.23.186.83.186 1.686v4.688l.886-.086c1.124-.102 1.961-.15 2.48-.15.57 0 .985.03 1.172.064l.036.008.042.008c.157.012.385.079.671.243l.023.014.028.014c.113.055.237.165.364.529.128.364.221.945.221 1.714 0 .755-.092 1.327-.22 1.693-.127.361-.255.492-.38.559l-.007.008c-.317.145-.59.23-.794.265-.227.018-.616.034-1.142.036l-3.38-.207v6.208c0 .778.08 1.414.443 1.958l.014.022.014.014c.432.576 1.15.794 1.886.794.596 0 1.042.026 1.265.064l.028.008h.036c.191.014.398.084.643.235l.022.008.022.014c.102.056.206.156.314.457.108.302.185.786.185 1.423 0 .752-.089 1.323-.22 1.685-.133.363-.273.493-.416.565-.32.148-.594.23-.8.265-.238.02-.624.036-1.157.036-2.44 0-4.22-.616-5.488-1.794-1.25-1.161-1.908-2.882-1.908-5.366v-6.616l-.878.071c-1.21.101-2.206.157-2.994.158l-4.373-.194v6.195c0 .778.087 1.414.45 1.958l.008.022.015.014c.432.576 1.158.793 1.893.793.597 0 1.033.027 1.257.065l.036.008h.036c.193.014.427.09.707.25.087.049.196.152.3.457.105.305.18.79.18 1.428 0 .753-.09 1.325-.222 1.687-.132.363-.272.493-.415.565a3.343 3.343 0 0 1-.793.264c-.238.02-.626.037-1.165.037-2.44 0-4.218-.616-5.487-1.794-1.25-1.161-1.908-2.882-1.908-5.366v-6.673l-.936.135c-.473.071-.97.108-1.5.108-.317 0-.516-.087-.772-.371-.156-.196-.357-.758-.357-1.716 0-1.025.078-1.753.164-2.064l.008-.008v-.008c.103-.393.234-.58.286-.63.253-.2.55-.313 1.007-.314l2.101.265v-4.91c0-.554.016-.947.036-1.186.029-.151.106-.367.271-.635l.014-.022.014-.028c.042-.08.15-.209.522-.329.37-.12.963-.2 1.736-.2l-.004-.003c.804 0 1.399.119 1.765.286.362.165.498.33.593.593.078.255.157.857.157 1.714v4.51l.829-.014c1.205-.026 2.346-.044 3.422-.044l3.994.05v-4.694c0-.555.017-.947.036-1.186.033-.172.106-.396.25-.665l.008-.008c.054-.092.183-.222.557-.342.38-.122.971-.2 1.744-.2zm22.617 5.152c-.794 0-1.612.277-2.487.756a8.456 8.456 0 0 0-1.407.944c-.047-.08-.033-.18-.087-.257-.66-1-1.926-1.251-3.571-1.251-.884 0-1.625.081-2.258.3-.634.22-1.19.606-1.486 1.179v.016c-.209.417-.36.825-.43 1.236v.028l-.007.029c-.031.335-.044.788-.044 1.393v14.74l.008.029c.061.888.362 1.688.972 2.222l.014.008.008.014c.777.63 1.85.836 3.186.836.869 0 1.601-.084 2.23-.293.627-.21 1.176-.572 1.493-1.121l.008-.015.008-.008c.236-.442.393-.86.436-1.3.061-.386.086-.843.086-1.443v-8.13c0-.46.15-.78.586-1.144.5-.395.961-.565 1.465-.565.617 0 1.051.104 1.3.229h.008l.014.008a3.984 3.984 0 0 0 1.701.385c1.215 0 2.276-.756 2.858-1.921.531-1.063.822-2.085.822-3.072 0-.923-.188-1.716-.715-2.301a3.3 3.3 0 0 0-1.558-1.073 8.506 8.506 0 0 0-1.45-.327c-.486-.091-1.047-.13-1.7-.13zm-45.097.567c-.411.005-.79.403-.837.82-.026.553-.073 1.135-.402 1.605-.715 1.06-1.848 1.724-2.906 2.396-1.104-.708-2.322-1.4-3.004-2.566-.279-.457-.254-1.002-.32-1.511-.098-.402-.448-.79-.894-.738-.62.09-.857.818-.77 1.366.082 1.648 1.068 3.126 2.36 4.1.226.184.465.35.697.526-1.157.777-2.274 1.751-2.764 3.096-.614 1.555-.256 3.398.81 4.67.53.668 1.24 1.196 1.954 1.695-.97.687-1.908 1.488-2.455 2.535-.434.829-.703 1.793-.566 2.73.099.517.72.952 1.205.612.441-.277.474-.83.484-1.298.116-1.072.998-1.83 1.806-2.44.467-.348.965-.65 1.457-.962 1.106.707 2.322 1.402 3.005 2.567.279.458.254 1.002.32 1.511.093.522.716.961 1.204.624.574-.382.497-1.155.403-1.749-.172-1.08-.713-2.067-1.452-2.836-.465-.49-1.004-.898-1.548-1.294.657-.46 1.32-.953 1.812-1.527 1.112-1.225 1.564-3.04 1.028-4.622-.438-1.411-1.568-2.458-2.762-3.256-.149-.146.34-.296.444-.444 1.261-.922 2.296-2.273 2.495-3.857.09-.572.115-1.321-.457-1.656a.65.65 0 0 0-.347-.097zm45.097 1.054c.586 0 1.06.044 1.4.108h.021l.023.008c.352.044.762.135 1.215.278.351.111.595.278.807.543l.021.022.022.021c.126.135.286.513.286 1.23 0 .664-.2 1.444-.65 2.343-.399.797-.757 1.022-1.4 1.022a2.3 2.3 0 0 1-.994-.222c-.576-.288-1.252-.393-2.03-.393-.887 0-1.742.325-2.478.908l-.008.008-.008.008c-.74.61-1.186 1.48-1.186 2.408v8.132c0 .57-.026.994-.064 1.221l-.008.029v.028c-.01.118-.084.365-.243.671h-.008c-.07.122-.217.268-.592.394-.379.126-.959.207-1.716.207-1.135 0-1.833-.232-2.143-.479-.21-.19-.373-.489-.414-1.086V45.4c0-.562.016-.963.036-1.2a2.79 2.79 0 0 1 .263-.75c.064-.124.192-.257.565-.387.373-.129.96-.222 1.729-.222 1.445 0 2.106.344 2.222.522l.008.008.008.014c.208.302.176.572.279.815v2.536l1.479-2.066c.096-.134.255-.33.457-.557l.008-.008c.127-.126.624-.478 1.393-.9.725-.397 1.307-.557 1.7-.557zm-52.002.02c.039.377.07.68.197.896h5.131c.12-.245.173-.551.2-.897zm.766 1.635a7.35 7.35 0 0 0 1.1.897h1.79c.403-.279.78-.57 1.101-.897zm1.994 4.48.118.075c1.067.674 2.246 1.323 2.92 2.433.455.836.277 1.946-.4 2.613-.736.825-1.711 1.377-2.638 1.957-1.093-.695-2.31-1.344-3.018-2.473-.479-.84-.307-1.972.381-2.648.737-.824 1.71-1.376 2.637-1.956zm-.955 1.231c-.41.277-.793.567-1.122.897h4.151a7.147 7.147 0 0 0-1.122-.897zm-1.74 1.86a1.796 1.796 0 0 0-.01.897h5.403c.078-.295.083-.61.007-.897zm.623 1.86c.324.328.709.618 1.123.896h1.907c.41-.276.793-.566 1.121-.896zm1.014 5.815c-.029.02-.058.042-.086.063a7.16 7.16 0 0 0-.954.834h4.192c-.3-.329-.66-.62-1.05-.897zm-1.59 1.75a1.65 1.65 0 0 0-.093.386c-.003.154-.01.326-.036.51h5.562c-.04-.357-.059-.66-.128-.896z" color="#000" fill="url(#e)" paint-order="stroke fill markers" transform="matrix(.68477 0 0 .68477 -33.684 -16.965)"/>
  <path d="M71.672 6.415a1.17 1.17 0 0 0-1.166 1.167v1.707l1.293-.515a.543.543 0 0 1 .402-.504l.299-1.855h-.828zm1.275 0-.31 1.925a.544.544 0 0 1 .247.455l-.001.03 1.665.935a.543.543 0 1 1-.206.39l-1.662-.93a.54.54 0 0 1-.718-.035l-1.457.58v1.066a1.17 1.17 0 0 0 1.167 1.166h3.25a1.17 1.17 0 0 0 1.165-1.166V7.582a1.17 1.17 0 0 0-1.166-1.167h-1.974z" fill="#e30613"/>
  <path style="font-variation-settings:'wdth' 75, 'wght' 400" d="m127.372-25.474-.435 2.71a.792.792 0 0 0-.588.733l-1.888.755h-.001v.695l2.127-.85a.79.79 0 0 0 1.049.05l2.427 1.362a.793.793 0 1 0 .3-.571l-2.431-1.363a.792.792 0 0 0-.358-.71l.453-2.81z" fill="#fff" transform="matrix(.68477 0 0 .68477 -14.72 23.86)"/>
  <g style="line-height:1.1;-inkscape-font-specification:'Jost, Bold';text-align:end" aria-label="Git repositories with educational materials for the computational life sciences" font-weight="normal" font-size="4.382" font-family="Mona Sans" letter-spacing="-.024" word-spacing=".446" direction="ltr" text-anchor="start" fill="#1f2937" stroke-width=".734" stroke-linecap="square" paint-order="stroke fill markers">
    <path style="-inkscape-font-specification:'Mona Sans, @wght=670,wdth=125.0';font-variation-settings:'wdth' 125, 'wght' 670;text-align:start" d="M114.944 131.959q-.412 0-.74-.114-.33-.118-.562-.333-.228-.22-.35-.517-.123-.303-.123-.675 0-.368.123-.67.127-.303.359-.518.232-.214.565-.328.333-.119.754-.119.473 0 .828.145.36.14.574.394.22.25.263.592h-.736q-.044-.175-.175-.298-.132-.123-.324-.189-.193-.065-.43-.065-.342 0-.583.131-.236.127-.36.364-.122.237-.122.56 0 .26.07.457.075.197.21.333.14.131.334.201.192.07.433.07.33 0 .553-.1.223-.101.337-.285.118-.189.118-.443v-.087l.21.206h-1.274v-.47h1.792v.255q0 .368-.136.653-.131.28-.372.469-.241.188-.557.285-.316.096-.68.096zm2.093-.04v-2.344h.701v2.344zm0-2.65v-.544h.701v.543zm2.053 2.65q-.193 0-.337-.061-.14-.061-.22-.188-.074-.127-.074-.32v-1.245h-.443v-.53h.443v-.605l.693-.131v.736h.587v.53h-.587v1.021q0 .114.052.154.057.039.171.039h.364v.6zm2.308 0v-2.344h.636l.026.377h.026q.075-.189.241-.298.171-.114.403-.114.062 0 .11.004l.088.009v.635q-.048-.013-.105-.017-.053-.004-.11-.004-.184 0-.32.065-.136.062-.215.198-.074.135-.079.355v1.135zm3.009.04q-.43 0-.745-.145-.312-.144-.487-.412-.17-.267-.17-.644 0-.386.175-.657.175-.272.486-.417.311-.149.727-.149.447 0 .754.163.311.157.465.464.158.303.127.732h-2.03q.005.184.093.316.087.131.245.201t.377.07q.246 0 .42-.083.176-.088.224-.224h.666q-.03.233-.214.412-.18.18-.47.276-.284.097-.643.097zm-.715-1.416-.026-.035h1.411l-.035.035q-.004-.162-.083-.28-.075-.123-.22-.184-.14-.066-.35-.066-.202 0-.35.066-.145.061-.237.18-.088.118-.11.284zm2.369 2.108v-3.076h.662l.026.381h.026q.105-.188.329-.302.223-.114.565-.114.259 0 .47.083.21.083.358.241.154.158.237.381.083.224.083.504 0 .369-.144.64-.145.272-.403.425-.259.15-.61.15-.192 0-.368-.053-.17-.057-.302-.15-.127-.096-.202-.232h-.026v1.122zm1.393-1.222q.198 0 .342-.08.15-.083.233-.236.083-.153.083-.364 0-.219-.083-.368-.08-.149-.228-.228-.15-.079-.347-.079-.219 0-.376.084-.154.079-.237.219-.079.136-.079.302v.123q0 .127.044.245.048.114.136.202.092.083.219.131.127.049.293.049zm2.987.534q-.316 0-.574-.079-.254-.083-.443-.24-.184-.158-.285-.382-.1-.228-.1-.513 0-.38.175-.653.175-.271.49-.416.316-.145.737-.145.32 0 .574.084.259.079.443.236.188.158.289.386.1.224.1.508 0 .377-.175.653-.175.272-.49.417-.312.144-.741.144zm0-.543q.223 0 .381-.079.158-.083.241-.237.083-.153.083-.355 0-.157-.048-.28-.048-.127-.14-.215-.088-.087-.22-.136-.13-.048-.297-.048-.22 0-.377.083-.153.084-.237.237-.083.15-.083.36 0 .153.048.28.048.123.136.21.092.088.22.136.13.044.293.044zm2.821.543q-.596 0-.916-.21-.315-.215-.337-.574h.688q.013.17.162.267.149.092.425.092.245 0 .381-.066.14-.07.14-.205 0-.11-.052-.163-.053-.057-.18-.079-.122-.026-.35-.048-.307-.03-.522-.079-.215-.048-.35-.127-.136-.079-.202-.197-.061-.123-.061-.294 0-.227.14-.394.14-.17.403-.263.267-.092.64-.092.342 0 .591.088.25.087.395.254.149.166.17.407h-.665q-.013-.11-.08-.18-.065-.074-.17-.109-.105-.035-.246-.035-.219 0-.359.066-.136.061-.136.201 0 .092.057.145.062.048.193.074.136.027.35.049.307.026.522.074.22.044.35.127.137.08.198.206.061.127.061.32 0 .338-.306.544-.303.201-.934.201zm1.527-.043v-2.345h.701v2.345zm0-2.652v-.543h.701v.543zm2.053 2.652q-.193 0-.337-.062-.14-.061-.22-.188-.074-.127-.074-.32v-1.245h-.443v-.53h.443v-.605l.693-.131v.736h.587v.53h-.587v1.021q0 .114.052.154.057.039.171.039h.364v.6zm2.205.043q-.315 0-.574-.079-.254-.083-.442-.24-.184-.158-.285-.382-.101-.228-.101-.513 0-.38.175-.653.176-.271.491-.416.316-.145.736-.145.32 0 .574.084.259.079.443.236.188.158.29.386.1.224.1.508 0 .377-.175.653-.176.272-.491.417-.311.144-.74.144zm0-.543q.224 0 .382-.079.157-.083.24-.237.084-.153.084-.355 0-.157-.048-.28-.048-.127-.14-.215-.088-.087-.22-.136-.131-.048-.298-.048-.219 0-.377.083-.153.084-.236.237-.083.15-.083.36 0 .153.048.28.048.123.136.21.092.088.219.136.131.044.293.044zm1.729.5v-2.345h.635l.027.377h.026q.075-.189.241-.298.171-.114.403-.114.062 0 .11.004l.087.009v.635q-.048-.013-.105-.017-.052-.004-.11-.004-.183 0-.32.065-.135.062-.214.198-.074.136-.079.355v1.135zm1.799 0v-2.345h.701v2.344zm0-2.652v-.543h.701v.543zm2.425 2.69q-.43 0-.745-.144-.31-.144-.486-.412-.171-.267-.171-.644 0-.386.175-.657.176-.272.487-.417.31-.149.727-.149.447 0 .754.163.311.157.464.464.158.303.128.732h-2.03q.005.184.093.316.087.131.245.201t.377.07q.245 0 .42-.083.176-.088.224-.224h.666q-.03.233-.215.412-.18.18-.468.276-.285.097-.645.097zm-.714-1.415-.026-.035h1.41l-.034.035q-.004-.162-.084-.28-.074-.123-.219-.184-.14-.066-.35-.066-.202 0-.35.066-.146.061-.238.18-.087.118-.11.284zm3.461 1.42q-.596 0-.916-.21-.315-.215-.337-.574h.688q.013.17.162.267.149.092.425.092.245 0 .381-.066.14-.07.14-.205 0-.11-.052-.163-.053-.057-.18-.079-.123-.026-.35-.048-.307-.03-.522-.079-.215-.048-.35-.127-.136-.079-.202-.197-.062-.123-.062-.294 0-.227.14-.394.141-.17.404-.263.267-.092.64-.092.342 0 .591.088.25.087.395.254.149.166.17.407h-.665q-.014-.11-.08-.18-.065-.074-.17-.109-.105-.035-.246-.035-.219 0-.359.066-.136.061-.136.201 0 .092.057.145.062.048.193.074.136.027.35.049.307.026.522.074.22.044.35.127.137.08.198.206.061.127.061.32 0 .338-.307.544-.302.201-.933.201zm3.364-.043-.679-2.345h.666l.482 1.749h.026l.452-1.75h.692l.443 1.758h.017l.491-1.757h.64l-.688 2.345h-.846l-.42-1.56h-.027l-.416 1.56zm3.442 0v-2.345h.702v2.345zm0-2.652v-.543h.702v.543zm2.053 2.652q-.192 0-.337-.062-.14-.061-.22-.188-.074-.127-.074-.32v-1.245h-.442v-.53h.442v-.605l.693-.131v.736h.587v.53h-.587v1.021q0 .114.052.154.057.039.171.039h.364v.6zm.933 0v-3.195h.701v1.27h.035q.114-.214.355-.337.241-.123.526-.123.228 0 .412.057.188.057.32.185.136.127.21.337.075.21.075.517v1.289h-.706v-1.166q0-.22-.057-.373-.052-.153-.175-.232-.118-.079-.32-.079-.206 0-.36.088-.148.087-.232.24-.083.154-.083.356v1.165zM114.571 137.16q-.43 0-.745-.145-.31-.144-.486-.411-.171-.268-.171-.645 0-.385.175-.657t.487-.416q.31-.15.727-.15.447 0 .754.163.311.158.464.464.158.303.127.732h-2.029q.004.184.092.316.088.131.246.201t.377.07q.245 0 .42-.083.176-.088.224-.223h.666q-.03.232-.215.412-.18.18-.469.276-.284.096-.644.096zm-.714-1.415-.026-.036h1.41l-.034.036q-.004-.163-.084-.28-.074-.124-.219-.185-.14-.066-.35-.066-.202 0-.351.066-.145.061-.237.18-.087.118-.11.285zm3.429 1.42q-.259 0-.473-.084-.21-.083-.368-.245-.154-.162-.237-.386-.083-.223-.083-.5 0-.372.144-.644.15-.271.412-.42.263-.154.61-.154.197 0 .363.053.171.048.298.149.132.096.202.232h.03v-1.24h.706v3.195h-.675l-.017-.386h-.027q-.105.188-.328.311-.22.118-.557.118zm.215-.535q.21 0 .363-.08.154-.078.233-.218.083-.145.083-.325v-.113q0-.14-.048-.255-.044-.114-.132-.197-.087-.083-.214-.127-.128-.044-.285-.044-.206 0-.355.08-.15.078-.233.231-.078.15-.078.369 0 .21.078.363.084.154.233.237.149.079.355.079zm2.802.53q-.307 0-.535-.1-.227-.106-.359-.347-.127-.241-.127-.644v-1.293h.706v1.166q0 .219.052.372.057.154.18.233.123.078.32.078.206 0 .355-.083.153-.087.236-.24.084-.159.084-.36v-1.166h.705v2.345h-.679l-.026-.421h-.035q-.11.215-.351.337-.241.123-.526.123zm3.279 0q-.316 0-.57-.083-.25-.084-.43-.246-.175-.162-.271-.385-.092-.228-.092-.504 0-.377.175-.644.176-.272.491-.417.316-.144.732-.144.381 0 .666.114.29.11.456.31.166.202.184.474h-.697q-.03-.118-.114-.197-.083-.08-.21-.123-.127-.044-.285-.044-.22 0-.377.088-.153.083-.237.236-.078.15-.078.351 0 .215.083.368.083.154.236.232.154.075.369.075.153 0 .28-.044.132-.044.22-.127.087-.087.122-.206h.701q-.022.285-.21.491-.189.206-.487.315-.293.11-.657.11zm2.723.004q-.258 0-.473-.083-.21-.088-.364-.246-.153-.162-.236-.385-.084-.224-.084-.5 0-.372.145-.644t.403-.416q.263-.15.605-.15.232 0 .403.053.175.048.298.145.123.092.193.219h.026l.022-.381h.67v2.344h-.705v-.39h-.03q-.106.197-.347.316-.236.118-.526.118zm.215-.535q.215 0 .368-.083.154-.087.233-.228.083-.144.083-.315v-.123q0-.167-.083-.302-.08-.14-.233-.22-.153-.083-.368-.083-.197 0-.346.08-.15.074-.232.227-.084.149-.084.368 0 .21.08.364.083.153.232.237.149.078.35.078zm2.757.491q-.193 0-.337-.061-.14-.062-.22-.189-.074-.127-.074-.32v-1.244h-.442v-.53h.442v-.605l.693-.132v.737h.587v.53h-.587v1.021q0 .114.052.153.057.04.171.04h.364v.6zm.933 0v-2.344h.7v2.344zm0-2.651v-.544h.7v.544zm2.425 2.695q-.315 0-.574-.079-.254-.083-.443-.24-.184-.159-.284-.382-.101-.228-.101-.513 0-.381.175-.653t.491-.416q.315-.145.736-.145.32 0 .574.084.259.078.443.236.188.158.29.386.1.223.1.508 0 .377-.175.653-.176.272-.491.416-.311.145-.74.145zm0-.543q.224 0 .381-.08.158-.083.242-.236.083-.153.083-.355 0-.158-.048-.28-.049-.127-.14-.215-.088-.088-.22-.136-.131-.048-.298-.048-.219 0-.377.083-.153.083-.236.237-.084.149-.084.36 0 .153.049.28.048.122.135.21.092.088.22.136.131.044.293.044zm1.729.5v-2.345h.68l.021.42h.035q.118-.223.36-.341.245-.119.521-.119.228 0 .412.057.188.057.32.184.136.127.21.338.075.21.075.517v1.288h-.706v-1.165q0-.22-.057-.373-.052-.153-.175-.232-.118-.084-.32-.084-.206 0-.36.092-.148.088-.232.242-.083.153-.083.354v1.166zm4.073.043q-.258 0-.473-.083-.21-.088-.364-.246-.153-.162-.236-.385-.084-.224-.084-.5 0-.372.145-.644.144-.272.403-.416.263-.15.605-.15.232 0 .403.053.175.048.298.145.123.092.193.219h.026l.022-.381h.67v2.344h-.705v-.39h-.03q-.106.197-.347.316-.237.118-.526.118zm.215-.535q.215 0 .368-.083.153-.087.232-.228.084-.144.084-.315v-.123q0-.167-.084-.302-.079-.14-.232-.22-.153-.083-.368-.083-.197 0-.346.08-.15.074-.232.227-.084.149-.084.368 0 .21.08.364.082.153.231.236.15.08.351.08zm1.812.491v-3.195h.701v3.195zm2.488 0v-2.344h.675l.026.407h.035q.114-.219.333-.333.22-.114.5-.114.306 0 .526.132.219.131.315.39h.04q.135-.276.372-.4.237-.122.543-.122.303 0 .518.119.219.113.333.354.118.237.118.61v1.301h-.706v-1.21q0-.197-.048-.337-.044-.144-.153-.223-.11-.084-.307-.084-.188 0-.324.084-.136.079-.21.223-.07.14-.07.329v1.218h-.702v-1.196q0-.206-.048-.35-.048-.15-.162-.229-.114-.079-.298-.079-.193 0-.329.084-.131.083-.206.228-.07.14-.07.324v1.218zm5.773.044q-.258 0-.473-.083-.21-.088-.364-.246-.153-.162-.236-.385-.084-.224-.084-.5 0-.372.145-.644t.403-.416q.263-.15.605-.15.232 0 .403.053.175.048.298.145.123.092.193.219h.026l.022-.381h.67v2.344h-.705v-.39h-.03q-.106.197-.347.316-.236.118-.526.118zm.215-.535q.215 0 .368-.083.154-.088.233-.228.083-.144.083-.315v-.123q0-.167-.083-.302-.08-.14-.233-.22-.153-.083-.368-.083-.197 0-.346.079-.15.075-.232.228-.084.149-.084.368 0 .21.08.364.083.153.232.236.149.08.35.08zm2.757.491q-.193 0-.337-.061-.14-.062-.22-.189-.074-.127-.074-.32v-1.244h-.442v-.53h.442v-.605l.693-.132v.737h.587v.53h-.587v1.021q0 .114.052.153.057.04.171.04h.364v.6zm2.205.04q-.429 0-.745-.145-.31-.145-.486-.412-.17-.267-.17-.644 0-.386.174-.658.176-.271.487-.416.311-.149.727-.149.447 0 .754.162.311.158.465.465.157.302.127.732h-2.03q.005.184.093.315.087.132.245.202t.377.07q.245 0 .42-.083.176-.088.224-.224h.666q-.03.232-.214.412-.18.18-.47.276-.284.097-.644.097zm-.714-1.416-.026-.035h1.411l-.035.035q-.004-.162-.083-.28-.075-.123-.22-.184-.14-.066-.35-.066-.202 0-.35.066-.145.061-.237.18-.088.118-.11.284zm2.369 1.376v-2.344h.635l.026.376h.027q.074-.188.24-.298.172-.113.404-.113.061 0 .11.004l.087.009v.635q-.048-.013-.105-.018-.053-.004-.11-.004-.184 0-.32.066-.135.062-.214.197-.075.136-.08.355v1.135zm1.798 0v-2.344h.702v2.344zm0-2.651v-.544h.702v.544zm2.18 2.695q-.258 0-.473-.083-.21-.088-.364-.246-.153-.162-.236-.385-.083-.224-.083-.5 0-.372.144-.644.145-.272.403-.417.263-.149.605-.149.232 0 .403.053.176.048.298.145.123.092.193.219h.026l.022-.381h.67v2.344h-.705v-.39h-.03q-.106.197-.347.316-.236.118-.526.118zm.215-.535q.215 0 .368-.083.154-.088.233-.228.083-.144.083-.315v-.123q0-.167-.083-.302-.08-.14-.233-.22-.153-.083-.368-.083-.197 0-.346.079-.149.075-.232.228-.084.149-.084.368 0 .21.08.364.083.153.232.236.149.08.35.08zm1.812.491v-3.195h.701v3.195zm2.208.044q-.596 0-.916-.21-.316-.215-.338-.574h.688q.014.17.163.267.149.092.425.092.245 0 .381-.066.14-.07.14-.206 0-.11-.052-.162-.053-.057-.18-.079-.123-.026-.35-.048-.307-.03-.522-.079-.215-.048-.35-.127-.137-.079-.202-.197-.062-.123-.062-.294 0-.228.14-.394.14-.171.404-.263.267-.092.64-.092.341 0 .591.087.25.088.395.255.149.166.17.407h-.666q-.013-.11-.079-.18-.065-.074-.17-.11-.106-.034-.246-.034-.219 0-.36.065-.135.062-.135.202 0 .092.057.145.061.048.193.074.136.026.35.048.307.027.522.075.219.044.35.127.136.079.198.206.061.127.061.32 0 .337-.307.543-.302.202-.933.202zm3.136-.044v-1.814h-.416v-.53h.416v-.167q0-.355.22-.517.218-.167.64-.167h.415v.46h-.306q-.132 0-.198.062-.065.057-.065.184v.145h.53v.53h-.53v1.814zm2.701.044q-.315 0-.574-.079-.254-.083-.442-.241-.184-.158-.285-.381-.1-.228-.1-.513 0-.381.174-.653.176-.272.491-.416.316-.145.736-.145.32 0 .575.083.258.08.442.237.189.158.29.386.1.223.1.508 0 .377-.175.653-.175.272-.49.416-.312.145-.742.145zm0-.543q.224 0 .382-.08.158-.083.24-.236.084-.153.084-.355 0-.158-.048-.28-.048-.128-.14-.215-.088-.088-.22-.136-.13-.048-.297-.048-.22 0-.377.083-.154.083-.237.237-.083.149-.083.36 0 .152.048.28.048.122.136.21.092.088.219.136.131.044.293.044zm1.73.5v-2.345h.635l.026.376h.026q.075-.188.241-.298.171-.114.403-.114.062 0 .11.004t.088.01v.635q-.048-.013-.105-.018-.053-.004-.11-.004-.184 0-.32.066-.136.062-.215.197-.074.136-.079.355v1.135zM114.199 142.322q-.193 0-.338-.062-.14-.061-.219-.188-.074-.127-.074-.32v-1.245h-.443v-.53h.443v-.605l.692-.131v.736h.587v.53h-.587v1.022q0 .113.053.153.057.04.17.04h.364v.6zm.932 0v-3.195h.701v1.27h.035q.114-.214.355-.337.241-.122.526-.122.228 0 .412.057.189.057.32.184.136.127.21.337.075.21.075.517v1.289h-.706v-1.166q0-.219-.056-.372-.053-.154-.176-.233-.118-.079-.32-.079-.206 0-.36.088-.148.088-.231.241-.084.153-.084.355v1.166zm4.319.04q-.43 0-.745-.145-.311-.145-.487-.412-.17-.268-.17-.645 0-.385.175-.657t.486-.416q.311-.15.728-.15.447 0 .754.163.31.158.464.464.158.303.127.732h-2.029q.004.184.092.316.088.131.246.201.157.07.376.07.246 0 .421-.083.175-.087.224-.223h.666q-.03.232-.215.412-.18.18-.469.276-.285.096-.644.096zm-.714-1.416-.027-.035h1.411l-.035.035q-.004-.162-.083-.28-.074-.124-.219-.185-.14-.066-.35-.066-.202 0-.351.066-.145.062-.237.18-.087.118-.11.285zm4.994 1.415q-.315 0-.57-.083-.25-.083-.43-.246-.174-.162-.27-.385-.093-.228-.093-.504 0-.377.175-.644.176-.272.491-.417.316-.144.732-.144.381 0 .666.114.29.11.456.31.167.202.184.474h-.697q-.03-.118-.114-.197-.083-.079-.21-.123t-.285-.044q-.219 0-.377.088-.153.083-.236.237-.08.149-.08.35 0 .215.084.368.083.154.237.233.153.074.368.074.153 0 .28-.044.132-.044.22-.127.087-.087.122-.206h.701q-.022.285-.21.491-.188.206-.486.316-.294.11-.658.11zm2.969.004q-.316 0-.574-.079-.254-.083-.443-.24-.184-.159-.285-.382-.1-.228-.1-.513 0-.381.175-.653.175-.271.49-.416.316-.145.737-.145.32 0 .574.084.259.079.443.236.188.158.289.386.1.223.1.508 0 .377-.175.653-.175.272-.49.417-.312.144-.741.144zm0-.543q.224 0 .381-.08.158-.082.241-.236.084-.153.084-.355 0-.158-.049-.28-.048-.127-.14-.215-.087-.088-.219-.136-.131-.048-.298-.048-.22 0-.377.083-.153.084-.236.237-.084.149-.084.36 0 .153.048.28.049.122.136.21.092.088.22.136.13.044.293.044zm1.729.5v-2.345h.675l.026.407h.035q.114-.219.333-.333.22-.114.5-.114.306 0 .526.132.219.131.315.39h.04q.135-.276.372-.399t.543-.123q.303 0 .518.119.219.114.333.355.118.236.118.609v1.301h-.706v-1.21q0-.196-.048-.337-.044-.144-.153-.223-.11-.083-.307-.083-.188 0-.324.083-.136.079-.21.223-.07.14-.07.33v1.217h-.702v-1.196q0-.206-.048-.35-.048-.15-.162-.229-.114-.078-.298-.078-.193 0-.329.083-.131.083-.206.228-.07.14-.07.324v1.218zm4.752.731v-3.076h.662l.026.381h.027q.105-.188.328-.302.224-.114.566-.114.258 0 .469.083.21.083.359.241.153.158.237.381.083.224.083.504 0 .368-.145.64-.144.272-.403.425-.259.15-.61.15-.192 0-.367-.053-.171-.057-.303-.15-.127-.096-.201-.232h-.027v1.122zm1.394-1.222q.197 0 .342-.08.149-.083.232-.236.083-.153.083-.364 0-.219-.083-.368-.079-.149-.228-.228-.149-.079-.346-.079-.22 0-.377.084-.153.079-.237.219-.079.136-.079.302v.123q0 .127.044.245.048.114.136.202.092.083.22.131.126.049.293.049zm2.655.53q-.307 0-.535-.101-.228-.105-.36-.346-.127-.241-.127-.644v-1.293h.706v1.165q0 .22.053.373.057.153.18.232.122.08.32.08.205 0 .354-.084.154-.088.237-.241.083-.158.083-.36v-1.165h.706v2.344h-.68l-.026-.42h-.035q-.11.214-.35.337-.242.123-.526.123zm2.976-.04q-.193 0-.338-.061-.14-.061-.219-.188-.074-.128-.074-.32v-1.245h-.443v-.53h.443v-.605l.692-.131v.736h.587v.53h-.587v1.021q0 .114.053.154.057.039.17.039h.364v.6zm1.96.044q-.259 0-.474-.083-.21-.088-.363-.246-.154-.162-.237-.385-.083-.224-.083-.5 0-.372.144-.644.145-.272.403-.416.263-.15.605-.15.232 0 .403.053.176.048.298.145.123.092.193.219h.026l.022-.381h.67v2.344h-.705v-.39h-.03q-.106.198-.347.316-.236.118-.526.118zm.214-.534q.215 0 .368-.084.154-.087.233-.228.083-.144.083-.315v-.123q0-.166-.083-.302-.08-.14-.233-.22-.153-.083-.368-.083-.197 0-.346.08-.149.074-.232.227-.083.15-.083.368 0 .21.078.364.084.153.233.237.149.079.35.079zm2.757.49q-.192 0-.337-.061-.14-.061-.22-.188-.074-.128-.074-.32v-1.245h-.442v-.53h.442v-.605l.693-.132v.737h.587v.53h-.587v1.021q0 .114.052.154.057.039.171.039h.364v.6zm.933 0v-2.344h.701v2.344zm0-2.651v-.543h.701v.543zm2.425 2.695q-.315 0-.574-.079-.254-.083-.442-.24-.184-.158-.285-.382-.101-.228-.101-.513 0-.381.175-.653.176-.271.491-.416.316-.145.736-.145.32 0 .574.084.259.079.443.236.189.158.29.386.1.223.1.508 0 .377-.175.653-.175.272-.491.417-.311.144-.74.144zm0-.543q.224 0 .382-.08.157-.082.24-.236.084-.153.084-.355 0-.158-.048-.28-.048-.127-.14-.215-.088-.088-.22-.136-.131-.048-.298-.048-.219 0-.376.083-.154.084-.237.237-.083.149-.083.36 0 .153.048.28.048.122.136.21.092.088.219.136.131.044.293.044zm1.73.5v-2.345h.678l.022.42h.035q.119-.223.36-.341.245-.119.521-.119.228 0 .412.057.189.057.32.184.136.128.21.338.075.21.075.517v1.288h-.706v-1.165q0-.22-.057-.373-.052-.153-.175-.232-.118-.083-.32-.083-.206 0-.36.092-.148.087-.231.24-.084.154-.084.356v1.165zm4.072.043q-.258 0-.473-.083-.21-.088-.364-.246-.153-.162-.236-.385-.084-.224-.084-.5 0-.372.145-.644t.403-.416q.263-.15.605-.15.232 0 .403.053.175.048.298.145.123.092.193.219h.026l.022-.381h.67v2.344h-.705v-.39h-.03q-.106.198-.347.316-.236.118-.526.118zm.215-.534q.215 0 .368-.084.154-.087.233-.228.083-.144.083-.315v-.123q0-.166-.083-.302-.08-.14-.233-.22-.153-.083-.368-.083-.197 0-.346.08-.15.074-.232.227-.084.15-.084.368 0 .21.08.364.083.153.232.237.149.079.35.079zm1.812.49v-3.194h.701v3.194zm2.488 0v-3.194h.701v3.194zm1.124 0v-2.344h.7v2.344zm0-2.651v-.543h.7v.543zm1.37 2.651v-1.814h-.417v-.53h.416v-.167q0-.355.22-.517.218-.166.639-.166h.416v.46h-.306q-.132 0-.198.061-.065.057-.065.184v.145h.53v.53h-.53v1.814zm2.7.04q-.43 0-.745-.145-.31-.144-.486-.412-.171-.267-.171-.644 0-.386.175-.657.176-.272.487-.417.31-.149.727-.149.447 0 .754.162.311.158.465.465.157.302.127.732h-2.03q.005.184.093.315.087.132.245.202t.377.07q.245 0 .42-.083.176-.088.224-.224h.666q-.03.233-.214.412-.18.18-.47.276-.284.097-.644.097zm-.714-1.416-.026-.035h1.41l-.034.035q-.004-.162-.083-.28-.075-.123-.22-.184-.14-.066-.35-.066-.202 0-.35.066-.145.061-.237.18-.088.118-.11.284zm4.846 1.42q-.596 0-.916-.21-.316-.215-.338-.574h.688q.013.17.162.267.15.092.425.092.246 0 .382-.066.14-.07.14-.206 0-.11-.053-.162-.052-.057-.18-.079-.122-.026-.35-.048-.307-.03-.521-.079-.215-.048-.351-.127-.136-.079-.202-.197-.061-.123-.061-.294 0-.228.14-.394.14-.171.403-.263.268-.092.64-.092.342 0 .592.088.25.087.394.254.15.166.171.407h-.666q-.013-.11-.079-.18-.066-.074-.17-.109-.106-.035-.246-.035-.22 0-.36.066-.135.061-.135.201 0 .092.057.145.061.048.192.074.136.027.351.049.307.026.522.074.219.044.35.127.136.079.197.206.062.127.062.32 0 .337-.307.543-.302.202-.933.202zm2.777-.004q-.316 0-.57-.083-.25-.083-.43-.246-.174-.162-.27-.385-.093-.228-.093-.504 0-.377.175-.644.176-.272.491-.417.316-.144.732-.144.381 0 .666.114.29.11.456.31.167.202.184.474h-.697q-.03-.118-.114-.197-.083-.08-.21-.123-.127-.044-.285-.044-.219 0-.377.088-.153.083-.236.237-.08.149-.08.35 0 .215.084.368.083.154.237.233.153.074.368.074.153 0 .28-.044.132-.044.22-.127.087-.087.122-.206h.701q-.022.285-.21.491-.189.206-.487.316-.293.11-.657.11zm1.667-.04v-2.344h.702v2.345zm0-2.65v-.544h.702v.543zm2.426 2.69q-.43 0-.745-.144-.311-.145-.487-.412-.17-.268-.17-.645 0-.385.175-.657t.486-.416q.311-.15.728-.15.447 0 .753.163.312.158.465.464.158.303.127.732h-2.029q.004.184.092.316.088.131.245.201.158.07.377.07.246 0 .421-.083.175-.087.224-.223h.666q-.031.232-.215.412-.18.18-.469.276-.285.096-.644.096zm-.714-1.415-.027-.035h1.411l-.035.035q-.004-.162-.083-.28-.075-.124-.22-.185-.14-.066-.35-.066-.201 0-.35.066-.145.062-.237.18-.088.118-.11.285zm2.368 1.376v-2.345h.68l.021.42h.035q.119-.223.36-.341.245-.118.521-.118.228 0 .412.057.189.057.32.184.136.127.21.337.075.21.075.517v1.289h-.706v-1.166q0-.22-.057-.372-.052-.154-.175-.233-.118-.083-.32-.083-.206 0-.36.092-.148.088-.232.241-.083.153-.083.355v1.166zm4.28.04q-.316 0-.57-.084-.25-.083-.43-.246-.175-.162-.272-.385-.092-.228-.092-.504 0-.377.176-.644.175-.272.49-.417.316-.144.732-.144.382 0 .667.114.289.11.455.31.167.202.184.474h-.696q-.031-.118-.114-.197-.084-.08-.21-.123-.128-.044-.286-.044-.219 0-.376.088-.154.083-.237.237-.079.149-.079.35 0 .215.083.368.084.154.237.233.153.074.368.074.153 0 .28-.044.132-.044.22-.127.087-.087.122-.206h.702q-.022.285-.21.491-.19.206-.487.316-.294.11-.658.11zm2.968 0q-.43 0-.745-.145-.31-.145-.486-.412-.171-.268-.171-.645 0-.385.175-.657t.487-.416q.31-.15.727-.15.447 0 .754.163.311.158.464.464.158.303.128.732h-2.03q.004.184.092.316.088.131.246.201t.377.07q.245 0 .42-.083.176-.087.224-.223h.666q-.03.232-.215.412-.18.18-.469.276-.284.096-.644.096zm-.714-1.416-.026-.035h1.41l-.034.035q-.004-.163-.084-.28-.074-.124-.219-.185-.14-.066-.35-.066-.202 0-.35.066-.146.061-.238.18-.087.118-.11.285zm3.461 1.42q-.596 0-.916-.21-.315-.216-.337-.575h.688q.013.171.162.267.149.092.425.092.245 0 .381-.065.14-.07.14-.206 0-.11-.052-.162-.053-.057-.18-.08-.123-.026-.35-.048-.307-.03-.522-.078-.215-.049-.35-.127-.136-.08-.202-.198-.062-.122-.062-.293 0-.228.14-.395.14-.17.404-.263.267-.092.64-.092.342 0 .591.088.25.088.395.254.149.167.17.408h-.665q-.014-.11-.08-.18-.065-.075-.17-.11-.105-.035-.246-.035-.219 0-.36.066-.135.061-.135.202 0 .092.057.144.061.048.193.075.136.026.35.048.307.026.522.074.22.044.35.128.136.078.198.205.061.128.061.32 0 .338-.307.544-.302.201-.933.201z" transform="translate(-20.405 -107.381) scale(.92937)"/>
  </g>
</svg>
