<svg width="419.025" height="222.771" viewBox="0 0 110.867 58.941" xmlns:xlink="http://www.w3.org/1999/xlink" xmlns="http://www.w3.org/2000/svg"><defs><linearGradient id="a"><stop offset="0" style="stop-color:#000;stop-opacity:1"/><stop offset=".183" style="stop-color:#3a86ff;stop-opacity:1"/><stop style="stop-color:#8338ec;stop-opacity:1" offset=".387"/><stop offset=".594" style="stop-color:#ff006e;stop-opacity:1"/><stop style="stop-color:#fb5607;stop-opacity:1" offset=".745"/><stop offset="1" style="stop-color:#ffbe0b;stop-opacity:1"/></linearGradient><linearGradient xlink:href="#a" id="b" gradientUnits="userSpaceOnUse" gradientTransform="matrix(.14946 0 0 .14946 419.842 164.486)" x1="-2747.735" y1="-584.572" x2="-2075.523" y2="-584.572"/></defs><path style="font-variation-settings:&quot;wdth&quot;75,&quot;wght&quot;400;opacity:.429776;fill:#fff;stroke-width:1.04023;stroke-linejoin:bevel" d="m114.539 68.25-.383 2.377a.695.695 0 0 0-.516.644l-1.657.662v.61l1.866-.745a.693.693 0 0 0 .921.044l2.129 1.195a.696.696 0 1 0 .264-.501l-2.133-1.197a.695.695 0 0 0-.314-.623l.396-2.466z" transform="translate(-9.175 -57.882)"/><path style="font-weight:400;font-size:5.95012px;line-height:1.05;font-family:&quot;Mona Sans&quot;;-inkscape-font-specification:&quot;Mona Sans, @wght=648,wdth=125.0&quot;;font-variation-settings:&quot;wdth&quot;125,&quot;wght&quot;648;text-align:center;letter-spacing:-.0503356px;text-anchor:middle;fill:#1f2937;stroke:none;stroke-width:6.14623;stroke-linecap:round;stroke-linejoin:round;stroke-miterlimit:10;paint-order:fill markers stroke" d="M32.416 103.064c-.425 0-.807.06-1.147.18a2.4 2.4 0 0 0-.865.504c-.237.22-.418.483-.543.791-.125.309-.188.65-.188 1.026 0 .38.06.725.181 1.033.125.304.304.568.536.791.237.22.523.39.859.51.335.116.711.174 1.127.174.37 0 .717-.049 1.039-.147.326-.099.61-.244.852-.436.241-.197.429-.438.563-.724a2.25 2.25 0 0 0 .208-.993v-.382h-2.73v.698h1.648c-.02.194-.078.369-.172.523-.12.192-.3.341-.536.449-.233.107-.519.16-.859.16-.246 0-.47-.035-.67-.107a1.559 1.559 0 0 1-.523-.322 1.428 1.428 0 0 1-.33-.523 2.024 2.024 0 0 1-.113-.704c0-.335.064-.626.194-.872s.318-.436.564-.57c.25-.134.551-.2.905-.2.25 0 .476.033.677.1.201.067.369.166.503.295.138.13.23.288.275.476h1.087a1.728 1.728 0 0 0-.403-.905c-.219-.26-.512-.46-.878-.604-.363-.147-.783-.221-1.261-.221zm3.148.06v.825h1.04v-.825h-1.04zm26.2 0v.825h1.038v-.825h-1.039zm11.738 0v.825h1.04v-.825h-1.04zm17.477 0v.825h1.04v-.825h-1.04zm4.477 0v4.889h1.04v-1.784c0-.21.042-.393.127-.55a.962.962 0 0 1 .369-.375c.16-.094.346-.14.556-.14.21 0 .38.04.51.12.13.08.22.2.275.362.058.156.087.35.087.583v1.784h1.04v-1.965c0-.313-.039-.576-.115-.79a1.272 1.272 0 0 0-.322-.524 1.187 1.187 0 0 0-.49-.282 2.124 2.124 0 0 0-.63-.087c-.29 0-.56.065-.811.195a1.2 1.2 0 0 0-.543.53h-.054v-1.966h-1.04zm-56.736.175-1.027.201v.932h-.683v.785h.683v1.938a.94.94 0 0 0 .115.482c.08.126.192.22.335.282.143.063.31.094.503.094h.972v-.885h-.556a.46.46 0 0 1-.262-.06c-.053-.045-.08-.126-.08-.242v-1.61h.898v-.784h-.898v-1.133zm26.199 0-1.027.201v.932h-.683v.785h.683v1.938a.94.94 0 0 0 .114.482c.08.126.193.22.336.282.143.063.31.094.503.094h.972v-.885h-.556a.461.461 0 0 1-.262-.06c-.053-.045-.08-.126-.08-.242v-1.61h.898v-.784h-.898v-1.133zm29.216 0-1.026.201v.932h-.684v.785h.684v1.938a.94.94 0 0 0 .114.482c.08.126.192.22.335.282.143.063.31.094.503.094h.972v-.885h-.556a.46.46 0 0 1-.262-.06c-.053-.045-.08-.126-.08-.242v-1.61h.898v-.784h-.898v-1.133zm-48.156 1.066c-.425 0-.796.076-1.113.228-.313.148-.56.362-.738.644-.174.277-.261.612-.261 1.006 0 .38.087.706.261.979.174.273.42.483.738.63a2.68 2.68 0 0 0 1.127.221c.366 0 .695-.049.986-.147.29-.099.527-.237.71-.416.183-.183.293-.393.329-.63h-.986c-.05.143-.165.261-.349.355-.183.09-.404.134-.664.134-.223 0-.418-.035-.583-.107a.923.923 0 0 1-.39-.322.973.973 0 0 1-.14-.503h3.118c.032-.433-.03-.805-.187-1.113a1.607 1.607 0 0 0-.711-.71c-.313-.166-.695-.249-1.147-.249zm9.188 0c-.425 0-.798.076-1.12.228-.318.148-.565.36-.744.637-.18.277-.268.608-.268.992 0 .296.048.557.147.785.103.228.248.423.436.584.192.16.418.283.677.368.264.08.554.121.872.121.433 0 .81-.073 1.127-.221.322-.147.57-.36.744-.637.179-.282.268-.615.268-1 0-.29-.051-.55-.154-.777a1.488 1.488 0 0 0-.436-.584 1.94 1.94 0 0 0-.677-.369 2.795 2.795 0 0 0-.872-.127zm4.3 0c-.376 0-.698.047-.967.14-.268.095-.474.227-.617.397a.89.89 0 0 0-.214.603c0 .175.03.322.093.443.063.12.164.22.302.301.139.08.318.145.537.195.22.049.483.087.791.114.237.022.42.05.55.08.134.027.228.07.282.128.058.053.087.136.087.248 0 .148-.074.257-.222.328-.143.072-.344.108-.603.108-.29 0-.514-.05-.67-.148a.541.541 0 0 1-.255-.422h-1.013c.022.366.194.66.516.878.322.215.785.322 1.389.322.639 0 1.11-.103 1.415-.308.308-.21.462-.485.462-.825 0-.192-.03-.353-.093-.483a.74.74 0 0 0-.295-.315 1.592 1.592 0 0 0-.537-.195 6.07 6.07 0 0 0-.792-.113 6.253 6.253 0 0 1-.543-.074.66.66 0 0 1-.301-.121.284.284 0 0 1-.095-.228c0-.148.072-.255.215-.322.148-.067.338-.1.57-.1.148 0 .277.02.389.06a.587.587 0 0 1 .268.168.466.466 0 0 1 .128.288h.98a1.051 1.051 0 0 0-.262-.624c-.148-.17-.35-.3-.604-.389a2.657 2.657 0 0 0-.892-.134zm8.71 0c-.425 0-.798.076-1.12.228-.318.148-.566.36-.745.637-.179.277-.268.608-.268.992 0 .296.05.557.148.785.103.228.248.423.435.584.193.16.419.283.678.368.264.08.554.121.872.121.433 0 .809-.073 1.126-.221.322-.147.57-.36.744-.637.18-.282.27-.615.27-1 0-.29-.053-.55-.155-.777a1.487 1.487 0 0 0-.436-.584 1.942 1.942 0 0 0-.677-.369 2.792 2.792 0 0 0-.872-.127zm8.963 0c-.425 0-.796.076-1.113.228a1.723 1.723 0 0 0-.738.644c-.174.277-.262.612-.262 1.006 0 .38.088.706.262.979.175.273.42.483.738.63a2.68 2.68 0 0 0 1.126.221c.367 0 .696-.049.986-.147.291-.099.528-.237.711-.416.183-.183.293-.393.329-.63h-.986c-.049.143-.165.261-.349.355-.183.09-.404.134-.664.134-.223 0-.418-.035-.583-.107a.923.923 0 0 1-.39-.322.974.974 0 0 1-.14-.503h3.118c.032-.433-.03-.805-.187-1.113a1.607 1.607 0 0 0-.711-.71c-.313-.166-.695-.249-1.147-.249zm4.205 0c-.375 0-.697.047-.965.14-.269.095-.474.227-.617.397a.89.89 0 0 0-.215.603c0 .175.031.322.094.443.062.12.163.22.301.301.14.08.318.145.537.195.219.049.483.087.792.114.236.022.42.05.55.08.134.027.227.07.281.128.058.053.087.136.087.248 0 .148-.074.257-.221.328-.143.072-.344.108-.603.108-.291 0-.515-.05-.671-.148a.541.541 0 0 1-.255-.422h-1.013c.023.366.195.66.516.878.322.215.785.322 1.389.322.64 0 1.11-.103 1.415-.308.308-.21.462-.485.462-.825 0-.192-.031-.353-.094-.483a.74.74 0 0 0-.295-.315 1.589 1.589 0 0 0-.536-.195 6.071 6.071 0 0 0-.791-.113 6.254 6.254 0 0 1-.543-.074.66.66 0 0 1-.302-.121.284.284 0 0 1-.094-.228c0-.148.071-.255.214-.322.148-.067.338-.1.57-.1.148 0 .278.02.39.06a.587.587 0 0 1 .268.168.467.467 0 0 1 .127.288h.979a1.051 1.051 0 0 0-.262-.624c-.147-.17-.348-.3-.603-.389a2.654 2.654 0 0 0-.892-.134zm-30.406.007c-.35 0-.64.06-.872.18-.228.121-.396.278-.503.47h-.04l-.034-.59h-.986v4.7h1.04v-1.73h.04c.076.14.181.26.315.363.134.098.288.176.463.235.179.053.369.08.57.08.353 0 .662-.076.925-.228a1.63 1.63 0 0 0 .624-.644c.148-.277.221-.606.221-.986 0-.286-.042-.543-.127-.77a1.584 1.584 0 0 0-.919-.946 1.85 1.85 0 0 0-.717-.134zm-7.478.007c-.241 0-.449.058-.623.174a.947.947 0 0 0-.37.462h-.04l-.04-.583h-.938v3.581h1.039v-1.764c.004-.219.047-.397.128-.536a.705.705 0 0 1 .328-.309c.138-.067.302-.1.49-.1.058 0 .113.002.167.007a.867.867 0 0 1 .161.027v-.94a4.356 4.356 0 0 0-.134-.013 1.797 1.797 0 0 0-.168-.006zm29.346 0c-.24 0-.449.058-.623.174a.947.947 0 0 0-.37.462h-.039l-.04-.583h-.94v3.581h1.04v-1.764c.004-.219.047-.397.128-.536a.706.706 0 0 1 .328-.309c.139-.067.302-.1.49-.1.058 0 .114.002.168.007a.86.86 0 0 1 .16.027v-.94a4.356 4.356 0 0 0-.134-.013 1.797 1.797 0 0 0-.168-.006zm-37.243.053v3.581h1.04v-3.581h-1.04zm26.2 0v3.581h1.038v-3.581h-1.039zm11.738 0v3.581h1.04v-3.581h-1.04zm11.217 0 1.053 3.581h1.227l.657-2.421h.04l.665 2.421h1.246l1.06-3.581h-.945l-.765 2.716h-.026l-.698-2.716h-1.026l-.704 2.696h-.04l-.758-2.696h-.986zm6.26 0v3.581h1.04v-3.581h-1.04zm-45.007.65c.22 0 .403.034.55.101a.772.772 0 0 1 .35.289.83.83 0 0 1 .124.395h-2.109a.86.86 0 0 1 .535-.684c.157-.067.34-.1.55-.1zm31.161 0c.22 0 .403.034.55.101a.772.772 0 0 1 .349.289.832.832 0 0 1 .124.395h-2.108a.86.86 0 0 1 .535-.684c.157-.067.34-.1.55-.1zm-26.51.081c.206 0 .387.042.543.127.157.08.278.2.363.356.09.156.134.348.134.576 0 .224-.045.416-.134.577a.94.94 0 0 1-.363.362 1.096 1.096 0 0 1-.543.128c-.17 0-.321-.025-.455-.074a1.078 1.078 0 0 1-.336-.214.914.914 0 0 1-.288-.691v-.195c0-.178.042-.34.127-.483a.912.912 0 0 1 .369-.342c.165-.085.36-.127.583-.127zm4.544 0c.175 0 .329.025.463.074a.92.92 0 0 1 .349.214.938.938 0 0 1 .214.336c.054.13.08.274.08.435 0 .215-.044.403-.134.564a.906.906 0 0 1-.375.369 1.293 1.293 0 0 1-.597.127c-.17 0-.324-.024-.463-.074a1.06 1.06 0 0 1-.342-.214.938.938 0 0 1-.214-.335 1.223 1.223 0 0 1-.074-.437c0-.214.042-.4.127-.556a.905.905 0 0 1 .376-.37c.165-.088.362-.133.59-.133zm13.01 0c.174 0 .328.025.462.074a.92.92 0 0 1 .35.214.937.937 0 0 1 .214.336c.053.13.08.274.08.435 0 .215-.044.403-.134.564a.906.906 0 0 1-.375.369 1.293 1.293 0 0 1-.597.127c-.17 0-.325-.024-.463-.074a1.058 1.058 0 0 1-.342-.214.939.939 0 0 1-.215-.335 1.224 1.224 0 0 1-.073-.437c0-.214.042-.4.127-.556a.905.905 0 0 1 .376-.37c.165-.088.362-.133.59-.133zm-59.002 5.585v4.889h.986l.033-.59h.033c.076.125.177.236.302.335.13.098.284.174.463.228.179.054.382.08.61.08.358 0 .668-.074.932-.221.264-.152.47-.367.617-.644.148-.277.222-.605.222-.985 0-.282-.043-.535-.128-.759a1.723 1.723 0 0 0-.362-.59 1.46 1.46 0 0 0-.557-.375 1.952 1.952 0 0 0-.724-.127c-.3 0-.572.06-.818.18a1.17 1.17 0 0 0-.53.497h-.04v-1.918h-1.04zm4.677 0v.825h1.04v-.825h-1.04zm6.278 0v.825h1.04v-.825h-1.04zm7.864 0c-.42 0-.742.082-.966.248-.219.165-.328.427-.328.785v.275h-.644v.784h.644v2.797h1.039v-2.797h.818v-.784h-.818v-.242c0-.13.034-.225.1-.288.072-.063.177-.094.316-.094h.462v-.684h-.623zm22.778 0v.825h1.039v-.825h-1.04zm21.584 0v.825h1.04v-.825h-1.04zm6.304 0v.825h1.04v-.825h-1.04zm33.991 0v.825h1.04v-.825h-1.04zm6.351 0v4.889h1.04v-4.89h-1.04zm-69.552.174-1.026.201v.933h-.684v.784h.684v1.939a.94.94 0 0 0 .115.482.74.74 0 0 0 .335.282c.143.062.31.094.503.094h.972v-.885h-.557a.46.46 0 0 1-.261-.06c-.054-.046-.08-.126-.08-.242v-1.61h.898v-.784h-.899v-1.134zm14.325 0-1.025.201v.933h-.685v.784h.685v1.939a.94.94 0 0 0 .113.482c.08.125.193.22.336.282.143.062.31.094.503.094h.972v-.885h-.556a.461.461 0 0 1-.262-.06c-.054-.046-.08-.126-.08-.242v-1.61h.898v-.784h-.899v-1.134zm40.407 0-1.026.201v.933h-.684v.784h.684v1.939a.94.94 0 0 0 .114.482c.08.125.192.22.335.282.143.062.31.094.503.094h.972v-.885h-.556a.461.461 0 0 1-.262-.06c-.053-.046-.08-.126-.08-.242v-1.61h.898v-.784h-.898v-1.134zM17.51 111.99c-.425 0-.798.075-1.12.227-.318.148-.566.36-.744.638-.18.277-.269.608-.269.992 0 .295.05.557.148.785.103.228.248.422.436.583.192.161.418.284.677.37.264.08.554.12.872.12.433 0 .81-.074 1.127-.222.322-.147.57-.36.744-.637.179-.281.268-.614.268-.999 0-.29-.051-.55-.154-.778a1.488 1.488 0 0 0-.436-.583 1.94 1.94 0 0 0-.678-.369 2.791 2.791 0 0 0-.871-.127zm6.74 0a1.76 1.76 0 0 0-.798.187c-.25.125-.436.302-.557.53h-.053l-.034-.65h-1.006v3.58h1.04v-1.783c0-.21.042-.396.127-.557a.962.962 0 0 1 .37-.375c.16-.094.346-.141.556-.141.21 0 .38.042.51.127.129.08.22.202.274.363.058.156.088.35.088.583v1.784h1.039v-1.965c0-.313-.038-.577-.114-.792a1.187 1.187 0 0 0-.811-.805 2.127 2.127 0 0 0-.631-.086zm6.518 0c-.425 0-.798.075-1.12.227-.317.148-.565.36-.744.638-.18.277-.268.608-.268.992 0 .295.049.557.147.785.103.228.248.422.436.583.192.161.418.284.677.37.264.08.555.12.872.12.434 0 .81-.074 1.127-.222.322-.147.57-.36.744-.637.18-.281.269-.614.269-.999 0-.29-.052-.55-.155-.778a1.487 1.487 0 0 0-.436-.583 1.94 1.94 0 0 0-.677-.369 2.791 2.791 0 0 0-.872-.127zm7.7 0c-.291 0-.549.06-.772.18a1.21 1.21 0 0 0-.51.517h-.053l-.04-.63h-1v3.58h1.04v-1.857c0-.197.036-.369.107-.516a.856.856 0 0 1 .322-.356.993.993 0 0 1 .516-.127c.193 0 .347.042.463.127.12.08.206.197.255.35.054.151.08.334.08.549v1.83h1.033v-1.857c0-.201.038-.375.114-.523a.914.914 0 0 1 .329-.349.968.968 0 0 1 .503-.127c.206 0 .366.042.483.127a.62.62 0 0 1 .24.35c.05.147.075.32.075.522v1.858h1.039v-1.992c0-.38-.058-.69-.174-.932a1.18 1.18 0 0 0-.51-.544c-.219-.12-.483-.18-.791-.18-.313 0-.59.064-.832.194-.241.13-.431.335-.57.617h-.06a1.164 1.164 0 0 0-.483-.604 1.497 1.497 0 0 0-.805-.207zm15.954 0c-.425 0-.798.075-1.12.227-.317.148-.565.36-.744.638-.174.272-.262.599-.262.979 0 .281.047.538.141.77.099.229.237.426.416.591.178.165.395.29.65.376.26.085.55.127.872.127.362 0 .693-.056.993-.168a1.8 1.8 0 0 0 .737-.483c.192-.21.3-.456.322-.737h-1.04a.657.657 0 0 1-.187.315.974.974 0 0 1-.342.208 1.416 1.416 0 0 1-.45.067c-.218 0-.408-.04-.57-.121a.873.873 0 0 1-.375-.355 1.236 1.236 0 0 1-.127-.583c0-.21.042-.394.127-.55a.916.916 0 0 1 .369-.37c.165-.089.36-.134.583-.134.17 0 .32.023.45.068.134.044.245.109.335.194.09.085.15.188.181.308h1.026a1.193 1.193 0 0 0-.282-.71c-.17-.206-.4-.367-.69-.483a2.715 2.715 0 0 0-1.013-.174zm4.182 0c-.376 0-.698.047-.966.14-.268.094-.474.226-.617.396a.89.89 0 0 0-.215.603c0 .175.032.323.094.443.063.121.164.222.302.302.139.08.318.145.537.194.219.05.482.088.79.115.238.022.421.048.55.08.135.027.229.07.282.127.058.054.088.137.088.248 0 .148-.074.258-.222.33-.143.07-.344.107-.603.107-.29 0-.514-.05-.67-.148a.541.541 0 0 1-.256-.423h-1.013c.023.367.195.66.517.879.322.214.785.322 1.388.322.64 0 1.111-.103 1.415-.308.309-.21.463-.486.463-.826 0-.192-.031-.353-.094-.482a.74.74 0 0 0-.295-.316 1.59 1.59 0 0 0-.536-.194 6.072 6.072 0 0 0-.792-.114 6.254 6.254 0 0 1-.543-.074.66.66 0 0 1-.302-.12.284.284 0 0 1-.093-.228c0-.148.07-.255.214-.322.148-.067.338-.101.57-.101.148 0 .277.02.39.06a.587.587 0 0 1 .267.168.466.466 0 0 1 .127.288h.98a1.051 1.051 0 0 0-.262-.624c-.147-.17-.349-.299-.603-.388a2.656 2.656 0 0 0-.892-.134zm17.873 0c-.282 0-.549.062-.799.187s-.436.302-.556.53h-.054l-.033-.65H74.03v3.58h1.04v-1.783c0-.21.042-.396.126-.557a.962.962 0 0 1 .37-.375c.16-.094.346-.141.556-.141.21 0 .38.042.51.127.13.08.22.202.274.363.059.156.088.35.088.583v1.784h1.039v-1.965c0-.313-.038-.577-.114-.792a1.27 1.27 0 0 0-.322-.523 1.185 1.185 0 0 0-.489-.281 2.127 2.127 0 0 0-.63-.087zm6.304 0a1.76 1.76 0 0 0-.798.187c-.25.125-.436.302-.557.53h-.054l-.033-.65h-1.006v3.58h1.04v-1.783c0-.21.042-.396.126-.557a.962.962 0 0 1 .37-.375c.16-.094.346-.141.556-.141.21 0 .38.042.51.127.13.08.22.202.274.363.059.156.088.35.088.583v1.784h1.04v-1.965c0-.313-.039-.577-.115-.792a1.27 1.27 0 0 0-.322-.523 1.185 1.185 0 0 0-.489-.281 2.127 2.127 0 0 0-.63-.087zm3.67 0c-.335 0-.63.07-.885.214-.25.139-.447.338-.59.597a1.83 1.83 0 0 0-.214.898c0 .26.038.495.114.705a1.492 1.492 0 0 0 .858.885c.206.08.436.12.69.12.282 0 .542-.055.779-.167.241-.112.416-.269.523-.47h.047v.59a.714.714 0 0 1-.128.443.687.687 0 0 1-.355.248c-.152.054-.33.081-.537.081-.16 0-.303-.018-.428-.054a.666.666 0 0 1-.302-.154.46.46 0 0 1-.148-.242h-.986c.023.228.108.43.255.604.148.174.356.306.624.396.268.094.592.14.972.14.349 0 .65-.035.905-.107.26-.067.474-.17.644-.308.175-.134.304-.3.39-.496.084-.197.126-.423.126-.678v-3.178h-.978l-.04.563h-.054a1.117 1.117 0 0 0-.503-.456 1.664 1.664 0 0 0-.778-.174zm6.748 0c-.291 0-.548.06-.772.18a1.21 1.21 0 0 0-.509.517h-.054l-.04-.63h-1v3.58h1.04v-1.857c0-.197.036-.369.108-.516a.855.855 0 0 1 .321-.356.995.995 0 0 1 .517-.127c.192 0 .346.042.462.127a.64.64 0 0 1 .255.35c.054.151.08.334.08.549v1.83h1.033v-1.857c0-.201.038-.375.114-.523a.914.914 0 0 1 .33-.349.966.966 0 0 1 .502-.127c.206 0 .367.042.483.127a.62.62 0 0 1 .241.35c.05.147.074.32.074.522v1.858h1.04v-1.992c0-.38-.058-.69-.175-.932a1.182 1.182 0 0 0-.51-.544c-.219-.12-.482-.18-.79-.18-.314 0-.59.064-.832.194s-.432.335-.57.617h-.06a1.164 1.164 0 0 0-.483-.604 1.498 1.498 0 0 0-.805-.207zm14.22 0c-.425 0-.796.075-1.113.227-.313.148-.56.363-.738.644-.175.277-.262.613-.262 1.006 0 .38.087.706.262.98.174.272.42.482.738.63a2.68 2.68 0 0 0 1.126.22c.367 0 .696-.048.986-.146.29-.099.528-.238.71-.416.184-.184.294-.394.33-.63h-.987c-.049.142-.165.26-.348.355-.183.089-.405.134-.664.134-.223 0-.418-.036-.583-.108a.923.923 0 0 1-.39-.321.976.976 0 0 1-.14-.503h3.118c.031-.434-.03-.805-.187-1.113a1.608 1.608 0 0 0-.711-.711c-.313-.166-.696-.248-1.147-.248zm-62.537.006c-.35 0-.658.076-.926.228-.264.148-.47.36-.617.637-.148.277-.221.606-.221.986 0 .282.04.537.12.765.085.228.206.424.362.59.157.16.342.286.557.375.22.085.46.128.725.128.304 0 .576-.06.818-.181.245-.126.424-.29.536-.496h.04v.61h1.04v-3.581h-.986l-.034.59h-.04a1.053 1.053 0 0 0-.295-.336 1.363 1.363 0 0 0-.456-.227 2.02 2.02 0 0 0-.623-.088zm24.412 0c-.35 0-.658.076-.926.228-.264.148-.47.36-.617.637-.148.277-.221.606-.221.986 0 .282.04.537.12.765.086.228.206.424.363.59.156.16.342.286.557.375.219.085.46.128.724.128.304 0 .576-.06.818-.181.245-.126.424-.29.536-.496h.04v.61h1.04v-3.581h-.986l-.034.59h-.04a1.053 1.053 0 0 0-.295-.336 1.363 1.363 0 0 0-.456-.227 2.02 2.02 0 0 0-.623-.088zm30.319 0c-.35 0-.657.076-.925.228-.264.148-.47.36-.617.637-.148.277-.222.606-.222.986 0 .282.04.537.12.765.086.228.207.424.363.59.157.16.342.286.557.375.219.085.46.128.724.128.304 0 .577-.06.818-.181.246-.126.425-.29.537-.496h.04v.61h1.04v-3.581h-.987l-.034.59h-.04a1.053 1.053 0 0 0-.294-.336 1.366 1.366 0 0 0-.457-.227 2.02 2.02 0 0 0-.623-.088zm16.327 0c-.349 0-.658.076-.926.228-.264.148-.47.36-.617.637-.147.277-.221.606-.221.986 0 .282.04.537.121.765.085.228.205.424.362.59.156.16.342.286.556.375.22.085.461.128.725.128.304 0 .576-.06.818-.181.246-.126.424-.29.536-.496h.04v.61h1.04v-3.581h-.986l-.033.59h-.04a1.053 1.053 0 0 0-.296-.336 1.363 1.363 0 0 0-.456-.227 2.02 2.02 0 0 0-.623-.088zm-80.541.007c-.241 0-.45.058-.624.174a.947.947 0 0 0-.368.463h-.04l-.04-.583h-.94v3.58h1.04v-1.763c.004-.219.047-.398.127-.537a.705.705 0 0 1 .329-.308c.138-.067.301-.1.49-.1.057 0 .113.002.167.006a.86.86 0 0 1 .16.027v-.938a4.306 4.306 0 0 0-.133-.014 1.791 1.791 0 0 0-.168-.007zm31.726 0c-.242 0-.45.058-.624.174a.948.948 0 0 0-.37.463h-.04l-.04-.583h-.938v3.58h1.04v-1.763c.004-.219.046-.398.127-.537a.704.704 0 0 1 .328-.308c.138-.067.302-.1.49-.1.058 0 .114.002.167.006a.866.866 0 0 1 .161.027v-.938a4.36 4.36 0 0 0-.134-.014 1.78 1.78 0 0 0-.167-.007zm44.83 0c-.24 0-.448.058-.623.174a.948.948 0 0 0-.369.463h-.04l-.04-.583h-.94v3.58h1.04v-1.763c.005-.219.047-.398.128-.537a.705.705 0 0 1 .328-.308c.139-.067.302-.1.49-.1.058 0 .114.002.168.006a.86.86 0 0 1 .16.027v-.938a4.296 4.296 0 0 0-.134-.014 1.791 1.791 0 0 0-.167-.007zm-98.104.054v3.58h1.04v-3.58h-1.04zm6.278 0v3.58h1.04v-3.58h-1.04zm30.642 0v3.58h1.039v-3.58h-1.04zm21.584 0v3.58h1.04v-3.58h-1.04zm6.304 0v3.58h1.04v-3.58h-1.04zm33.991 0v3.58h1.04v-3.58h-1.04zm-5.277.65h.04c.218 0 .401.033.549.1a.772.772 0 0 1 .349.289.835.835 0 0 1 .124.396h-2.108a.86.86 0 0 1 .535-.684c.147-.063.317-.097.51-.1zm-20.616.034h.037c.2 0 .373.038.516.114a.834.834 0 0 1 .463.77v.175c0 .166-.04.313-.12.443a.868.868 0 0 1-.343.301 1.204 1.204 0 0 1-.53.108c-.192 0-.362-.038-.51-.114a.808.808 0 0 1-.341-.328 1.025 1.025 0 0 1-.12-.51c0-.197.04-.365.12-.503a.852.852 0 0 1 .342-.336c.138-.075.3-.115.486-.12zm-75.464.04c.156 0 .297.024.422.074a.81.81 0 0 1 .329.207c.094.09.165.202.214.336.05.13.074.277.074.443 0 .228-.044.42-.134.576a.884.884 0 0 1-.362.363 1.096 1.096 0 0 1-.543.127c-.224 0-.418-.043-.584-.128a.958.958 0 0 1-.368-.348.952.952 0 0 1-.128-.483v-.188c0-.183.043-.349.128-.496a.898.898 0 0 1 .368-.349c.166-.09.36-.134.584-.134zm6.217.006c.174 0 .328.025.463.074a.92.92 0 0 1 .348.215.938.938 0 0 1 .215.335c.054.13.08.275.08.436 0 .215-.044.403-.134.564a.906.906 0 0 1-.376.369 1.293 1.293 0 0 1-.596.127c-.17 0-.324-.025-.463-.074a1.06 1.06 0 0 1-.342-.215.939.939 0 0 1-.214-.335 1.22 1.22 0 0 1-.074-.436c0-.214.042-.4.127-.556a.905.905 0 0 1 .376-.37c.165-.089.362-.134.59-.134zm13.258 0c.175 0 .329.025.463.074a.92.92 0 0 1 .349.215.94.94 0 0 1 .214.335c.054.13.08.275.08.436 0 .215-.044.403-.133.564a.906.906 0 0 1-.376.369 1.293 1.293 0 0 1-.597.127c-.17 0-.324-.025-.462-.074a1.06 1.06 0 0 1-.342-.215.938.938 0 0 1-.215-.335 1.22 1.22 0 0 1-.074-.436c0-.214.042-.4.127-.556a.905.905 0 0 1 .376-.37c.165-.089.362-.134.59-.134zm14.429 0c.223 0 .416.043.576.128a.857.857 0 0 1 .369.342.927.927 0 0 1 .128.483v.194a.965.965 0 0 1-.128.49.894.894 0 0 1-.362.356c-.16.089-.355.133-.583.133-.21 0-.394-.042-.55-.127a.895.895 0 0 1-.356-.362 1.22 1.22 0 0 1-.127-.577c0-.228.042-.42.127-.576a.893.893 0 0 1 .362-.356c.157-.085.338-.128.544-.128zm24.412 0c.223 0 .415.043.576.128a.859.859 0 0 1 .37.342.927.927 0 0 1 .127.483v.194a.965.965 0 0 1-.128.49.895.895 0 0 1-.362.356c-.16.089-.355.133-.583.133-.21 0-.394-.042-.55-.127a.895.895 0 0 1-.356-.362 1.22 1.22 0 0 1-.127-.577c0-.228.042-.42.127-.576a.894.894 0 0 1 .363-.356 1.12 1.12 0 0 1 .543-.128zm30.319 0c.223 0 .416.043.577.128a.859.859 0 0 1 .368.342.927.927 0 0 1 .128.483v.194a.965.965 0 0 1-.128.49.896.896 0 0 1-.362.356c-.16.089-.355.133-.583.133-.21 0-.394-.042-.55-.127a.895.895 0 0 1-.356-.362 1.22 1.22 0 0 1-.127-.577c0-.228.042-.42.127-.576a.894.894 0 0 1 .363-.356 1.12 1.12 0 0 1 .543-.128zm16.327 0c.224 0 .416.043.577.128a.859.859 0 0 1 .369.342.927.927 0 0 1 .127.483v.194a.964.964 0 0 1-.127.49.895.895 0 0 1-.363.356c-.16.089-.355.133-.583.133-.21 0-.393-.042-.55-.127a.895.895 0 0 1-.355-.362 1.22 1.22 0 0 1-.128-.577c0-.228.043-.42.128-.576a.894.894 0 0 1 .362-.356 1.12 1.12 0 0 1 .543-.128z" transform="translate(-9.175 -57.882)"/><path style="color:#000;fill:url(#b);fill-opacity:1;stroke-width:.149456;stroke-linecap:round;-inkscape-stroke:none;paint-order:stroke fill markers" d="M54.977 57.882c-.314 0-.608.2-.734.486l-2.172 4.387c-1.638.237-3.279.468-4.917.71a.798.798 0 0 0-.654.794c-.003.263.15.496.343.662l3.427 3.352c-.28 1.633-.568 3.266-.844 4.9a.8.8 0 0 0 .566.87c.23.075.472.022.681-.105 1.43-.748 2.858-1.498 4.287-2.246 1.475.776 2.946 1.56 4.423 2.331a.8.8 0 0 0 1.047-.41c.14-.293.017-.612-.022-.913l-.75-4.414c1.187-1.156 2.38-2.308 3.563-3.467a.798.798 0 0 0 .06-1.026c-.154-.218-.42-.315-.678-.335l-4.73-.694c-.732-1.486-1.457-2.974-2.194-4.457a.805.805 0 0 0-.702-.425zm-.002 2.596.069.14c.533 1.08 1.06 2.166 1.598 3.245.131.256.406.41.689.43l3.604.53c-.9.879-1.807 1.752-2.704 2.633-.203.205-.262.515-.195.79l.61 3.59c-1.114-.585-2.225-1.178-3.34-1.76-.262-.132-.578-.085-.82.066-1.072.56-2.143 1.123-3.214 1.684.213-1.24.433-2.48.64-3.721.044-.285-.09-.57-.305-.752l-2.604-2.547c1.244-.18 2.49-.355 3.733-.54.284-.046.514-.26.622-.521l1.617-3.267zm-13.76 4.196-.001.003c-.883 0-1.625.089-2.258.308s-1.19.605-1.486 1.178l-.008.014-.006.014c-.204.436-.347.851-.414 1.258v.029l-.008.028c-.03.335-.043.787-.043 1.393v18.427c0 2.83.347 4.952 1.194 6.438.77 1.371 2.354 2.104 4.472 2.378h.007c1.294.159 2.363.229 3.237.187.873-.042 1.562-.158 2.13-.55v-.008c.492-.345.743-.878.899-1.48.156-.6.222-1.308.222-2.164 0-.796-.062-1.46-.222-2.029-.16-.566-.43-1.075-.914-1.394-.301-.209-.594-.368-.958-.429-.362-.092-.7-.1-1.236-.1-.172 0-.258-.014-.3-.02-.02-.135-.13-.612-.13-1.295V68.933c0-.59-.018-1.038-.077-1.42 0-.007-.006-.011-.007-.015-.04-.455-.196-.901-.436-1.35l-.006-.009c-.308-.553-.845-.938-1.464-1.158-.62-.22-1.34-.307-2.187-.307zm-16.672.775c-4.114 0-7.758 1.476-10.781 4.365-3.039 2.876-4.587 6.558-4.587 10.853 0 4.292 1.514 8.043 4.486 11.097 2.968 3.022 6.561 4.58 10.61 4.58 4.478 0 7.983-1.175 10.34-3.615.826-.856 1.314-1.867 1.314-2.93v-8.517c0-1.017-.121-1.837-.471-2.515-.252-.538-.723-.936-1.28-1.172-.56-.238-1.21-.35-1.972-.379H25.357c-.855 0-1.596.123-2.222.436-.528.264-.896.774-1.072 1.336l-.007.022-.007.022c-.13.517-.179 1.127-.179 1.865 0 .712.05 1.309.18 1.822v.016c.15.565.524 1.066 1.02 1.372.582.358 1.26.429 2.13.429h2.243v2.75c-.913.31-1.875.544-3.014.544-1.744 0-3.262-.657-4.687-2.079l-.007-.008c-1.41-1.437-2.087-3.09-2.087-5.117 0-2.061.657-3.595 2.015-4.815h.008c1.394-1.276 2.91-1.88 4.68-1.88 1.365 0 2.474.317 3.414.943l.008.008h.006c1.131.727 1.926 1.179 2.801 1.179 1.276 0 2.339-.933 3.408-2.386v-.008c.65-.905 1.044-1.765 1.044-2.644 0-.938-.545-1.78-1.372-2.393-2.827-2.1-5.892-3.18-9.117-3.18zm16.67.86c.728 0 1.284.085 1.645.213.36.129.505.264.585.408.167.315.237.565.25.721l.008.029v.035c.037.227.071.653.071 1.223v17.927c0 .974-.034 1.572.343 2.2l.014.014.007.014c.386.58 1.048.715 1.686.715.516 0 .883.05.858.043l.057.014.05.008c-.028-.005.107.031.307.171l.014.008.014.008c.026.017.138.132.236.479.097.346.164.891.164 1.593 0 .77-.063 1.365-.164 1.758-.1.386-.23.53-.257.55h-.007c-.107.073-.549.23-1.272.264-.727.036-1.723-.02-2.959-.171v.008c-1.857-.242-2.847-.827-3.265-1.572-.596-1.044-.978-2.947-.978-5.638V68.905c0-.562.015-.963.035-1.2.036-.204.12-.477.264-.794l.007-.008c.065-.122.19-.252.557-.38.373-.129.96-.214 1.73-.214zm-16.67.766c2.867 0 5.552.933 8.145 2.859.567.42.722.733.722 1.086 0 .36-.205.945-.743 1.693-.939 1.271-1.71 1.714-2.086 1.714-.104 0-.883-.251-1.908-.907l-.015-.008c-1.225-.813-2.685-1.214-4.307-1.214-2.151 0-4.124.793-5.774 2.3-1.687 1.516-2.55 3.595-2.55 6.024 0 2.409.875 4.555 2.558 6.266 1.67 1.67 3.668 2.565 5.844 2.565 1.508 0 2.891-.248 4.137-.757l.508-.207v-5.58H25.2c-.73 0-1.188-.14-1.278-.194a.573.573 0 0 1-.293-.392v-.008c-.078-.313-.128-.796-.128-1.422 0-.648.052-1.134.128-1.444.076-.226.142-.3.228-.342.303-.152.808-.265 1.5-.265h6.782c.633.023 1.108.119 1.4.243.292.123.39.243.45.372l.007.014.007.022c.157.298.294.904.294 1.786v8.517c0 .589-.232 1.16-.85 1.8-1.98 2.051-4.98 3.116-9.175 3.116-3.642 0-6.735-1.328-9.445-4.088-2.706-2.78-4.03-6.043-4.03-9.96 0-3.912 1.343-7.077 4.086-9.674 2.758-2.634 5.928-3.915 9.66-3.915zm57.054.269c-.878 0-1.609.085-2.235.286-.627.2-1.183.547-1.493 1.1v.008l-.008.008c-.21.392-.357.772-.428 1.165l-.008.037v.036c-.031.335-.043.788-.043 1.393v3.045l-2.358-.029h-.007c-.83 0-1.727.02-2.63.036v-2.858c0-.942-.049-1.641-.228-2.216l-.008-.014-.008-.014c-.242-.687-.785-1.233-1.465-1.543-.679-.31-1.485-.436-2.436-.436-.879 0-1.614.083-2.237.286-.617.2-1.155.558-1.45 1.115-.232.383-.413.763-.486 1.165v.036l-.008.035c-.03.336-.043.788-.043 1.393v3.066c-2.34-.092-3.026 1.1-3.334 2.11-.17.618-.22 1.407-.22 2.495 0 1.151.163 2.07.728 2.757l.008.014.007.009c.512.58 1.247.935 2.009.935.28 0 .537-.039.807-.057v4.859c0 2.781.79 5.036 2.43 6.559 1.622 1.506 3.872 2.229 6.594 2.229.58 0 1.017-.012 1.35-.043h.029l.028-.008a4.89 4.89 0 0 0 1.257-.414l.015-.008h.007c.58-.29.985-.834 1.215-1.465.229-.63.321-1.37.321-2.244 0-.755-.079-1.398-.271-1.957-.192-.56-.53-1.057-1.036-1.343a3.33 3.33 0 0 0-1.344-.443c-.392-.063-.863-.093-1.493-.093-.436 0-.534-.083-.571-.129-.053-.088-.165-.429-.165-1.029v-4.494l2.694.114h.014c.62 0 1.462-.06 2.287-.114v4.88c0 2.782.79 5.036 2.43 6.56 1.621 1.506 3.864 2.229 6.587 2.229.58 0 1.017-.012 1.35-.044h.036l.028-.008c.407-.068.822-.21 1.257-.414l.008-.008h.008c.58-.29.985-.833 1.214-1.464.23-.63.322-1.37.322-2.243 0-.757-.077-1.41-.279-1.973-.2-.56-.559-1.048-1.07-1.329a3.085 3.085 0 0 0-1.302-.442c-.391-.062-.865-.094-1.493-.094-.44 0-.536-.084-.571-.13-.053-.088-.164-.429-.164-1.028v-4.48l1.678.1h.028c.606 0 1.051-.006 1.387-.036l.028-.008h.036c.407-.068.815-.211 1.25-.414l.014-.008.022-.008c.57-.296.951-.846 1.171-1.473.22-.628.308-1.365.308-2.236 0-.883-.087-1.62-.308-2.25-.218-.623-.605-1.167-1.178-1.45-.423-.237-.853-.398-1.3-.437h-.008c-.37-.06-.803-.086-1.387-.086-.409 0-1.106.06-1.743.107v-2.93c0-.937-.055-1.637-.272-2.228 0-.005-.005-.005-.007-.008-.226-.688-.757-1.24-1.43-1.55-.675-.313-1.484-.437-2.434-.437zm0 1.635c.804 0 1.394.12 1.75.286.357.165.494.322.58.585v.014l.007.02c.086.23.186.83.186 1.686v4.688l.886-.086c1.123-.102 1.96-.15 2.48-.15.57 0 .985.03 1.171.064l.036.008.042.008c.158.012.385.079.672.243l.022.014.028.014c.114.055.237.165.365.529s.22.945.22 1.714c0 .755-.092 1.327-.22 1.694-.126.36-.254.49-.38.558l-.006.008c-.317.145-.59.23-.794.265-.227.018-.616.034-1.143.036l-3.38-.207v6.208c0 .778.08 1.414.444 1.958l.013.022.015.014c.431.576 1.15.794 1.885.794.597 0 1.042.026 1.266.064l.028.008h.036c.191.014.398.084.643.235l.021.008.023.014c.102.056.206.156.314.457.108.302.185.786.185 1.423 0 .752-.089 1.323-.22 1.686-.133.362-.273.493-.416.564-.321.148-.595.23-.8.265-.239.02-.625.036-1.157.036-2.44 0-4.22-.616-5.488-1.793-1.251-1.162-1.908-2.883-1.908-5.366V80.95l-.879.071c-1.21.101-2.205.157-2.993.158l-4.373-.194v6.196c0 .777.087 1.413.45 1.957l.008.022.014.014c.432.576 1.158.794 1.894.794.596 0 1.033.026 1.257.064l.035.008h.036c.193.014.428.09.708.25.087.049.195.152.3.457.105.305.179.79.179 1.429 0 .752-.09 1.324-.222 1.687-.132.362-.27.493-.414.564a3.343 3.343 0 0 1-.794.264c-.237.02-.625.037-1.164.037-2.44 0-4.219-.616-5.487-1.794-1.251-1.161-1.908-2.882-1.908-5.366v-6.673l-.936.135c-.473.071-.97.108-1.5.108-.317 0-.516-.087-.772-.371-.156-.196-.357-.758-.357-1.716 0-1.025.077-1.753.164-2.064l.008-.008v-.008c.103-.393.234-.58.286-.63.253-.2.549-.313 1.007-.314l2.1.265v-4.91c0-.554.017-.947.036-1.186.03-.151.107-.367.272-.635l.014-.022.014-.028c.042-.08.15-.209.521-.329.371-.12.964-.2 1.737-.2l-.004-.003c.803 0 1.398.119 1.764.286.362.165.499.33.593.593.079.255.158.857.158 1.714v4.51l.828-.014c1.206-.026 2.347-.044 3.423-.044l3.994.05V71.38c0-.555.016-.947.036-1.186.033-.172.106-.396.25-.665l.008-.008c.053-.092.183-.222.557-.342.38-.122.97-.2 1.744-.2zm22.618 5.152c-.794 0-1.613.277-2.487.756a8.456 8.456 0 0 0-1.408.944c-.046-.08-.033-.18-.086-.257-.66-1-1.926-1.251-3.572-1.251-.883 0-1.624.081-2.258.3-.633.22-1.188.606-1.486 1.179v.016c-.208.417-.36.825-.429 1.236v.028l-.008.029c-.03.335-.043.788-.043 1.393v14.74l.008.029c.061.888.361 1.688.971 2.222l.014.008.008.014c.778.63 1.851.836 3.186.836.87 0 1.602-.084 2.23-.293.628-.21 1.177-.572 1.493-1.121l.008-.015.008-.008c.237-.442.394-.86.437-1.3.06-.386.086-.843.086-1.443v-8.13c0-.46.15-.78.585-1.144.5-.395.962-.564 1.466-.564.616 0 1.05.103 1.3.228h.008l.014.008a3.984 3.984 0 0 0 1.7.385c1.216 0 2.276-.756 2.859-1.921.53-1.063.822-2.085.822-3.072 0-.923-.188-1.716-.715-2.301a3.3 3.3 0 0 0-1.558-1.072 8.506 8.506 0 0 0-1.45-.328c-.486-.091-1.048-.13-1.701-.13zm-45.097.567c-.412.005-.79.404-.838.82-.026.553-.073 1.135-.401 1.605-.716 1.06-1.848 1.724-2.906 2.396-1.105-.708-2.322-1.4-3.004-2.566-.28-.457-.254-1.002-.32-1.511-.098-.402-.448-.79-.894-.738-.621.09-.857.818-.77 1.366.081 1.648 1.068 3.126 2.36 4.1.226.184.465.35.697.526-1.157.777-2.275 1.751-2.765 3.096-.613 1.555-.255 3.398.81 4.67.531.668 1.24 1.196 1.955 1.695-.97.687-1.908 1.488-2.456 2.535-.433.829-.702 1.793-.565 2.73.098.517.72.952 1.204.612.442-.277.475-.83.485-1.298.115-1.072.997-1.83 1.805-2.44.467-.348.965-.65 1.458-.961 1.106.706 2.322 1.4 3.005 2.566.278.458.253 1.002.32 1.511.092.522.715.961 1.203.625.575-.383.497-1.156.404-1.75-.172-1.08-.714-2.067-1.453-2.836-.464-.49-1.004-.898-1.548-1.294.658-.46 1.32-.953 1.813-1.527 1.112-1.225 1.563-3.04 1.027-4.622-.438-1.411-1.567-2.458-2.761-3.256-.15-.146.34-.296.444-.444 1.261-.922 2.296-2.272 2.494-3.857.09-.572.116-1.321-.457-1.656a.65.65 0 0 0-.346-.097zm45.097 1.055c.585 0 1.06.043 1.4.107h.021l.022.008c.353.044.763.136 1.215.278.352.111.596.278.808.543l.021.022.022.021c.125.135.286.513.286 1.23 0 .664-.201 1.444-.65 2.343-.399.797-.758 1.022-1.4 1.022a2.3 2.3 0 0 1-.994-.222c-.577-.288-1.252-.393-2.03-.393-.887 0-1.742.326-2.478.908l-.008.008-.008.008c-.74.611-1.186 1.48-1.186 2.408v8.132c0 .57-.026.994-.064 1.221l-.008.029v.028c-.01.118-.084.365-.243.672h-.008c-.071.12-.217.267-.593.393-.378.126-.958.207-1.715.207-1.136 0-1.834-.232-2.143-.479-.21-.19-.373-.489-.414-1.086V78.507c0-.562.016-.963.035-1.2a2.79 2.79 0 0 1 .264-.75c.064-.124.191-.257.565-.387.373-.129.96-.222 1.729-.222 1.444 0 2.106.344 2.222.522l.008.008.008.014c.207.302.175.572.278.815v2.536l1.48-2.065c.095-.135.254-.331.456-.557l.008-.009c.127-.126.624-.478 1.393-.9.726-.397 1.308-.556 1.7-.556zm-52.002.018c.039.378.07.681.196.897h5.132c.12-.245.172-.551.2-.897zm.766 1.636a7.35 7.35 0 0 0 1.1.897h1.79c.403-.278.78-.57 1.101-.897zm1.994 4.481.118.074c1.067.674 2.246 1.323 2.919 2.433.456.836.278 1.946-.4 2.613-.736.825-1.71 1.377-2.637 1.957-1.094-.695-2.31-1.344-3.018-2.472-.479-.84-.307-1.973.381-2.649.737-.824 1.71-1.376 2.637-1.956zm-.956 1.23c-.41.277-.793.567-1.121.897h4.15a7.147 7.147 0 0 0-1.121-.897zm-1.74 1.86a1.796 1.796 0 0 0-.009.897h5.403c.077-.295.082-.61.007-.897zm.623 1.86c.324.328.71.618 1.123.896h1.908c.41-.276.793-.566 1.121-.896zm1.015 5.815-.087.063a7.16 7.16 0 0 0-.953.834h4.192c-.301-.329-.66-.62-1.05-.897zm-1.59 1.75a1.65 1.65 0 0 0-.093.386c-.004.154-.01.326-.036.51h5.562c-.04-.357-.06-.66-.129-.896z" transform="translate(-9.175 -57.882)"/><path d="m115.509 67.344-.447 2.778c.214.14.356.382.356.657l-.002.045 2.404 1.348a.785.785 0 0 1 1.27.616.785.785 0 1 1-1.57 0c0-.017 0-.034.002-.051l-2.399-1.346a.782.782 0 0 1-1.038-.05l-2.102.839v1.539c0 .926.758 1.683 1.684 1.683h4.69c.927 0 1.685-.757 1.685-1.683v-4.691c0-.927-.758-1.684-1.684-1.684z" style="fill:#e30613;stroke:none;stroke-width:.0315884;fill-opacity:1" transform="translate(-9.175 -57.882)"/><path d="M113.667 67.344c-.926 0-1.684.757-1.684 1.684v2.465l1.867-.745a.784.784 0 0 1 .582-.726l.43-2.678z" style="fill:#e30613;stroke:none;stroke-width:.0315884;fill-opacity:1" transform="translate(-9.175 -57.882)"/><path style="font-variation-settings:&quot;wdth&quot;75,&quot;wght&quot;400;fill:#fff;stroke-width:1.172;stroke-linejoin:bevel" d="m114.863 67.344-.431 2.678a.783.783 0 0 0-.582.726l-1.866.745h-.001v.687l2.103-.839a.78.78 0 0 0 1.038.05l2.398 1.346a.785.785 0 1 0 .298-.565l-2.404-1.348a.784.784 0 0 0-.354-.702l.447-2.778z" transform="translate(-9.175 -57.882)"/></svg>