<?xml version="1.0" encoding="UTF-8" standalone="no"?>
<!-- Created with Inkscape (http://www.inkscape.org/) -->

<svg
   width="98.964752mm"
   height="56.715065mm"
   viewBox="0 0 98.964752 56.715065"
   version="1.1"
   id="svg27001"
   xmlns:xlink="http://www.w3.org/1999/xlink"
   xmlns="http://www.w3.org/2000/svg"
   xmlns:svg="http://www.w3.org/2000/svg">
  <defs
     id="defs26998">
    <linearGradient
       xlink:href="#linearGradient8740"
       id="linearGradient17760"
       x1="-2747.7346"
       y1="-584.57153"
       x2="-2075.5229"
       y2="-584.57153"
       gradientUnits="userSpaceOnUse"
       gradientTransform="matrix(0.14722248,0,0,0.14722248,460.04584,133.05639)" />
    <linearGradient
       id="linearGradient8740">
      <stop
         id="stop8738"
         offset="0"
         style="stop-color:#000000;stop-opacity:1;" />
      <stop
         id="stop8736"
         offset="0.18261695"
         style="stop-color:#3a86ff;stop-opacity:1" />
      <stop
         style="stop-color:#8338ec;stop-opacity:1"
         offset="0.38739288"
         id="stop8734" />
      <stop
         id="stop8732"
         offset="0.59400356"
         style="stop-color:#ff006e;stop-opacity:1" />
      <stop
         style="stop-color:#fb5607;stop-opacity:1"
         offset="0.74514398"
         id="stop8730" />
      <stop
         id="stop8728"
         offset="1"
         style="stop-color:#ffbe0b;stop-opacity:1" />
    </linearGradient>
  </defs>
  <g
     id="layer1"
     transform="translate(-103.13805,-79.762394)">
    <g
       id="g26003"
       transform="translate(47.620667,51.716402)">
      <path
         id="path17688"
         style="color:#000000;fill:url(#linearGradient17760);fill-opacity:1;stroke-width:0.147222;stroke-linecap:round;-inkscape-stroke:none;paint-order:stroke fill markers"
         d="m 100.6353,28.045992 c -0.30924,9.7e-5 -0.59909,0.19616 -0.722982,0.478006 -0.71308,1.440646 -1.426343,2.881211 -2.13934,4.32184 -1.614444,0.233862 -3.230212,0.461087 -4.843816,0.699397 -0.367822,0.05882 -0.658233,0.409444 -0.644619,0.78217 -0.0031,0.258877 0.147207,0.488676 0.338253,0.652075 1.125356,1.100577 2.250691,2.201205 3.376091,3.301692 -0.276571,1.60917 -0.560122,3.217478 -0.832161,4.827234 -0.05831,0.372605 0.19409,0.758788 0.557739,0.857336 0.227151,0.07328 0.465197,0.02081 0.671415,-0.103617 1.40741,-0.737658 2.814562,-1.475619 4.2221,-2.212995 1.45299,0.764157 2.90208,1.536223 4.35711,2.296301 0.37876,0.178082 0.87452,-0.01633 1.03155,-0.403678 0.13781,-0.28845 0.0165,-0.603471 -0.0215,-0.899637 -0.24623,-1.449197 -0.49232,-2.8984 -0.73864,-4.347553 1.16883,-1.139413 2.34323,-2.273576 3.50885,-3.415961 0.26168,-0.263955 0.28975,-0.717163 0.0603,-1.010107 -0.15205,-0.214899 -0.41431,-0.310085 -0.66843,-0.330107 -1.55304,-0.227916 -3.10601,-0.456111 -4.65903,-0.683877 -0.72112,-1.463067 -1.43589,-2.929737 -2.16126,-4.390464 -0.13233,-0.254963 -0.40546,-0.415011 -0.6914,-0.418055 z m -0.002,2.557027 c 0.0225,0.0458 0.045,0.09174 0.0675,0.13755 0.52554,1.065047 1.04467,2.133741 1.57431,3.196475 0.12951,0.252691 0.40007,0.403619 0.67832,0.424599 1.18357,0.173767 2.36713,0.347525 3.55064,0.521219 -0.88672,0.865606 -1.77957,1.725521 -2.66324,2.594001 -0.20075,0.20143 -0.25809,0.506586 -0.19263,0.777604 0.20057,1.178973 0.40082,2.35796 0.60154,3.53693 -1.09774,-0.576727 -2.19187,-1.160901 -3.29133,-1.733848 -0.25719,-0.130307 -0.56817,-0.08419 -0.80727,0.06452 -1.055203,0.552924 -2.110242,1.106149 -3.165498,1.658909 0.209392,-1.221797 0.426214,-2.442627 0.630974,-3.665045 0.0429,-0.280414 -0.08864,-0.560685 -0.300818,-0.741163 -0.854993,-0.836136 -1.710094,-1.672129 -2.565077,-2.508337 1.225479,-0.178184 2.452268,-0.349584 3.676841,-0.532404 0.280044,-0.04471 0.506804,-0.255803 0.612666,-0.513382 0.531043,-1.072531 1.061822,-2.145196 1.593082,-3.217624 z m -13.554362,4.133161 -0.0015,0.0028 c -0.869936,0 -1.600166,0.08758 -2.224037,0.303404 -0.62384,0.21591 -1.171167,0.595895 -1.464062,1.160668 l -0.0072,0.01384 -0.0066,0.01392 c -0.200175,0.429047 -0.341043,0.838113 -0.407896,1.239408 v 0.02776 l -0.0072,0.0277 c -0.03027,0.330279 -0.04261,0.775707 -0.04261,1.372013 v 18.151769 c 0,2.787362 0.341516,4.878005 1.176093,6.34182 0.757945,1.351044 2.319398,2.072224 4.405758,2.34309 h 0.0066 c 1.274027,0.156123 2.327971,0.224973 3.188041,0.183432 0.860012,-0.0416 1.539239,-0.154948 2.097725,-0.541614 v -0.0079 c 0.485649,-0.339908 0.73242,-0.864451 0.886241,-1.456843 0.153868,-0.592357 0.218515,-1.289593 0.218515,-2.132885 0,-0.783411 -0.06047,-1.437472 -0.218515,-1.998376 -0.157072,-0.557664 -0.4235,-1.058837 -0.90068,-1.372927 -0.296012,-0.206027 -0.584556,-0.362637 -0.943318,-0.422467 -0.356939,-0.09133 -0.688799,-0.09837 -1.217644,-0.09837 -0.169463,0 -0.254357,-0.01384 -0.296187,-0.02101 -0.01895,-0.131691 -0.126283,-0.60172 -0.126283,-1.274634 V 38.931943 c 0,-0.581673 -0.01857,-1.022647 -0.07662,-1.399935 0,-0.0059 -0.0063,-0.01008 -0.0066,-0.01384 -0.04034,-0.448554 -0.193603,-0.888048 -0.4296,-1.330549 l -0.0066,-0.0079 C 90.372185,35.6349 89.843088,35.255583 89.232569,35.038662 88.622063,34.821767 87.913666,34.736265 87.079135,34.736248 Z m -16.422832,0.763304 c -4.052684,0 -7.641731,1.45445 -10.620213,4.300004 -2.992875,2.832609 -4.518513,6.459921 -4.518513,10.690669 0,4.227377 1.491322,7.923159 4.419152,10.930848 2.923479,2.976614 6.463255,4.511201 10.45238,4.511201 4.409786,0 7.863228,-1.156762 10.184347,-3.560743 0.814213,-0.843286 1.294186,-1.838346 1.294186,-2.885688 v -8.38995 c 0,-1.001431 -0.118945,-1.809134 -0.463771,-2.477677 -0.248252,-0.529958 -0.712082,-0.921815 -1.260423,-1.154505 -0.551576,-0.233986 -1.192884,-0.345037 -1.942404,-0.372789 h -0.02191 -6.720835 c -0.842868,0 -1.571936,0.1212 -2.188882,0.429699 -0.520171,0.260098 -0.883007,0.762222 -1.056059,1.316019 l -0.0072,0.02107 -0.0066,0.02183 c -0.127399,0.50969 -0.176037,1.110718 -0.176037,1.836784 0,0.702138 0.04961,1.289565 0.176037,1.795471 v 0.0079 0.008 c 0.148264,0.555984 0.516789,1.049938 1.006379,1.351245 0.572703,0.352438 1.240653,0.422472 2.097739,0.422472 h 2.209568 v 2.709714 c -0.899797,0.30421 -1.847497,0.53522 -2.969601,0.53522 -1.718157,0 -3.213228,-0.647527 -4.616802,-2.047981 l -0.0072,-0.008 c -1.388389,-1.415754 -2.055103,-3.043564 -2.055103,-5.040407 0,-2.030777 0.647042,-3.541386 1.98491,-4.743165 h 0.0072 c 1.37361,-1.257241 2.867196,-1.851316 4.609656,-1.851316 1.345661,0 2.437904,0.311246 3.364078,0.928702 l 0.0071,0.008 h 0.0066 c 1.114076,0.716183 1.89659,1.160667 2.759321,1.160667 1.256062,0 2.303241,-0.918577 3.356845,-2.350394 v -0.008 c 0.640175,-0.890635 1.028153,-1.737754 1.028153,-2.604044 0,-0.924103 -0.536402,-1.754082 -1.351262,-2.357621 -2.785022,-2.068822 -5.804318,-3.132108 -8.981083,-3.132108 z m 16.421341,0.846384 c 0.716336,0 1.263913,0.08472 1.6195,0.211196 0.355573,0.126179 0.497998,0.260078 0.576674,0.401775 0.163936,0.309925 0.233585,0.555753 0.246494,0.710277 l 0.0072,0.02776 v 0.0353 c 0.03699,0.223226 0.07037,0.642646 0.07037,1.204183 v 17.658924 c 0,0.959846 -0.03316,1.549076 0.337576,2.167121 l 0.01426,0.01393 0.0066,0.01392 c 0.380524,0.570873 1.032168,0.704041 1.660891,0.704041 0.508335,0 0.869361,0.04961 0.844928,0.04267 l 0.05586,0.01393 0.04974,0.0079 c -0.02734,-0.0051 0.105583,0.03075 0.302334,0.168745 l 0.01338,0.008 0.01426,0.008 c 0.02567,0.01599 0.135735,0.129369 0.231967,0.471082 0.09626,0.341631 0.16251,0.878457 0.16251,1.569745 0,0.75848 -0.06214,1.344691 -0.16251,1.731185 -0.09883,0.380481 -0.226808,0.522801 -0.252653,0.542522 0,5.45e-4 -0.0063,-5.47e-4 -0.0072,0 -0.105583,0.07152 -0.5403,0.225325 -1.252726,0.259889 -0.716306,0.0349 -1.69716,-0.01968 -2.914746,-0.168669 v 0.0079 c -1.829161,-0.238193 -2.804326,-0.815056 -3.215961,-1.548896 -0.58726,-1.027666 -0.96399,-2.902372 -0.96399,-5.552956 V 38.903649 c 0,-0.553542 0.01559,-0.948473 0.0353,-1.182424 0.03491,-0.200182 0.117079,-0.469644 0.259961,-0.781714 l 0.0066,-0.008 c 0.06413,-0.120214 0.186414,-0.24831 0.54875,-0.373779 0.367747,-0.12723 0.946008,-0.211194 1.703278,-0.211194 z m -16.421341,0.755467 v 8.33e-4 c 2.823559,0 5.469184,0.917872 8.023386,2.815313 0.558134,0.413405 0.711279,0.722514 0.711279,1.069527 0,0.354244 -0.202635,0.931622 -0.731966,1.668114 -0.92485,1.252404 -1.685545,1.688734 -2.05535,1.688734 -0.102641,0 -0.869055,-0.247884 -1.879241,-0.893552 l -0.01426,-0.008 c -1.206939,-0.800655 -2.644963,-1.195892 -4.242939,-1.195892 -2.118985,0 -4.062579,0.7812 -5.687623,2.265493 -1.662168,1.493161 -2.512961,3.540751 -2.512961,5.933882 0,2.37295 0.862747,4.486937 2.520269,6.172089 1.645128,1.645161 3.613687,2.526441 5.756843,2.526441 1.485778,0 2.848422,-0.243588 4.07543,-0.7455 l 0.499999,-0.204046 v -5.496945 h -3.81554 c -0.719218,0 -1.170742,-0.136219 -1.259106,-0.190501 -0.166024,-0.102214 -0.234554,-0.192798 -0.288807,-0.386257 v -0.0079 c -0.07628,-0.307906 -0.126282,-0.784097 -0.126282,-1.400923 0,-0.637515 0.05204,-1.116697 0.126282,-1.421618 0.07539,-0.222681 0.139927,-0.295181 0.224659,-0.337565 0.298365,-0.149224 0.795952,-0.260876 1.47853,-0.260876 h 6.679549 c 0.62337,0.02271 1.091728,0.117183 1.379153,0.239117 0.287485,0.12202 0.384743,0.240076 0.443085,0.366551 l 0.0072,0.01392 0.0072,0.02183 c 0.154394,0.29332 0.288939,0.890589 0.288939,1.759109 v 8.389953 c 0,0.579825 -0.228158,1.142305 -0.837708,1.773635 -1.950299,2.019927 -4.903977,3.068965 -9.037012,3.068965 -3.587532,0 -6.63422,-1.308193 -9.304192,-4.026727 -2.66571,-2.738421 -3.969821,-5.952759 -3.969821,-9.810506 0,-3.854384 1.32343,-6.972356 4.025749,-9.529848 2.716582,-2.595366 5.838739,-3.856867 9.515164,-3.856917 z m 56.201384,0.264681 c -0.86511,9.3e-5 -1.58517,0.08385 -2.20195,0.281569 -0.61713,0.197788 -1.16511,0.539129 -1.47024,1.084054 v 0.0081 l -0.008,0.008 c -0.20764,0.385568 -0.35217,0.760359 -0.42246,1.147277 l -0.008,0.03622 v 0.0353 c -0.0302,0.330239 -0.0416,0.776665 -0.0416,1.372928 v 2.998591 l -2.32353,-0.02776 h -0.007 c -0.81667,0 -1.70098,0.02017 -2.59049,0.03529 v -2.815391 c 0,-0.928013 -0.0481,-1.616952 -0.22469,-2.182564 l -0.008,-0.01392 -0.008,-0.01387 c -0.23766,-0.676535 -0.77327,-1.21435 -1.44232,-1.51999 -0.66905,-0.305594 -1.46296,-0.429697 -2.40005,-0.429697 -0.86585,0 -1.58998,0.08235 -2.20343,0.281648 -0.6083,0.197576 -1.13761,0.550127 -1.42882,1.098583 -0.22774,0.377581 -0.4064,0.751288 -0.47839,1.1472 v 0.03538 l -0.008,0.0353 c -0.0302,0.330274 -0.0427,0.77567 -0.0427,1.371936 v 3.020199 c -2.3055,-0.09036 -2.98058,1.084135 -3.28328,2.079172 -0.16792,0.608077 -0.21744,1.384998 -0.21744,2.456982 0,1.133621 0.16052,2.039557 0.71752,2.71588 l 0.008,0.01401 0.007,0.008 c 0.50419,0.57133 1.22852,0.921549 1.97868,0.921549 0.27594,0 0.5288,-0.03833 0.79526,-0.05599 v 4.785692 c 0,2.74002 0.77757,4.961026 2.39284,6.46096 1.59801,1.483959 3.81469,2.196033 6.49611,2.196033 0.57133,0 1.0021,-0.01176 1.33048,-0.04269 h 0.0278 l 0.0277,-0.0079 c 0.40126,-0.06685 0.80926,-0.207626 1.23836,-0.407936 l 0.0142,-0.0081 h 0.007 c 0.57095,-0.285453 0.97093,-0.820943 1.19688,-1.44231 0.226,-0.621406 0.31686,-1.350401 0.31686,-2.210637 0,-0.743385 -0.078,-1.377029 -0.26718,-1.927928 -0.18912,-0.550937 -0.52154,-1.041028 -1.02084,-1.323247 -0.42309,-0.240928 -0.8675,-0.394308 -1.32324,-0.435934 -0.38608,-0.0619 -0.85052,-0.09213 -1.47131,-0.09213 -0.42898,0 -0.52596,-0.08156 -0.5623,-0.126216 -0.0519,-0.08758 -0.1625,-0.423051 -0.1625,-1.01368 v -4.427453 l 2.65373,0.112828 h 0.0136 c 0.61182,0 1.44034,-0.05892 2.25307,-0.112828 v 4.807453 c 0,2.739934 0.77755,4.961035 2.39286,6.460884 1.59807,1.483956 3.80744,2.196106 6.48889,2.196106 0.57133,0 1.00206,-0.01176 1.33054,-0.04259 h 0.0353 l 0.0277,-0.008 c 0.4012,-0.06694 0.80913,-0.207712 1.23826,-0.407937 l 0.008,-0.008 h 0.008 c 0.571,-0.2855 0.96994,-0.820948 1.19589,-1.442312 0.22593,-0.621368 0.31679,-1.349296 0.31679,-2.209572 0,-0.745826 -0.0755,-1.388925 -0.27433,-1.943522 -0.19758,-0.551318 -0.55053,-1.031924 -1.05514,-1.308718 -0.39923,-0.239875 -0.8351,-0.394864 -1.28179,-0.435858 -0.38508,-0.06135 -0.85241,-0.09221 -1.47032,-0.09221 -0.43391,0 -0.5282,-0.08299 -0.56322,-0.127436 -0.0519,-0.08758 -0.16151,-0.423005 -0.16151,-1.013678 V 52.48823 l 1.65351,0.09837 h 0.0277 c 0.59619,0 1.03508,-0.0058 1.36569,-0.03529 l 0.0277,-0.008 h 0.0354 c 0.40128,-0.06685 0.80297,-0.207711 1.2321,-0.40794 l 0.0134,-0.0079 0.0218,-0.008 c 0.56129,-0.291047 0.93669,-0.832507 1.15344,-1.45068 0.21676,-0.618255 0.30333,-1.344092 0.30333,-2.20227 0,-0.869945 -0.0859,-1.596525 -0.30333,-2.216799 -0.21519,-0.613629 -0.59592,-1.149487 -1.16075,-1.428845 -0.41602,-0.233196 -0.8404,-0.391679 -1.28079,-0.429772 h -0.008 c -0.36385,-0.05971 -0.79021,-0.08491 -1.36567,-0.08491 -0.40305,0 -1.08925,0.05989 -1.71666,0.105601 v -2.88569 c 0,-0.923684 -0.0551,-1.612981 -0.26826,-2.195116 0,-0.0051 -0.005,-0.0052 -0.007,-0.0081 -0.22291,-0.677159 -0.74573,-1.220904 -1.40815,-1.527212 -0.66517,-0.307665 -1.4621,-0.429571 -2.39857,-0.429699 z m -7e-5,1.61075 h 7e-5 c 0.79183,0 1.37253,0.11902 1.72396,0.281572 0.35149,0.16251 0.48652,0.317748 0.57052,0.576755 v 0.01384 l 0.007,0.01977 c 0.0852,0.226929 0.18327,0.816766 0.18327,1.660811 v 4.617941 l 0.87286,-0.08498 c 1.10666,-0.100575 1.93173,-0.14805 2.44252,-0.14805 0.56136,0 0.97084,0.02989 1.15451,0.06315 l 0.0353,0.008 0.0415,0.008 c 0.15523,0.01178 0.37916,0.07749 0.66176,0.239118 l 0.0218,0.01401 0.0277,0.01375 c 0.1116,0.05374 0.23361,0.162309 0.35935,0.520842 0.12562,0.35853 0.21735,0.931467 0.21735,1.68873 0,0.743637 -0.0909,1.307448 -0.21735,1.668038 -0.12466,0.355382 -0.25024,0.48398 -0.37387,0.549829 0,0 -0.005,0.006 -0.007,0.0081 -0.31209,0.142832 -0.58164,0.226144 -0.78171,0.260878 -0.22392,0.01807 -0.60665,0.03411 -1.12551,0.03538 l -3.32992,-0.203968 v 6.116094 c 0,0.765673 0.0795,1.39203 0.437,1.928 l 0.0134,0.02183 0.0142,0.01384 c 0.42543,0.567294 1.13337,0.781792 1.85756,0.781792 0.58774,0 1.02631,0.02604 1.24655,0.06307 l 0.0277,0.008 h 0.0353 c 0.18855,0.01387 0.39219,0.08337 0.63366,0.231965 l 0.0212,0.008 0.0218,0.01384 c 0.10073,0.05474 0.20312,0.153284 0.30964,0.450388 0.10635,0.297189 0.18222,0.77384 0.18222,1.400924 0,0.741538 -0.0875,1.303294 -0.21753,1.660735 -0.13006,0.357528 -0.26796,0.485637 -0.40893,0.556067 -0.31638,0.145692 -0.58566,0.225757 -0.78795,0.26095 -0.23526,0.01977 -0.61531,0.0353 -1.13996,0.0353 -2.40361,0 -4.15642,-0.606128 -5.4059,-1.766409 -1.23231,-1.144301 -1.87923,-2.839107 -1.87923,-5.285763 v -6.517868 l -0.86572,0.0703 c -1.19152,0.09936 -2.17261,0.154101 -2.94875,0.155277 l -4.30731,-0.19073 v 6.102777 c 0,0.765634 0.0857,1.391957 0.44317,1.927927 l 0.008,0.02183 0.0143,0.01384 c 0.42549,0.567295 1.14059,0.781716 1.86477,0.781716 0.58777,0 1.01805,0.02652 1.23835,0.06315 l 0.0353,0.0079 h 0.0353 c 0.1901,0.01387 0.42136,0.08924 0.69681,0.246497 0.0856,0.04815 0.1929,0.149671 0.29617,0.450391 0.1032,0.300758 0.17598,0.777516 0.17598,1.407085 0,0.741536 -0.0884,1.304363 -0.21842,1.661803 -0.13005,0.357482 -0.26703,0.485634 -0.40794,0.556061 -0.31391,0.144477 -0.58012,0.224235 -0.78179,0.259888 -0.23418,0.02019 -0.61615,0.03613 -1.1472,0.03613 -2.40358,0 -4.1554,-0.60621 -5.40483,-1.766408 -1.23236,-1.14425 -1.87933,-2.839061 -1.87933,-5.285678 V 50.71493 l -0.92252,0.133597 c -0.46585,0.06992 -0.95459,0.1056 -1.47753,0.1056 -0.31182,0 -0.50828,-0.08529 -0.75998,-0.365486 -0.15423,-0.192533 -0.35209,-0.746066 -0.35209,-1.689724 0,-1.009796 0.0764,-1.727164 0.16152,-2.033602 l 0.008,-0.008 v -0.008 c 0.10183,-0.386448 0.23035,-0.571297 0.28163,-0.620198 0.24955,-0.197367 0.54103,-0.308219 0.99185,-0.309566 l 2.06982,0.260878 V 41.34509 c 0,-0.546903 0.0159,-0.933591 0.0352,-1.168885 0.0286,-0.149096 0.10476,-0.361563 0.26718,-0.625445 l 0.0142,-0.02183 0.0136,-0.02776 c 0.0412,-0.07892 0.1482,-0.20545 0.51352,-0.324021 0.3654,-0.118655 0.94907,-0.196816 1.7105,-0.196816 l -0.004,-0.0032 c 0.79173,0 1.37775,0.116823 1.73841,0.281645 0.35635,0.162683 0.49108,0.325189 0.584,0.583985 0.077,0.251779 0.15534,0.844013 0.15534,1.688734 v 4.441969 l 0.81588,-0.01392 c 1.18726,-0.02564 2.31172,-0.04268 3.3713,-0.04268 l 3.93453,0.04975 v -4.624179 c 0,-0.546942 0.0161,-0.933667 0.0353,-1.168956 0.0324,-0.168945 0.10483,-0.389425 0.24641,-0.654358 l 0.008,-0.008 c 0.0525,-0.09061 0.17993,-0.219338 0.54876,-0.337488 0.37446,-0.12004 0.95625,-0.196811 1.71764,-0.196814 z m 22.27937,5.07472 c -0.78226,0 -1.58832,0.273063 -2.44976,0.7455 -0.6501,0.356516 -1.02341,0.633211 -1.38638,0.929767 -0.0457,-0.07972 -0.0324,-0.177084 -0.085,-0.25365 -0.65086,-0.983935 -1.89721,-1.232104 -3.51837,-1.232104 -0.86994,0 -1.60026,0.08011 -2.2241,0.296099 -0.62384,0.215952 -1.17117,0.595939 -1.464,1.160667 v 0.0081 0.008 c -0.20527,0.410543 -0.35502,0.81282 -0.42247,1.217647 v 0.02776 l -0.008,0.0277 c -0.0302,0.330323 -0.0427,0.776698 -0.0427,1.373004 v 13.385777 1.13381 l 0.008,0.02776 c 0.0603,0.874826 0.35604,1.663179 0.95677,2.188802 l 0.014,0.008 0.008,0.01387 c 0.76598,0.620188 1.82332,0.824244 3.13827,0.824244 0.85604,0 1.57746,-0.08272 2.1961,-0.288874 0.61861,-0.206195 1.15939,-0.563935 1.47138,-1.104825 l 0.008,-0.01393 0.008,-0.0079 c 0.23261,-0.436066 0.38738,-0.84809 0.42967,-1.280793 0.0601,-0.380103 0.0849,-0.830949 0.0849,-1.421619 v -8.008946 c 0,-0.453223 0.14833,-0.767772 0.57675,-1.126428 0.4931,-0.388684 0.94706,-0.556065 1.44338,-0.556065 0.60733,0 1.03537,0.102011 1.2808,0.224662 h 0.008 l 0.0138,0.008 c 0.53088,0.249843 1.09901,0.379939 1.67535,0.379939 1.19732,0 2.24161,-0.745456 2.81524,-1.892701 0.52326,-1.046628 0.80971,-2.054269 0.80971,-3.026436 0,-0.908502 -0.18495,-1.689714 -0.70405,-2.266554 -0.39949,-0.489131 -0.92488,-0.863684 -1.53444,-1.056135 -0.50325,-0.158896 -0.97663,-0.263241 -1.42891,-0.323031 -0.47818,-0.0896 -1.03167,-0.127432 -1.67529,-0.127432 z m -44.4231,0.558952 c -0.40504,0.005 -0.77737,0.39744 -0.82462,0.808345 -0.0257,0.544254 -0.0718,1.117346 -0.39553,1.57994 -0.70486,1.045321 -1.82065,1.698984 -2.86279,2.36021 -1.087871,-0.6973 -2.28718,-1.379207 -2.958737,-2.527206 -0.275105,-0.450361 -0.250091,-0.987329 -0.315487,-1.488567 -0.09608,-0.395533 -0.44144,-0.778629 -0.880315,-0.726785 -0.611741,0.08948 -0.844256,0.805613 -0.758052,1.345159 0.0798,1.624005 1.051657,3.080068 2.323901,4.039658 0.222686,0.180465 0.458141,0.344613 0.686783,0.517341 -1.139602,0.765161 -2.240596,1.725451 -2.72326,3.049792 -0.604436,1.532009 -0.251881,3.347211 0.798443,4.599528 0.522447,0.65845 1.221291,1.178794 1.924817,1.670777 -0.95614,0.676027 -1.879537,1.465128 -2.418943,2.496621 -0.426805,0.816375 -0.691589,1.7666 -0.557198,2.688641 0.09722,0.510362 0.709082,0.93806 1.186673,0.603539 0.435293,-0.27267 0.467479,-0.818025 0.47755,-1.278436 0.113475,-1.05642 0.982395,-1.803282 1.778198,-2.403499 0.46029,-0.342889 0.950757,-0.641037 1.435627,-0.947263 1.08945,0.69621 2.28778,1.380285 2.96025,2.528114 0.27433,0.450743 0.24966,0.987217 0.3148,1.488494 0.0917,0.513807 0.70539,0.946848 1.18584,0.6151 0.56637,-0.377114 0.48985,-1.13858 0.39731,-1.723198 -0.16927,-1.064284 -0.70262,-2.036441 -1.43044,-2.794164 -0.45773,-0.481896 -0.98895,-0.884258 -1.52493,-1.273949 0.64797,-0.452965 1.3002,-0.939016 1.78519,-1.504164 1.09549,-1.207075 1.54029,-2.994939 1.01224,-4.55327 -0.43121,-1.389896 -1.54391,-2.42093 -2.72037,-3.207581 -0.14663,-0.143128 0.33516,-0.291671 0.4379,-0.436773 1.24206,-0.908293 2.26112,-2.238807 2.45697,-3.799704 0.089,-0.563674 0.11363,-1.301445 -0.4503,-1.6316 -0.11212,-0.06746 -0.2281,-0.09649 -0.34152,-0.0951 z m 44.42309,1.038714 c 0.57684,0 1.04374,0.0427 1.37916,0.105597 h 0.021 l 0.0218,0.008 c 0.34768,0.04364 0.75111,0.133643 1.19694,0.274416 0.3464,0.109406 0.58638,0.273243 0.79519,0.534228 l 0.0212,0.02183 0.0218,0.02115 c 0.12344,0.132821 0.28163,0.505339 0.28163,1.210421 0,0.65492 -0.19813,1.423107 -0.64097,2.308779 -0.39245,0.785054 -0.74582,1.006528 -1.3791,1.006528 -0.33383,0 -0.65024,-0.06633 -0.97852,-0.218497 -0.56808,-0.284026 -1.23366,-0.387245 -1.99928,-0.387245 -0.87454,0 -1.71669,0.320798 -2.44163,0.894693 l -0.008,0.0078 -0.008,0.008 c -0.72844,0.601731 -1.16789,1.458141 -1.16789,2.372156 v 8.009859 c 0,0.561407 -0.0261,0.979456 -0.0631,1.20327 l -0.008,0.02807 v 0.02776 c -0.01,0.116008 -0.0831,0.359986 -0.23918,0.661587 h -0.008 c -0.0701,0.119412 -0.2141,0.263918 -0.58398,0.387242 -0.37301,0.124207 -0.94405,0.204046 -1.6898,0.204046 -1.11868,0 -1.80625,-0.228635 -2.1112,-0.471159 -0.20686,-0.187361 -0.36737,-0.482153 -0.40794,-1.070515 V 61.749279 48.362511 c 0,-0.553503 0.0159,-0.948437 0.0353,-1.182424 0.0353,-0.201656 0.1144,-0.446953 0.25982,-0.739262 0.0631,-0.12168 0.18845,-0.252699 0.55606,-0.380019 0.36775,-0.12719 0.94599,-0.218576 1.70327,-0.218576 1.42307,0 2.07453,0.338438 2.18881,0.513689 l 0.008,0.008 0.008,0.01375 c 0.2046,0.297607 0.17299,0.563657 0.27443,0.802485 v 2.498371 l 1.45685,-2.034592 c 0.0946,-0.132405 0.25125,-0.325582 0.4504,-0.548682 l 0.008,-0.008 c 0.12482,-0.124837 0.6145,-0.470944 1.37193,-0.886323 0.71486,-0.392046 1.28797,-0.54876 1.67527,-0.54876 z m -51.224655,0.01864 c 0.03823,0.371798 0.06897,0.670325 0.193624,0.883357 h 5.054781 c 0.11836,-0.241611 0.16993,-0.543394 0.19697,-0.883357 z m 0.754387,1.610903 c 0.314046,0.321904 0.684959,0.60913 1.083152,0.883357 h 1.763976 c 0.39661,-0.273852 0.7683,-0.560603 1.08465,-0.883357 z m 1.964228,4.414199 c 0.0391,0.0244 0.0778,0.04869 0.1167,0.07304 1.05075,0.66425 2.21241,1.30285 2.87511,2.396649 0.44902,0.823567 0.27417,1.916632 -0.39324,2.573613 -0.7253,0.812634 -1.68559,1.356159 -2.59857,1.928077 -1.077024,-0.684727 -2.274709,-1.324344 -2.972487,-2.435678 -0.471728,-0.826971 -0.30231,-1.942996 0.375377,-2.608763 0.725683,-0.811417 1.684631,-1.355309 2.59711,-1.926938 z m -0.940959,1.211868 c -0.404006,0.272222 -0.7811,0.55814 -1.104817,0.883357 h 4.088816 c -0.31791,-0.323633 -0.6972,-0.609545 -1.10484,-0.883358 z m -1.71445,1.831915 c -0.07613,0.2899 -0.08163,0.599648 -0.0083,0.883358 h 5.321509 c 0.0763,-0.290022 0.0813,-0.599687 0.007,-0.883358 z m 0.614131,1.831837 c 0.319086,0.32392 0.698653,0.609602 1.106109,0.883283 h 1.878939 c 0.4041,-0.272156 0.78123,-0.557967 1.10459,-0.883283 z m 0.999513,5.728317 c -0.02857,0.02062 -0.05723,0.04119 -0.08527,0.06208 -0.341325,0.257536 -0.670273,0.529224 -0.939131,0.821275 h 4.128906 c -0.29616,-0.323416 -0.65053,-0.610903 -1.03428,-0.883357 z m -1.56654,1.723961 c -0.0449,0.123213 -0.0773,0.249611 -0.09161,0.380241 -0.0033,0.151395 -0.0092,0.32152 -0.03548,0.503115 h 5.479235 c -0.0394,-0.352582 -0.0585,-0.650079 -0.12697,-0.883356 z" />
      <path
         id="path27175"
         style="font-weight:normal;font-size:5.95012px;line-height:1.05;font-family:'Mona Sans';-inkscape-font-specification:'Mona Sans, @wght=648,wdth=125.0';font-variation-settings:'wdth' 125, 'wght' 648;text-align:center;letter-spacing:-0.0503356px;text-anchor:middle;fill:#1f2937;stroke:none;stroke-width:5.45339;stroke-linecap:round;stroke-linejoin:round;stroke-miterlimit:10;paint-order:fill markers stroke"
         d="m 76.43326,72.552499 c -0.376841,0 -0.71552,0.05361 -1.016993,0.160713 -0.301473,0.103135 -0.557674,0.251597 -0.767911,0.445968 -0.210237,0.19437 -0.370556,0.428578 -0.481625,0.702283 -0.111068,0.273705 -0.166915,0.577332 -0.166915,0.910538 0,0.337173 0.05361,0.642518 0.160714,0.916223 0.111069,0.269739 0.26967,0.503429 0.47594,0.701766 0.210237,0.194371 0.464205,0.345584 0.761711,0.452686 0.297505,0.103135 0.630515,0.154512 0.999422,0.154512 0.32924,0 0.636818,-0.04347 0.922424,-0.130741 0.289573,-0.08727 0.541306,-0.216487 0.75551,-0.387056 0.214204,-0.174538 0.381226,-0.388467 0.500227,-0.642338 0.12297,-0.253872 0.183969,-0.54736 0.183969,-0.880567 v -0.339514 h -2.421558 v 0.619084 h 1.461926 c -0.01828,0.172775 -0.06925,0.327631 -0.152962,0.464054 -0.107103,0.17057 -0.265703,0.303223 -0.47594,0.398425 -0.20627,0.0952 -0.460238,0.143144 -0.761711,0.143144 -0.218171,0 -0.416292,-0.03214 -0.594795,-0.0956 -0.178504,-0.06744 -0.333152,-0.162285 -0.464055,-0.285254 -0.126936,-0.126936 -0.22402,-0.281585 -0.291455,-0.464055 -0.06743,-0.18247 -0.101286,-0.39073 -0.101286,-0.624768 0,-0.297505 0.05756,-0.555425 0.1726,-0.773596 0.115035,-0.218171 0.28154,-0.38691 0.499711,-0.505912 0.222138,-0.119002 0.489679,-0.178284 0.803052,-0.178284 0.222137,0 0.422493,0.02938 0.600997,0.08888 0.178503,0.0595 0.327482,0.146963 0.446484,0.261999 0.122969,0.115035 0.204245,0.255593 0.243913,0.422197 h 0.963765 c -0.04363,-0.309406 -0.162714,-0.576948 -0.357084,-0.803052 -0.194371,-0.230071 -0.454008,-0.408432 -0.779281,-0.535368 -0.321306,-0.130903 -0.694353,-0.19637 -1.118794,-0.19637 z m 2.793628,0.05323 v 0.732255 h 0.922424 v -0.732255 z m 23.245612,0 v 0.732255 h 0.92242 v -0.732255 z m 10.41538,0 v 0.732255 h 0.92243 v -0.732255 z m 15.50758,0 v 0.732255 h 0.92191 v -0.732255 z m 3.97185,0 v 4.33772 h 0.92191 V 75.3606 c 0,-0.186437 0.0378,-0.34899 0.11317,-0.487826 0.0793,-0.142802 0.18879,-0.253461 0.32763,-0.332796 0.1428,-0.0833 0.30707,-0.125057 0.49351,-0.125057 0.18643,0 0.33713,0.03557 0.45217,0.10697 0.11503,0.0714 0.19631,0.178625 0.24391,0.321428 0.0515,0.138836 0.0775,0.31101 0.0775,0.517281 v 1.582849 h 0.92242 v -1.743046 c 0,-0.277672 -0.0338,-0.51188 -0.10128,-0.702283 -0.0674,-0.19437 -0.1628,-0.349018 -0.28578,-0.464054 -0.119,-0.115037 -0.2635,-0.198547 -0.43408,-0.250114 -0.1666,-0.05157 -0.35338,-0.077 -0.55965,-0.077 -0.25784,0 -0.49772,0.05705 -0.71986,0.172083 -0.21817,0.111069 -0.379,0.267951 -0.48214,0.470255 h -0.0475 v -1.743563 z m -50.340593,0.15503 -0.910539,0.178283 v 0.82734 h -0.606681 v 0.696081 h 0.606681 v 1.719275 c 0,0.17057 0.03385,0.313363 0.101286,0.428398 0.0714,0.11107 0.17072,0.194581 0.297656,0.250114 0.126936,0.05553 0.275398,0.0832 0.445968,0.0832 h 0.862996 v -0.785482 h -0.494027 c -0.103136,0 -0.18046,-0.01753 -0.232027,-0.05323 -0.0476,-0.03967 -0.07131,-0.111322 -0.07131,-0.214458 v -1.42782 h 0.797367 V 73.766379 H 82.02672 Z m 23.245613,0 -0.91054,0.178283 v 0.82734 h -0.60668 v 0.696081 h 0.60668 v 1.719275 c 0,0.17057 0.0338,0.313363 0.10128,0.428398 0.0714,0.11107 0.17073,0.194581 0.29766,0.250114 0.12694,0.05553 0.2754,0.0832 0.44597,0.0832 h 0.86299 v -0.785482 h -0.49402 c -0.10311,0 -0.18043,-0.01753 -0.23203,-0.05323 -0.0476,-0.03967 -0.0713,-0.111322 -0.0713,-0.214458 v -1.42782 h 0.79736 v -0.696081 h -0.79736 z m 25.92296,0 -0.91054,0.178283 v 0.82734 h -0.60668 v 0.696081 h 0.60668 v 1.719275 c 0,0.17057 0.0339,0.313363 0.10129,0.428398 0.0714,0.11107 0.17021,0.194581 0.29714,0.250114 0.12693,0.05553 0.27591,0.0832 0.44648,0.0832 h 0.863 v -0.785482 h -0.49403 c -0.10317,0 -0.18049,-0.01753 -0.23202,-0.05323 -0.0476,-0.03967 -0.0713,-0.111322 -0.0713,-0.214458 v -1.42782 h 0.79737 v -0.696081 h -0.79737 z M 88.467667,73.70695 c -0.376841,0 -0.705898,0.06719 -0.987536,0.202055 -0.277672,0.130902 -0.496071,0.32112 -0.654741,0.571024 -0.154703,0.245939 -0.232027,0.543896 -0.232027,0.892969 0,0.337174 0.07732,0.62671 0.232027,0.868681 0.154703,0.241971 0.373101,0.428237 0.654741,0.559139 0.285605,0.130903 0.618615,0.19637 0.999422,0.19637 0.325273,0 0.617043,-0.04347 0.874882,-0.130741 0.257838,-0.08727 0.467816,-0.2103 0.630452,-0.36897 0.162637,-0.162636 0.260239,-0.349418 0.291972,-0.559655 h -0.874882 c -0.04364,0.126936 -0.146905,0.232441 -0.309542,0.315743 -0.162636,0.07933 -0.35904,0.118855 -0.589111,0.118855 -0.198337,0 -0.370511,-0.03162 -0.517281,-0.09508 -0.146769,-0.06744 -0.261897,-0.162802 -0.345199,-0.285771 -0.07937,-0.126936 -0.121123,-0.275914 -0.125057,-0.446484 h 2.766756 c 0.02777,-0.384775 -0.02756,-0.713832 -0.166398,-0.987537 -0.138836,-0.273705 -0.34933,-0.483682 -0.630969,-0.630452 -0.277672,-0.14677 -0.616868,-0.220142 -1.017509,-0.220142 z m 8.152474,0 c -0.376841,0 -0.708133,0.06719 -0.993738,0.202055 -0.281639,0.130902 -0.501755,0.319402 -0.660424,0.56534 -0.15867,0.245938 -0.238229,0.539427 -0.238229,0.880566 0,0.261806 0.04347,0.493778 0.130742,0.696082 0.09123,0.202304 0.220453,0.374995 0.387056,0.517798 0.17057,0.142803 0.370926,0.251744 0.600997,0.327112 0.234038,0.0714 0.491957,0.10697 0.773596,0.10697 0.384774,0 0.717783,-0.06547 0.999422,-0.196371 0.285605,-0.130902 0.505722,-0.318885 0.660425,-0.564823 0.15867,-0.249905 0.238228,-0.545628 0.238228,-0.886768 0,-0.257838 -0.04571,-0.488093 -0.136942,-0.690397 -0.08727,-0.20627 -0.216487,-0.378445 -0.387057,-0.517281 -0.166603,-0.142803 -0.366959,-0.25226 -0.600996,-0.327628 -0.230072,-0.07537 -0.487475,-0.112655 -0.77308,-0.112655 z m 3.752229,0 c -0.3068,0.0049 -0.571658,0.04644 -0.794787,0.12454 -0.238005,0.0833 -0.420318,0.200664 -0.547253,0.3514 -0.126936,0.14677 -0.190686,0.325131 -0.190686,0.535368 0,0.154703 0.02767,0.285639 0.0832,0.392741 0.05554,0.107102 0.145231,0.196282 0.268201,0.267684 0.122968,0.0714 0.281569,0.128966 0.47594,0.172599 0.19437,0.04363 0.428065,0.07749 0.701765,0.101286 0.21024,0.01983 0.37279,0.04355 0.48783,0.07131 0.119,0.0238 0.20251,0.06161 0.25011,0.113172 0.0515,0.0476 0.0775,0.120973 0.0775,0.220141 0,0.130904 -0.0655,0.227989 -0.19637,0.291455 -0.12694,0.06347 -0.30582,0.09509 -0.53588,0.09509 -0.25784,0 -0.455958,-0.04347 -0.594796,-0.130741 -0.134869,-0.08727 -0.210476,-0.212535 -0.226343,-0.375171 h -0.898136 c 0.01983,0.325273 0.172247,0.585427 0.457853,0.779797 0.285605,0.190404 0.696459,0.285254 1.231962,0.285254 0.56725,0 0.98548,-0.0909 1.25522,-0.273368 0.27371,-0.186438 0.41083,-0.430783 0.41083,-0.732255 0,-0.17057 -0.0277,-0.313362 -0.0832,-0.428398 -0.0555,-0.115035 -0.143,-0.208168 -0.262,-0.27957 -0.119,-0.07537 -0.2776,-0.132932 -0.47594,-0.172599 -0.19436,-0.04363 -0.42857,-0.07697 -0.70228,-0.100769 -0.19834,-0.01983 -0.35866,-0.04183 -0.48162,-0.06563 -0.122975,-0.0238 -0.212154,-0.05937 -0.267687,-0.10697 -0.05553,-0.0476 -0.08372,-0.115304 -0.08372,-0.202572 0,-0.130904 0.06375,-0.225754 0.190686,-0.285254 0.130901,-0.0595 0.299131,-0.0894 0.505401,-0.0894 0.1309,0 0.24603,0.01753 0.3452,0.05323 0.0991,0.03173 0.17869,0.08139 0.23822,0.148828 0.0635,0.06347 0.10131,0.148696 0.11318,0.255798 h 0.86868 c -0.0198,-0.21817 -0.0972,-0.402201 -0.23203,-0.552938 -0.1309,-0.150735 -0.30978,-0.265863 -0.53589,-0.345198 -0.22214,-0.07934 -0.48572,-0.118856 -0.79116,-0.118856 -0.0208,0 -0.0416,-3.25e-4 -0.062,0 z m 7.79074,0 c -0.37684,0 -0.70814,0.06719 -0.99374,0.202055 -0.28164,0.130902 -0.50175,0.319402 -0.66043,0.56534 -0.15866,0.245938 -0.23771,0.539427 -0.23771,0.880566 0,0.261806 0.0435,0.493778 0.13074,0.696082 0.0912,0.202304 0.21994,0.374995 0.38654,0.517798 0.17057,0.142803 0.37093,0.251744 0.601,0.327112 0.23404,0.0714 0.49196,0.10697 0.7736,0.10697 0.38477,0 0.71778,-0.06547 0.99942,-0.196371 0.2856,-0.130902 0.50624,-0.318885 0.66094,-0.564823 0.15867,-0.249905 0.23771,-0.545628 0.23771,-0.886768 0,-0.257838 -0.0457,-0.488093 -0.13694,-0.690397 -0.0873,-0.20627 -0.21597,-0.378445 -0.38654,-0.517281 -0.1666,-0.142803 -0.36696,-0.25226 -0.601,-0.327628 -0.23006,-0.07537 -0.48799,-0.112655 -0.77359,-0.112655 z m 7.953,0 c -0.37684,0 -0.7059,0.06719 -0.98754,0.202055 -0.27767,0.130902 -0.49607,0.32112 -0.65474,0.571024 -0.1547,0.245939 -0.23203,0.543896 -0.23203,0.892969 0,0.337174 0.0773,0.62671 0.23203,0.868681 0.1547,0.241971 0.3731,0.428237 0.65474,0.559139 0.28561,0.130903 0.61862,0.19637 0.99942,0.19637 0.32528,0 0.61705,-0.04347 0.87489,-0.130741 0.25784,-0.08727 0.46782,-0.2103 0.63045,-0.36897 0.16264,-0.162636 0.25972,-0.349418 0.29145,-0.559655 h -0.87436 c -0.0436,0.126936 -0.1469,0.232441 -0.30954,0.315743 -0.16264,0.07933 -0.35904,0.118855 -0.58911,0.118855 -0.19834,0 -0.37052,-0.03162 -0.51729,-0.09508 -0.14676,-0.06744 -0.26189,-0.162802 -0.34519,-0.285771 -0.0793,-0.126936 -0.12106,-0.275914 -0.12506,-0.446484 h 2.76676 c 0.0278,-0.384775 -0.0276,-0.713832 -0.1664,-0.987537 -0.13884,-0.273705 -0.34933,-0.483682 -0.63097,-0.630452 -0.27768,-0.14677 -0.61687,-0.220142 -1.01751,-0.220142 z m 3.66903,0 c -0.30681,0.0049 -0.57166,0.04644 -0.79479,0.12454 -0.238,0.0833 -0.42032,0.200664 -0.54725,0.3514 -0.12693,0.14677 -0.19069,0.325131 -0.19069,0.535368 0,0.154703 0.0282,0.285639 0.0837,0.392741 0.0555,0.107102 0.14472,0.196282 0.26768,0.267684 0.12298,0.0714 0.28158,0.128966 0.47594,0.172599 0.19438,0.04363 0.42858,0.07749 0.70228,0.101286 0.21024,0.01983 0.37279,0.04355 0.48783,0.07131 0.119,0.0238 0.202,0.06161 0.2496,0.113172 0.0516,0.0476 0.0775,0.120973 0.0775,0.220141 0,0.130904 -0.0655,0.227989 -0.19637,0.291455 -0.12693,0.06347 -0.30529,0.09509 -0.53537,0.09509 -0.25784,0 -0.45648,-0.04347 -0.59531,-0.130741 -0.13487,-0.08727 -0.20996,-0.212535 -0.22582,-0.375171 h -0.89866 c 0.0198,0.325273 0.17277,0.585427 0.45837,0.779797 0.28561,0.190404 0.69594,0.285254 1.23145,0.285254 0.56725,0 0.98601,-0.0909 1.25574,-0.273368 0.27371,-0.186438 0.41031,-0.430783 0.41031,-0.732255 0,-0.17057 -0.0277,-0.313362 -0.0832,-0.428398 -0.0555,-0.115035 -0.143,-0.208168 -0.262,-0.27957 -0.11901,-0.07537 -0.27761,-0.132932 -0.47594,-0.172599 -0.19437,-0.04363 -0.42858,-0.07697 -0.70228,-0.100769 -0.19833,-0.01983 -0.35865,-0.04183 -0.48163,-0.06563 -0.12296,-0.0238 -0.21215,-0.05937 -0.26768,-0.10697 -0.0555,-0.0476 -0.0837,-0.115304 -0.0837,-0.202572 0,-0.130904 0.0638,-0.225754 0.19069,-0.285254 0.1309,-0.0595 0.29964,-0.0894 0.50591,-0.0894 0.1309,0 0.24551,0.01753 0.34468,0.05323 0.0991,0.03173 0.1787,0.08139 0.23823,0.148828 0.0634,0.06347 0.10124,0.148696 0.11317,0.255798 h 0.86869 c -0.0198,-0.21817 -0.0972,-0.402201 -0.23203,-0.552938 -0.13091,-0.150735 -0.30927,-0.265863 -0.53537,-0.345198 -0.22214,-0.07934 -0.48624,-0.118856 -0.79168,-0.118856 -0.0208,0 -0.0416,-3.25e-4 -0.062,0 z m -26.917225,0.0057 c -0.309405,0 -0.566809,0.05361 -0.773079,0.160714 -0.202305,0.107102 -0.351283,0.245942 -0.446484,0.416512 h -0.03566 l -0.02997,-0.523482 h -0.874365 v 4.170805 h 0.922425 v -1.535307 h 0.03566 c 0.06744,0.122969 0.160567,0.230192 0.27957,0.321427 0.119002,0.08727 0.255607,0.15669 0.410311,0.208256 0.15867,0.0476 0.327409,0.07131 0.505912,0.07131 0.313373,0 0.587101,-0.06719 0.821138,-0.202055 0.238005,-0.138836 0.422553,-0.329053 0.553455,-0.571025 0.130903,-0.245938 0.19637,-0.537709 0.19637,-0.874882 0,-0.253871 -0.0378,-0.481892 -0.113171,-0.684195 -0.07537,-0.202304 -0.182591,-0.372761 -0.321427,-0.511597 -0.138836,-0.142803 -0.303623,-0.25226 -0.494027,-0.327629 -0.190404,-0.07933 -0.402616,-0.118856 -0.636654,-0.118856 z m -6.63422,0.0062 c -0.214204,0 -0.398751,0.05138 -0.553455,0.154512 -0.150735,0.09917 -0.259677,0.235775 -0.327111,0.410311 h -0.03566 l -0.03566,-0.517281 h -0.833024 v 3.177067 h 0.922424 v -1.564762 c 0.004,-0.19437 0.04125,-0.352971 0.112655,-0.47594 0.0714,-0.126938 0.169003,-0.218352 0.291972,-0.273885 0.122969,-0.0595 0.267479,-0.08888 0.434082,-0.08888 0.05157,0 0.101228,0.0018 0.148828,0.0057 0.05157,0.004 0.09899,0.01187 0.142627,0.02377 v -0.833024 c -0.03173,-0.004 -0.07126,-0.008 -0.118856,-0.01189 -0.04364,-0.0039 -0.0933,-0.0057 -0.148828,-0.0057 z m 26.038205,0 c -0.2142,0 -0.39875,0.05138 -0.55346,0.154512 -0.15073,0.09917 -0.25967,0.235775 -0.32711,0.410311 h -0.0356 l -0.0357,-0.517281 H 110.487 v 3.177067 h 0.92243 v -1.564762 c 0.004,-0.19437 0.0413,-0.352971 0.11265,-0.47594 0.0714,-0.126938 0.16901,-0.218352 0.29198,-0.273885 0.12297,-0.0595 0.26748,-0.08888 0.43408,-0.08888 0.0516,0 0.10123,0.0018 0.14883,0.0057 0.0516,0.004 0.099,0.01187 0.14262,0.02377 v -0.833024 c -0.0317,-0.004 -0.0713,-0.008 -0.11885,-0.01189 -0.0436,-0.0039 -0.0933,-0.0057 -0.14883,-0.0057 z m -33.045012,0.04754 v 3.177067 h 0.922424 V 73.76639 Z m 23.245612,0 v 3.177067 h 0.92242 V 73.76639 Z m 10.41538,0 v 3.177067 h 0.92243 V 73.76639 Z m 9.95288,0 0.93431,3.177067 h 1.08883 l 0.58291,-2.147673 h 0.0357 l 0.58911,2.147673 h 1.10691 l 0.94,-3.177067 h -0.83923 l -0.67799,2.409672 h -0.0238 l -0.61909,-2.409672 h -0.91002 l -0.62477,2.391585 h -0.0362 l -0.67231,-2.391585 z m 5.5547,0 v 3.177067 h 0.92191 V 73.76639 Z m -39.9681,0.577226 c 0.01147,-2.33e-4 0.02297,0 0.03462,0 0.19437,0 0.356923,0.02938 0.487825,0.08888 0.134869,0.0595 0.238141,0.144729 0.309542,0.255798 0.06399,0.0995 0.100765,0.216884 0.110588,0.3514 h -1.870687 c 0.02361,-0.138198 0.07244,-0.257302 0.147278,-0.357084 0.0833,-0.11107 0.192759,-0.194581 0.327628,-0.250114 0.130159,-0.05578 0.281207,-0.0854 0.453203,-0.08888 z m 27.64844,0 c 0.0115,-2.33e-4 0.023,0 0.0346,0 0.19438,0 0.35693,0.02938 0.48783,0.08888 0.13487,0.0595 0.23814,0.144729 0.30954,0.255798 0.0639,0.0995 0.1002,0.216889 0.11007,0.3514 h -1.87017 c 0.0236,-0.138198 0.0725,-0.257302 0.14728,-0.357084 0.0833,-0.11107 0.19225,-0.194581 0.32711,-0.250114 0.13016,-0.05578 0.28172,-0.0854 0.45372,-0.08888 z m -23.487454,0.07131 c 0.18247,0 0.343305,0.03729 0.482141,0.112655 0.138836,0.0714 0.246059,0.176906 0.321427,0.315743 0.07934,0.138836 0.118856,0.309293 0.118856,0.511596 0,0.198338 -0.03952,0.368795 -0.118856,0.511597 -0.07934,0.138836 -0.186558,0.246059 -0.321427,0.321428 -0.134869,0.07537 -0.295705,0.113171 -0.482141,0.113171 -0.150737,0 -0.285624,-0.022 -0.404627,-0.06563 -0.115035,-0.0476 -0.213837,-0.110835 -0.297139,-0.190169 -0.0833,-0.07934 -0.147053,-0.17075 -0.190686,-0.273885 -0.04363,-0.107102 -0.06511,-0.219996 -0.06511,-0.338998 v -0.172599 c 0,-0.15867 0.03729,-0.301462 0.112654,-0.428398 0.07537,-0.126935 0.184826,-0.228489 0.327629,-0.303857 0.14677,-0.07537 0.318944,-0.112655 0.517281,-0.112655 z m 4.031795,0 c 0.154703,0 0.291308,0.02148 0.410311,0.06511 0.122969,0.04363 0.226241,0.107385 0.309542,0.190687 0.0833,0.0833 0.146536,0.182621 0.190169,0.297656 0.0476,0.115036 0.07131,0.243737 0.07131,0.386539 0,0.190404 -0.03952,0.356909 -0.118856,0.499712 -0.07537,0.138835 -0.186543,0.247776 -0.333313,0.327111 -0.146769,0.07537 -0.322896,0.113172 -0.529167,0.113172 -0.150736,0 -0.287858,-0.02148 -0.410828,-0.06511 -0.119001,-0.0476 -0.220038,-0.111351 -0.30334,-0.190686 -0.0833,-0.0833 -0.147053,-0.182621 -0.190686,-0.297656 -0.04363,-0.115036 -0.06511,-0.243737 -0.06511,-0.38654 0,-0.190403 0.0378,-0.35519 0.113172,-0.494026 0.07934,-0.142803 0.189994,-0.251743 0.332796,-0.327112 0.146769,-0.07934 0.321695,-0.118856 0.523999,-0.118856 z m 11.542969,0 c 0.1547,0 0.29182,0.02148 0.41082,0.06511 0.12298,0.04363 0.22573,0.107385 0.30903,0.190687 0.0833,0.0833 0.14708,0.182621 0.19068,0.297656 0.0476,0.115036 0.0713,0.243737 0.0713,0.386539 0,0.190404 -0.0395,0.356909 -0.11886,0.499712 -0.0754,0.138835 -0.18654,0.247776 -0.33331,0.327111 -0.14677,0.07537 -0.32342,0.113172 -0.52968,0.113172 -0.15074,0 -0.28735,-0.02148 -0.41032,-0.06511 -0.119,-0.0476 -0.22055,-0.111351 -0.30385,-0.190686 -0.0833,-0.0833 -0.14657,-0.182621 -0.19017,-0.297656 -0.0436,-0.115036 -0.0656,-0.243737 -0.0656,-0.38654 0,-0.190403 0.0378,-0.35519 0.11317,-0.494026 0.0793,-0.142803 0.19051,-0.251743 0.33331,-0.327112 0.14677,-0.07934 0.32118,-0.118856 0.52349,-0.118856 z M 55.812296,79.37017 v 4.33772 h 0.874365 l 0.02997,-0.523482 h 0.02945 c 0.06744,0.111068 0.157132,0.209871 0.268201,0.297139 0.115036,0.08727 0.251642,0.154972 0.410311,0.202572 0.15867,0.0476 0.339265,0.07131 0.541569,0.07131 0.317339,0 0.592785,-0.06547 0.826823,-0.19637 0.234037,-0.134869 0.416867,-0.325087 0.54777,-0.571025 0.130902,-0.245938 0.19637,-0.537709 0.19637,-0.874882 0,-0.249904 -0.0378,-0.473973 -0.113171,-0.67231 -0.07537,-0.202305 -0.182592,-0.376713 -0.321428,-0.523482 -0.134869,-0.14677 -0.299656,-0.257945 -0.494026,-0.333313 -0.190404,-0.07537 -0.404334,-0.113172 -0.642338,-0.113172 -0.265772,0 -0.507884,0.05361 -0.726054,0.160714 -0.214205,0.107102 -0.37057,0.253846 -0.469739,0.440283 h -0.03617 V 79.37017 Z m 4.150134,0 v 0.731739 h 0.922425 V 79.37017 Z m 5.570203,0 v 0.731739 h 0.921908 V 79.37017 Z m 6.977352,0 c -0.372874,0 -0.658458,0.07337 -0.856795,0.220142 -0.194371,0.14677 -0.291455,0.378742 -0.291455,0.696081 v 0.243913 h -0.571542 v 0.696082 h 0.571542 v 2.481502 h 0.921907 v -2.481502 h 0.726054 v -0.696082 h -0.726054 v -0.21394 c 0,-0.115037 0.0299,-0.200265 0.0894,-0.255799 0.06347,-0.05553 0.156601,-0.08372 0.27957,-0.08372 h 0.410827 V 79.37017 Z m 20.210136,0 v 0.731739 h 0.921907 V 79.37017 Z m 19.151289,0 v 0.731739 h 0.92242 V 79.37017 Z m 5.59345,0 v 0.731739 h 0.92243 V 79.37017 Z m 30.1594,0 v 0.731739 h 0.92243 V 79.37017 Z m 5.63532,0 v 4.33772 h 0.92191 v -4.33772 z m -61.711997,0.154513 -0.910022,0.1788 v 0.826823 h -0.607199 v 0.696082 h 0.607199 v 1.719791 c 0,0.17057 0.03385,0.313362 0.101285,0.428398 0.0714,0.11107 0.170204,0.194581 0.29714,0.250114 0.126936,0.05553 0.275914,0.0832 0.446484,0.0832 h 0.86248 v -0.785482 h -0.49351 c -0.103137,0 -0.180461,-0.01804 -0.232027,-0.05374 -0.0476,-0.03967 -0.07183,-0.110805 -0.07183,-0.213941 V 81.226392 H 92.34495 V 80.53031 h -0.797367 z m 12.710337,0 -0.91002,0.1788 v 0.826823 h -0.6072 v 0.696082 h 0.6072 v 1.719791 c 0,0.17057 0.0333,0.313362 0.10076,0.428398 0.0714,0.11107 0.17072,0.194581 0.29766,0.250114 0.12693,0.05553 0.27591,0.0832 0.44649,0.0832 h 0.86248 v -0.785482 h -0.49351 c -0.10317,0 -0.1805,-0.01804 -0.23203,-0.05374 -0.0476,-0.03967 -0.0718,-0.110805 -0.0718,-0.213941 v -1.428336 h 0.79737 V 80.53031 h -0.79737 z m 35.85156,0 -0.91003,0.1788 v 0.826823 h -0.60719 v 0.696082 h 0.60719 v 1.719791 c 0,0.17057 0.0333,0.313362 0.10077,0.428398 0.0714,0.11107 0.17072,0.194581 0.29766,0.250114 0.12693,0.05553 0.27591,0.0832 0.44648,0.0832 h 0.86248 v -0.785482 h -0.49402 c -0.10317,0 -0.1805,-0.01804 -0.23203,-0.05374 -0.0476,-0.03967 -0.0713,-0.110805 -0.0713,-0.213941 v -1.428336 h 0.79736 V 80.53031 h -0.79736 z m -76.900736,0.946195 c -0.376841,0 -0.708133,0.0677 -0.993738,0.202572 -0.281639,0.130902 -0.501755,0.318886 -0.660425,0.564823 -0.15867,0.245939 -0.238228,0.539427 -0.238228,0.880567 0,0.261805 0.04399,0.494294 0.131258,0.696598 0.09123,0.202304 0.219937,0.374478 0.38654,0.517281 0.17057,0.142803 0.370926,0.252261 0.600997,0.327629 0.234037,0.0714 0.491957,0.10697 0.773596,0.10697 0.384773,0 0.717783,-0.06547 0.999422,-0.196371 0.285605,-0.130902 0.505722,-0.319401 0.660425,-0.56534 0.15867,-0.249904 0.238228,-0.545627 0.238228,-0.886767 0,-0.257839 -0.04571,-0.487577 -0.136942,-0.689881 -0.08727,-0.20627 -0.21597,-0.378962 -0.38654,-0.517798 -0.166603,-0.142802 -0.366959,-0.251743 -0.600997,-0.327111 -0.230071,-0.07537 -0.487991,-0.113172 -0.773596,-0.113172 z m 5.979997,0 c -0.249905,0 -0.48583,0.05533 -0.707968,0.166398 -0.222137,0.11107 -0.386408,0.267952 -0.493509,0.470256 h -0.04806 l -0.02945,-0.577226 h -0.892452 v 3.177584 h 0.921907 v -1.582849 c 0,-0.186437 0.0378,-0.351224 0.113172,-0.494027 0.07934,-0.142802 0.188793,-0.253461 0.327628,-0.332796 0.142803,-0.0833 0.307073,-0.125057 0.49351,-0.125057 0.186437,0 0.337134,0.03729 0.452169,0.112655 0.115037,0.0714 0.196313,0.178624 0.243913,0.321427 0.05157,0.138836 0.07751,0.311527 0.07751,0.517798 v 1.582849 h 0.922424 v -1.743563 c 0,-0.277672 -0.03385,-0.511879 -0.101286,-0.702283 -0.06744,-0.19437 -0.162801,-0.349019 -0.285771,-0.464054 -0.119002,-0.115036 -0.263512,-0.19803 -0.434082,-0.249597 -0.166603,-0.05157 -0.353384,-0.07752 -0.559655,-0.07752 z m 5.783626,0 c -0.37684,0 -0.708132,0.0677 -0.993738,0.202572 -0.281638,0.130902 -0.501755,0.318886 -0.660425,0.564823 -0.15867,0.245939 -0.237711,0.539427 -0.237711,0.880567 0,0.261805 0.04347,0.494294 0.130741,0.696598 0.09123,0.202304 0.219937,0.374478 0.38654,0.517281 0.17057,0.142803 0.370926,0.252261 0.600997,0.327629 0.234037,0.0714 0.491957,0.10697 0.773596,0.10697 0.384774,0 0.7183,-0.06547 0.999939,-0.196371 0.285605,-0.130902 0.505721,-0.319401 0.660425,-0.56534 0.158669,-0.249904 0.237711,-0.545627 0.237711,-0.886767 0,-0.257839 -0.04571,-0.487577 -0.136942,-0.689881 -0.08727,-0.20627 -0.21597,-0.378962 -0.38654,-0.517798 -0.166603,-0.142802 -0.366959,-0.251743 -0.600997,-0.327111 -0.230071,-0.07537 -0.48799,-0.113172 -0.773596,-0.113172 z m 6.831107,0 c -0.257837,0 -0.485858,0.05361 -0.684196,0.160714 -0.198337,0.107102 -0.349033,0.260033 -0.452168,0.45837 h -0.04754 l -0.03566,-0.559656 h -0.886768 v 3.177584 h 0.922424 v -1.648478 c 0,-0.174537 0.03162,-0.326951 0.09508,-0.457853 0.06744,-0.13487 0.162802,-0.240375 0.285771,-0.315743 0.126936,-0.07537 0.279866,-0.112655 0.45837,-0.112655 0.170569,0 0.307175,0.03729 0.410311,0.112655 0.107102,0.0714 0.182709,0.174672 0.226342,0.309541 0.0476,0.13487 0.07131,0.297422 0.07131,0.487826 v 1.624707 h 0.916223 v -1.648478 c 0,-0.178503 0.03385,-0.333152 0.101286,-0.464055 0.0714,-0.130902 0.168486,-0.234173 0.291455,-0.309541 0.126936,-0.07537 0.275398,-0.112655 0.445967,-0.112655 0.182471,0 0.325263,0.03729 0.428398,0.112655 0.103136,0.0714 0.174791,0.174672 0.214457,0.309541 0.04363,0.130903 0.06563,0.285552 0.06563,0.464055 v 1.648478 h 0.921908 v -1.767334 c 0,-0.337174 -0.05138,-0.612619 -0.154513,-0.826823 -0.103135,-0.214204 -0.253831,-0.375039 -0.452168,-0.482141 -0.194371,-0.107102 -0.428578,-0.160714 -0.702283,-0.160714 -0.277673,0 -0.523736,0.05756 -0.73794,0.1726 -0.214204,0.115035 -0.382427,0.297348 -0.505395,0.547253 h -0.05374 c -0.08727,-0.234038 -0.23006,-0.412399 -0.428397,-0.535368 -0.198337,-0.122969 -0.436496,-0.184485 -0.714169,-0.184485 z m 14.156242,0 c -0.37684,0 -0.707615,0.0677 -0.993221,0.202572 -0.281638,0.130902 -0.501755,0.318886 -0.660425,0.564823 -0.154703,0.241972 -0.232543,0.531508 -0.232543,0.868681 0,0.249905 0.04175,0.478442 0.125056,0.684713 0.08727,0.202304 0.2103,0.376713 0.36897,0.523482 0.15867,0.14677 0.351122,0.257945 0.577226,0.333313 0.230071,0.07537 0.487991,0.112655 0.773596,0.112655 0.321307,0 0.614795,-0.04914 0.880567,-0.148312 0.269738,-0.09917 0.488137,-0.241961 0.65474,-0.428397 0.17057,-0.186437 0.265421,-0.404836 0.285254,-0.654741 h -0.921908 c -0.02777,0.107102 -0.08361,0.200235 -0.166915,0.27957 -0.0833,0.07934 -0.184338,0.140851 -0.30334,0.184485 -0.119003,0.03967 -0.252173,0.05943 -0.398942,0.05943 -0.194371,0 -0.362593,-0.03557 -0.505396,-0.106971 -0.142803,-0.0714 -0.253978,-0.17639 -0.333313,-0.315226 -0.07537,-0.142803 -0.113171,-0.315494 -0.113171,-0.517798 0,-0.186437 0.0378,-0.348989 0.113171,-0.487825 0.07537,-0.138836 0.184309,-0.247777 0.327112,-0.327112 0.146769,-0.07934 0.319461,-0.119373 0.517798,-0.119373 0.150736,0 0.28339,0.01976 0.398425,0.05943 0.119003,0.03967 0.218322,0.09723 0.297656,0.1726 0.07934,0.07537 0.132948,0.166783 0.160714,0.273885 h 0.910539 c -0.01587,-0.241971 -0.09938,-0.452466 -0.250114,-0.63097 -0.150737,-0.18247 -0.355044,-0.325262 -0.612883,-0.428397 -0.257838,-0.103135 -0.557513,-0.154513 -0.898653,-0.154513 z m 3.710368,0 c -0.333207,0 -0.618791,0.04175 -0.856795,0.125057 -0.238005,0.0833 -0.420318,0.200147 -0.547254,0.350883 -0.126935,0.146769 -0.190686,0.325131 -0.190686,0.535368 0,0.154703 0.02818,0.285639 0.08372,0.392741 0.05554,0.107102 0.144716,0.196799 0.267684,0.268201 0.122969,0.0714 0.28157,0.128449 0.47594,0.172082 0.194371,0.04364 0.428061,0.07749 0.701766,0.101286 0.210238,0.01983 0.373309,0.04355 0.488341,0.07131 0.119,0.0238 0.20199,0.06161 0.24959,0.113172 0.0515,0.0476 0.0775,0.120973 0.0775,0.220141 0,0.130904 -0.0655,0.227989 -0.19637,0.291455 -0.12694,0.06347 -0.305295,0.0956 -0.535365,0.0956 -0.257839,0 -0.456477,-0.04399 -0.595313,-0.131258 -0.134869,-0.08727 -0.209959,-0.212018 -0.225826,-0.374654 h -0.898653 c 0.01983,0.325273 0.172765,0.58491 0.45837,0.77928 0.285606,0.190403 0.695939,0.285771 1.23145,0.285771 0.567237,0 0.985997,-0.09141 1.255737,-0.273885 0.2737,-0.186437 0.41031,-0.430266 0.41031,-0.731738 0,-0.17057 -0.0277,-0.313363 -0.0832,-0.428398 -0.0555,-0.115036 -0.143,-0.208168 -0.262,-0.27957 -0.119,-0.07537 -0.2776,-0.132932 -0.47594,-0.172599 -0.19437,-0.04364 -0.42858,-0.07749 -0.70228,-0.101286 -0.198338,-0.01983 -0.358656,-0.04131 -0.481625,-0.06511 -0.12297,-0.0238 -0.21215,-0.05989 -0.267684,-0.107487 -0.05553,-0.0476 -0.08372,-0.114787 -0.08372,-0.202055 0,-0.130904 0.06375,-0.226271 0.190686,-0.285771 0.130903,-0.0595 0.299642,-0.0894 0.505913,-0.0894 0.130902,0 0.245515,0.01804 0.34468,0.05374 0.0991,0.03173 0.1787,0.08139 0.23823,0.148828 0.0635,0.06347 0.1013,0.148696 0.11317,0.255798 h 0.86868 c -0.0198,-0.218171 -0.0971,-0.402718 -0.23203,-0.553454 -0.13089,-0.150736 -0.30926,-0.265864 -0.53536,-0.345199 -0.22214,-0.07934 -0.486251,-0.118856 -0.791686,-0.118856 z m 15.857946,0 c -0.24991,0 -0.48583,0.05533 -0.70797,0.166398 -0.22213,0.11107 -0.38692,0.267952 -0.49402,0.470256 h -0.0476 l -0.0295,-0.577226 h -0.89297 v 3.177584 h 0.92242 v -1.582849 c 0,-0.186437 0.0378,-0.351224 0.11318,-0.494027 0.0793,-0.142802 0.18827,-0.253461 0.32711,-0.332796 0.1428,-0.0833 0.30759,-0.125057 0.49402,-0.125057 0.18644,0 0.33714,0.03729 0.45217,0.112655 0.11504,0.0714 0.19632,0.178624 0.24392,0.321427 0.0515,0.138836 0.0775,0.311527 0.0775,0.517798 v 1.582849 h 0.92243 v -1.743563 c 0,-0.277672 -0.0339,-0.511879 -0.10129,-0.702283 -0.0674,-0.19437 -0.1628,-0.349019 -0.28577,-0.464054 -0.11901,-0.115036 -0.26352,-0.19803 -0.43408,-0.249597 -0.16661,-0.05157 -0.35339,-0.07752 -0.55966,-0.07752 z m 5.59346,0 c -0.2499,0 -0.48583,0.05533 -0.70797,0.166398 -0.22214,0.11107 -0.38693,0.267952 -0.49403,0.470256 h -0.0475 l -0.0294,-0.577226 h -0.89246 v 3.177584 h 0.92191 v -1.582849 c 0,-0.186437 0.0378,-0.351224 0.11317,-0.494027 0.0793,-0.142802 0.18828,-0.253461 0.32712,-0.332796 0.14279,-0.0833 0.30758,-0.125057 0.49402,-0.125057 0.18643,0 0.33713,0.03729 0.45217,0.112655 0.11503,0.0714 0.19631,0.178624 0.24391,0.321427 0.0516,0.138836 0.0775,0.311527 0.0775,0.517798 v 1.582849 h 0.92242 v -1.743563 c 0,-0.277672 -0.0339,-0.511879 -0.10128,-0.702283 -0.0674,-0.19437 -0.1628,-0.349019 -0.28577,-0.464054 -0.119,-0.115036 -0.26351,-0.19803 -0.43409,-0.249597 -0.1666,-0.05157 -0.35338,-0.07752 -0.55965,-0.07752 z m 3.25768,0 c -0.29751,0 -0.55938,0.06375 -0.78548,0.190686 -0.22213,0.12297 -0.39654,0.299096 -0.52348,0.529167 -0.12694,0.23007 -0.19069,0.495894 -0.19069,0.797367 0,0.230071 0.0339,0.438332 0.10129,0.624768 0.0674,0.182471 0.16675,0.341071 0.29765,0.47594 0.1309,0.13487 0.28555,0.238141 0.46406,0.309542 0.18246,0.0714 0.38677,0.10697 0.61288,0.10697 0.24991,0 0.47965,-0.04966 0.68988,-0.148828 0.21421,-0.09917 0.36937,-0.238009 0.46457,-0.416512 h 0.0413 v 0.523999 c 0,0.162637 -0.0378,0.293573 -0.11317,0.392741 -0.0754,0.103137 -0.18035,0.176508 -0.31523,0.220142 -0.13486,0.0476 -0.29347,0.07131 -0.47594,0.07131 -0.1428,0 -0.26978,-0.01581 -0.38085,-0.04754 -0.11107,-0.02777 -0.20025,-0.07348 -0.26769,-0.136943 -0.0674,-0.0595 -0.11087,-0.131155 -0.13074,-0.214457 h -0.87488 c 0.0198,0.202304 0.0954,0.381182 0.22634,0.535885 0.1309,0.154703 0.31494,0.271548 0.55294,0.350883 0.238,0.0833 0.52583,0.125057 0.863,0.125057 0.3094,0 0.57694,-0.03162 0.80305,-0.09508 0.23007,-0.0595 0.42081,-0.150916 0.57154,-0.273885 0.15471,-0.119003 0.26983,-0.265747 0.3452,-0.440283 0.0754,-0.174537 0.11265,-0.374893 0.11265,-0.600997 v -2.8205 h -0.86868 l -0.0357,0.499711 h -0.0476 c -0.0952,-0.17057 -0.24417,-0.305458 -0.44648,-0.404626 -0.19833,-0.103135 -0.42807,-0.154513 -0.68988,-0.154513 z m 5.9862,0 c -0.25784,0 -0.48586,0.05361 -0.6842,0.160714 -0.19833,0.107102 -0.34903,0.260033 -0.45217,0.45837 h -0.0475 l -0.0357,-0.559656 h -0.88676 v 3.177584 h 0.92242 v -1.648478 c 0,-0.174537 0.0316,-0.326951 0.0951,-0.457853 0.0674,-0.13487 0.1628,-0.240375 0.28577,-0.315743 0.12694,-0.07537 0.27935,-0.112655 0.45785,-0.112655 0.17057,0 0.30769,0.03729 0.41083,0.112655 0.10713,0.0714 0.18222,0.174672 0.22582,0.309541 0.0476,0.13487 0.0713,0.297422 0.0713,0.487826 v 1.624707 h 0.91674 v -1.648478 c 0,-0.178503 0.0333,-0.333152 0.10077,-0.464055 0.0714,-0.130902 0.169,-0.234173 0.29197,-0.309541 0.12694,-0.07537 0.2754,-0.112655 0.44597,-0.112655 0.18247,0 0.32526,0.03729 0.42839,0.112655 0.10314,0.0714 0.17479,0.174672 0.21446,0.309541 0.0437,0.130903 0.0651,0.285552 0.0651,0.464055 v 1.648478 h 0.92243 v -1.767334 c 0,-0.337174 -0.0514,-0.612619 -0.15452,-0.826823 -0.10313,-0.214204 -0.25382,-0.375039 -0.45216,-0.482141 -0.19437,-0.107102 -0.42858,-0.160714 -0.70229,-0.160714 -0.27767,0 -0.52373,0.05756 -0.73794,0.1726 -0.2142,0.115035 -0.38242,0.297348 -0.50539,0.547253 h -0.0538 c -0.0873,-0.234038 -0.23005,-0.412399 -0.42839,-0.535368 -0.19834,-0.122969 -0.4365,-0.184485 -0.71417,-0.184485 z m 12.61732,0 c -0.37684,0 -0.7059,0.0677 -0.98754,0.202572 -0.27767,0.130902 -0.49607,0.321119 -0.65474,0.571024 -0.1547,0.245938 -0.23203,0.543379 -0.23203,0.892452 0,0.337173 0.0773,0.62671 0.23203,0.868681 0.15471,0.241971 0.37311,0.428237 0.65474,0.559139 0.28561,0.130903 0.61861,0.196371 0.99942,0.196371 0.32527,0 0.61704,-0.04347 0.87488,-0.130742 0.25784,-0.08727 0.46782,-0.2103 0.63046,-0.368969 0.16263,-0.162637 0.25972,-0.348902 0.29145,-0.559139 H 143.917 c -0.0436,0.126935 -0.14691,0.231925 -0.30955,0.315226 -0.16264,0.07934 -0.35904,0.118856 -0.58911,0.118856 -0.19834,0 -0.37103,-0.03162 -0.5178,-0.09508 -0.14677,-0.06744 -0.26189,-0.162801 -0.34519,-0.285771 -0.0793,-0.126936 -0.12054,-0.275397 -0.12454,-0.445967 h 2.76675 c 0.0278,-0.384775 -0.0281,-0.713832 -0.16691,-0.987537 -0.13884,-0.273705 -0.34882,-0.484199 -0.63046,-0.630969 -0.27767,-0.146769 -0.61686,-0.220142 -1.0175,-0.220142 z m -55.48809,0.0062 c -0.309406,0 -0.583134,0.06719 -0.821139,0.202055 -0.234037,0.130903 -0.41635,0.319402 -0.547253,0.56534 -0.130903,0.245938 -0.19637,0.537193 -0.19637,0.874366 0,0.249905 0.03557,0.476207 0.10697,0.678511 0.07537,0.202304 0.182591,0.376713 0.321427,0.523483 0.138836,0.142803 0.303623,0.253978 0.494027,0.333313 0.19437,0.07537 0.4083,0.113171 0.642338,0.113171 0.269738,0 0.51185,-0.05361 0.726054,-0.160714 0.218171,-0.111068 0.376771,-0.257813 0.47594,-0.440283 h 0.03566 v 0.541569 h 0.922425 v -3.177584 h -0.874882 l -0.02946,0.523482 h -0.03566 c -0.06347,-0.115035 -0.15093,-0.213838 -0.261999,-0.297139 -0.111069,-0.08727 -0.245957,-0.154972 -0.404626,-0.202572 -0.15867,-0.05157 -0.343218,-0.077 -0.553455,-0.077 z m 21.66069,0 c -0.3094,0 -0.58313,0.06719 -0.82114,0.202055 -0.23403,0.130903 -0.41687,0.319402 -0.54777,0.56534 -0.1309,0.245938 -0.19637,0.537193 -0.19637,0.874366 0,0.249905 0.0361,0.476207 0.10749,0.678511 0.0754,0.202304 0.18208,0.376713 0.32091,0.523483 0.13884,0.142803 0.30363,0.253978 0.49403,0.333313 0.19423,0.07531 0.40901,0.113116 0.64285,0.113171 0.26954,-6.8e-5 0.51148,-0.05368 0.72554,-0.160714 0.21817,-0.111068 0.37677,-0.257813 0.47594,-0.440283 h 0.0357 v 0.541569 h 0.92242 v -3.177584 h -0.87488 l -0.0295,0.523482 h -0.0357 c -0.0635,-0.115035 -0.15094,-0.213838 -0.262,-0.297139 -0.11108,-0.08727 -0.24596,-0.154972 -0.40463,-0.202572 -0.15867,-0.05157 -0.3427,-0.077 -0.55294,-0.077 z m 26.9012,0 c -0.3094,0 -0.58313,0.06719 -0.82113,0.202055 -0.23404,0.130903 -0.41636,0.319402 -0.54726,0.56534 -0.1309,0.245938 -0.19637,0.537193 -0.19637,0.874366 0,0.249905 0.0356,0.476207 0.10697,0.678511 0.0754,0.202304 0.1826,0.376713 0.32143,0.523483 0.13884,0.142803 0.30311,0.253978 0.49351,0.333313 0.19437,0.07537 0.40881,0.113171 0.64285,0.113171 0.26974,0 0.51185,-0.05361 0.72606,-0.160714 0.21817,-0.111068 0.37677,-0.257813 0.47594,-0.440283 h 0.0357 v 0.541569 h 0.92243 v -3.177584 h -0.87488 l -0.03,0.523482 h -0.0357 c -0.0635,-0.115035 -0.15042,-0.213838 -0.26149,-0.297139 -0.11107,-0.08727 -0.24596,-0.154972 -0.40462,-0.202572 -0.15867,-0.05157 -0.34322,-0.077 -0.55346,-0.077 z m 14.48646,0 c -0.30941,0 -0.58314,0.06719 -0.82114,0.202055 -0.23404,0.130903 -0.41635,0.319402 -0.54725,0.56534 -0.1309,0.245938 -0.19637,0.537193 -0.19637,0.874366 0,0.249905 0.0356,0.476207 0.10697,0.678511 0.0754,0.202304 0.18258,0.376713 0.32142,0.523483 0.13884,0.142803 0.30362,0.253978 0.49403,0.333313 0.19437,0.07537 0.4083,0.113171 0.64234,0.113171 0.26974,0 0.51185,-0.05361 0.72605,-0.160714 0.21817,-0.111068 0.37677,-0.257813 0.47594,-0.440283 h 0.0357 v 0.541569 h 0.92242 v -3.177584 h -0.87488 l -0.0294,0.523482 h -0.0362 c -0.0635,-0.115035 -0.15041,-0.213838 -0.26148,-0.297139 -0.11107,-0.08727 -0.24595,-0.154972 -0.40463,-0.202572 -0.15866,-0.05157 -0.34321,-0.077 -0.55345,-0.077 z m -71.46179,0.0057 c -0.214204,0 -0.398751,0.05138 -0.553455,0.154512 -0.150736,0.09917 -0.259677,0.236291 -0.327111,0.410828 h -0.03566 L 78.129274,80.53032 H 77.29625 v 3.177584 h 0.922424 v -1.565279 c 0.004,-0.194371 0.04125,-0.352971 0.112655,-0.47594 0.0714,-0.126937 0.169003,-0.217835 0.291972,-0.273368 0.122969,-0.0595 0.267479,-0.0894 0.434082,-0.0894 0.05157,0 0.101228,0.0017 0.148828,0.0057 0.05157,0.004 0.09899,0.01239 0.142627,0.02429 v -0.833024 c -0.03173,-0.0039 -0.07126,-0.0084 -0.118856,-0.0124 -0.04364,-0.0039 -0.0933,-0.0057 -0.148828,-0.0057 z m 28.14919,0 c -0.21421,0 -0.39875,0.05138 -0.55346,0.154512 -0.15073,0.09917 -0.25968,0.236291 -0.32711,0.410828 h -0.0357 l -0.0357,-0.517798 h -0.83303 v 3.177584 h 0.92243 v -1.565279 c 0.004,-0.194371 0.0413,-0.352971 0.11265,-0.47594 0.0714,-0.126937 0.169,-0.217835 0.29197,-0.273368 0.12297,-0.0595 0.26748,-0.0894 0.43409,-0.0894 0.0516,0 0.10122,0.0017 0.14882,0.0057 0.0516,0.004 0.099,0.01239 0.14263,0.02429 v -0.833024 c -0.0317,-0.0039 -0.0713,-0.0084 -0.11886,-0.0124 -0.0436,-0.0039 -0.0933,-0.0057 -0.14882,-0.0057 z m 39.77793,0 c -0.2142,0 -0.39875,0.05138 -0.55345,0.154512 -0.15074,0.09917 -0.25968,0.236291 -0.32712,0.410828 h -0.0357 l -0.0362,-0.517798 h -0.83302 v 3.177584 h 0.92242 v -1.565279 c 0.004,-0.194371 0.0418,-0.352971 0.11317,-0.47594 0.0714,-0.126937 0.16849,-0.217835 0.29146,-0.273368 0.12297,-0.0595 0.268,-0.0894 0.4346,-0.0894 0.0516,0 0.10123,0.0017 0.14883,0.0057 0.0516,0.004 0.099,0.01239 0.14262,0.02429 v -0.833024 c -0.0317,-0.0039 -0.0712,-0.0084 -0.11885,-0.0124 -0.0436,-0.0039 -0.0933,-0.0057 -0.14883,-0.0057 z m -87.04585,0.04754 v 3.177584 h 0.922425 v -3.177584 z m 5.570203,0 v 3.177584 h 0.921908 v -3.177584 z m 27.187488,0 v 3.177584 h 0.921907 v -3.177584 z m 19.151289,0 v 3.177584 h 0.92242 v -3.177584 z m 5.59345,0 v 3.177584 h 0.92243 v -3.177584 z m 30.1594,0 v 3.177584 h 0.92243 v -3.177584 z m -4.64778,0.577226 c 0.19438,0 0.35745,0.0299 0.48835,0.0894 0.13487,0.0595 0.23762,0.144729 0.30902,0.255798 0.0639,0.09945 0.1007,0.216443 0.11059,0.350883 h -1.87017 c 0.0236,-0.138198 0.0724,-0.257303 0.14728,-0.357084 0.0833,-0.11107 0.19224,-0.194064 0.32711,-0.249597 0.13884,-0.0595 0.30139,-0.0894 0.48782,-0.0894 z m -18.32704,0.02997 c 0.011,-2.79e-4 0.0219,0 0.0331,0 0.1785,0 0.33143,0.03333 0.45837,0.100769 0.1309,0.06744 0.23194,0.161085 0.30334,0.280087 0.0714,0.115035 0.10697,0.249924 0.10697,0.404626 v 0.154513 c 0,0.146769 -0.0356,0.277705 -0.10697,0.39274 -0.0714,0.11107 -0.17244,0.20025 -0.30334,0.267684 -0.13091,0.06347 -0.28779,0.09509 -0.47025,0.09509 -0.17058,0 -0.32127,-0.03385 -0.45217,-0.101286 -0.13091,-0.06743 -0.23194,-0.164519 -0.30334,-0.291455 -0.0714,-0.126936 -0.10697,-0.277632 -0.10697,-0.452169 0,-0.174537 0.0356,-0.322999 0.10697,-0.445967 0.0714,-0.126936 0.17243,-0.226255 0.30334,-0.297657 0.12272,-0.06694 0.26642,-0.102786 0.43098,-0.10697 z m -66.957155,0.03566 c 0.138836,0 0.264102,0.02148 0.375171,0.06511 0.115035,0.03967 0.21212,0.101184 0.291455,0.184485 0.0833,0.07934 0.146536,0.178655 0.190169,0.297656 0.04363,0.115036 0.06563,0.245972 0.06563,0.392741 0,0.202304 -0.03952,0.372761 -0.118856,0.511597 -0.07537,0.138836 -0.182591,0.246059 -0.321427,0.321427 -0.134869,0.07537 -0.295705,0.113172 -0.482141,0.113172 -0.198337,0 -0.371028,-0.0378 -0.517798,-0.113172 -0.142803,-0.07933 -0.251744,-0.182606 -0.327112,-0.309541 -0.07537,-0.130903 -0.113171,-0.273695 -0.113171,-0.428398 v -0.166398 c 0,-0.162637 0.0378,-0.309381 0.113171,-0.440283 0.07537,-0.130903 0.184309,-0.234174 0.327112,-0.309542 0.14677,-0.07934 0.319461,-0.118856 0.517798,-0.118856 z m 5.516459,0.0057 c 0.154702,0 0.291308,0.022 0.410311,0.06563 0.122969,0.04363 0.22624,0.106868 0.309542,0.19017 0.0833,0.0833 0.146535,0.182621 0.190169,0.297656 0.0476,0.115036 0.07183,0.243737 0.07183,0.38654 0,0.190404 -0.04004,0.357425 -0.119373,0.500228 -0.07537,0.138836 -0.186026,0.247777 -0.332796,0.327111 -0.146769,0.07537 -0.323413,0.113172 -0.529683,0.113172 -0.150737,0 -0.287859,-0.022 -0.410828,-0.06563 -0.119002,-0.0476 -0.220039,-0.110835 -0.30334,-0.19017 -0.0833,-0.0833 -0.146536,-0.18262 -0.19017,-0.297656 -0.04363,-0.115035 -0.06563,-0.244253 -0.06563,-0.387056 0,-0.190404 0.0378,-0.354674 0.113172,-0.49351 0.07934,-0.142803 0.19051,-0.251744 0.333313,-0.327112 0.146769,-0.07934 0.321177,-0.119373 0.523483,-0.119373 z m 11.763623,0 c 0.154703,0 0.291825,0.022 0.410827,0.06563 0.122969,0.04363 0.225724,0.106868 0.309026,0.19017 0.0833,0.0833 0.147052,0.182621 0.190686,0.297656 0.0476,0.115036 0.07131,0.243737 0.07131,0.38654 0,0.190404 -0.03952,0.357425 -0.118856,0.500228 -0.07537,0.138836 -0.186544,0.247777 -0.333313,0.327111 -0.146769,0.07537 -0.323412,0.113172 -0.529683,0.113172 -0.150736,0 -0.287342,-0.022 -0.410311,-0.06563 -0.119002,-0.0476 -0.220039,-0.110835 -0.303341,-0.19017 -0.0833,-0.0833 -0.147052,-0.18262 -0.190686,-0.297656 -0.04363,-0.115035 -0.06563,-0.244253 -0.06563,-0.387056 0,-0.190404 0.0378,-0.354674 0.113172,-0.49351 0.07934,-0.142803 0.19051,-0.251744 0.333313,-0.327112 0.146769,-0.07934 0.321178,-0.119373 0.523482,-0.119373 z m 12.801802,0 c 0.198338,0 0.369311,0.0378 0.512114,0.113172 0.146769,0.07537 0.25571,0.176405 0.327112,0.30334 0.07537,0.126936 0.113171,0.269729 0.113171,0.428398 v 0.172599 c 0,0.15867 -0.0378,0.303697 -0.113171,0.434599 -0.0714,0.130903 -0.178625,0.235892 -0.321428,0.315226 -0.142802,0.07934 -0.315493,0.118856 -0.517798,0.118856 -0.186436,0 -0.348989,-0.0378 -0.487825,-0.113171 -0.134869,-0.07537 -0.239858,-0.182075 -0.315226,-0.320911 -0.07537,-0.142803 -0.113172,-0.313776 -0.113172,-0.512113 0,-0.202304 0.0378,-0.372761 0.113172,-0.511597 0.07934,-0.138836 0.186558,-0.243825 0.321427,-0.315226 0.138836,-0.07537 0.299155,-0.113172 0.481624,-0.113172 z m 21.660691,0 c 0.19834,0 0.3688,0.0378 0.5116,0.113172 0.14677,0.07537 0.25571,0.176405 0.32711,0.30334 0.0754,0.126936 0.11317,0.269729 0.11317,0.428398 v 0.172599 c 0,0.15867 -0.0378,0.303697 -0.11317,0.434599 -0.0714,0.130903 -0.17862,0.235892 -0.32143,0.315226 -0.1428,0.07934 -0.31497,0.118856 -0.51728,0.118856 -0.18643,0 -0.34898,-0.0378 -0.48782,-0.113171 -0.13487,-0.07537 -0.24038,-0.182075 -0.31575,-0.320911 -0.0754,-0.142803 -0.11317,-0.313776 -0.11317,-0.512113 0,-0.202304 0.0378,-0.372761 0.11317,-0.511597 0.0793,-0.138836 0.18657,-0.243825 0.32143,-0.315226 0.13884,-0.07537 0.29968,-0.113172 0.48214,-0.113172 z m 26.9012,0 c 0.19834,0 0.3688,0.0378 0.5116,0.113172 0.14677,0.07537 0.25623,0.176405 0.32763,0.30334 0.0754,0.126936 0.11265,0.269729 0.11265,0.428398 v 0.172599 c 0,0.15867 -0.0373,0.303697 -0.11265,0.434599 -0.0714,0.130903 -0.17862,0.235892 -0.32143,0.315226 -0.1428,0.07934 -0.31549,0.118856 -0.5178,0.118856 -0.18643,0 -0.34898,-0.0378 -0.48782,-0.113171 -0.13487,-0.07537 -0.23986,-0.182075 -0.31523,-0.320911 -0.0754,-0.142803 -0.11317,-0.313776 -0.11317,-0.512113 0,-0.202304 0.0378,-0.372761 0.11317,-0.511597 0.0793,-0.138836 0.18605,-0.243825 0.32091,-0.315226 0.13884,-0.07537 0.29968,-0.113172 0.48214,-0.113172 z m 14.48646,0 c 0.19833,0 0.36879,0.0378 0.51159,0.113172 0.14677,0.07537 0.25623,0.176405 0.32763,0.30334 0.0754,0.126936 0.11266,0.269729 0.11266,0.428398 v 0.172599 c 0,0.15867 -0.0373,0.303697 -0.11266,0.434599 -0.0714,0.130903 -0.17862,0.235892 -0.32142,0.315226 -0.14281,0.07934 -0.3155,0.118856 -0.5178,0.118856 -0.18644,0 -0.34899,-0.0378 -0.48783,-0.113171 -0.13487,-0.07537 -0.23986,-0.182075 -0.31522,-0.320911 -0.0754,-0.142803 -0.11318,-0.313776 -0.11318,-0.512113 0,-0.202304 0.0378,-0.372761 0.11318,-0.511597 0.0793,-0.138836 0.18655,-0.243825 0.32142,-0.315226 0.13884,-0.07537 0.29915,-0.113172 0.48163,-0.113172 z" />
    </g>
  </g>
</svg>
