<?xml version="1.0" encoding="UTF-8" standalone="no"?>
<!-- Created with Inkscape (http://www.inkscape.org/) -->

<svg
   width="154.35812mm"
   height="38.099998mm"
   viewBox="0 0 154.35813 38.099998"
   version="1.1"
   id="svg21044"
   xml:space="preserve"
   xmlns:xlink="http://www.w3.org/1999/xlink"
   xmlns="http://www.w3.org/2000/svg"
   xmlns:svg="http://www.w3.org/2000/svg"><defs
     id="defs21041"><linearGradient
       xlink:href="#linearGradient8740"
       id="linearGradient14468"
       gradientUnits="userSpaceOnUse"
       gradientTransform="matrix(0.14945655,0,0,0.14945655,460.05805,131.3791)"
       x1="-2747.7346"
       y1="-584.57153"
       x2="-2075.5229"
       y2="-584.57153" /><linearGradient
       id="linearGradient8740"><stop
         id="stop8738"
         offset="0"
         style="stop-color:#000000;stop-opacity:1;" /><stop
         id="stop8736"
         offset="0.18261695"
         style="stop-color:#3a86ff;stop-opacity:1" /><stop
         style="stop-color:#8338ec;stop-opacity:1"
         offset="0.38739288"
         id="stop8734" /><stop
         id="stop8732"
         offset="0.59400356"
         style="stop-color:#ff006e;stop-opacity:1" /><stop
         style="stop-color:#fb5607;stop-opacity:1"
         offset="0.74514398"
         id="stop8730" /><stop
         id="stop8728"
         offset="1"
         style="stop-color:#ffbe0b;stop-opacity:1" /></linearGradient><radialGradient
       xlink:href="#radialGradient4071-7"
       id="radialGradient14470"
       gradientUnits="userSpaceOnUse"
       gradientTransform="matrix(3.8278643,0,0,-3.827887,160.94685,37.285569)"
       cx="0"
       cy="0"
       fx="0"
       fy="0"
       r="1"
       spreadMethod="pad" /><radialGradient
       fx="0"
       fy="0"
       cx="0"
       cy="0"
       r="1"
       gradientUnits="userSpaceOnUse"
       gradientTransform="matrix(136.52995,0,0,136.53076,86.62188,160.54361)"
       spreadMethod="pad"
       id="radialGradient4071-7"><stop
         style="stop-opacity:1;stop-color:#ffffff"
         offset="0"
         id="stop4061-0" /><stop
         style="stop-opacity:1;stop-color:#ffffff"
         offset="0.00205545"
         id="stop4063-9" /><stop
         style="stop-opacity:1;stop-color:#ffffff"
         offset="0.032588"
         id="stop4065-3" /><stop
         style="stop-opacity:1;stop-color:#ffffff"
         offset="0.08358642"
         id="stop4067-6" /><stop
         style="stop-opacity:1;stop-color:#ff0000"
         offset="1"
         id="stop4069-0" /></radialGradient><radialGradient
       xlink:href="#radialGradient4045-6"
       id="radialGradient14472"
       gradientUnits="userSpaceOnUse"
       gradientTransform="matrix(3.9119447,0,0,-3.911968,161.26706,37.285787)"
       cx="0"
       cy="0"
       fx="0"
       fy="0"
       r="1"
       spreadMethod="pad" /><radialGradient
       fx="0"
       fy="0"
       cx="0"
       cy="0"
       r="1"
       gradientUnits="userSpaceOnUse"
       gradientTransform="matrix(139.52888,0,0,139.52971,98.042976,160.53586)"
       spreadMethod="pad"
       id="radialGradient4045-6"><stop
         style="stop-opacity:1;stop-color:#ffffff"
         offset="0"
         id="stop4037-2" /><stop
         style="stop-opacity:1;stop-color:#ff0000"
         offset="0.96810947"
         id="stop4039-9" /><stop
         style="stop-opacity:1;stop-color:#ff0000"
         offset="0.999999"
         id="stop4041-1" /><stop
         style="stop-opacity:1;stop-color:#ff0000"
         offset="1"
         id="stop4043-2" /></radialGradient><linearGradient
       xlink:href="#linearGradient8740"
       id="linearGradient25943"
       gradientUnits="userSpaceOnUse"
       gradientTransform="matrix(0.113147,0,0,0.113147,330.76207,244.26506)"
       x1="-2747.7346"
       y1="-584.57153"
       x2="-2075.5229"
       y2="-584.57153" /></defs><g
     id="layer1"><g
       id="g22113"
       transform="matrix(0.66984385,0,0,0.66984385,3.0976426e-7,1.6753946e-6)"><g
         id="g16037"
         transform="matrix(1.2827861,0,0,1.2827861,-33.612097,-143.72952)"><path
           id="path29798"
           style="font-weight:normal;font-size:4.53833px;line-height:1.1;font-family:'Mona Sans';-inkscape-font-specification:'Mona Sans, @wght=649,wdth=125.0';font-variation-settings:'wdth' 125, 'wght' 649;letter-spacing:-0.04301px;fill:#1f2937;stroke:none;stroke-width:4.53659;stroke-linecap:round;stroke-linejoin:round;stroke-miterlimit:10;paint-order:fill markers stroke"
           d="m 126.06704,128.86706 c -0.31349,0 -0.59577,0.0443 -0.84654,0.13368 -0.25081,0.0858 -0.4637,0.20917 -0.63859,0.37086 -0.17488,0.16168 -0.30832,0.35676 -0.40072,0.58448 -0.0922,0.22769 -0.13867,0.47972 -0.13867,0.75693 0,0.28049 0.0443,0.53486 0.13368,0.76255 0.0922,0.22442 0.22463,0.41891 0.39621,0.58393 0.17489,0.16167 0.38603,0.28738 0.63352,0.37649 0.24747,0.0857 0.52442,0.12854 0.83131,0.12854 h 5.7e-4 c 0.27389,0 0.5295,-0.0361 0.76709,-0.10871 0.24088,-0.0727 0.45024,-0.17992 0.62844,-0.32182 0.1782,-0.1452 0.31693,-0.3237 0.41593,-0.53488 0.10215,-0.21118 0.15331,-0.45493 0.15331,-0.73213 v -0.28237 h -2.01436 v 0.51458 h 1.21629 c -0.0152,0.14401 -0.0577,0.27242 -0.12744,0.38608 -0.0892,0.14189 -0.22134,0.25279 -0.39623,0.33198 -0.17159,0.0794 -0.3827,0.119 -0.6335,0.119 -0.1815,0 -0.34637,-0.0269 -0.49485,-0.0796 -0.14851,-0.056 -0.27718,-0.13507 -0.38609,-0.23727 -0.1055,-0.1055 -0.18621,-0.23428 -0.24235,-0.38608 -0.0562,-0.15178 -0.0846,-0.32552 -0.0846,-0.52021 0,-0.24749 0.0478,-0.46158 0.14373,-0.64309 0.0957,-0.18149 0.23445,-0.32203 0.41596,-0.42101 0.18477,-0.0991 0.4072,-0.14825 0.66788,-0.14825 0.18478,0 0.35144,0.025 0.49991,0.0744 0.1485,0.0495 0.27244,0.12185 0.37144,0.21756 0.10215,0.0957 0.16989,0.21254 0.20291,0.35113 h 0.80203 c -0.0364,-0.25738 -0.13536,-0.47978 -0.29703,-0.66788 -0.16171,-0.19139 -0.37814,-0.34023 -0.64872,-0.44582 -0.2673,-0.10885 -0.57747,-0.1629 -0.93054,-0.1629 z m 2.31872,0.0443 v 0.60871 h 0.76708 v -0.6087 z m 19.2971,0 v 0.60871 h 0.76707 v -0.6087 z m 8.64474,0 v 0.60871 h 0.76708 v -0.6087 z m 12.87469,0 v 0.60871 h 0.76764 v -0.6087 z m 3.29431,0 v 3.60827 h 0.7671 v -1.3166 c 0,-0.15511 0.0313,-0.29031 0.0941,-0.40581 0.066,-0.11888 0.15672,-0.21127 0.27223,-0.27731 0.11887,-0.0693 0.25579,-0.10377 0.41088,-0.10377 0.1551,0 0.28023,0.0297 0.37593,0.089 0.0957,0.0594 0.16327,0.14835 0.20289,0.26714 0.0429,0.11553 0.0643,0.25902 0.0643,0.43059 v 1.31662 h 0.7671 v -1.45019 c 0,-0.23098 -0.028,-0.42607 -0.0841,-0.58448 -0.0561,-0.16167 -0.13507,-0.29037 -0.23728,-0.38606 -0.0991,-0.0957 -0.21939,-0.16451 -0.36128,-0.2074 -0.13867,-0.0429 -0.29396,-0.0648 -0.46556,-0.0648 -0.21449,0 -0.41256,0.0478 -0.59403,0.14373 -0.18151,0.0922 -0.31672,0.22285 -0.40583,0.39114 h -0.0395 v -1.45018 z m -41.78705,0.12856 -0.75694,0.14881 v 0.6876 h -0.50501 v 0.57939 h 0.50501 v 1.43046 c 0,0.14191 0.0279,0.26053 0.0841,0.35622 0.0596,0.0924 0.14182,0.16179 0.24742,0.20797 0.1055,0.0461 0.22952,0.0693 0.37142,0.0693 h 0.72256 v -0.65322 h -0.41088 c -0.089,0 -0.15492,-0.015 -0.1978,-0.0443 -0.0395,-0.0331 -0.0598,-0.0923 -0.0598,-0.17809 v -1.18812 h 0.66844 v -0.57939 h -0.66844 z m 19.29765,0 -0.7575,0.14881 v 0.6876 h -0.505 v 0.57939 h 0.505 v 1.43046 c 0,0.14191 0.0277,0.26053 0.0841,0.35622 0.0594,0.0924 0.14183,0.16179 0.24743,0.20797 0.1055,0.0461 0.22953,0.0693 0.37144,0.0693 h 0.72254 v -0.65322 h -0.41088 c -0.089,0 -0.15493,-0.015 -0.19783,-0.0443 -0.0395,-0.0331 -0.0592,-0.0923 -0.0592,-0.17809 v -1.18812 h 0.6679 v -0.57939 h -0.6679 z m 21.51943,0 -0.75751,0.14881 v 0.6876 h -0.50497 v 0.57939 h 0.50497 v 1.43046 c 0,0.14191 0.0279,0.26053 0.0841,0.35622 0.0594,0.0924 0.14183,0.16179 0.24743,0.20797 0.1055,0.0461 0.22954,0.0693 0.37143,0.0693 h 0.72255 v -0.65322 h -0.41089 c -0.089,0 -0.15492,-0.015 -0.19782,-0.0443 -0.0395,-0.0331 -0.0592,-0.0923 -0.0592,-0.17809 v -1.18812 h 0.6679 v -0.57939 h -0.6679 z m -35.47344,0.7868 c -0.31347,0 -0.58746,0.0564 -0.82175,0.16856 -0.23098,0.10884 -0.41246,0.26723 -0.54447,0.47511 -0.12869,0.20459 -0.1933,0.45188 -0.1933,0.74227 0,0.2805 0.0646,0.52184 0.1933,0.72314 0.12869,0.20129 0.31018,0.35607 0.54447,0.46497 0.23758,0.10885 0.51454,0.16346 0.83132,0.16346 0.2706,0 0.51316,-0.0361 0.72764,-0.10871 0.2145,-0.0727 0.38944,-0.17519 0.52474,-0.30716 0.13534,-0.13534 0.21595,-0.2901 0.24234,-0.46498 h -0.72763 c -0.0363,0.1055 -0.12172,0.19098 -0.257,0.25699 -0.13534,0.066 -0.29895,0.0992 -0.49035,0.0992 -0.16499,0 -0.30851,-0.0263 -0.4306,-0.079 -0.12209,-0.0529 -0.21578,-0.1305 -0.28181,-0.23279 -0.066,-0.1055 -0.1029,-0.22951 -0.10922,-0.37143 h 2.30184 c 0.0232,-0.32008 -0.0232,-0.59406 -0.13868,-0.82172 -0.11552,-0.22772 -0.29044,-0.40264 -0.52473,-0.52475 -0.23097,-0.12197 -0.51268,-0.18318 -0.84598,-0.18318 z m 6.77636,0 c -0.31678,0 -0.59432,0.0564 -0.83189,0.16856 -0.23429,0.10884 -0.41697,0.26544 -0.54896,0.47005 -0.13202,0.20458 -0.1984,0.4489 -0.1984,0.73268 0,0.21781 0.0362,0.4111 0.10872,0.57942 0.076,0.16827 0.18323,0.31179 0.32182,0.4306 0.14189,0.11887 0.30853,0.20952 0.49994,0.27221 0.19471,0.0594 0.41114,0.089 0.64873,0.089 0.31677,0 0.59196,-0.0546 0.82626,-0.16346 0.23757,-0.10896 0.42081,-0.26545 0.54953,-0.47005 0.13201,-0.2079 0.19838,-0.45399 0.19838,-0.73779 0,-0.21448 -0.0379,-0.40602 -0.1138,-0.57432 -0.0727,-0.17158 -0.17994,-0.3151 -0.32183,-0.43059 -0.13854,-0.11887 -0.30524,-0.20955 -0.49995,-0.27223 -0.19138,-0.0628 -0.40427,-0.0941 -0.63856,-0.0941 z m 3.16301,0 c -0.27721,0 -0.51497,0.0349 -0.71298,0.10427 -0.19799,0.0693 -0.3498,0.16655 -0.45539,0.29195 -0.1055,0.12222 -0.15838,0.27036 -0.15838,0.44526 0,0.12868 0.0232,0.23781 0.0693,0.32689 0.0462,0.089 0.12035,0.16324 0.22262,0.22262 0.1024,0.0594 0.23456,0.10748 0.39625,0.14373 0.16169,0.0363 0.35621,0.0643 0.58388,0.0841 0.17491,0.0165 0.31011,0.0367 0.40581,0.0598 0.0988,0.0198 0.16836,0.0507 0.20799,0.0935 0.0428,0.0395 0.0643,0.10067 0.0643,0.18317 0,0.10897 -0.054,0.19014 -0.16288,0.24292 -0.1055,0.0495 -0.25445,0.0739 -0.44584,0.0739 -0.21448,0 -0.37934,-0.0344 -0.49483,-0.10377 -0.11219,-0.0726 -0.1733,-0.17639 -0.18318,-0.31169 h -0.75243 c 0.0165,0.27059 0.14341,0.48646 0.381,0.64816 0.23758,0.15839 0.58093,0.23784 1.02972,0.23784 0.4686,0 0.81492,-0.076 1.03932,-0.2277 0.22769,-0.1551 0.34156,-0.35847 0.34156,-0.60927 0,-0.1419 -0.0232,-0.26051 -0.0693,-0.3562 -0.0461,-0.0957 -0.11862,-0.17337 -0.21754,-0.23278 -0.0991,-0.0628 -0.22948,-0.11008 -0.39118,-0.14316 -0.16168,-0.0363 -0.35797,-0.0643 -0.58897,-0.0841 -0.16498,-0.0165 -0.29842,-0.0349 -0.40073,-0.0546 -0.1024,-0.0232 -0.17643,-0.0529 -0.22263,-0.0889 -0.0428,-0.0395 -0.0648,-0.0958 -0.0648,-0.16851 0,-0.10884 0.0527,-0.18778 0.15837,-0.23727 0.10884,-0.0495 0.24765,-0.0744 0.41595,-0.0744 0.10884,0 0.20496,0.015 0.28745,0.0443 0.0825,0.0264 0.1483,0.0674 0.19783,0.12345 0.0495,0.0529 0.0793,0.12397 0.089,0.21303 h 0.72762 c -0.0165,-0.18148 -0.0812,-0.33507 -0.19334,-0.46047 -0.10884,-0.12536 -0.25714,-0.22085 -0.44523,-0.28686 -0.1848,-0.066 -0.40422,-0.0992 -0.65831,-0.0992 z m 6.41904,0 c -0.3168,0 -0.59374,0.0564 -0.83135,0.16856 -0.23429,0.10884 -0.41753,0.26544 -0.54952,0.47005 -0.13201,0.20458 -0.19784,0.4489 -0.19784,0.73268 0,0.21781 0.036,0.4111 0.10872,0.57942 0.076,0.16827 0.18322,0.31179 0.3218,0.4306 0.1419,0.11887 0.30854,0.20952 0.49993,0.27221 0.19454,0.0593 0.41136,0.089 0.64874,0.089 0.31654,-7e-5 0.59212,-0.0546 0.82625,-0.16346 0.23758,-0.10896 0.42082,-0.26545 0.54953,-0.47005 0.13203,-0.2079 0.19783,-0.45399 0.19783,-0.73779 0,-0.21448 -0.0379,-0.40602 -0.11392,-0.57432 -0.0727,-0.17158 -0.17994,-0.3151 -0.32185,-0.43059 -0.13853,-0.11887 -0.30521,-0.20955 -0.49992,-0.27223 -0.19139,-0.0628 -0.40429,-0.0941 -0.63856,-0.0941 z m 6.59598,0 c -0.31346,0 -0.58688,0.0564 -0.82117,0.16856 -0.23101,0.10884 -0.41247,0.26723 -0.54446,0.47511 -0.12869,0.20459 -0.19332,0.45188 -0.19332,0.74227 0,0.2805 0.0648,0.52184 0.19332,0.72314 0.12869,0.20129 0.31016,0.35607 0.54446,0.46497 0.23758,0.10885 0.51456,0.16346 0.83133,0.16346 0.27059,0 0.51314,-0.0361 0.72764,-0.10871 0.21447,-0.0727 0.38942,-0.17519 0.52471,-0.30716 0.13534,-0.13534 0.21595,-0.2901 0.24236,-0.46498 h -0.72763 c -0.0363,0.1055 -0.12234,0.19098 -0.25757,0.25699 -0.13535,0.066 -0.29839,0.0992 -0.48978,0.0992 -0.16501,0 -0.30851,-0.0263 -0.43062,-0.079 -0.12209,-0.0529 -0.21635,-0.1305 -0.28235,-0.23279 -0.066,-0.1055 -0.10215,-0.22951 -0.10872,-0.37143 h 2.30181 c 0.0232,-0.32008 -0.0231,-0.59406 -0.13867,-0.82172 -0.11553,-0.22772 -0.29043,-0.40264 -0.52472,-0.52475 -0.23098,-0.12197 -0.51328,-0.18318 -0.84656,-0.18318 z m 3.09877,0 c -0.27718,0 -0.51442,0.0349 -0.71241,0.10427 -0.19797,0.0693 -0.34981,0.16655 -0.45541,0.29195 -0.1055,0.12222 -0.15836,0.27036 -0.15836,0.44526 0,0.12868 0.0232,0.23781 0.0693,0.32689 0.0461,0.089 0.12035,0.16324 0.22262,0.22262 0.10216,0.0594 0.23397,0.10748 0.39566,0.14373 0.16169,0.0363 0.35679,0.0643 0.58446,0.0841 0.17492,0.0165 0.31012,0.0367 0.4058,0.0598 0.0988,0.0198 0.16838,0.0507 0.20798,0.0935 0.0428,0.0395 0.0643,0.10067 0.0643,0.18317 0,0.10897 -0.0546,0.19014 -0.16345,0.24292 -0.1055,0.0495 -0.25387,0.0739 -0.44527,0.0739 -0.21446,0 -0.37935,-0.0344 -0.49484,-0.10377 -0.11218,-0.0726 -0.17329,-0.17639 -0.18318,-0.31169 h -0.75243 c 0.0165,0.27059 0.14342,0.48646 0.38101,0.64816 0.2376,0.15839 0.58095,0.23784 1.02974,0.23784 0.46858,0 0.8149,-0.076 1.03928,-0.2277 0.2277,-0.1551 0.34157,-0.35847 0.34157,-0.60927 0,-0.1419 -0.0232,-0.26051 -0.0693,-0.3562 -0.0461,-0.0957 -0.11863,-0.17337 -0.21755,-0.23278 -0.0991,-0.0628 -0.22946,-0.11008 -0.39116,-0.14316 -0.16169,-0.0363 -0.35799,-0.0643 -0.58898,-0.0841 -0.16501,-0.0165 -0.29898,-0.0349 -0.40129,-0.0546 -0.10215,-0.0232 -0.17646,-0.0529 -0.22262,-0.0889 -0.0429,-0.0395 -0.0643,-0.0958 -0.0643,-0.16851 0,-0.10884 0.0529,-0.18778 0.15837,-0.23727 0.10885,-0.0495 0.24767,-0.0744 0.41597,-0.0744 0.10884,0 0.20436,0.015 0.28686,0.0443 0.0825,0.0264 0.14832,0.0674 0.19783,0.12345 0.0495,0.0529 0.0794,0.12397 0.0889,0.21303 h 0.72764 c -0.0165,-0.18148 -0.0807,-0.33507 -0.19276,-0.46047 -0.10884,-0.12536 -0.25773,-0.22085 -0.44581,-0.28686 -0.18481,-0.066 -0.40423,-0.0992 -0.6583,-0.0992 z m -22.3981,0.005 c -0.25739,0 -0.47148,0.0443 -0.64309,0.13368 -0.16828,0.089 -0.29223,0.20472 -0.37144,0.34661 h -0.0298 l -0.0246,-0.43568 h -0.72765 v 3.4702 h 0.76767 v -1.27715 h 0.0292 c 0.056,0.10216 0.13382,0.19125 0.23274,0.26716 0.0991,0.0727 0.21288,0.13021 0.34158,0.17302 0.13201,0.0395 0.27252,0.0598 0.42101,0.0598 0.26399,0 0.49291,-0.0563 0.68762,-0.16852 0.19467,-0.11553 0.34652,-0.27385 0.4554,-0.47514 0.10884,-0.20459 0.16345,-0.44713 0.16345,-0.72762 0,-0.21119 -0.0313,-0.40095 -0.0941,-0.56928 -0.0628,-0.16829 -0.15165,-0.31 -0.26715,-0.42552 -0.11553,-0.11887 -0.25248,-0.20954 -0.41087,-0.27222 -0.15839,-0.066 -0.33513,-0.0992 -0.52981,-0.0992 z m -5.50879,0.005 c -0.1749,0 -0.32671,0.0428 -0.45539,0.12856 -0.12869,0.0823 -0.22119,0.19636 -0.27732,0.34153 h -0.0246 l -0.0292,-0.43059 h -0.69834 v 2.64335 h 0.76765 v -1.30194 c 0.007,-0.16168 0.0379,-0.29338 0.094,-0.39568 0.0594,-0.10216 0.14007,-0.17818 0.24238,-0.22768 0.1024,-0.0495 0.22444,-0.0744 0.36633,-0.0744 0.0395,0 0.0788,0.001 0.11838,0.005 0.0428,0.002 0.0843,0.01 0.12397,0.0198 v -0.69324 c -0.0297,-0.007 -0.064,-0.01 -0.10376,-0.01 -0.0363,-0.002 -0.0778,-0.005 -0.12397,-0.005 z m 21.62031,0 c -0.17489,0 -0.32671,0.0428 -0.45538,0.12856 -0.12883,0.0823 -0.22069,0.19636 -0.27675,0.34153 h -0.0246 l -0.0298,-0.43059 h -0.69778 v 2.64335 h 0.7671 v -1.30194 c 0.007,-0.16168 0.0379,-0.29338 0.094,-0.39568 0.0596,-0.10216 0.14006,-0.17818 0.24236,-0.22768 0.10241,-0.0495 0.22446,-0.0744 0.36636,-0.0744 0.0395,0 0.0794,0.001 0.11888,0.005 0.0428,0.002 0.0839,0.01 0.12345,0.0198 v -0.69324 c -0.0296,-0.007 -0.064,-0.01 -0.10377,-0.01 -0.0364,-0.002 -0.0779,-0.005 -0.12397,-0.005 z m -27.43401,0.0395 v 2.64337 h 0.76708 v -2.64337 z m 19.2971,0 v 2.64337 h 0.76707 v -2.64337 z m 8.64474,0 v 2.64337 h 0.76708 v -2.64337 z m 8.25923,0 0.77666,2.64337 h 0.9063 l 0.48472,-1.78666 h 0.03 l 0.48977,1.78666 h 0.92094 l 0.78175,-2.64337 h -0.69777 l -0.56418,2.0048 h -0.0198 l -0.51515,-2.0048 h -0.75694 l -0.51966,1.99013 h -0.0298 l -0.55463,-1.99013 z m 4.61546,0 v 2.64337 h 0.76764 v -2.64337 z m -33.15417,0.48022 c 0.1617,0 0.2969,0.025 0.40579,0.0744 0.11219,0.0495 0.19817,0.1206 0.25759,0.21301 0.0535,0.084 0.0843,0.18101 0.0922,0.29197 h -1.55219 c 0.0193,-0.11516 0.0589,-0.21397 0.11838,-0.29702 0.0693,-0.0924 0.16002,-0.16181 0.27223,-0.20796 0.11553,-0.0495 0.25069,-0.0744 0.40581,-0.0744 z m 22.95495,0 c 0.1617,0 0.29694,0.025 0.40582,0.0744 0.11218,0.0495 0.19761,0.1206 0.25698,0.21301 0.0535,0.084 0.0852,0.18101 0.0931,0.29197 h -1.5522 c 0.0193,-0.11516 0.0585,-0.21397 0.11776,-0.29702 0.0693,-0.0924 0.16059,-0.16181 0.2728,-0.20796 0.11553,-0.0495 0.25071,-0.0744 0.4058,-0.0744 z m -16.17352,0.0593 c 0.12536,0 0.23747,0.0201 0.33647,0.0598 0.1024,0.0363 0.1883,0.089 0.25758,0.15837 0.0693,0.066 0.12197,0.14666 0.15837,0.24236 0.0363,0.0956 0.0541,0.20303 0.0541,0.32182 0,0.15839 -0.0313,0.29715 -0.0941,0.41594 -0.0628,0.11553 -0.15466,0.20448 -0.27674,0.26717 -0.12221,0.0628 -0.26737,0.0941 -0.43568,0.0941 -0.12868,0 -0.24433,-0.0186 -0.34662,-0.0546 -0.0991,-0.0363 -0.18321,-0.0874 -0.2525,-0.15331 -0.0693,-0.0693 -0.12222,-0.15172 -0.15838,-0.24741 -0.0363,-0.0957 -0.0541,-0.20304 -0.0541,-0.32184 0,-0.15839 0.031,-0.29538 0.0935,-0.41087 0.066,-0.11887 0.15851,-0.20955 0.27731,-0.27223 0.12221,-0.066 0.26914,-0.0992 0.44074,-0.0992 z m 9.58262,0 c 0.12535,0 0.23748,0.0201 0.33646,0.0598 0.1024,0.0363 0.18773,0.089 0.25701,0.15837 0.0692,0.066 0.12221,0.14666 0.15838,0.24236 0.0363,0.0956 0.0546,0.20303 0.0546,0.32182 0,0.15839 -0.0313,0.29715 -0.0941,0.41594 -0.0628,0.11553 -0.15521,0.20448 -0.27732,0.26717 -0.12196,0.0628 -0.26679,0.0941 -0.43508,0.0941 -0.12869,0 -0.24434,-0.0186 -0.34664,-0.0546 -0.0991,-0.0363 -0.18322,-0.0874 -0.25249,-0.15331 -0.0693,-0.0693 -0.12221,-0.15172 -0.15841,-0.24741 -0.0363,-0.0957 -0.0546,-0.20304 -0.0546,-0.32184 0,-0.15839 0.0315,-0.29538 0.0941,-0.41087 0.066,-0.11887 0.15851,-0.20955 0.2773,-0.27223 0.12221,-0.066 0.26914,-0.0992 0.44075,-0.0992 z m -12.96715,5.5e-4 c 0.01,-2.1e-4 0.0208,0 0.0309,0 0.15178,0 0.28522,0.0308 0.40074,0.0935 0.11553,0.0594 0.20447,0.14714 0.26714,0.26265 0.0628,0.11553 0.0941,0.25723 0.0941,0.42552 0,0.165 -0.0332,0.30674 -0.0993,0.42553 -0.0628,0.11553 -0.14989,0.20506 -0.26208,0.26772 -0.11218,0.0628 -0.24564,0.0935 -0.40072,0.0935 -0.12536,0 -0.2375,-0.018 -0.33648,-0.0541 -0.0956,-0.0395 -0.17869,-0.0924 -0.248,-0.15839 -0.0693,-0.066 -0.12221,-0.14193 -0.15838,-0.2277 -0.0363,-0.089 -0.0541,-0.18338 -0.0541,-0.28238 v -0.14317 c 0,-0.13202 0.0315,-0.25117 0.0941,-0.35675 0.0628,-0.1055 0.15343,-0.18983 0.27223,-0.25251 0.11442,-0.0588 0.24744,-0.09 0.39961,-0.0935 z m -15.29371,4.36973 v 3.60827 h 0.72761 l 0.0248,-0.43568 h 0.03 c 0.0529,0.0924 0.12522,0.1748 0.21755,0.24743 0.0957,0.0726 0.20956,0.12898 0.34155,0.16854 0.13536,0.0395 0.28588,0.0593 0.4509,0.0593 0.26398,0 0.4929,-0.0546 0.68761,-0.16344 0.19468,-0.11218 0.3465,-0.27055 0.45539,-0.47514 0.10885,-0.20458 0.16347,-0.44712 0.16347,-0.7276 0,-0.20792 -0.0316,-0.39415 -0.094,-0.55912 -0.0628,-0.16829 -0.15166,-0.3136 -0.26716,-0.43569 -0.11219,-0.12222 -0.24919,-0.21461 -0.41089,-0.27729 -0.15837,-0.0628 -0.33508,-0.094 -0.52979,-0.094 -0.2211,0 -0.42214,0.0443 -0.60362,0.13368 -0.18151,0.089 -0.31373,0.21127 -0.39624,0.36636 h -0.0293 v -1.41525 z m 3.44765,0 v 0.60871 h 0.76764 v -0.60871 z m 4.62331,0 v 0.60871 h 0.76767 v -0.60871 z m 5.79456,0 c -0.31019,0 -0.54797,0.0612 -0.71297,0.18317 -0.16168,0.12222 -0.24236,0.31485 -0.24236,0.57885 v 0.20289 h -0.47513 v 0.5794 h 0.47513 v 2.06396 h 0.76707 v -2.06396 h 0.60422 v -0.5794 h -0.60422 v -0.1781 c 0,-0.0958 0.025,-0.16688 0.0744,-0.21304 0.0529,-0.0461 0.13049,-0.0693 0.23279,-0.0693 h 0.34153 v -0.50314 z m 16.79182,0 v 0.60871 h 0.76707 v -0.60871 z m 15.89681,0 v 0.60871 h 0.76707 v -0.60871 z m 4.64306,0 v 0.60871 h 0.76708 v -0.60871 z m 25.04881,0 v 0.60871 h 0.76707 v -0.60871 z m 4.67744,0 v 3.60827 h 0.76708 v -3.60827 z m -51.2361,0.12855 -0.75751,0.14821 v 0.6882 h -0.50444 v 0.5794 h 0.50444 v 1.43046 c 0,0.14189 0.0284,0.26048 0.0846,0.3562 0.0594,0.0923 0.14182,0.1618 0.24741,0.20797 0.1055,0.0461 0.22953,0.0693 0.37144,0.0693 h 0.72255 v -0.65323 h -0.41088 c -0.089,0 -0.15494,-0.0149 -0.19784,-0.0443 -0.0395,-0.0331 -0.0598,-0.0927 -0.0598,-0.17867 v -1.18754 h 0.66844 v -0.57941 h -0.66844 z m 10.54807,0 -0.75692,0.14821 v 0.6882 h -0.50501 v 0.5794 h 0.50501 v 1.43046 c 0,0.14189 0.0277,0.26048 0.0841,0.3562 0.0594,0.0923 0.14184,0.1618 0.24744,0.20797 0.1055,0.0461 0.22953,0.0693 0.37141,0.0693 h 0.72257 v -0.65323 h -0.41088 c -0.089,0 -0.15492,-0.0149 -0.19785,-0.0443 -0.0395,-0.0331 -0.0598,-0.0927 -0.0598,-0.17867 v -1.18754 h 0.66844 v -0.57941 h -0.66851 z m 29.77416,0 -0.7575,0.14821 v 0.6882 h -0.50498 v 0.5794 h 0.50498 v 1.43046 c 0,0.14189 0.0279,0.26048 0.0839,0.3562 0.0594,0.0923 0.14239,0.1618 0.24799,0.20797 0.1055,0.0461 0.22897,0.0693 0.37085,0.0693 h 0.72313 v -0.65323 h -0.41087 c -0.0891,0 -0.15548,-0.0149 -0.19841,-0.0443 -0.0395,-0.0331 -0.0592,-0.0927 -0.0592,-0.17867 v -1.18754 h 0.66843 v -0.57941 h -0.66843 z m -63.86167,0.78681 c -0.31678,0 -0.59373,0.0563 -0.83131,0.16853 -0.23431,0.10884 -0.41755,0.26546 -0.54954,0.47004 -0.13202,0.20461 -0.19784,0.44891 -0.19784,0.73271 0,0.21778 0.036,0.41054 0.10872,0.57882 0.076,0.16831 0.18323,0.31237 0.32183,0.43119 0.14189,0.11888 0.30853,0.20953 0.49993,0.27221 0.19468,0.0594 0.41055,0.0889 0.64815,0.0889 0.31679,0 0.59253,-0.0546 0.82683,-0.16344 0.23758,-0.10885 0.42083,-0.26602 0.54953,-0.47064 0.13201,-0.20788 0.19783,-0.45341 0.19783,-0.73718 0,-0.2145 -0.0379,-0.40603 -0.1138,-0.57434 -0.0728,-0.17158 -0.17994,-0.3151 -0.32182,-0.4306 -0.13854,-0.11887 -0.30524,-0.20955 -0.49993,-0.27224 -0.1914,-0.0626 -0.40429,-0.094 -0.63857,-0.094 z m 4.95982,0 c -0.20789,0 -0.40417,0.0462 -0.58898,0.13868 -0.1848,0.0924 -0.32177,0.22286 -0.41087,0.39115 h -0.0395 l -0.0248,-0.48021 h -0.74227 v 2.64337 h 0.76707 v -1.31661 c 0,-0.1551 0.0315,-0.29208 0.094,-0.41086 0.066,-0.11875 0.15675,-0.2113 0.27223,-0.27732 0.11888,-0.0692 0.25579,-0.10377 0.41089,-0.10377 0.15509,0 0.28079,0.031 0.3765,0.0935 0.0956,0.0594 0.16328,0.14894 0.20289,0.26772 0.0428,0.11553 0.0643,0.25899 0.0643,0.43059 v 1.31662 h 0.76708 v -1.4502 c 0,-0.23096 -0.0277,-0.42605 -0.0841,-0.58447 -0.056,-0.16169 -0.13561,-0.29035 -0.23784,-0.38605 -0.0991,-0.0957 -0.21938,-0.16508 -0.36127,-0.20799 -0.13867,-0.0428 -0.29396,-0.0643 -0.46556,-0.0643 z m 4.81104,0 c -0.3168,0 -0.59374,0.0563 -0.83134,0.16853 -0.23429,0.10884 -0.41754,0.26546 -0.54953,0.47004 -0.13203,0.20461 -0.19784,0.44891 -0.19784,0.73271 0,0.21778 0.0362,0.41054 0.10872,0.57882 0.076,0.16831 0.18325,0.31237 0.32182,0.43119 0.1419,0.11888 0.30855,0.20953 0.49993,0.27221 0.1947,0.0594 0.41058,0.0889 0.64816,0.0889 0.3168,0 0.59253,-0.0546 0.82683,-0.16344 0.23757,-0.10885 0.42083,-0.26602 0.54952,-0.47064 0.13201,-0.20788 0.19783,-0.45341 0.19783,-0.73718 0,-0.2145 -0.0379,-0.40603 -0.1138,-0.57434 -0.0727,-0.17158 -0.17993,-0.3151 -0.32182,-0.4306 -0.13853,-0.11887 -0.30523,-0.20955 -0.49993,-0.27224 -0.1914,-0.0626 -0.4043,-0.094 -0.63858,-0.094 z m 5.66771,0 c -0.21449,0 -0.40425,0.0443 -0.56924,0.13368 -0.16501,0.089 -0.29015,0.21657 -0.37595,0.38156 h -0.0349 l -0.0343,-0.46555 h -0.73778 v 2.64336 h 0.77214 v -1.37129 c 0,-0.14517 0.0269,-0.27209 0.0796,-0.38098 0.0561,-0.11219 0.13507,-0.19997 0.2373,-0.26265 0.1024,-0.0626 0.228,-0.0935 0.3765,-0.0935 0.1452,0 0.26027,0.0308 0.34606,0.0935 0.0857,0.0594 0.14689,0.14537 0.18317,0.25758 0.0395,0.11219 0.0598,0.2474 0.0598,0.4058 v 1.35154 h 0.76706 v -1.37129 c 0,-0.14849 0.0286,-0.27717 0.0845,-0.38605 0.056,-0.10896 0.13506,-0.1949 0.23727,-0.25758 0.1055,-0.0626 0.22955,-0.0935 0.37143,-0.0935 0.15179,0 0.27042,0.0308 0.3562,0.0935 0.0858,0.0594 0.14509,0.14537 0.17811,0.25758 0.0362,0.10884 0.0546,0.23756 0.0546,0.38605 v 1.37129 h 0.77215 v -1.4699 c 0,-0.28049 -0.0443,-0.50998 -0.13367,-0.68819 -0.0858,-0.17818 -0.20975,-0.31221 -0.37143,-0.40128 -0.16169,-0.089 -0.358,-0.13368 -0.589,-0.13368 -0.23098,0 -0.43559,0.0478 -0.61377,0.14371 -0.1782,0.0957 -0.31871,0.24752 -0.42102,0.45542 h -0.0443 c -0.0692,-0.1947 -0.18793,-0.34297 -0.35622,-0.44527 -0.16501,-0.10216 -0.36306,-0.15386 -0.59406,-0.15386 z m 11.76156,0 c -0.31349,0 -0.58924,0.0546 -0.82681,0.16345 -0.23432,0.10884 -0.41755,0.26547 -0.54955,0.47005 -0.12869,0.20459 -0.19275,0.44715 -0.19275,0.72762 0,0.20791 0.0344,0.39767 0.10376,0.56927 0.0727,0.16829 0.17463,0.31357 0.30662,0.43567 0.13202,0.12222 0.29211,0.21463 0.48023,0.2773 0.19136,0.0628 0.40602,0.094 0.64363,0.094 0.26729,0 0.51159,-0.0415 0.73268,-0.12397 0.22441,-0.0825 0.40588,-0.20111 0.54446,-0.35621 0.14188,-0.15509 0.22078,-0.33657 0.23729,-0.54445 h -0.76709 c -0.0231,0.089 -0.0693,0.16676 -0.13867,0.23278 -0.0692,0.066 -0.15349,0.11702 -0.25249,0.1533 -0.0991,0.0331 -0.2093,0.0495 -0.33141,0.0495 -0.16169,0 -0.30221,-0.0296 -0.421,-0.0889 -0.11887,-0.0596 -0.21073,-0.14837 -0.27675,-0.26716 -0.0628,-0.11888 -0.0941,-0.2611 -0.0941,-0.4261 0,-0.15509 0.0313,-0.29032 0.0941,-0.4058 0.0628,-0.11553 0.15343,-0.20623 0.27222,-0.27224 0.12221,-0.066 0.2656,-0.0993 0.43061,-0.0993 0.12536,0 0.2357,0.0166 0.33142,0.0497 0.0988,0.0331 0.18139,0.0811 0.2474,0.14372 0.066,0.0628 0.11045,0.13854 0.13368,0.22769 h 0.7575 c -0.0139,-0.20129 -0.0827,-0.37624 -0.20796,-0.52473 -0.1255,-0.1518 -0.29501,-0.27041 -0.50952,-0.3562 -0.21449,-0.0857 -0.46356,-0.1291 -0.74735,-0.1291 z m 3.08128,0 c -0.2772,0 -0.51499,0.0349 -0.71298,0.10426 -0.19799,0.0694 -0.34978,0.16656 -0.45538,0.29195 -0.1055,0.12209 -0.1584,0.27036 -0.1584,0.44525 0,0.12869 0.0232,0.2378 0.0693,0.32689 0.0462,0.089 0.12036,0.16324 0.22263,0.22263 0.10228,0.0594 0.23455,0.10748 0.39624,0.14375 0.16169,0.0363 0.35622,0.0643 0.5839,0.0841 0.17489,0.0165 0.31009,0.036 0.40581,0.0592 0.0989,0.0198 0.16834,0.0513 0.20796,0.0942 0.0428,0.0395 0.0643,0.10067 0.0643,0.18317 0,0.10896 -0.0546,0.19014 -0.16345,0.24293 -0.1055,0.0495 -0.25387,0.0739 -0.44525,0.0739 -0.2145,0 -0.37935,-0.0344 -0.49486,-0.10376 -0.11218,-0.0727 -0.17329,-0.17637 -0.18317,-0.31168 h -0.75242 c 0.0165,0.2706 0.1434,0.48648 0.38098,0.64817 0.23761,0.15838 0.58095,0.23784 1.02973,0.23784 0.46859,0 0.81492,-0.076 1.0393,-0.22771 0.2277,-0.15509 0.34157,-0.35846 0.34157,-0.60926 0,-0.1419 -0.0231,-0.26051 -0.0693,-0.3562 -0.0461,-0.0957 -0.11862,-0.17337 -0.21755,-0.23278 -0.0991,-0.0628 -0.22946,-0.11008 -0.39114,-0.14317 -0.16171,-0.0363 -0.35799,-0.0648 -0.58898,-0.0845 -0.16499,-0.0165 -0.29902,-0.0343 -0.40129,-0.0541 -0.10216,-0.023 -0.17647,-0.0529 -0.22263,-0.0889 -0.0427,-0.0395 -0.0643,-0.096 -0.0643,-0.16852 0,-0.10884 0.0529,-0.18777 0.15835,-0.23729 0.10885,-0.0495 0.24765,-0.0744 0.41597,-0.0744 0.10884,0 0.20437,0.0149 0.28687,0.0443 0.0823,0.0263 0.14888,0.0679 0.1984,0.12398 0.0495,0.0529 0.0794,0.12345 0.089,0.21247 h 0.72763 c -0.0165,-0.18147 -0.0812,-0.33506 -0.19332,-0.46047 -0.10885,-0.12536 -0.25718,-0.22085 -0.44527,-0.28687 -0.18478,-0.066 -0.40419,-0.0993 -0.6583,-0.0993 z m 13.16157,0 c -0.20788,0 -0.40418,0.0462 -0.58897,0.13868 -0.1848,0.0924 -0.32178,0.22286 -0.41089,0.39115 h -0.0395 l -0.0246,-0.48021 h -0.74284 v 2.64337 h 0.76764 v -1.31661 c 0,-0.1551 0.0313,-0.29208 0.094,-0.41086 0.066,-0.11875 0.15671,-0.2113 0.27223,-0.27732 0.11887,-0.0692 0.2558,-0.10377 0.41088,-0.10377 0.15509,0 0.28024,0.031 0.37594,0.0935 0.0957,0.0594 0.16325,0.14894 0.20289,0.26772 0.0428,0.11553 0.0643,0.25899 0.0643,0.43059 v 1.31662 h 0.76766 v -1.4502 c 0,-0.23096 -0.0285,-0.42605 -0.0846,-0.58447 -0.0561,-0.16169 -0.13506,-0.29035 -0.23728,-0.38605 -0.0991,-0.0957 -0.21995,-0.16508 -0.36184,-0.20799 -0.13854,-0.0428 -0.29341,-0.0643 -0.46499,-0.0643 z m 4.64309,0 c -0.2079,0 -0.4042,0.0462 -0.589,0.13868 -0.1848,0.0924 -0.32178,0.22286 -0.41087,0.39115 h -0.0395 l -0.0248,-0.48021 h -0.74229 v 2.64337 h 0.76708 v -1.31661 c 0,-0.1551 0.0316,-0.29208 0.0941,-0.41086 0.066,-0.11875 0.15672,-0.2113 0.27223,-0.27732 0.11887,-0.0692 0.25579,-0.10377 0.41087,-0.10377 0.15509,0 0.28024,0.031 0.37595,0.0935 0.0956,0.0594 0.16325,0.14894 0.20288,0.26772 0.0428,0.11553 0.0643,0.25899 0.0643,0.43059 v 1.31662 h 0.76764 v -1.4502 c 0,-0.23096 -0.0286,-0.42605 -0.0845,-0.58447 -0.0561,-0.16169 -0.13507,-0.29035 -0.23728,-0.38605 -0.0991,-0.0957 -0.21939,-0.16508 -0.36129,-0.20799 -0.13853,-0.0428 -0.29395,-0.0643 -0.46552,-0.0643 z m 2.69971,0 c -0.24421,0 -0.46008,0.0529 -0.64817,0.15836 -0.18479,0.10216 -0.33009,0.24939 -0.43566,0.44077 -0.1055,0.19137 -0.15839,0.41259 -0.15839,0.66337 0,0.19139 0.028,0.36456 0.0841,0.51965 0.056,0.1518 0.13854,0.28345 0.24743,0.39566 0.10884,0.11219 0.23757,0.19818 0.38607,0.25757 0.15181,0.0594 0.32198,0.089 0.51005,0.089 0.20791,0 0.39946,-0.0409 0.57435,-0.12345 0.17818,-0.0824 0.30687,-0.19812 0.38607,-0.3466 h 0.0343 v 0.43565 c 0,0.13534 -0.0313,0.24385 -0.094,0.32636 -0.0627,0.0858 -0.14989,0.14688 -0.26206,0.18317 -0.11219,0.0395 -0.24443,0.0598 -0.39623,0.0598 -0.11887,0 -0.22436,-0.0139 -0.31676,-0.04 -0.0923,-0.0231 -0.16657,-0.0612 -0.22262,-0.11379 -0.0529,-0.0495 -0.087,-0.10885 -0.10377,-0.17811 h -0.73268 c 0.0165,0.1683 0.0795,0.31714 0.18824,0.44582 0.10884,0.12869 0.26192,0.22595 0.45991,0.29196 0.19798,0.0693 0.43757,0.10377 0.71806,0.10377 0.25738,0 0.47977,-0.0263 0.66787,-0.079 0.1914,-0.0495 0.34973,-0.1255 0.47512,-0.2277 0.12883,-0.0991 0.22478,-0.22116 0.28745,-0.36636 0.0628,-0.14519 0.094,-0.31183 0.094,-0.49994 V 135.751 h -0.72311 l -0.0292,0.41598 h -0.04 c -0.0794,-0.14191 -0.20258,-0.254 -0.37086,-0.33648 -0.16498,-0.0857 -0.3583,-0.1291 -0.57939,-0.1291 z m 4.97504,0 c -0.21449,0 -0.40427,0.0443 -0.56926,0.13368 -0.165,0.089 -0.29013,0.21657 -0.37594,0.38156 h -0.0349 l -0.0349,-0.46555 h -0.73718 v 2.64336 h 0.77212 v -1.37129 c 0,-0.14517 0.0261,-0.27209 0.079,-0.38098 0.056,-0.11219 0.13561,-0.19997 0.23784,-0.26265 0.10216,-0.0626 0.22744,-0.0935 0.37593,-0.0935 0.14521,0 0.26083,0.0308 0.34663,0.0935 0.0858,0.0594 0.14689,0.14537 0.18318,0.25758 0.0395,0.11219 0.0598,0.2474 0.0598,0.4058 v 1.35154 h 0.76707 v -1.37129 c 0,-0.14849 0.0277,-0.27717 0.0841,-0.38605 0.056,-0.10896 0.13563,-0.1949 0.23784,-0.25758 0.1055,-0.0626 0.22897,-0.0935 0.37087,-0.0935 0.15179,0 0.27097,0.0308 0.35677,0.0935 0.0857,0.0594 0.14508,0.14537 0.17811,0.25758 0.0363,0.10884 0.0541,0.23756 0.0541,0.38605 v 1.37129 h 0.77216 v -1.4699 c 0,-0.28049 -0.0443,-0.50998 -0.13368,-0.68819 -0.0858,-0.17818 -0.20916,-0.31221 -0.37085,-0.40128 -0.1617,-0.089 -0.358,-0.13368 -0.58898,-0.13368 -0.231,0 -0.43559,0.0478 -0.61377,0.14371 -0.17819,0.0957 -0.31875,0.24752 -0.42103,0.45542 h -0.0443 c -0.0693,-0.1947 -0.18789,-0.34297 -0.35619,-0.44527 -0.16498,-0.10216 -0.36306,-0.15386 -0.59405,-0.15386 z m 10.48608,0 c -0.3135,0 -0.58745,0.0563 -0.82176,0.16853 -0.23099,0.10884 -0.41246,0.26724 -0.54444,0.4751 -0.12869,0.20462 -0.19334,0.45192 -0.19334,0.7423 0,0.28049 0.0648,0.52182 0.19334,0.72311 0.12869,0.2013 0.31017,0.35611 0.54444,0.46499 0.23759,0.10896 0.51455,0.16345 0.83134,0.16345 0.2706,0 0.51313,-0.036 0.72762,-0.10872 0.21449,-0.0727 0.38944,-0.17518 0.52472,-0.30717 0.13534,-0.13535 0.21652,-0.29008 0.24295,-0.46498 h -0.72765 c -0.0363,0.1055 -0.12234,0.19098 -0.25755,0.25701 -0.13536,0.066 -0.29897,0.0992 -0.49036,0.0992 -0.165,0 -0.30851,-0.0269 -0.43062,-0.0796 -0.12209,-0.0529 -0.21577,-0.12993 -0.28179,-0.23221 -0.066,-0.1055 -0.10277,-0.22953 -0.10921,-0.37142 h 2.3018 c 0.0231,-0.32008 -0.0232,-0.59406 -0.13868,-0.82175 -0.11553,-0.2277 -0.29043,-0.40263 -0.52472,-0.52472 -0.23099,-0.12221 -0.51271,-0.18317 -0.84598,-0.18317 z m -46.07395,0.005 c -0.25738,0 -0.4851,0.0563 -0.6831,0.16851 -0.19467,0.10897 -0.34649,0.26546 -0.4554,0.47006 -0.10884,0.20459 -0.16344,0.44714 -0.16344,0.72764 0,0.20786 0.0296,0.39587 0.0889,0.56417 0.0627,0.16829 0.15165,0.31359 0.26713,0.43568 0.11553,0.11874 0.2525,0.21127 0.4109,0.27729 0.1617,0.0628 0.34017,0.0941 0.53485,0.0941 0.22439,0 0.42545,-0.0443 0.60365,-0.13368 0.18147,-0.0923 0.31195,-0.21456 0.39115,-0.36634 h 0.0349 v 0.45031 h 0.76707 v -2.64336 h -0.72761 l -0.0248,0.4357 h -0.0298 c -0.0529,-0.0957 -0.12522,-0.17815 -0.21756,-0.24744 -0.0923,-0.0726 -0.20447,-0.12896 -0.33648,-0.16851 -0.13201,-0.0429 -0.28557,-0.0643 -0.46047,-0.0643 z m 17.97823,0 c -0.25737,0 -0.48509,0.0563 -0.68311,0.16851 -0.19467,0.10897 -0.34649,0.26546 -0.45537,0.47006 -0.10884,0.20459 -0.16291,0.44714 -0.16291,0.72764 0,0.20786 0.0297,0.39587 0.0889,0.56417 0.0628,0.16829 0.15165,0.31359 0.26717,0.43568 0.11552,0.11874 0.25246,0.21127 0.41087,0.27729 0.16168,0.0628 0.33962,0.0941 0.53431,0.0941 0.22437,0 0.42599,-0.0443 0.60419,-0.13368 0.18149,-0.0923 0.31195,-0.21456 0.39114,-0.36634 h 0.0343 v 0.45031 h 0.7671 v -2.64336 h -0.72765 l -0.0246,0.4357 h -0.0294 c -0.0529,-0.0957 -0.12577,-0.17815 -0.21811,-0.24744 -0.0924,-0.0726 -0.20448,-0.12896 -0.33647,-0.16851 -0.13202,-0.0429 -0.2856,-0.0643 -0.46048,-0.0643 z m 22.34344,0 c -0.25738,0 -0.48455,0.0563 -0.68254,0.16851 -0.19469,0.10897 -0.34651,0.26546 -0.4554,0.47006 -0.10884,0.20459 -0.16345,0.44714 -0.16345,0.72764 0,0.20786 0.0297,0.39587 0.0889,0.56417 0.0628,0.16829 0.15165,0.31359 0.26716,0.43568 0.11553,0.11874 0.25247,0.21127 0.41088,0.27729 0.16153,0.0625 0.34039,0.0941 0.53487,0.0941 0.22416,-5e-5 0.42559,-0.0443 0.60363,-0.13368 0.18147,-0.0923 0.31194,-0.21456 0.39113,-0.36634 h 0.0343 v 0.45031 h 0.7671 v -2.64336 h -0.72763 l -0.0247,0.4357 h -0.0293 c -0.0529,-0.0957 -0.12578,-0.17815 -0.21812,-0.24744 -0.0924,-0.0726 -0.20447,-0.12896 -0.33647,-0.16851 -0.13201,-0.0429 -0.2856,-0.0643 -0.46047,-0.0643 z m 12.02645,0 c -0.25738,0 -0.48512,0.0563 -0.68308,0.16851 -0.19471,0.10897 -0.34654,0.26546 -0.45543,0.47006 -0.10884,0.20459 -0.16345,0.44714 -0.16345,0.72764 0,0.20786 0.0296,0.39587 0.0889,0.56417 0.0628,0.16829 0.15167,0.31359 0.26718,0.43568 0.11553,0.11874 0.25248,0.21127 0.41086,0.27729 0.1617,0.0628 0.34017,0.0941 0.53488,0.0941 0.22439,0 0.42545,-0.0443 0.60363,-0.13368 0.1815,-0.0923 0.31195,-0.21456 0.39116,-0.36634 h 0.0343 v 0.45031 h 0.76765 v -2.64336 h -0.72763 l -0.0249,0.4357 h -0.0298 c -0.0529,-0.0957 -0.12521,-0.17815 -0.21755,-0.24744 -0.0923,-0.0726 -0.20504,-0.12896 -0.33704,-0.16851 -0.13202,-0.0429 -0.28503,-0.0643 -0.45991,-0.0643 z m -59.34203,0.005 c -0.17489,0 -0.32671,0.0427 -0.45539,0.12854 -0.12869,0.0824 -0.22116,0.19635 -0.27732,0.34155 h -0.0246 l -0.0294,-0.43062 h -0.69831 v 2.64338 h 0.76763 v -1.30197 c 0.007,-0.16169 0.0375,-0.29392 0.0935,-0.39621 0.0594,-0.10216 0.14063,-0.1782 0.24292,-0.2277 0.1024,-0.0495 0.22446,-0.0739 0.36635,-0.0739 0.0395,0 0.0787,9.2e-4 0.11837,0.005 0.0428,0.002 0.0845,0.01 0.12398,0.0198 v -0.6927 c -0.0297,-0.007 -0.0646,-0.01 -0.10426,-0.01 -0.0363,-0.002 -0.0774,-0.005 -0.12346,-0.005 z m 23.37655,0 c -0.17489,0 -0.32672,0.0427 -0.45539,0.12854 -0.12883,0.0824 -0.22126,0.19635 -0.27731,0.34155 h -0.0248 l -0.0298,-0.43062 h -0.69775 v 2.64338 h 0.76708 v -1.30197 c 0.007,-0.16169 0.0379,-0.29392 0.0941,-0.39621 0.0594,-0.10216 0.14007,-0.1782 0.24237,-0.2277 0.10216,-0.0495 0.22445,-0.0739 0.36634,-0.0739 0.0395,0 0.0794,9.2e-4 0.119,0.005 0.0427,0.002 0.0843,0.01 0.12397,0.0198 v -0.6927 c -0.0297,-0.007 -0.0648,-0.01 -0.10426,-0.01 -0.0363,-0.002 -0.0773,-0.005 -0.12345,-0.005 z m 33.03468,0 c -0.17489,0 -0.32671,0.0427 -0.45539,0.12854 -0.12869,0.0824 -0.22116,0.19635 -0.27732,0.34155 h -0.0248 l -0.0295,-0.43062 h -0.69773 v 2.64338 h 0.76705 v -1.30197 c 0.007,-0.16169 0.038,-0.29392 0.094,-0.39621 0.0594,-0.10216 0.14006,-0.1782 0.24235,-0.2277 0.1024,-0.0495 0.22444,-0.0739 0.36636,-0.0739 0.0395,0 0.0794,9.2e-4 0.119,0.005 0.0428,0.002 0.084,0.01 0.12345,0.0198 v -0.6927 c -0.0296,-0.007 -0.0643,-0.01 -0.10377,-0.01 -0.0363,-0.002 -0.0778,-0.005 -0.12397,-0.005 z m -72.29054,0.0395 v 2.64335 h 0.76764 v -2.64335 z m 4.62331,0 v 2.64335 h 0.76767 v -2.64335 z m 22.58638,0 v 2.64335 h 0.76707 v -2.64335 z m 15.89681,0 v 2.64335 h 0.76707 v -2.64335 z m 4.64306,0 v 2.64335 h 0.76708 v -2.64335 z m 25.04881,0 v 2.64335 h 0.76707 v -2.64335 z m -3.85628,0.48021 c 0.16169,0 0.29693,0.025 0.40581,0.0744 0.11219,0.0495 0.19817,0.12011 0.25757,0.21248 0.0535,0.0839 0.0843,0.18156 0.0924,0.29251 h -1.55222 c 0.0194,-0.11516 0.0591,-0.21397 0.11838,-0.29702 0.0693,-0.0924 0.16003,-0.1618 0.27222,-0.20797 0.11553,-0.0495 0.25072,-0.0744 0.40581,-0.0744 z m -15.19846,0.0248 c 0.14849,0 0.27541,0.028 0.38099,0.0841 0.10885,0.056 0.19311,0.13382 0.2525,0.2328 0.0594,0.0956 0.0889,0.20778 0.0889,0.33647 v 0.12397 c 0,0.12222 -0.0313,0.23064 -0.0941,0.32636 -0.0594,0.0957 -0.14361,0.17039 -0.2525,0.22318 -0.1055,0.0529 -0.23428,0.079 -0.38606,0.079 -0.14193,0 -0.26704,-0.0263 -0.37595,-0.079 -0.10884,-0.056 -0.19309,-0.13742 -0.25251,-0.24293 -0.0594,-0.1055 -0.0889,-0.23073 -0.0889,-0.37594 0,-0.14518 0.0297,-0.26912 0.0889,-0.37141 0.0596,-0.1055 0.14362,-0.18801 0.25251,-0.24744 0.11219,-0.0594 0.24088,-0.089 0.38608,-0.089 z m -55.65768,0.0298 c 0.01,-2.5e-4 0.0207,0 0.031,0 0.11553,0 0.2193,0.0178 0.31169,0.0541 0.0956,0.0362 0.17634,0.0873 0.24237,0.15332 0.0693,0.066 0.12036,0.14899 0.15329,0.24799 0.0363,0.0957 0.0547,0.20423 0.0547,0.32635 0,0.16828 -0.0314,0.31001 -0.094,0.4255 -0.0628,0.11553 -0.15167,0.20507 -0.26715,0.26774 -0.11219,0.0594 -0.24565,0.0889 -0.40074,0.0889 -0.16499,0 -0.30849,-0.0313 -0.43061,-0.094 -0.11887,-0.0628 -0.20955,-0.14688 -0.27221,-0.25249 -0.0628,-0.10885 -0.0942,-0.22752 -0.0942,-0.3562 v -0.13867 c 0,-0.13535 0.0316,-0.25747 0.0942,-0.36635 0.0628,-0.10896 0.15342,-0.1949 0.27221,-0.25758 0.11454,-0.062 0.24745,-0.0947 0.39963,-0.0984 z m 4.61432,0.004 c 0.12536,0 0.23749,0.0201 0.33648,0.0598 0.10216,0.0363 0.18827,0.089 0.25757,0.15839 0.0693,0.066 0.12222,0.14667 0.15836,0.24234 0.0363,0.0957 0.0546,0.20304 0.0546,0.32184 0,0.15839 -0.0316,0.29716 -0.094,0.41594 -0.0628,0.11553 -0.15519,0.20449 -0.27727,0.26716 -0.12222,0.0628 -0.2674,0.094 -0.43569,0.094 -0.12868,0 -0.24377,-0.0186 -0.34607,-0.0546 -0.0991,-0.0363 -0.1832,-0.0873 -0.25249,-0.15329 -0.0693,-0.0693 -0.12222,-0.15173 -0.15839,-0.24743 -0.0363,-0.0956 -0.0546,-0.20302 -0.0546,-0.32181 0,-0.15842 0.0316,-0.29541 0.094,-0.41089 0.066,-0.11887 0.1585,-0.20955 0.27731,-0.27223 0.12221,-0.066 0.26858,-0.0992 0.44017,-0.0992 z m 9.77086,0 c 0.12536,0 0.23748,0.0201 0.33648,0.0598 0.1024,0.0363 0.18829,0.089 0.25758,0.15839 0.0693,0.066 0.12197,0.14667 0.15837,0.24234 0.0363,0.0957 0.0546,0.20304 0.0546,0.32184 0,0.15839 -0.0315,0.29716 -0.0941,0.41594 -0.0628,0.11553 -0.1552,0.20449 -0.2773,0.26716 -0.12222,0.0628 -0.26739,0.094 -0.43568,0.094 -0.12869,0 -0.24432,-0.0186 -0.34661,-0.0546 -0.0991,-0.0363 -0.18266,-0.0873 -0.25195,-0.15329 -0.0693,-0.0693 -0.12222,-0.15173 -0.15837,-0.24743 -0.0363,-0.0956 -0.0546,-0.20302 -0.0546,-0.32181 0,-0.15842 0.0313,-0.29541 0.0941,-0.41089 0.066,-0.11887 0.15852,-0.20955 0.27732,-0.27223 0.12221,-0.066 0.26859,-0.0992 0.44017,-0.0992 z m 10.63489,0 c 0.16499,0 0.3067,0.0313 0.42551,0.094 0.11888,0.0628 0.20954,0.14692 0.27222,0.25252 0.0628,0.1055 0.094,0.22419 0.094,0.35619 v 0.14374 c 0,0.13201 -0.0313,0.25236 -0.094,0.36126 -0.0594,0.10884 -0.14837,0.19663 -0.26715,0.26267 -0.11887,0.066 -0.26111,0.0986 -0.42608,0.0986 -0.15512,0 -0.29032,-0.0313 -0.4058,-0.0941 -0.11553,-0.0628 -0.20451,-0.15166 -0.26719,-0.26716 -0.0628,-0.11887 -0.0941,-0.26054 -0.0941,-0.42553 0,-0.1683 0.0313,-0.31003 0.0941,-0.42552 0.066,-0.11553 0.15496,-0.20327 0.26719,-0.26264 0.11553,-0.0628 0.24948,-0.0941 0.4013,-0.0941 z m 17.97821,0 c 0.16501,0 0.30673,0.0313 0.42554,0.094 0.11887,0.0628 0.20953,0.14692 0.27222,0.25252 0.0628,0.1055 0.0942,0.22419 0.0942,0.35619 v 0.14374 c 0,0.13201 -0.0313,0.25236 -0.0942,0.36126 -0.0594,0.10884 -0.14836,0.19663 -0.26717,0.26267 -0.11887,0.066 -0.26051,0.0986 -0.42551,0.0986 -0.15508,0 -0.2903,-0.0313 -0.40581,-0.0941 -0.11553,-0.0628 -0.20446,-0.15166 -0.26716,-0.26716 -0.0626,-0.11887 -0.0941,-0.26054 -0.0941,-0.42553 0,-0.1683 0.0316,-0.31003 0.0941,-0.42552 0.066,-0.11553 0.15497,-0.20327 0.26716,-0.26264 0.11553,-0.0628 0.24893,-0.0941 0.40073,-0.0941 z m 22.34344,0 c 0.16498,0 0.30731,0.0313 0.42609,0.094 0.11887,0.0628 0.20955,0.14692 0.27223,0.25252 0.0628,0.1055 0.0935,0.22419 0.0935,0.35619 v 0.14374 c 0,0.13201 -0.0308,0.25236 -0.0935,0.36126 -0.0594,0.10884 -0.14892,0.19663 -0.26772,0.26267 -0.11887,0.066 -0.26054,0.0986 -0.42554,0.0986 -0.15506,0 -0.2903,-0.0313 -0.4058,-0.0941 -0.11553,-0.0628 -0.20447,-0.15166 -0.26714,-0.26716 -0.0628,-0.11887 -0.0941,-0.26054 -0.0941,-0.42553 0,-0.1683 0.0316,-0.31003 0.0941,-0.42552 0.066,-0.11553 0.15496,-0.20327 0.26714,-0.26264 0.11553,-0.0628 0.24895,-0.0941 0.40074,-0.0941 z m 12.02587,0 c 0.16501,0 0.30732,0.0313 0.4261,0.094 0.11888,0.0628 0.20955,0.14692 0.27222,0.25252 0.0628,0.1055 0.0941,0.22419 0.0941,0.35619 v 0.14374 c 0,0.13201 -0.0315,0.25236 -0.0941,0.36126 -0.0594,0.10884 -0.14891,0.19663 -0.26772,0.26267 -0.11887,0.066 -0.26052,0.0986 -0.42553,0.0986 -0.15507,0 -0.29029,-0.0313 -0.40579,-0.0941 -0.11553,-0.0628 -0.20448,-0.15166 -0.26714,-0.26716 -0.0628,-0.11887 -0.0941,-0.26054 -0.0941,-0.42553 0,-0.1683 0.0313,-0.31003 0.0941,-0.42552 0.066,-0.11553 0.15495,-0.20327 0.26714,-0.26264 0.11552,-0.0628 0.24895,-0.0941 0.40072,-0.0941 z" /><rect
           style="font-variation-settings:'wdth' 75, 'wght' 400;fill:#999999;fill-opacity:1;stroke-width:1.67352;stroke-linejoin:bevel"
           id="rect9016"
           width="0.095015816"
           height="15.996076"
           x="118.74702"
           y="126.28485" /><g
           id="g14466"
           transform="matrix(0.80606099,0,0,0.80606099,-13.609728,92.074496)"><path
             id="path14456"
             style="color:#000000;fill:url(#linearGradient14468);fill-opacity:1;stroke-width:0.149456;stroke-linecap:round;-inkscape-stroke:none;paint-order:stroke fill markers"
             d="m 95.193525,24.77519 c -0.31393,9.9e-5 -0.60818,0.199137 -0.73395,0.48526 -0.7239,1.462507 -1.447986,2.924933 -2.171803,4.387423 -1.638942,0.237411 -3.279229,0.468084 -4.91732,0.71001 -0.373403,0.05971 -0.668222,0.415657 -0.654401,0.79404 -0.0031,0.262805 0.149441,0.496091 0.343386,0.66197 1.142432,1.117278 2.284845,2.234607 3.427323,3.351794 -0.280768,1.633589 -0.568623,3.266303 -0.84479,4.900486 -0.0592,0.37826 0.197035,0.770303 0.566203,0.870346 0.230599,0.07439 0.472257,0.02113 0.681603,-0.105189 1.428767,-0.748852 2.857274,-1.498011 4.286169,-2.246577 1.475041,0.775753 2.94612,1.559535 4.42323,2.331147 0.384511,0.180784 0.887795,-0.01658 1.047205,-0.409804 0.1399,-0.292827 0.0168,-0.612628 -0.0218,-0.913288 -0.24996,-1.471189 -0.49979,-2.942383 -0.749854,-4.413527 1.186574,-1.156703 2.378794,-2.308077 3.562104,-3.467797 0.26565,-0.267961 0.29415,-0.728046 0.0612,-1.025435 -0.15436,-0.21816 -0.4206,-0.314791 -0.67857,-0.335117 -1.57661,-0.231374 -3.153154,-0.463032 -4.729734,-0.694254 -0.73207,-1.485269 -1.45768,-2.974196 -2.19406,-4.457089 -0.13434,-0.258832 -0.41161,-0.421308 -0.70189,-0.424399 z m -0.002,2.59583 c 0.0228,0.0465 0.0457,0.09313 0.0685,0.139637 0.53352,1.081209 1.06053,2.16612 1.598201,3.244981 0.131479,0.256525 0.406149,0.409744 0.68862,0.431042 1.20153,0.176404 2.403049,0.352799 3.604524,0.529128 -0.90018,0.878742 -1.806585,1.751706 -2.703665,2.633365 -0.20379,0.204487 -0.262,0.514273 -0.19555,0.789404 0.20361,1.196864 0.4069,2.393741 0.61067,3.590602 -1.1144,-0.585479 -2.22513,-1.178517 -3.341279,-1.760159 -0.26109,-0.132284 -0.576791,-0.08547 -0.81952,0.0655 -1.071212,0.561315 -2.142262,1.122935 -3.213531,1.684083 0.212569,-1.240338 0.432682,-2.479693 0.64055,-3.720661 0.04355,-0.28467 -0.08998,-0.569194 -0.305384,-0.75241 -0.867968,-0.848825 -1.736045,-1.697504 -2.604001,-2.546401 1.244076,-0.180888 2.489481,-0.354889 3.732637,-0.540483 0.284293,-0.04539 0.514494,-0.259685 0.621962,-0.521172 0.539101,-1.088807 1.077936,-2.177749 1.617256,-3.266451 z m -13.760042,4.195881 -0.0015,0.0028 c -0.883137,0 -1.624448,0.08891 -2.257787,0.308008 -0.633306,0.219187 -1.188939,0.604938 -1.486278,1.178281 l -0.0073,0.01405 -0.0067,0.01413 c -0.203212,0.435558 -0.346218,0.850832 -0.414086,1.258216 v 0.02818 l -0.0073,0.02812 c -0.03073,0.335291 -0.04326,0.787478 -0.04326,1.392833 v 18.427218 c 0,2.829653 0.346698,4.952033 1.19394,6.438063 0.769446,1.37153 2.354594,2.10366 4.472614,2.37864 h 0.0067 c 1.29336,0.1585 2.363298,0.22839 3.236419,0.18622 0.873063,-0.0422 1.562597,-0.1573 2.129558,-0.54983 v -0.008 c 0.493018,-0.34507 0.743534,-0.87757 0.899689,-1.47895 0.156203,-0.60135 0.221831,-1.30917 0.221831,-2.16525 0,-0.7953 -0.06139,-1.45929 -0.221831,-2.02871 -0.159455,-0.56612 -0.429926,-1.0749 -0.914348,-1.39376 -0.300503,-0.20915 -0.593426,-0.36814 -0.957632,-0.42887 -0.362356,-0.0927 -0.699252,-0.0999 -1.236122,-0.0999 -0.172034,0 -0.258216,-0.014 -0.300681,-0.0213 -0.01924,-0.13369 -0.1282,-0.610852 -0.1282,-1.293977 v -17.92678 c 0,-0.590499 -0.01885,-1.038165 -0.07778,-1.421178 0,-0.006 -0.0064,-0.01023 -0.0067,-0.01405 -0.04095,-0.455361 -0.196541,-0.901524 -0.43612,-1.35074 l -0.0067,-0.008 c -0.307165,-0.553087 -0.844291,-0.93816 -1.464075,-1.158372 -0.61977,-0.220187 -1.338917,-0.306986 -2.186112,-0.307003 z m -16.672045,0.774887 c -4.114182,0 -7.757692,1.476521 -10.781372,4.365255 -3.038292,2.875594 -4.587081,6.557949 -4.587081,10.852898 0,4.291527 1.513953,8.043389 4.486212,11.096719 2.967842,3.02179 6.561333,4.57966 10.610993,4.57966 4.476703,0 7.982551,-1.17432 10.338892,-3.61478 0.826569,-0.85608 1.313825,-1.86624 1.313825,-2.92947 V 48.1748 c 0,-1.016628 -0.12075,-1.836587 -0.470809,-2.515275 -0.252019,-0.538 -0.722887,-0.935804 -1.279549,-1.172025 -0.559946,-0.237536 -1.210986,-0.350273 -1.97188,-0.378446 h -0.02224 -6.822823 c -0.855658,0 -1.595789,0.123039 -2.222097,0.43622 -0.528065,0.264045 -0.896407,0.773788 -1.072085,1.335989 l -0.0073,0.02139 -0.0067,0.02216 c -0.129333,0.517425 -0.178709,1.127573 -0.178709,1.864657 0,0.712793 0.05036,1.309134 0.178709,1.822717 v 0.008 0.0081 c 0.150514,0.564421 0.524631,1.065871 1.02165,1.37175 0.581394,0.357786 1.25948,0.428883 2.129572,0.428883 h 2.243098 v 2.750833 C 66.746293,54.48858 65.78421,54.7231 64.64508,54.7231 c -1.74423,0 -3.261988,-0.657358 -4.686861,-2.079063 l -0.0073,-0.0081 c -1.409457,-1.437238 -2.086288,-3.089749 -2.086288,-5.116894 0,-2.061594 0.65686,-3.595126 2.01503,-4.815142 h 0.0073 c 1.394455,-1.276319 2.910706,-1.879409 4.679607,-1.879409 1.36608,0 2.474898,0.315969 3.415127,0.942795 l 0.0072,0.0081 h 0.0067 c 1.130982,0.727051 1.925371,1.17828 2.801193,1.17828 1.275123,0 2.338193,-0.932516 3.407785,-2.386061 v -0.0081 c 0.649889,-0.90415 1.043756,-1.764124 1.043756,-2.64356 0,-0.938126 -0.544543,-1.7807 -1.371768,-2.393397 -2.827284,-2.100216 -5.892398,-3.179637 -9.117369,-3.179637 z m 16.670532,0.859227 c 0.727206,0 1.283092,0.08601 1.644075,0.214401 0.360969,0.128094 0.505555,0.264025 0.585425,0.407872 0.166424,0.314628 0.23713,0.564186 0.250235,0.721055 l 0.0073,0.02818 v 0.03584 c 0.03755,0.226614 0.07144,0.652398 0.07144,1.222456 v 17.926895 c 0,0.974406 -0.03366,1.572576 0.342699,2.200006 l 0.01448,0.0141 0.0067,0.0141 c 0.386299,0.57954 1.047831,0.71473 1.686095,0.71473 0.516048,0 0.882553,0.0504 0.857749,0.0433 l 0.05671,0.0141 0.05049,0.008 c -0.02775,-0.005 0.107185,0.0312 0.306922,0.17131 l 0.01358,0.008 0.01448,0.008 c 0.02606,0.0162 0.137795,0.13133 0.235487,0.47823 0.09772,0.34682 0.164976,0.89179 0.164976,1.59357 0,0.76999 -0.06308,1.36509 -0.164976,1.75745 -0.100329,0.38626 -0.23025,0.53074 -0.256487,0.55076 0,5.5e-4 -0.0064,-5.6e-4 -0.0073,0 -0.107185,0.0726 -0.5485,0.22874 -1.271737,0.26383 -0.727176,0.0354 -1.722914,-0.02 -2.958977,-0.17123 v 0.008 c -1.856917,-0.2418 -2.846881,-0.82742 -3.264762,-1.5724 -0.596172,-1.04326 -0.978618,-2.94641 -0.978618,-5.637216 V 35.79761 c 0,-0.561942 0.01583,-0.962866 0.03583,-1.200367 0.03544,-0.20322 0.118856,-0.476771 0.263907,-0.793576 l 0.0067,-0.0081 c 0.0651,-0.122038 0.189244,-0.252078 0.557078,-0.379451 0.373328,-0.12916 0.960364,-0.214399 1.729125,-0.214399 z m -16.670532,0.766931 v 8.46e-4 c 2.866406,0 5.552178,0.931801 8.14514,2.858035 0.566603,0.419678 0.722071,0.733478 0.722071,1.085757 0,0.359619 -0.205709,0.945759 -0.743072,1.693427 -0.938885,1.271409 -1.711123,1.71436 -2.08654,1.71436 -0.104198,0 -0.882243,-0.251645 -1.907758,-0.907111 l -0.01448,-0.0081 c -1.225254,-0.812805 -2.6851,-1.214039 -4.307325,-1.214039 -2.15114,0 -4.124228,0.793054 -5.773932,2.299871 -1.687391,1.51582 -2.551094,3.594481 -2.551094,6.023928 0,2.408959 0.875839,4.555025 2.558513,6.265749 1.670093,1.670121 3.668524,2.564781 5.844202,2.564781 1.508325,0 2.891646,-0.24729 4.137274,-0.75682 l 0.507586,-0.20714 v -5.580357 h -3.87344 c -0.730132,0 -1.188507,-0.138286 -1.278212,-0.193392 -0.168543,-0.103765 -0.238113,-0.195724 -0.293189,-0.392118 v -0.008 c -0.07744,-0.312579 -0.128198,-0.795996 -0.128198,-1.422182 0,-0.647189 0.05283,-1.133642 0.128198,-1.443191 0.07653,-0.22606 0.14205,-0.29966 0.228067,-0.342687 0.302893,-0.151489 0.808031,-0.264835 1.500967,-0.264835 h 6.780909 c 0.63283,0.02305 1.108295,0.118961 1.400082,0.242746 0.291847,0.123871 0.390581,0.243719 0.449809,0.372113 l 0.0073,0.01413 0.0073,0.02216 c 0.156737,0.297771 0.293324,0.904103 0.293324,1.785803 v 8.51727 c 0,0.58862 -0.231621,1.15964 -0.85042,1.80055 -1.979895,2.05058 -4.978394,3.11554 -9.174147,3.11554 -3.641972,0 -6.734893,-1.32805 -9.445382,-4.08784 -2.706161,-2.77997 -4.030062,-6.043089 -4.030062,-9.959376 0,-3.912874 1.343513,-7.07816 4.086839,-9.674462 2.757806,-2.63475 5.927341,-3.915394 9.659555,-3.915445 z m 57.054232,0.268698 c -0.87824,9.4e-5 -1.60923,0.08512 -2.23537,0.285842 -0.62649,0.200789 -1.18279,0.54731 -1.49255,1.100504 v 0.0082 l -0.008,0.0081 c -0.21079,0.391419 -0.35751,0.771897 -0.42887,1.164687 l -0.008,0.03677 v 0.03584 c -0.0307,0.335251 -0.0422,0.788451 -0.0422,1.393762 v 3.044094 l -2.35879,-0.02818 h -0.007 c -0.82906,0 -1.72679,0.02048 -2.6298,0.03582 v -2.858114 c 0,-0.942095 -0.0488,-1.641489 -0.2281,-2.215684 l -0.008,-0.01413 -0.008,-0.01408 c -0.24126,-0.686802 -0.785,-1.232778 -1.4642,-1.543056 -0.67921,-0.310231 -1.48516,-0.436217 -2.43648,-0.436217 -0.87898,0 -1.6141,0.0836 -2.23686,0.285922 -0.61753,0.200574 -1.15487,0.558475 -1.4505,1.115253 -0.2312,0.383311 -0.41257,0.762689 -0.48565,1.164609 v 0.03592 l -0.008,0.03584 c -0.0307,0.335286 -0.0434,0.787441 -0.0434,1.392755 v 3.06603 c -2.34049,-0.09173 -3.02581,1.100587 -3.33311,2.110723 -0.17046,0.617305 -0.22074,1.406015 -0.22074,2.494266 0,1.150824 0.16296,2.070507 0.72841,2.757093 l 0.008,0.01422 0.007,0.0081 c 0.51184,0.58 1.24716,0.935534 2.00871,0.935534 0.28012,0 0.53682,-0.03891 0.80733,-0.05684 v 4.858314 c 0,2.781599 0.78936,5.036309 2.42915,6.558999 1.62226,1.50648 3.87257,2.22936 6.59468,2.22936 0.58,0 1.01731,-0.0119 1.35067,-0.0433 h 0.0282 l 0.0281,-0.008 c 0.40735,-0.0679 0.82154,-0.21077 1.25716,-0.41412 l 0.0144,-0.008 h 0.007 c 0.57962,-0.28978 0.98567,-0.8334 1.21505,-1.46419 0.22943,-0.63084 0.32167,-1.3709 0.32167,-2.24419 0,-0.75466 -0.0792,-1.39792 -0.27124,-1.95718 -0.19199,-0.5593 -0.52945,-1.05683 -1.03633,-1.34333 -0.42951,-0.24458 -0.88066,-0.40029 -1.34332,-0.44255 -0.39194,-0.0628 -0.86343,-0.0935 -1.49364,-0.0935 -0.43549,0 -0.53394,-0.0828 -0.57083,-0.12814 -0.0527,-0.0889 -0.16497,-0.42947 -0.16497,-1.029056 v -4.494639 l 2.694,0.11454 h 0.0138 c 0.62111,0 1.4622,-0.05981 2.28726,-0.11454 v 4.880405 c 0,2.78151 0.78935,5.03632 2.42917,6.55892 1.62232,1.50648 3.86522,2.22944 6.58736,2.22944 0.58,0 1.01727,-0.0119 1.35073,-0.0432 h 0.0358 l 0.0281,-0.008 c 0.40729,-0.068 0.82141,-0.21087 1.25705,-0.41413 l 0.008,-0.008 h 0.008 c 0.57967,-0.28983 0.98466,-0.83341 1.21404,-1.4642 0.22936,-0.6308 0.3216,-1.36977 0.3216,-2.2431 0,-0.75714 -0.0767,-1.41 -0.2785,-1.97302 -0.20058,-0.55968 -0.55888,-1.04758 -1.07115,-1.32857 -0.40529,-0.24352 -0.84777,-0.40086 -1.30124,-0.44248 -0.39092,-0.0623 -0.86534,-0.0936 -1.49263,-0.0936 -0.4405,0 -0.53622,-0.0842 -0.57177,-0.12937 -0.0527,-0.0889 -0.16396,-0.42943 -0.16396,-1.029063 v -4.479871 l 1.6786,0.09986 h 0.0281 c 0.60524,0 1.05079,-0.0059 1.38642,-0.03583 l 0.0281,-0.0081 h 0.0359 c 0.40737,-0.06786 0.81516,-0.210863 1.2508,-0.41413 l 0.0136,-0.008 0.0221,-0.0081 c 0.5698,-0.295464 0.9509,-0.845141 1.17094,-1.472694 0.22005,-0.627637 0.30793,-1.364489 0.30793,-2.235689 0,-0.883146 -0.0872,-1.620752 -0.30793,-2.250439 -0.21846,-0.62294 -0.60496,-1.16693 -1.17837,-1.450527 -0.42233,-0.236735 -0.85315,-0.397623 -1.30022,-0.436294 h -0.008 c -0.36937,-0.06062 -0.8022,-0.0862 -1.3864,-0.0862 -0.40916,0 -1.10578,0.0608 -1.74271,0.107203 v -2.92948 c 0,-0.9377 -0.0559,-1.637457 -0.27233,-2.228426 0,-0.0052 -0.005,-0.0053 -0.007,-0.0082 -0.2263,-0.687435 -0.75705,-1.239431 -1.42952,-1.550387 -0.67527,-0.312334 -1.48429,-0.43609 -2.43497,-0.43622 z m -7e-5,1.635193 h 7e-5 c 0.80384,0 1.39336,0.120826 1.75012,0.285844 0.35682,0.164976 0.4939,0.32257 0.57918,0.585508 v 0.01405 l 0.007,0.02007 c 0.0865,0.230372 0.18605,0.82916 0.18605,1.686013 v 4.688017 l 0.88611,-0.08627 c 1.12345,-0.102101 1.96104,-0.150297 2.47958,-0.150297 0.56988,0 0.98558,0.03034 1.17203,0.06411 l 0.0358,0.0081 0.0421,0.0081 c 0.15758,0.01196 0.38491,0.07867 0.6718,0.242747 l 0.0221,0.01422 0.0281,0.01396 c 0.1133,0.05456 0.23716,0.164772 0.36481,0.528746 0.12752,0.36397 0.22064,0.945602 0.22064,1.714356 0,0.754921 -0.0923,1.327288 -0.22064,1.69335 -0.12656,0.360775 -0.25404,0.491324 -0.37955,0.558173 0,0 -0.005,0.0061 -0.007,0.0082 -0.31683,0.144999 -0.59047,0.229575 -0.79358,0.264836 -0.22731,0.01834 -0.61585,0.03463 -1.14259,0.03592 l -3.38045,-0.207063 v 6.208905 c 0,0.777298 0.0807,1.413158 0.44363,1.957258 l 0.0136,0.0222 0.0144,0.014 c 0.43189,0.57591 1.15057,0.79366 1.88575,0.79366 0.59666,0 1.04189,0.0264 1.26547,0.064 l 0.0281,0.008 h 0.0358 c 0.19141,0.0141 0.39814,0.0846 0.64328,0.23548 l 0.0215,0.008 0.0221,0.0141 c 0.10226,0.0556 0.2062,0.15561 0.31434,0.45723 0.10796,0.30169 0.18499,0.78558 0.18499,1.42218 0,0.75279 -0.0888,1.32307 -0.22084,1.68593 -0.13203,0.36296 -0.27202,0.49301 -0.41513,0.56451 -0.32118,0.1479 -0.59455,0.22918 -0.79991,0.26491 -0.23883,0.0201 -0.62465,0.0358 -1.15726,0.0358 -2.44008,0 -4.21949,-0.61533 -5.48793,-1.79322 -1.25101,-1.16166 -1.90775,-2.88219 -1.90775,-5.365975 V 47.84272 l -0.87885,0.07137 c -1.20961,0.100868 -2.20558,0.156439 -2.9935,0.157633 l -4.37267,-0.193624 v 6.195385 c 0,0.777256 0.087,1.413076 0.44989,1.957186 l 0.008,0.0222 0.0145,0.014 c 0.43195,0.5759 1.1579,0.79358 1.89307,0.79358 0.59669,0 1.0335,0.0269 1.25714,0.0641 l 0.0358,0.008 h 0.0358 c 0.19299,0.0141 0.42776,0.0906 0.70739,0.25024 0.0869,0.0489 0.19582,0.15194 0.30066,0.45723 0.10477,0.30532 0.17865,0.78931 0.17865,1.42844 0,0.75278 -0.0897,1.32415 -0.22173,1.68702 -0.13203,0.3629 -0.27108,0.493 -0.41413,0.56449 -0.31868,0.14667 -0.58893,0.22764 -0.79366,0.26384 -0.23773,0.0205 -0.6255,0.0367 -1.16461,0.0367 -2.44005,0 -4.21845,-0.6154 -5.48684,-1.79321 -1.25106,-1.16161 -1.90785,-2.88214 -1.90785,-5.365885 v -6.67362 l -0.93652,0.135624 c -0.47292,0.07098 -0.96908,0.107203 -1.49995,0.107203 -0.31655,0 -0.51599,-0.08658 -0.77151,-0.371032 -0.15657,-0.195455 -0.35744,-0.757388 -0.35744,-1.715366 0,-1.025119 0.0776,-1.753373 0.16397,-2.064461 l 0.008,-0.0081 v -0.0081 c 0.10338,-0.392312 0.23385,-0.579966 0.28591,-0.629609 0.25334,-0.200362 0.54924,-0.312897 1.0069,-0.314264 l 2.10123,0.264837 v -4.908715 c 0,-0.555202 0.0161,-0.947758 0.0357,-1.186622 0.029,-0.151359 0.10635,-0.36705 0.27123,-0.634936 l 0.0144,-0.02216 0.0138,-0.02818 c 0.0418,-0.08012 0.15045,-0.208567 0.52132,-0.328938 0.37094,-0.120455 0.96347,-0.199802 1.73645,-0.199802 l -0.004,-0.0032 c 0.80375,0 1.39866,0.118596 1.76479,0.285919 0.36176,0.165152 0.49854,0.330124 0.59287,0.592847 0.0782,0.2556 0.15769,0.856821 0.15769,1.71436 v 4.50961 l 0.82826,-0.01413 c 1.20528,-0.02603 2.3468,-0.04333 3.42246,-0.04333 l 3.99424,0.05051 v -4.69435 c 0,-0.555242 0.0163,-0.947835 0.0358,-1.186694 0.0329,-0.171509 0.10642,-0.395335 0.25015,-0.664288 l 0.008,-0.0081 c 0.0533,-0.09199 0.18266,-0.222666 0.55708,-0.342609 0.38015,-0.121862 0.97077,-0.199797 1.74371,-0.199801 z m 22.61745,5.151727 c -0.79413,0 -1.61242,0.277207 -2.48693,0.756813 -0.65997,0.361926 -1.03894,0.64282 -1.40742,0.943876 -0.0464,-0.08093 -0.0329,-0.179771 -0.0863,-0.257499 -0.66074,-0.998866 -1.926,-1.250801 -3.57176,-1.250801 -0.88314,0 -1.62454,0.08133 -2.25785,0.300593 -0.63331,0.219229 -1.18894,0.604982 -1.48622,1.178279 v 0.0082 0.0081 c -0.20838,0.416773 -0.3604,0.825154 -0.42888,1.236124 v 0.02818 l -0.008,0.02812 c -0.0307,0.335335 -0.0434,0.788484 -0.0434,1.393839 V 58.98629 60.1373 l 0.008,0.0282 c 0.0612,0.8881 0.36145,1.68841 0.97129,2.22201 l 0.0142,0.008 0.008,0.0141 c 0.7776,0.6296 1.85098,0.83676 3.18589,0.83676 0.86903,0 1.6014,-0.084 2.22942,-0.29326 0.628,-0.20933 1.17699,-0.57249 1.49371,-1.12159 l 0.008,-0.0141 0.008,-0.008 c 0.23613,-0.44269 0.39325,-0.86096 0.43619,-1.30023 0.061,-0.38587 0.0862,-0.84356 0.0862,-1.44319 v -8.130482 c 0,-0.4601 0.15058,-0.779423 0.58551,-1.143521 0.50058,-0.394582 0.96143,-0.564503 1.46528,-0.564503 0.61654,0 1.05108,0.103559 1.30023,0.228071 h 0.008 l 0.014,0.0081 c 0.53893,0.253635 1.11568,0.385705 1.70077,0.385705 1.21549,0 2.27562,-0.756768 2.85796,-1.921423 0.5312,-1.06251 0.822,-2.085442 0.822,-3.072361 0,-0.922288 -0.18776,-1.715355 -0.71474,-2.300949 -0.40555,-0.496553 -0.93891,-0.87679 -1.55772,-1.072161 -0.51089,-0.161307 -0.99145,-0.267236 -1.4506,-0.327933 -0.48543,-0.09096 -1.04732,-0.129366 -1.70071,-0.129366 z m -45.097214,0.567434 c -0.41118,0.0051 -0.78916,0.403472 -0.83713,0.820612 -0.0261,0.552513 -0.0729,1.134301 -0.40153,1.603915 -0.71556,1.061184 -1.84828,1.724766 -2.90623,2.396026 -1.104384,-0.707881 -2.321892,-1.400136 -3.00364,-2.565556 -0.279279,-0.457195 -0.253886,-1.002311 -0.320274,-1.511156 -0.09754,-0.401535 -0.448139,-0.790444 -0.893674,-0.737813 -0.621024,0.09084 -0.857067,0.817838 -0.769555,1.365571 0.08101,1.648649 1.067616,3.126808 2.359166,4.100959 0.226065,0.183204 0.465093,0.349843 0.697204,0.525192 -1.156895,0.776772 -2.274596,1.751634 -2.764584,3.096072 -0.613609,1.555257 -0.255704,3.398004 0.810559,4.66932 0.530375,0.66845 1.239824,1.19669 1.954025,1.69614 -0.970649,0.68628 -1.908058,1.48736 -2.45565,2.5345 -0.433281,0.82877 -0.702083,1.79341 -0.565653,2.72944 0.0987,0.51811 0.719842,0.9523 1.204681,0.6127 0.441897,-0.27681 0.474573,-0.83044 0.484796,-1.29784 0.115197,-1.07245 0.997303,-1.83064 1.805182,-2.43997 0.467275,-0.34809 0.965187,-0.65076 1.457417,-0.96164 1.10598,0.70678 2.32249,1.40124 3.00517,2.56648 0.27849,0.45759 0.25345,1.0022 0.31957,1.51108 0.0931,0.52161 0.7161,0.96122 1.20384,0.62444 0.574964,-0.38284 0.497284,-1.15586 0.403344,-1.74935 -0.171844,-1.08043 -0.713284,-2.06734 -1.452154,-2.83656 -0.46467,-0.48921 -1.00396,-0.89768 -1.54807,-1.29328 0.6578,-0.45984 1.31993,-0.95327 1.81228,-1.52699 1.112114,-1.225396 1.563664,-3.040391 1.0276,-4.622369 -0.43775,-1.410988 -1.56734,-2.457667 -2.76165,-3.256256 -0.14885,-0.145299 0.34025,-0.296097 0.44455,-0.4434 1.2609,-0.922077 2.29543,-2.272781 2.494254,-3.857364 0.0903,-0.572228 0.11535,-1.321194 -0.457134,-1.656359 -0.11383,-0.06848 -0.23157,-0.09795 -0.34671,-0.09654 z m 45.097204,1.054477 c 0.5856,0 1.05958,0.04335 1.40009,0.107199 h 0.0213 l 0.0221,0.0081 c 0.35296,0.0443 0.76251,0.135671 1.2151,0.27858 0.35166,0.111066 0.59528,0.277389 0.80726,0.542335 l 0.0215,0.02216 0.0221,0.02147 c 0.12532,0.134836 0.28591,0.513007 0.28591,1.228789 0,0.664858 -0.20114,1.444702 -0.6507,2.343814 -0.39841,0.796967 -0.75714,1.021802 -1.40003,1.021802 -0.33889,0 -0.66011,-0.06734 -0.99337,-0.221813 -0.5767,-0.288336 -1.25238,-0.393121 -2.02962,-0.393121 -0.88781,0 -1.74274,0.325666 -2.47868,0.90827 l -0.008,0.0079 -0.008,0.0081 c -0.73949,0.610862 -1.18561,1.480268 -1.18561,2.408153 v 8.131407 c 0,0.56993 -0.0265,0.99432 -0.0641,1.22153 l -0.008,0.0285 v 0.0282 c -0.0101,0.11777 -0.0844,0.36545 -0.24281,0.67163 h -0.008 c -0.0712,0.12122 -0.21735,0.26792 -0.59284,0.39311 -0.37867,0.1261 -0.95838,0.20715 -1.71545,0.20715 -1.13565,0 -1.83366,-0.23211 -2.14323,-0.47831 -0.21,-0.19021 -0.37295,-0.48947 -0.41413,-1.08676 V 58.98988 45.399965 c 0,-0.561902 0.0161,-0.962829 0.0358,-1.200367 0.0358,-0.204716 0.11614,-0.453735 0.26376,-0.75048 0.0641,-0.123526 0.19131,-0.256533 0.5645,-0.385785 0.37333,-0.129121 0.96035,-0.221893 1.72912,-0.221893 1.44466,0 2.10601,0.343573 2.22202,0.521484 l 0.008,0.0081 0.008,0.01396 c 0.2077,0.302123 0.17561,0.57221 0.27859,0.814662 v 2.536284 l 1.47896,-2.065467 c 0.096,-0.134414 0.25506,-0.330522 0.45723,-0.557008 l 0.008,-0.0081 c 0.12671,-0.126732 0.62382,-0.478091 1.39274,-0.899773 0.72571,-0.397995 1.30752,-0.557087 1.7007,-0.557087 z m -52.001978,0.01892 c 0.03881,0.37744 0.07002,0.680497 0.196562,0.896761 h 5.131482 c 0.12016,-0.245277 0.17251,-0.55164 0.19996,-0.896761 z m 0.765834,1.635348 c 0.318811,0.326789 0.695353,0.618373 1.099588,0.896762 h 1.790741 c 0.40263,-0.278008 0.77996,-0.569111 1.10111,-0.896762 z m 1.994039,4.481183 c 0.0397,0.02477 0.079,0.04943 0.118471,0.07415 1.066689,0.67433 2.24598,1.32262 2.918739,2.433017 0.455831,0.836065 0.27833,1.945717 -0.399209,2.612667 -0.73631,0.82497 -1.71117,1.37674 -2.638001,1.95734 -1.093372,-0.69512 -2.309231,-1.34444 -3.017599,-2.472643 -0.478886,-0.83952 -0.306897,-1.972481 0.381074,-2.648351 0.736695,-0.82373 1.710195,-1.375875 2.636525,-1.95618 z m -0.955242,1.230258 c -0.410136,0.276353 -0.792953,0.56661 -1.121583,0.896762 h 4.150865 c -0.32274,-0.328544 -0.70778,-0.618795 -1.12161,-0.896763 z m -1.740466,1.859714 c -0.07729,0.294299 -0.08287,0.608748 -0.0084,0.896763 h 5.402259 c 0.0775,-0.294423 0.0825,-0.608787 0.007,-0.896763 z m 0.62345,1.859635 c 0.323928,0.328835 0.709255,0.618852 1.122894,0.896687 h 1.907455 c 0.41023,-0.276286 0.79308,-0.566435 1.12135,-0.896687 z m 1.014681,5.815247 c -0.029,0.0209 -0.0581,0.0418 -0.08656,0.063 -0.346505,0.26145 -0.680444,0.53726 -0.953383,0.83374 h 4.19156 c -0.30065,-0.32833 -0.6604,-0.62017 -1.04997,-0.89676 z m -1.590313,1.75012 c -0.04558,0.12508 -0.07847,0.2534 -0.093,0.38601 -0.0033,0.15369 -0.0093,0.3264 -0.03602,0.51075 h 5.562381 c -0.04,-0.35793 -0.0594,-0.65994 -0.12889,-0.89676 z" /><g
             id="g14464"
             transform="matrix(1.1266776,0,0,1.1266776,-26.847022,-4.3370147)"><path
               d="m 162.04455,34.236639 -0.39641,2.466286 c 0.19003,0.124316 0.31583,0.338741 0.31583,0.58283 v 0 c 0,0.01337 -10e-4,0.02644 -0.002,0.03959 v 0 l 2.13346,1.196779 c 0.11856,-0.09339 0.26772,-0.14952 0.43028,-0.14952 v 0 c 0.38463,0 0.69643,0.311797 0.69643,0.696378 v 0 c 0,0.384581 -0.3118,0.696406 -0.69643,0.696406 v 0 c -0.38461,0 -0.69638,-0.311825 -0.69638,-0.696406 v 0 c 0,-0.01542 0.001,-0.03053 0.002,-0.0457 v 0 l -2.12884,-1.19434 c -0.11927,0.09569 -0.27038,0.153193 -0.43521,0.153193 v 0 c -0.18903,0 -0.36016,-0.07553 -0.48568,-0.1978 v 0 l -1.86627,0.744686 v 1.365701 c 0,0.822039 0.67257,1.494614 1.49461,1.494614 v 0 h 4.16347 c 0.82206,0 1.49461,-0.672575 1.49461,-1.494614 v 0 -4.163522 c 0,-0.822012 -0.67255,-1.494559 -1.49461,-1.494559 v 0 z"
               style="fill:url(#radialGradient14470);stroke:none;stroke-width:0.0280368"
               id="path14458" /><path
               d="m 160.41023,34.236639 c -0.82204,0 -1.49461,0.672575 -1.49461,1.494587 v 0 2.188104 l 1.65697,-0.661192 c 0.0122,-0.310395 0.2271,-0.567997 0.5163,-0.644706 v 0 l 0.38203,-2.376793 z"
               style="fill:url(#radialGradient14472);stroke:none;stroke-width:0.0280368"
               id="path14460" /><path
               style="font-variation-settings:'wdth' 75, 'wght' 400;opacity:1;fill:#ffffff;stroke-width:1.04023;stroke-linejoin:bevel"
               d="m 161.4712,34.237116 -0.3824,2.376599 c -0.2892,0.07671 -0.50405,0.334016 -0.51625,0.644405 l -1.65675,0.661459 h -10e-4 v 0.609781 h 5.2e-4 l 1.86655,-0.744657 c 0.12552,0.122271 0.29621,0.197921 0.48524,0.197921 0.16483,0 0.31636,-0.05779 0.43563,-0.153479 l 2.12856,1.194242 c -0.001,0.01517 -0.002,0.03057 -0.002,0.04599 0,0.384581 0.31199,0.696082 0.6966,0.696082 0.38463,0 0.6966,-0.311501 0.6966,-0.696082 0,-0.384575 -0.31197,-0.696598 -0.6966,-0.696598 -0.16256,0 -0.31191,0.05595 -0.43047,0.149345 l -2.1332,-1.19631 c 0.001,-0.01315 0.002,-0.02642 0.002,-0.03979 0,-0.244089 -0.12572,-0.458596 -0.31575,-0.582911 l 0.39636,-2.465999 z"
               id="path14462" /></g></g></g></g></g></svg>
