<?xml version="1.0" encoding="UTF-8" standalone="no"?>
<!-- Created with Inkscape (http://www.inkscape.org/) -->

<svg
   width="110.86711mm"
   height="58.941383mm"
   viewBox="0 0 110.86711 58.941383"
   version="1.1"
   id="svg21582"
   inkscape:version="1.2.2 (1:1.2.2+202212051552+b0a8486541)"
   sodipodi:docname="logo-vertical.svg"
   xmlns:inkscape="http://www.inkscape.org/namespaces/inkscape"
   xmlns:sodipodi="http://sodipodi.sourceforge.net/DTD/sodipodi-0.dtd"
   xmlns:xlink="http://www.w3.org/1999/xlink"
   xmlns="http://www.w3.org/2000/svg"
   xmlns:svg="http://www.w3.org/2000/svg">
  <sodipodi:namedview
     id="namedview21584"
     pagecolor="#ffffff"
     bordercolor="#000000"
     borderopacity="0.25"
     inkscape:showpageshadow="2"
     inkscape:pageopacity="0.0"
     inkscape:pagecheckerboard="0"
     inkscape:deskcolor="#d1d1d1"
     inkscape:document-units="mm"
     showgrid="false"
     inkscape:zoom="0.80265853"
     inkscape:cx="150.74904"
     inkscape:cy="343.23438"
     inkscape:window-width="1866"
     inkscape:window-height="1016"
     inkscape:window-x="1974"
     inkscape:window-y="27"
     inkscape:window-maximized="1"
     inkscape:current-layer="layer1" />
  <defs
     id="defs21579">
    <linearGradient
       inkscape:collect="always"
       xlink:href="#linearGradient8740"
       id="linearGradient1967"
       gradientUnits="userSpaceOnUse"
       gradientTransform="matrix(0.14945655,0,0,0.14945655,460.05805,131.3791)"
       x1="-2747.7346"
       y1="-584.57153"
       x2="-2075.5229"
       y2="-584.57153" />
    <linearGradient
       id="linearGradient8740">
      <stop
         id="stop8738"
         offset="0"
         style="stop-color:#000000;stop-opacity:1;" />
      <stop
         id="stop8736"
         offset="0.18261695"
         style="stop-color:#3a86ff;stop-opacity:1" />
      <stop
         style="stop-color:#8338ec;stop-opacity:1"
         offset="0.38739288"
         id="stop8734" />
      <stop
         id="stop8732"
         offset="0.59400356"
         style="stop-color:#ff006e;stop-opacity:1" />
      <stop
         style="stop-color:#fb5607;stop-opacity:1"
         offset="0.74514398"
         id="stop8730" />
      <stop
         id="stop8728"
         offset="1"
         style="stop-color:#ffbe0b;stop-opacity:1" />
    </linearGradient>
    <radialGradient
       inkscape:collect="always"
       xlink:href="#radialGradient4071-7"
       id="radialGradient1969"
       gradientUnits="userSpaceOnUse"
       gradientTransform="matrix(3.8278643,0,0,-3.827887,160.94685,37.285569)"
       cx="0"
       cy="0"
       fx="0"
       fy="0"
       r="1"
       spreadMethod="pad" />
    <radialGradient
       fx="0"
       fy="0"
       cx="0"
       cy="0"
       r="1"
       gradientUnits="userSpaceOnUse"
       gradientTransform="matrix(136.52995,0,0,136.53076,86.62188,160.54361)"
       spreadMethod="pad"
       id="radialGradient4071-7">
      <stop
         style="stop-opacity:1;stop-color:#ffffff"
         offset="0"
         id="stop4061-0" />
      <stop
         style="stop-opacity:1;stop-color:#ffffff"
         offset="0.00205545"
         id="stop4063-9" />
      <stop
         style="stop-opacity:1;stop-color:#ffffff"
         offset="0.032588"
         id="stop4065-3" />
      <stop
         style="stop-opacity:1;stop-color:#ffffff"
         offset="0.08358642"
         id="stop4067-6" />
      <stop
         style="stop-opacity:1;stop-color:#ff0000"
         offset="1"
         id="stop4069-0" />
    </radialGradient>
    <radialGradient
       inkscape:collect="always"
       xlink:href="#radialGradient4045-6"
       id="radialGradient9497"
       gradientUnits="userSpaceOnUse"
       gradientTransform="matrix(3.9119447,0,0,-3.911968,161.26706,37.285787)"
       cx="0"
       cy="0"
       fx="0"
       fy="0"
       r="1"
       spreadMethod="pad" />
    <radialGradient
       fx="0"
       fy="0"
       cx="0"
       cy="0"
       r="1"
       gradientUnits="userSpaceOnUse"
       gradientTransform="matrix(139.52888,0,0,139.52971,98.042976,160.53586)"
       spreadMethod="pad"
       id="radialGradient4045-6">
      <stop
         style="stop-opacity:1;stop-color:#ffffff"
         offset="0"
         id="stop4037-2" />
      <stop
         style="stop-opacity:1;stop-color:#ff0000"
         offset="0.96810947"
         id="stop4039-9" />
      <stop
         style="stop-opacity:1;stop-color:#ff0000"
         offset="0.999999"
         id="stop4041-1" />
      <stop
         style="stop-opacity:1;stop-color:#ff0000"
         offset="1"
         id="stop4043-2" />
    </radialGradient>
  </defs>
  <g
     inkscape:label="Layer 1"
     inkscape:groupmode="layer"
     id="layer1"
     transform="translate(-9.174657,-57.882249)">
    <g
       aria-label="Git repositories with bioinformatics training material"
       id="g9485"
       style="font-weight:500;font-size:5.95012px;line-height:1.05;font-family:Jost;-inkscape-font-specification:'Jost, Medium';letter-spacing:-0.0503356px;fill:#1f2937;stroke:#ff2a2a;stroke-width:5.45339;stroke-linecap:round;stroke-linejoin:round;stroke-miterlimit:10;paint-order:fill markers stroke"
       transform="matrix(1.127047,0,0,1.127047,-53.728275,21.294072)">
      <path
         d="m 76.397779,76.997124 q -0.553361,0 -0.99962,-0.154703 -0.446259,-0.160653 -0.761615,-0.452209 -0.309406,-0.297506 -0.47601,-0.702114 -0.160653,-0.410559 -0.160653,-0.916319 0,-0.49981 0.166603,-0.910368 0.166604,-0.410558 0.48196,-0.702114 0.315356,-0.291556 0.767566,-0.446259 0.452209,-0.160654 1.01747,-0.160654 0.636663,0 1.118623,0.196354 0.487909,0.190404 0.779465,0.535511 0.291556,0.339157 0.357008,0.803266 h -0.96392 Q 77.665155,73.83761 77.480701,73.665057 77.302198,73.492503 77.034442,73.403252 76.766687,73.314 76.43348,73.314 q -0.470059,0 -0.803266,0.178503 -0.327257,0.178504 -0.49981,0.505761 -0.172554,0.327256 -0.172554,0.773515 0,0.351057 0.101152,0.624763 0.101152,0.273705 0.291556,0.464109 0.196354,0.184454 0.46411,0.285606 0.267755,0.0952 0.595012,0.0952 0.452209,0 0.761615,-0.142803 0.315356,-0.142803 0.47601,-0.398658 0.160653,-0.261805 0.160653,-0.612862 v -0.124953 l 0.279655,0.273706 h -1.749335 v -0.618813 h 2.421699 v 0.339157 q 0,0.49981 -0.184454,0.880618 -0.178503,0.380807 -0.49981,0.642613 -0.321306,0.255855 -0.755665,0.386757 -0.428409,0.130903 -0.922269,0.130903 z"
         style="font-weight:normal;font-family:'Mona Sans';-inkscape-font-specification:'Mona Sans, @wght=648,wdth=125.0';font-variation-settings:'wdth' 125, 'wght' 648;text-align:center;text-anchor:middle;stroke:none"
         id="path9387" />
      <path
         d="m 79.226824,76.943573 v -3.177364 h 0.922268 v 3.177364 z m 0,-3.605773 v -0.731864 h 0.922268 V 73.3378 Z"
         style="font-weight:normal;font-family:'Mona Sans';-inkscape-font-specification:'Mona Sans, @wght=648,wdth=125.0';font-variation-settings:'wdth' 125, 'wght' 648;text-align:center;text-anchor:middle;stroke:none"
         id="path9389" />
      <path
         d="m 81.961141,76.943573 q -0.255855,0 -0.446259,-0.0833 -0.190404,-0.0833 -0.297506,-0.249905 -0.101152,-0.172553 -0.101152,-0.428408 v -1.719585 h -0.606912 v -0.696164 h 0.606912 v -0.827067 l 0.910368,-0.178503 v 1.00557 h 0.797316 v 0.696164 h -0.797316 v 1.428029 q 0,0.154703 0.0714,0.214204 0.07735,0.05355 0.232054,0.05355 h 0.49386 v 0.785416 z"
         style="font-weight:normal;font-family:'Mona Sans';-inkscape-font-specification:'Mona Sans, @wght=648,wdth=125.0';font-variation-settings:'wdth' 125, 'wght' 648;text-align:center;text-anchor:middle;stroke:none"
         id="path9391" />
      <path
         d="m 84.448763,76.943573 v -3.177364 h 0.833017 l 0.0357,0.51766 h 0.0357 q 0.101152,-0.261805 0.327256,-0.410558 0.232055,-0.154703 0.553361,-0.154703 0.0833,0 0.148753,0.0059 0.0714,0.0059 0.119003,0.0119 v 0.833017 q -0.06545,-0.01785 -0.142803,-0.0238 -0.0714,-0.0059 -0.148753,-0.0059 -0.249905,0 -0.434359,0.08925 -0.184454,0.0833 -0.291556,0.273706 -0.107102,0.184454 -0.113052,0.476009 v 1.564882 z"
         style="font-weight:normal;font-family:'Mona Sans';-inkscape-font-specification:'Mona Sans, @wght=648,wdth=125.0';font-variation-settings:'wdth' 125, 'wght' 648;text-align:center;text-anchor:middle;stroke:none"
         id="path9393" />
      <path
         d="m 88.479715,76.997124 q -0.571211,0 -0.99962,-0.196354 -0.422459,-0.196354 -0.654513,-0.559311 -0.232055,-0.362957 -0.232055,-0.868718 0,-0.52361 0.232055,-0.892518 0.238005,-0.374857 0.654513,-0.571211 0.422458,-0.202304 0.98772,-0.202304 0.600962,0 1.01747,0.220154 0.422459,0.220155 0.630713,0.630713 0.208254,0.410558 0.166603,0.98772 h -2.766805 q 0.0059,0.255855 0.124952,0.446259 0.124953,0.184454 0.345107,0.285606 0.220155,0.0952 0.517661,0.0952 0.345107,0 0.589061,-0.119002 0.243955,-0.124952 0.309407,-0.315356 h 0.874667 q -0.0476,0.315356 -0.291556,0.559311 -0.243954,0.238005 -0.630712,0.368907 -0.386758,0.130903 -0.874668,0.130904 z m -0.98772,-1.909988 -0.0357,-0.0476 h 1.96354 l -0.0476,0.0476 q -0.0059,-0.232055 -0.113052,-0.398658 -0.107102,-0.166604 -0.309406,-0.255856 -0.196354,-0.08925 -0.48791,-0.08925 -0.279656,0 -0.48791,0.08925 -0.202304,0.0833 -0.327257,0.249905 -0.124952,0.166604 -0.154703,0.404609 z"
         style="font-weight:normal;font-family:'Mona Sans';-inkscape-font-specification:'Mona Sans, @wght=648,wdth=125.0';font-variation-settings:'wdth' 125, 'wght' 648;text-align:center;text-anchor:middle;stroke:none"
         id="path9395" />
      <path
         d="m 90.708272,77.937243 v -4.171034 h 0.874667 l 0.02975,0.52361 h 0.0357 q 0.142802,-0.255855 0.446259,-0.416508 0.309406,-0.160653 0.773515,-0.160653 0.351057,0 0.636663,0.119002 0.285606,0.113053 0.49386,0.327257 0.208254,0.208254 0.321306,0.51171 0.113053,0.303456 0.113053,0.684264 0,0.50576 -0.196354,0.874668 -0.196354,0.362957 -0.553361,0.571211 -0.351057,0.202304 -0.821117,0.202304 -0.267755,0 -0.50576,-0.0714 -0.232055,-0.07735 -0.410558,-0.208254 -0.178504,-0.136853 -0.279656,-0.321307 h -0.0357 v 1.535131 z M 92.58851,76.30096 q 0.279655,0 0.481959,-0.113052 0.202304,-0.113053 0.321307,-0.321307 0.119002,-0.214204 0.119002,-0.51171 0,-0.303456 -0.119002,-0.51171 -0.113053,-0.208255 -0.321307,-0.315357 -0.208254,-0.113052 -0.481959,-0.113052 -0.297506,0 -0.517661,0.113052 -0.214204,0.113053 -0.327257,0.303456 -0.113052,0.190404 -0.113052,0.428409 v 0.172554 q 0,0.178503 0.06545,0.339156 0.06545,0.154703 0.190403,0.273706 0.124953,0.119002 0.297506,0.190404 0.178504,0.06545 0.404609,0.06545 z"
         style="font-weight:normal;font-family:'Mona Sans';-inkscape-font-specification:'Mona Sans, @wght=648,wdth=125.0';font-variation-settings:'wdth' 125, 'wght' 648;text-align:center;text-anchor:middle;stroke:none"
         id="path9397" />
      <path
         d="m 96.619942,77.003074 q -0.422459,0 -0.773516,-0.107102 -0.345107,-0.113052 -0.600962,-0.327257 -0.249905,-0.214204 -0.386758,-0.51766 -0.130903,-0.303456 -0.130903,-0.696164 0,-0.51171 0.238005,-0.880618 0.238005,-0.368907 0.660464,-0.565261 0.428408,-0.202304 0.99367,-0.202304 0.428408,0 0.773515,0.113052 0.351057,0.113052 0.600962,0.327257 0.255855,0.208254 0.386758,0.51766 0.136853,0.303456 0.136853,0.690214 0,0.51171 -0.238005,0.886568 -0.232055,0.368907 -0.660463,0.565261 -0.422459,0.196354 -0.99962,0.196354 z m 0,-0.708064 q 0.309406,0 0.52956,-0.113052 0.220155,-0.119003 0.333207,-0.327257 0.119002,-0.214204 0.119002,-0.49981 0,-0.214204 -0.0714,-0.386758 -0.06545,-0.172553 -0.190404,-0.297506 -0.124952,-0.124952 -0.309406,-0.190404 -0.178504,-0.06545 -0.410558,-0.06545 -0.303457,0 -0.523611,0.119002 -0.214204,0.113053 -0.333207,0.327257 -0.113052,0.208254 -0.113052,0.49386 0,0.214204 0.06545,0.386758 0.06545,0.172553 0.190404,0.297506 0.124953,0.119002 0.303456,0.190404 0.184454,0.06545 0.410559,0.06545 z"
         style="font-weight:normal;font-family:'Mona Sans';-inkscape-font-specification:'Mona Sans, @wght=648,wdth=125.0';font-variation-settings:'wdth' 125, 'wght' 648;text-align:center;text-anchor:middle;stroke:none"
         id="path9399" />
      <path
         d="m 100.42242,77.003074 q -0.803262,0 -1.23167,-0.285606 -0.428409,-0.291555 -0.458159,-0.779465 h 0.898468 q 0.0238,0.243955 0.226104,0.374857 0.208257,0.130903 0.595017,0.130903 0.3451,0 0.53551,-0.0952 0.19635,-0.0952 0.19635,-0.291556 0,-0.148753 -0.0773,-0.220154 -0.0714,-0.07735 -0.24991,-0.113053 -0.17255,-0.04165 -0.48791,-0.0714 -0.410555,-0.0357 -0.702111,-0.101152 -0.291556,-0.06545 -0.476009,-0.172554 -0.184454,-0.107102 -0.267756,-0.267755 -0.0833,-0.160653 -0.0833,-0.392708 0,-0.315356 0.190404,-0.535511 0.190403,-0.226104 0.547411,-0.351057 0.357007,-0.124952 0.856811,-0.124952 0.45816,0 0.79137,0.119002 0.33916,0.119003 0.53551,0.345107 0.20231,0.226105 0.23206,0.553361 h -0.86872 q -0.0178,-0.160653 -0.11305,-0.255855 -0.0893,-0.101152 -0.23801,-0.148753 -0.14875,-0.05355 -0.34511,-0.05355 -0.3094,0 -0.505754,0.08925 -0.190404,0.08925 -0.190404,0.285606 0,0.130902 0.0833,0.202304 0.0833,0.0714 0.267758,0.107102 0.18445,0.0357 0.48196,0.06545 0.41056,0.0357 0.70211,0.101152 0.29751,0.0595 0.47601,0.172554 0.1785,0.107102 0.26181,0.279655 0.0833,0.172554 0.0833,0.428409 0,0.452209 -0.41056,0.731865 -0.40461,0.273705 -1.25548,0.273705 z"
         style="font-weight:normal;font-family:'Mona Sans';-inkscape-font-specification:'Mona Sans, @wght=648,wdth=125.0';font-variation-settings:'wdth' 125, 'wght' 648;text-align:center;text-anchor:middle;stroke:none"
         id="path9401" />
      <path
         d="m 102.47248,76.943573 v -3.177364 h 0.92226 v 3.177364 z m 0,-3.605773 v -0.731864 h 0.92226 V 73.3378 Z"
         style="font-weight:normal;font-family:'Mona Sans';-inkscape-font-specification:'Mona Sans, @wght=648,wdth=125.0';font-variation-settings:'wdth' 125, 'wght' 648;text-align:center;text-anchor:middle;stroke:none"
         id="path9403" />
      <path
         d="m 105.20679,76.943573 q -0.25585,0 -0.44626,-0.0833 -0.1904,-0.0833 -0.2975,-0.249905 -0.10116,-0.172553 -0.10116,-0.428408 v -1.719585 h -0.60691 v -0.696164 h 0.60691 v -0.827067 l 0.91037,-0.178503 v 1.00557 h 0.79732 v 0.696164 h -0.79732 v 1.428029 q 0,0.154703 0.0714,0.214204 0.0774,0.05355 0.23206,0.05355 h 0.49386 v 0.785416 z"
         style="font-weight:normal;font-family:'Mona Sans';-inkscape-font-specification:'Mona Sans, @wght=648,wdth=125.0';font-variation-settings:'wdth' 125, 'wght' 648;text-align:center;text-anchor:middle;stroke:none"
         id="path9405" />
      <path
         d="m 108.16316,77.003074 q -0.42246,0 -0.77352,-0.107102 -0.34511,-0.113052 -0.60096,-0.327257 -0.24991,-0.214204 -0.38676,-0.51766 -0.1309,-0.303456 -0.1309,-0.696164 0,-0.51171 0.238,-0.880618 0.23801,-0.368907 0.66047,-0.565261 0.42841,-0.202304 0.99367,-0.202304 0.42841,0 0.77351,0.113052 0.35106,0.113052 0.60096,0.327257 0.25586,0.208254 0.38676,0.51766 0.13685,0.303456 0.13685,0.690214 0,0.51171 -0.238,0.886568 -0.23205,0.368907 -0.66046,0.565261 -0.42246,0.196354 -0.99962,0.196354 z m 0,-0.708064 q 0.3094,0 0.52956,-0.113052 0.22015,-0.119003 0.3332,-0.327257 0.11901,-0.214204 0.11901,-0.49981 0,-0.214204 -0.0714,-0.386758 -0.0654,-0.172553 -0.1904,-0.297506 -0.12495,-0.124952 -0.30941,-0.190404 -0.1785,-0.06545 -0.41055,-0.06545 -0.30346,0 -0.52361,0.119002 -0.21421,0.113053 -0.33321,0.327257 -0.11305,0.208254 -0.11305,0.49386 0,0.214204 0.0654,0.386758 0.0654,0.172553 0.1904,0.297506 0.12495,0.119002 0.30346,0.190404 0.18445,0.06545 0.41056,0.06545 z"
         style="font-weight:normal;font-family:'Mona Sans';-inkscape-font-specification:'Mona Sans, @wght=648,wdth=125.0';font-variation-settings:'wdth' 125, 'wght' 648;text-align:center;text-anchor:middle;stroke:none"
         id="path9407" />
      <path
         d="m 110.48692,76.943573 v -3.177364 h 0.83301 l 0.0357,0.51766 h 0.0357 q 0.10116,-0.261805 0.32726,-0.410558 0.23206,-0.154703 0.55336,-0.154703 0.0833,0 0.14876,0.0059 0.0714,0.0059 0.119,0.0119 v 0.833017 q -0.0654,-0.01785 -0.14281,-0.0238 -0.0714,-0.0059 -0.14875,-0.0059 -0.2499,0 -0.43436,0.08925 -0.18445,0.0833 -0.29155,0.273706 -0.10711,0.184454 -0.11306,0.476009 v 1.564882 z"
         style="font-weight:normal;font-family:'Mona Sans';-inkscape-font-specification:'Mona Sans, @wght=648,wdth=125.0';font-variation-settings:'wdth' 125, 'wght' 648;text-align:center;text-anchor:middle;stroke:none"
         id="path9409" />
      <path
         d="m 112.88802,76.943573 v -3.177364 h 0.92227 v 3.177364 z m 0,-3.605773 v -0.731864 h 0.92227 V 73.3378 Z"
         style="font-weight:normal;font-family:'Mona Sans';-inkscape-font-specification:'Mona Sans, @wght=648,wdth=125.0';font-variation-settings:'wdth' 125, 'wght' 648;text-align:center;text-anchor:middle;stroke:none"
         id="path9411" />
      <path
         d="m 116.1281,76.997124 q -0.57121,0 -0.99962,-0.196354 -0.42246,-0.196354 -0.65451,-0.559311 -0.23206,-0.362957 -0.23206,-0.868718 0,-0.52361 0.23206,-0.892518 0.238,-0.374857 0.65451,-0.571211 0.42246,-0.202304 0.98772,-0.202304 0.60096,0 1.01747,0.220154 0.42246,0.220155 0.63071,0.630713 0.20826,0.410558 0.16661,0.98772 h -2.76681 q 0.006,0.255855 0.12495,0.446259 0.12496,0.184454 0.34511,0.285606 0.22015,0.0952 0.51766,0.0952 0.34511,0 0.58906,-0.119002 0.24396,-0.124952 0.30941,-0.315356 h 0.87467 q -0.0476,0.315356 -0.29156,0.559311 -0.24395,0.238005 -0.63071,0.368907 -0.38676,0.130903 -0.87467,0.130904 z m -0.98772,-1.909988 -0.0357,-0.0476 h 1.96354 l -0.0476,0.0476 q -0.006,-0.232055 -0.11305,-0.398658 -0.10711,-0.166604 -0.30941,-0.255856 -0.19635,-0.08925 -0.48791,-0.08925 -0.27966,0 -0.48791,0.08925 -0.2023,0.0833 -0.32726,0.249905 -0.12495,0.166604 -0.1547,0.404609 z"
         style="font-weight:normal;font-family:'Mona Sans';-inkscape-font-specification:'Mona Sans, @wght=648,wdth=125.0';font-variation-settings:'wdth' 125, 'wght' 648;text-align:center;text-anchor:middle;stroke:none"
         id="path9413" />
      <path
         d="m 119.83538,77.003074 q -0.80327,0 -1.23168,-0.285606 -0.4284,-0.291555 -0.45816,-0.779465 h 0.89847 q 0.0238,0.243955 0.22611,0.374857 0.20825,0.130903 0.59501,0.130903 0.34511,0 0.53551,-0.0952 0.19635,-0.0952 0.19635,-0.291556 0,-0.148753 -0.0774,-0.220154 -0.0714,-0.07735 -0.2499,-0.113053 -0.17256,-0.04165 -0.48791,-0.0714 -0.41056,-0.0357 -0.70212,-0.101152 -0.29155,-0.06545 -0.47601,-0.172554 -0.18445,-0.107102 -0.26775,-0.267755 -0.0833,-0.160653 -0.0833,-0.392708 0,-0.315356 0.1904,-0.535511 0.1904,-0.226104 0.54741,-0.351057 0.35701,-0.124952 0.85682,-0.124952 0.45816,0 0.79137,0.119002 0.33915,0.119003 0.53551,0.345107 0.2023,0.226105 0.23205,0.553361 h -0.86872 q -0.0179,-0.160653 -0.11305,-0.255855 -0.0893,-0.101152 -0.238,-0.148753 -0.14876,-0.05355 -0.34511,-0.05355 -0.30941,0 -0.50576,0.08925 -0.1904,0.08925 -0.1904,0.285606 0,0.130902 0.0833,0.202304 0.0833,0.0714 0.26775,0.107102 0.18446,0.0357 0.48196,0.06545 0.41056,0.0357 0.70212,0.101152 0.2975,0.0595 0.47601,0.172554 0.1785,0.107102 0.2618,0.279655 0.0833,0.172554 0.0833,0.428409 0,0.452209 -0.41056,0.731865 -0.4046,0.273705 -1.25547,0.273705 z"
         style="font-weight:normal;font-family:'Mona Sans';-inkscape-font-specification:'Mona Sans, @wght=648,wdth=125.0';font-variation-settings:'wdth' 125, 'wght' 648;text-align:center;text-anchor:middle;stroke:none"
         id="path9415" />
      <path
         d="m 123.77483,76.943573 -0.93417,-3.177364 h 0.87467 l 0.67236,2.391948 h 0.0357 l 0.62476,-2.391948 h 0.91037 l 0.61882,2.409799 h 0.0238 l 0.67831,-2.409799 h 0.83897 l -0.94012,3.177364 h -1.10672 l -0.58907,-2.147993 h -0.0357 l -0.58311,2.147993 z"
         style="font-weight:normal;font-family:'Mona Sans';-inkscape-font-specification:'Mona Sans, @wght=648,wdth=125.0';font-variation-settings:'wdth' 125, 'wght' 648;text-align:center;text-anchor:middle;stroke:none"
         id="path9417" />
      <path
         d="m 128.39533,76.943573 v -3.177364 h 0.92227 v 3.177364 z m 0,-3.605773 v -0.731864 h 0.92227 V 73.3378 Z"
         style="font-weight:normal;font-family:'Mona Sans';-inkscape-font-specification:'Mona Sans, @wght=648,wdth=125.0';font-variation-settings:'wdth' 125, 'wght' 648;text-align:center;text-anchor:middle;stroke:none"
         id="path9419" />
      <path
         d="m 131.12965,76.943573 q -0.25586,0 -0.44626,-0.0833 -0.1904,-0.0833 -0.29751,-0.249905 -0.10115,-0.172553 -0.10115,-0.428408 v -1.719585 h -0.60691 v -0.696164 h 0.60691 v -0.827067 l 0.91037,-0.178503 v 1.00557 h 0.79732 v 0.696164 h -0.79732 v 1.428029 q 0,0.154703 0.0714,0.214204 0.0773,0.05355 0.23206,0.05355 h 0.49386 v 0.785416 z"
         style="font-weight:normal;font-family:'Mona Sans';-inkscape-font-specification:'Mona Sans, @wght=648,wdth=125.0';font-variation-settings:'wdth' 125, 'wght' 648;text-align:center;text-anchor:middle;stroke:none"
         id="path9421" />
      <path
         d="m 132.36715,76.943573 v -4.337637 h 0.92227 v 1.743385 h 0.0476 q 0.1547,-0.303456 0.48196,-0.47006 0.33321,-0.172553 0.71996,-0.172553 0.30941,0 0.55931,0.07735 0.25586,0.07735 0.43436,0.249905 0.18446,0.172554 0.28561,0.46411 0.10115,0.285605 0.10115,0.702114 v 1.743385 H 134.9971 V 75.36084 q 0,-0.309406 -0.0773,-0.51766 -0.0714,-0.214205 -0.24395,-0.321307 -0.17256,-0.107102 -0.45221,-0.107102 -0.27966,0 -0.49386,0.124953 -0.20826,0.119002 -0.32726,0.333206 -0.11305,0.208254 -0.11305,0.48791 v 1.582732 z"
         style="font-weight:normal;font-family:'Mona Sans';-inkscape-font-specification:'Mona Sans, @wght=648,wdth=125.0';font-variation-settings:'wdth' 125, 'wght' 648;text-align:center;text-anchor:middle;stroke:none"
         id="path9423" />
      <path
         d="m 57.966107,83.755368 q -0.303456,0 -0.541461,-0.0714 -0.238004,-0.0714 -0.410558,-0.202304 -0.166603,-0.130903 -0.267755,-0.297506 h -0.02975 l -0.02975,0.52361 H 55.812164 V 79.37013 h 0.922268 v 1.701734 h 0.0357 q 0.148753,-0.279656 0.47006,-0.440309 0.327256,-0.160653 0.725914,-0.160653 0.357007,0 0.642613,0.113052 0.291556,0.113053 0.49386,0.333207 0.208254,0.220154 0.321307,0.523611 0.113052,0.297506 0.113052,0.672363 0,0.50576 -0.196354,0.874668 -0.196354,0.368907 -0.547411,0.571211 -0.351057,0.196354 -0.827066,0.196354 z m -0.273705,-0.696164 q 0.279655,0 0.481959,-0.113052 0.208255,-0.113052 0.321307,-0.321307 0.119002,-0.208254 0.119002,-0.51171 0,-0.220154 -0.06545,-0.392708 -0.06545,-0.178503 -0.190404,-0.297506 -0.119002,-0.124952 -0.291556,-0.184454 -0.166603,-0.06545 -0.374857,-0.06545 -0.297506,0 -0.517661,0.119003 -0.214204,0.113052 -0.327256,0.309406 -0.113053,0.196354 -0.113053,0.440309 v 0.166603 q 0,0.232055 0.113053,0.428409 0.113052,0.190404 0.327256,0.309406 0.220155,0.113052 0.517661,0.113052 z"
         style="font-weight:normal;font-family:'Mona Sans';-inkscape-font-specification:'Mona Sans, @wght=648,wdth=125.0';font-variation-settings:'wdth' 125, 'wght' 648;text-align:center;text-anchor:middle;stroke:none"
         id="path9425" />
      <path
         d="m 59.962609,83.707767 v -3.177364 h 0.922269 v 3.177364 z m 0,-3.605772 V 79.37013 h 0.922269 v 0.731865 z"
         style="font-weight:normal;font-family:'Mona Sans';-inkscape-font-specification:'Mona Sans, @wght=648,wdth=125.0';font-variation-settings:'wdth' 125, 'wght' 648;text-align:center;text-anchor:middle;stroke:none"
         id="path9427" />
      <path
         d="m 63.208637,83.767268 q -0.422459,0 -0.773516,-0.107102 -0.345107,-0.113052 -0.600962,-0.327256 -0.249905,-0.214205 -0.386758,-0.517661 -0.130903,-0.303456 -0.130903,-0.696164 0,-0.51171 0.238005,-0.880618 0.238005,-0.368907 0.660464,-0.565261 0.428408,-0.202304 0.99367,-0.202304 0.428408,0 0.773515,0.113052 0.351057,0.113053 0.600962,0.327257 0.255855,0.208254 0.386758,0.51766 0.136853,0.303456 0.136853,0.690214 0,0.511711 -0.238005,0.886568 -0.232055,0.368908 -0.660463,0.565262 -0.422459,0.196353 -0.99962,0.196353 z m 0,-0.708064 q 0.309406,0 0.52956,-0.113052 0.220155,-0.119002 0.333207,-0.327257 0.119002,-0.214204 0.119002,-0.49981 0,-0.214204 -0.0714,-0.386758 -0.06545,-0.172553 -0.190404,-0.297506 -0.124952,-0.124952 -0.309406,-0.190403 -0.178504,-0.06545 -0.410558,-0.06545 -0.303457,0 -0.523611,0.119003 -0.214204,0.113052 -0.333207,0.327256 -0.113052,0.208254 -0.113052,0.49386 0,0.214205 0.06545,0.386758 0.06545,0.172554 0.190404,0.297506 0.124953,0.119002 0.303456,0.190404 0.184454,0.06545 0.410559,0.06545 z"
         style="font-weight:normal;font-family:'Mona Sans';-inkscape-font-specification:'Mona Sans, @wght=648,wdth=125.0';font-variation-settings:'wdth' 125, 'wght' 648;text-align:center;text-anchor:middle;stroke:none"
         id="path9429" />
      <path
         d="m 65.532397,83.707767 v -3.177364 h 0.922268 v 3.177364 z m 0,-3.605772 V 79.37013 h 0.922268 v 0.731865 z"
         style="font-weight:normal;font-family:'Mona Sans';-inkscape-font-specification:'Mona Sans, @wght=648,wdth=125.0';font-variation-settings:'wdth' 125, 'wght' 648;text-align:center;text-anchor:middle;stroke:none"
         id="path9431" />
      <path
         d="m 67.017189,83.707767 v -3.177364 h 0.892518 l 0.02975,0.577162 h 0.0476 q 0.160653,-0.303456 0.49386,-0.47006 0.333207,-0.166603 0.708064,-0.166603 0.309407,0 0.559312,0.07735 0.255855,0.07735 0.434358,0.249905 0.184454,0.172553 0.285606,0.464109 0.101152,0.285606 0.101152,0.702114 v 1.743385 h -0.922268 v -1.582732 q 0,-0.309406 -0.07735,-0.51766 -0.0714,-0.214204 -0.243955,-0.321307 -0.172553,-0.113052 -0.452209,-0.113052 -0.279656,0 -0.49386,0.124953 -0.208254,0.119002 -0.327257,0.333206 -0.113052,0.214205 -0.113052,0.49386 v 1.582732 z"
         style="font-weight:normal;font-family:'Mona Sans';-inkscape-font-specification:'Mona Sans, @wght=648,wdth=125.0';font-variation-settings:'wdth' 125, 'wght' 648;text-align:center;text-anchor:middle;stroke:none"
         id="path9433" />
      <path
         d="m 71.361604,83.707767 v -2.4812 h -0.571212 v -0.696164 h 0.571212 v -0.243955 q 0,-0.476009 0.291556,-0.696164 0.297506,-0.220154 0.856817,-0.220154 h 0.553361 v 0.606912 H 72.65278 q -0.184454,0 -0.279656,0.0833 -0.08925,0.0833 -0.08925,0.255855 v 0.214204 h 0.725914 v 0.696164 h -0.725914 v 2.4812 z"
         style="font-weight:normal;font-family:'Mona Sans';-inkscape-font-specification:'Mona Sans, @wght=648,wdth=125.0';font-variation-settings:'wdth' 125, 'wght' 648;text-align:center;text-anchor:middle;stroke:none"
         id="path9435" />
      <path
         d="m 74.972485,83.767268 q -0.422458,0 -0.773515,-0.107102 -0.345107,-0.113052 -0.600962,-0.327256 -0.249905,-0.214205 -0.386758,-0.517661 -0.130903,-0.303456 -0.130903,-0.696164 0,-0.51171 0.238005,-0.880618 0.238005,-0.368907 0.660463,-0.565261 0.428409,-0.202304 0.99367,-0.202304 0.428409,0 0.773516,0.113052 0.351057,0.113053 0.600962,0.327257 0.255855,0.208254 0.386758,0.51766 0.136853,0.303456 0.136853,0.690214 0,0.511711 -0.238005,0.886568 -0.232055,0.368908 -0.660463,0.565262 -0.422459,0.196353 -0.999621,0.196353 z m 0,-0.708064 q 0.309407,0 0.529561,-0.113052 0.220154,-0.119002 0.333207,-0.327257 0.119002,-0.214204 0.119002,-0.49981 0,-0.214204 -0.0714,-0.386758 -0.06545,-0.172553 -0.190404,-0.297506 -0.124953,-0.124952 -0.309406,-0.190403 -0.178504,-0.06545 -0.410559,-0.06545 -0.303456,0 -0.52361,0.119003 -0.214204,0.113052 -0.333207,0.327256 -0.113052,0.208254 -0.113052,0.49386 0,0.214205 0.06545,0.386758 0.06545,0.172554 0.190404,0.297506 0.124953,0.119002 0.303456,0.190404 0.184454,0.06545 0.410558,0.06545 z"
         style="font-weight:normal;font-family:'Mona Sans';-inkscape-font-specification:'Mona Sans, @wght=648,wdth=125.0';font-variation-settings:'wdth' 125, 'wght' 648;text-align:center;text-anchor:middle;stroke:none"
         id="path9437" />
      <path
         d="m 77.296245,83.707767 v -3.177364 h 0.833017 l 0.0357,0.517661 h 0.0357 q 0.101152,-0.261806 0.327257,-0.410559 0.232055,-0.154703 0.553361,-0.154703 0.0833,0 0.148753,0.0059 0.0714,0.006 0.119003,0.0119 v 0.833016 q -0.06545,-0.01785 -0.142803,-0.0238 -0.0714,-0.006 -0.148753,-0.006 -0.249905,0 -0.434359,0.08925 -0.184454,0.0833 -0.291556,0.273705 -0.107102,0.184454 -0.113052,0.47601 v 1.564881 z"
         style="font-weight:normal;font-family:'Mona Sans';-inkscape-font-specification:'Mona Sans, @wght=648,wdth=125.0';font-variation-settings:'wdth' 125, 'wght' 648;text-align:center;text-anchor:middle;stroke:none"
         id="path9439" />
      <path
         d="m 79.697351,83.707767 v -3.177364 h 0.886568 l 0.0357,0.559311 h 0.0476 q 0.154703,-0.297506 0.452209,-0.458159 0.297506,-0.160653 0.684263,-0.160653 0.416509,0 0.714015,0.184454 0.297506,0.184453 0.428409,0.535511 h 0.05355 q 0.184453,-0.374858 0.50576,-0.547412 0.321306,-0.172553 0.737815,-0.172553 0.410558,0 0.702114,0.160653 0.297506,0.160653 0.452209,0.48196 0.154703,0.321306 0.154703,0.827067 v 1.767185 H 84.63 v -1.648183 q 0,-0.267755 -0.06545,-0.464109 -0.0595,-0.202304 -0.214204,-0.309407 -0.154703,-0.113052 -0.428409,-0.113052 -0.255855,0 -0.446259,0.113052 -0.184454,0.113053 -0.291556,0.309407 -0.101152,0.196354 -0.101152,0.464109 v 1.648183 h -0.916318 v -1.624382 q 0,-0.285606 -0.0714,-0.48791 -0.06545,-0.202304 -0.226104,-0.309407 -0.154703,-0.113052 -0.410558,-0.113052 -0.267756,0 -0.45816,0.113052 -0.184453,0.113053 -0.285605,0.315357 -0.0952,0.196354 -0.0952,0.458159 v 1.648183 z"
         style="font-weight:normal;font-family:'Mona Sans';-inkscape-font-specification:'Mona Sans, @wght=648,wdth=125.0';font-variation-settings:'wdth' 125, 'wght' 648;text-align:center;text-anchor:middle;stroke:none"
         id="path9441" />
      <path
         d="m 87.494743,83.767268 q -0.351057,0 -0.642613,-0.113052 -0.285606,-0.119002 -0.49386,-0.333207 -0.208254,-0.220154 -0.321307,-0.52361 -0.107102,-0.303456 -0.107102,-0.678314 0,-0.50576 0.196354,-0.874667 0.196354,-0.368908 0.547411,-0.565262 0.357007,-0.202304 0.821117,-0.202304 0.315356,0 0.553361,0.07735 0.238005,0.0714 0.404608,0.202304 0.166603,0.124952 0.261805,0.297506 h 0.0357 l 0.02975,-0.523611 h 0.874667 v 3.177364 h -0.922268 v -0.541461 h -0.0357 q -0.148753,0.273706 -0.47601,0.440309 -0.321306,0.160653 -0.725914,0.160653 z m 0.279655,-0.702114 q 0.303457,0 0.517661,-0.119002 0.214204,-0.119002 0.321306,-0.315356 0.113053,-0.196354 0.113053,-0.434359 v -0.172554 q 0,-0.238004 -0.113053,-0.428408 -0.107102,-0.190404 -0.327256,-0.303456 -0.214205,-0.113053 -0.511711,-0.113053 -0.273705,0 -0.481959,0.113053 -0.202304,0.107102 -0.321307,0.315356 -0.113052,0.208254 -0.113052,0.51171 0,0.297506 0.113052,0.511711 0.113053,0.208254 0.315357,0.321306 0.208254,0.113052 0.487909,0.113052 z"
         style="font-weight:normal;font-family:'Mona Sans';-inkscape-font-specification:'Mona Sans, @wght=648,wdth=125.0';font-variation-settings:'wdth' 125, 'wght' 648;text-align:center;text-anchor:middle;stroke:none"
         id="path9443" />
      <path
         d="m 91.482389,83.707767 q -0.255855,0 -0.446259,-0.0833 -0.190404,-0.0833 -0.297506,-0.249905 -0.101152,-0.172554 -0.101152,-0.428409 V 81.226567 H 90.03056 v -0.696164 h 0.606912 v -0.827066 l 0.910368,-0.178504 v 1.00557 h 0.797317 v 0.696164 H 91.54784 v 1.428029 q 0,0.154703 0.0714,0.214204 0.07735,0.05355 0.232055,0.05355 h 0.49386 v 0.785416 z"
         style="font-weight:normal;font-family:'Mona Sans';-inkscape-font-specification:'Mona Sans, @wght=648,wdth=125.0';font-variation-settings:'wdth' 125, 'wght' 648;text-align:center;text-anchor:middle;stroke:none"
         id="path9445" />
      <path
         d="m 92.71989,83.707767 v -3.177364 h 0.922269 v 3.177364 z m 0,-3.605772 V 79.37013 h 0.922269 v 0.731865 z"
         style="font-weight:normal;font-family:'Mona Sans';-inkscape-font-specification:'Mona Sans, @wght=648,wdth=125.0';font-variation-settings:'wdth' 125, 'wght' 648;text-align:center;text-anchor:middle;stroke:none"
         id="path9447" />
      <path
         d="m 95.918319,83.761318 q -0.428408,0 -0.773515,-0.113052 -0.339157,-0.113052 -0.577162,-0.333207 -0.238005,-0.220154 -0.368907,-0.52361 -0.124953,-0.309406 -0.124953,-0.684264 0,-0.50576 0.232055,-0.868718 0.238005,-0.368907 0.660463,-0.565261 0.428409,-0.202304 0.99367,-0.202304 0.51171,0 0.898468,0.154703 0.386758,0.154703 0.612863,0.428409 0.226104,0.267755 0.249905,0.630712 h -0.910369 q -0.04165,-0.160653 -0.160653,-0.273705 -0.119002,-0.113052 -0.297506,-0.172554 -0.172553,-0.0595 -0.398658,-0.0595 -0.297506,0 -0.51766,0.119003 -0.214205,0.119002 -0.327257,0.327256 -0.113052,0.208254 -0.113052,0.48791 0,0.303456 0.113052,0.517661 0.119002,0.208254 0.333207,0.315356 0.214204,0.107102 0.50576,0.107102 0.220154,0 0.398658,-0.0595 0.178504,-0.06545 0.303456,-0.184454 0.124953,-0.119002 0.166603,-0.279655 h 0.922269 q -0.02975,0.374857 -0.285606,0.654513 -0.249905,0.279655 -0.654513,0.428408 -0.398658,0.148753 -0.880618,0.148753 z"
         style="font-weight:normal;font-family:'Mona Sans';-inkscape-font-specification:'Mona Sans, @wght=648,wdth=125.0';font-variation-settings:'wdth' 125, 'wght' 648;text-align:center;text-anchor:middle;stroke:none"
         id="path9449" />
      <path
         d="m 99.658204,83.767268 q -0.803266,0 -1.231675,-0.285605 -0.428408,-0.291556 -0.458159,-0.779466 h 0.898468 q 0.0238,0.243955 0.226105,0.374858 0.208254,0.130902 0.595012,0.130902 0.345105,0 0.535515,-0.0952 0.19635,-0.0952 0.19635,-0.291556 0,-0.148753 -0.0773,-0.220154 -0.0714,-0.07735 -0.24991,-0.113052 -0.17255,-0.04165 -0.487907,-0.0714 -0.410558,-0.0357 -0.702114,-0.101152 -0.291556,-0.06545 -0.47601,-0.172553 -0.184453,-0.107102 -0.267755,-0.267756 -0.0833,-0.160653 -0.0833,-0.392708 0,-0.315356 0.190404,-0.53551 0.190404,-0.226105 0.547411,-0.351057 0.357007,-0.124953 0.856818,-0.124953 0.458153,0 0.791363,0.119002 0.33916,0.119003 0.53551,0.345107 0.20231,0.226105 0.23206,0.553362 h -0.86872 q -0.0178,-0.160654 -0.11305,-0.255856 -0.0893,-0.101152 -0.23801,-0.148753 -0.14875,-0.05355 -0.345104,-0.05355 -0.309406,0 -0.50576,0.08925 -0.190404,0.08925 -0.190404,0.285606 0,0.130902 0.0833,0.202304 0.0833,0.0714 0.267755,0.107102 0.184454,0.0357 0.48196,0.06545 0.410563,0.0357 0.702113,0.101152 0.29751,0.0595 0.47601,0.172554 0.1785,0.107102 0.26181,0.279656 0.0833,0.172553 0.0833,0.428408 0,0.452209 -0.41056,0.731865 -0.40461,0.273705 -1.255476,0.273705 z"
         style="font-weight:normal;font-family:'Mona Sans';-inkscape-font-specification:'Mona Sans, @wght=648,wdth=125.0';font-variation-settings:'wdth' 125, 'wght' 648;text-align:center;text-anchor:middle;stroke:none"
         id="path9451" />
      <path
         d="m 104.19267,83.707767 q -0.25586,0 -0.44626,-0.0833 -0.19041,-0.0833 -0.29751,-0.249905 -0.10115,-0.172554 -0.10115,-0.428409 v -1.719585 h -0.60691 v -0.696164 h 0.60691 v -0.827066 l 0.91037,-0.178504 v 1.00557 h 0.79731 v 0.696164 h -0.79731 v 1.428029 q 0,0.154703 0.0714,0.214204 0.0773,0.05355 0.23205,0.05355 h 0.49386 v 0.785416 z"
         style="font-weight:normal;font-family:'Mona Sans';-inkscape-font-specification:'Mona Sans, @wght=648,wdth=125.0';font-variation-settings:'wdth' 125, 'wght' 648;text-align:center;text-anchor:middle;stroke:none"
         id="path9453" />
      <path
         d="m 105.4454,83.707767 v -3.177364 h 0.83302 l 0.0357,0.517661 h 0.0357 q 0.10115,-0.261806 0.32725,-0.410559 0.23206,-0.154703 0.55337,-0.154703 0.0833,0 0.14875,0.0059 0.0714,0.006 0.119,0.0119 v 0.833016 q -0.0654,-0.01785 -0.1428,-0.0238 -0.0714,-0.006 -0.14875,-0.006 -0.24991,0 -0.43436,0.08925 -0.18446,0.0833 -0.29156,0.273705 -0.1071,0.184454 -0.11305,0.47601 v 1.564881 z"
         style="font-weight:normal;font-family:'Mona Sans';-inkscape-font-specification:'Mona Sans, @wght=648,wdth=125.0';font-variation-settings:'wdth' 125, 'wght' 648;text-align:center;text-anchor:middle;stroke:none"
         id="path9455" />
      <path
         d="m 109.15505,83.767268 q -0.35106,0 -0.64262,-0.113052 -0.2856,-0.119002 -0.49386,-0.333207 -0.20825,-0.220154 -0.3213,-0.52361 -0.1071,-0.303456 -0.1071,-0.678314 0,-0.50576 0.19635,-0.874667 0.19635,-0.368908 0.54741,-0.565262 0.35701,-0.202304 0.82112,-0.202304 0.31535,0 0.55336,0.07735 0.238,0.0714 0.40461,0.202304 0.1666,0.124952 0.2618,0.297506 h 0.0357 l 0.0297,-0.523611 h 0.87467 v 3.177364 h -0.92227 v -0.541461 h -0.0357 q -0.14875,0.273706 -0.47601,0.440309 -0.3213,0.160653 -0.72591,0.160653 z m 0.27965,-0.702114 q 0.30346,0 0.51766,-0.119002 0.21421,-0.119002 0.32131,-0.315356 0.11305,-0.196354 0.11305,-0.434359 v -0.172554 q 0,-0.238004 -0.11305,-0.428408 -0.1071,-0.190404 -0.32726,-0.303456 -0.2142,-0.113053 -0.51171,-0.113053 -0.2737,0 -0.48196,0.113053 -0.2023,0.107102 -0.3213,0.315356 -0.11306,0.208254 -0.11306,0.51171 0,0.297506 0.11306,0.511711 0.11305,0.208254 0.31535,0.321306 0.20826,0.113052 0.48791,0.113052 z"
         style="font-weight:normal;font-family:'Mona Sans';-inkscape-font-specification:'Mona Sans, @wght=648,wdth=125.0';font-variation-settings:'wdth' 125, 'wght' 648;text-align:center;text-anchor:middle;stroke:none"
         id="path9457" />
      <path
         d="m 111.87151,83.707767 v -3.177364 h 0.92227 v 3.177364 z m 0,-3.605772 V 79.37013 h 0.92227 v 0.731865 z"
         style="font-weight:normal;font-family:'Mona Sans';-inkscape-font-specification:'Mona Sans, @wght=648,wdth=125.0';font-variation-settings:'wdth' 125, 'wght' 648;text-align:center;text-anchor:middle;stroke:none"
         id="path9459" />
      <path
         d="m 113.3563,83.707767 v -3.177364 h 0.89252 l 0.0298,0.577162 h 0.0476 q 0.16066,-0.303456 0.49386,-0.47006 0.33321,-0.166603 0.70807,-0.166603 0.3094,0 0.55931,0.07735 0.25585,0.07735 0.43436,0.249905 0.18445,0.172553 0.2856,0.464109 0.10116,0.285606 0.10116,0.702114 v 1.743385 h -0.92227 v -1.582732 q 0,-0.309406 -0.0773,-0.51766 -0.0714,-0.214204 -0.24396,-0.321307 -0.17255,-0.113052 -0.45221,-0.113052 -0.27965,0 -0.49386,0.124953 -0.20825,0.119002 -0.32726,0.333206 -0.11305,0.214205 -0.11305,0.49386 v 1.582732 z"
         style="font-weight:normal;font-family:'Mona Sans';-inkscape-font-specification:'Mona Sans, @wght=648,wdth=125.0';font-variation-settings:'wdth' 125, 'wght' 648;text-align:center;text-anchor:middle;stroke:none"
         id="path9461" />
      <path
         d="m 117.4651,83.707767 v -3.177364 h 0.92227 v 3.177364 z m 0,-3.605772 V 79.37013 h 0.92227 v 0.731865 z"
         style="font-weight:normal;font-family:'Mona Sans';-inkscape-font-specification:'Mona Sans, @wght=648,wdth=125.0';font-variation-settings:'wdth' 125, 'wght' 648;text-align:center;text-anchor:middle;stroke:none"
         id="path9463" />
      <path
         d="m 118.94989,83.707767 v -3.177364 h 0.89252 l 0.0297,0.577162 h 0.0476 q 0.16065,-0.303456 0.49386,-0.47006 0.33321,-0.166603 0.70806,-0.166603 0.30941,0 0.55931,0.07735 0.25586,0.07735 0.43436,0.249905 0.18446,0.172553 0.28561,0.464109 0.10115,0.285606 0.10115,0.702114 v 1.743385 h -0.92227 v -1.582732 q 0,-0.309406 -0.0774,-0.51766 -0.0714,-0.214204 -0.24395,-0.321307 -0.17256,-0.113052 -0.45221,-0.113052 -0.27966,0 -0.49386,0.124953 -0.20826,0.119002 -0.32726,0.333206 -0.11305,0.214205 -0.11305,0.49386 v 1.582732 z"
         style="font-weight:normal;font-family:'Mona Sans';-inkscape-font-specification:'Mona Sans, @wght=648,wdth=125.0';font-variation-settings:'wdth' 125, 'wght' 648;text-align:center;text-anchor:middle;stroke:none"
         id="path9465" />
      <path
         d="m 124.63499,84.760939 q -0.50576,0 -0.86276,-0.124953 -0.35701,-0.119002 -0.55336,-0.351057 -0.19636,-0.232055 -0.22611,-0.535511 h 0.87467 q 0.0298,0.124953 0.1309,0.214204 0.10115,0.0952 0.26776,0.136853 0.1666,0.0476 0.38081,0.0476 0.2737,0 0.476,-0.0714 0.20231,-0.06545 0.31536,-0.220155 0.11305,-0.148753 0.11305,-0.392708 v -0.52361 h -0.0417 q -0.1428,0.267755 -0.46411,0.416508 -0.31535,0.148753 -0.69021,0.148753 -0.33916,0 -0.61286,-0.107102 -0.26776,-0.107102 -0.46411,-0.309406 -0.19636,-0.202304 -0.29751,-0.47601 -0.10115,-0.279655 -0.10115,-0.624762 0,-0.45221 0.1904,-0.797316 0.19041,-0.345107 0.52361,-0.529561 0.33916,-0.190404 0.78542,-0.190404 0.39271,0 0.69021,0.154703 0.30346,0.148753 0.44626,0.404608 h 0.0476 l 0.0357,-0.49981 h 0.86872 v 2.820357 q 0,0.339157 -0.11305,0.600962 -0.11305,0.261805 -0.34511,0.440309 -0.2261,0.184454 -0.57121,0.273706 -0.33916,0.0952 -0.80327,0.0952 z m 0.0357,-1.927839 q 0.2737,0 0.47006,-0.0952 0.19635,-0.101152 0.30345,-0.267756 0.1071,-0.172553 0.1071,-0.392708 v -0.154703 q 0,-0.232054 -0.1071,-0.404608 -0.1071,-0.178503 -0.30345,-0.279656 -0.19041,-0.101152 -0.45816,-0.101152 -0.26776,0 -0.46411,0.107103 -0.19636,0.107102 -0.30346,0.297506 -0.1071,0.184453 -0.1071,0.446259 0,0.261805 0.1071,0.452209 0.1071,0.190404 0.30346,0.291556 0.19635,0.101152 0.45221,0.101152 z"
         style="font-weight:normal;font-family:'Mona Sans';-inkscape-font-specification:'Mona Sans, @wght=648,wdth=125.0';font-variation-settings:'wdth' 125, 'wght' 648;text-align:center;text-anchor:middle;stroke:none"
         id="path9467" />
      <path
         d="m 128.25909,83.707767 v -3.177364 h 0.88656 l 0.0357,0.559311 h 0.0476 q 0.1547,-0.297506 0.4522,-0.458159 0.29751,-0.160653 0.68427,-0.160653 0.41651,0 0.71401,0.184454 0.29751,0.184453 0.42841,0.535511 h 0.0536 q 0.18446,-0.374858 0.50576,-0.547412 0.32131,-0.172553 0.73782,-0.172553 0.41056,0 0.70211,0.160653 0.29751,0.160653 0.45221,0.48196 0.1547,0.321306 0.1547,0.827067 v 1.767185 h -0.92226 v -1.648183 q 0,-0.267755 -0.0655,-0.464109 -0.0595,-0.202304 -0.2142,-0.309407 -0.1547,-0.113052 -0.42841,-0.113052 -0.25585,0 -0.44626,0.113052 -0.18445,0.113053 -0.29155,0.309407 -0.10116,0.196354 -0.10116,0.464109 v 1.648183 h -0.91631 v -1.624382 q 0,-0.285606 -0.0714,-0.48791 -0.0654,-0.202304 -0.2261,-0.309407 -0.1547,-0.113052 -0.41056,-0.113052 -0.26775,0 -0.45816,0.113052 -0.18445,0.113053 -0.2856,0.315357 -0.0952,0.196354 -0.0952,0.458159 v 1.648183 z"
         style="font-weight:normal;font-family:'Mona Sans';-inkscape-font-specification:'Mona Sans, @wght=648,wdth=125.0';font-variation-settings:'wdth' 125, 'wght' 648;text-align:center;text-anchor:middle;stroke:none"
         id="path9469" />
      <path
         d="m 136.05648,83.767268 q -0.35106,0 -0.64262,-0.113052 -0.2856,-0.119002 -0.49386,-0.333207 -0.20825,-0.220154 -0.3213,-0.52361 -0.10711,-0.303456 -0.10711,-0.678314 0,-0.50576 0.19636,-0.874667 0.19635,-0.368908 0.54741,-0.565262 0.35701,-0.202304 0.82112,-0.202304 0.31535,0 0.55336,0.07735 0.238,0.0714 0.40461,0.202304 0.1666,0.124952 0.2618,0.297506 h 0.0357 l 0.0298,-0.523611 h 0.87467 v 3.177364 h -0.92227 v -0.541461 h -0.0357 q -0.14875,0.273706 -0.47601,0.440309 -0.32131,0.160653 -0.72591,0.160653 z m 0.27965,-0.702114 q 0.30346,0 0.51766,-0.119002 0.21421,-0.119002 0.32131,-0.315356 0.11305,-0.196354 0.11305,-0.434359 v -0.172554 q 0,-0.238004 -0.11305,-0.428408 -0.1071,-0.190404 -0.32726,-0.303456 -0.2142,-0.113053 -0.51171,-0.113053 -0.2737,0 -0.48196,0.113053 -0.2023,0.107102 -0.3213,0.315356 -0.11306,0.208254 -0.11306,0.51171 0,0.297506 0.11306,0.511711 0.11305,0.208254 0.31535,0.321306 0.20826,0.113052 0.48791,0.113052 z"
         style="font-weight:normal;font-family:'Mona Sans';-inkscape-font-specification:'Mona Sans, @wght=648,wdth=125.0';font-variation-settings:'wdth' 125, 'wght' 648;text-align:center;text-anchor:middle;stroke:none"
         id="path9471" />
      <path
         d="m 140.04413,83.707767 q -0.25586,0 -0.44626,-0.0833 -0.19041,-0.0833 -0.29751,-0.249905 -0.10115,-0.172554 -0.10115,-0.428409 v -1.719585 h -0.60691 v -0.696164 h 0.60691 v -0.827066 l 0.91037,-0.178504 v 1.00557 h 0.79731 v 0.696164 h -0.79731 v 1.428029 q 0,0.154703 0.0714,0.214204 0.0773,0.05355 0.23205,0.05355 h 0.49386 v 0.785416 z"
         style="font-weight:normal;font-family:'Mona Sans';-inkscape-font-specification:'Mona Sans, @wght=648,wdth=125.0';font-variation-settings:'wdth' 125, 'wght' 648;text-align:center;text-anchor:middle;stroke:none"
         id="path9473" />
      <path
         d="m 142.99454,83.761318 q -0.57122,0 -0.99963,-0.196354 -0.42245,-0.196354 -0.65451,-0.559311 -0.23205,-0.362957 -0.23205,-0.868717 0,-0.523611 0.23205,-0.892518 0.23801,-0.374858 0.65451,-0.571212 0.42246,-0.202304 0.98772,-0.202304 0.60097,0 1.01748,0.220154 0.42245,0.220155 0.63071,0.630713 0.20825,0.410558 0.1666,0.98772 h -2.7668 q 0.006,0.255855 0.12495,0.446259 0.12495,0.184454 0.34511,0.285606 0.22015,0.0952 0.51766,0.0952 0.3451,0 0.58906,-0.119003 0.24395,-0.124952 0.3094,-0.315356 h 0.87467 q -0.0476,0.315356 -0.29155,0.559311 -0.24396,0.238005 -0.63072,0.368908 -0.38676,0.130902 -0.87466,0.130902 z m -0.98772,-1.909988 -0.0357,-0.0476 h 1.96354 l -0.0476,0.0476 q -0.006,-0.232055 -0.11305,-0.398658 -0.1071,-0.166604 -0.30941,-0.255855 -0.19635,-0.08925 -0.48791,-0.08925 -0.27965,0 -0.48791,0.08925 -0.2023,0.0833 -0.32725,0.249905 -0.12495,0.166603 -0.1547,0.404608 z"
         style="font-weight:normal;font-family:'Mona Sans';-inkscape-font-specification:'Mona Sans, @wght=648,wdth=125.0';font-variation-settings:'wdth' 125, 'wght' 648;text-align:center;text-anchor:middle;stroke:none"
         id="path9475" />
      <path
         d="m 145.2231,83.707767 v -3.177364 h 0.83302 l 0.0357,0.517661 h 0.0357 q 0.10115,-0.261806 0.32725,-0.410559 0.23206,-0.154703 0.55336,-0.154703 0.0833,0 0.14876,0.0059 0.0714,0.006 0.119,0.0119 v 0.833016 q -0.0654,-0.01785 -0.1428,-0.0238 -0.0714,-0.006 -0.14876,-0.006 -0.2499,0 -0.43435,0.08925 -0.18446,0.0833 -0.29156,0.273705 -0.1071,0.184454 -0.11305,0.47601 v 1.564881 z"
         style="font-weight:normal;font-family:'Mona Sans';-inkscape-font-specification:'Mona Sans, @wght=648,wdth=125.0';font-variation-settings:'wdth' 125, 'wght' 648;text-align:center;text-anchor:middle;stroke:none"
         id="path9477" />
      <path
         d="m 147.6242,83.707767 v -3.177364 h 0.92227 v 3.177364 z m 0,-3.605772 V 79.37013 h 0.92227 v 0.731865 z"
         style="font-weight:normal;font-family:'Mona Sans';-inkscape-font-specification:'Mona Sans, @wght=648,wdth=125.0';font-variation-settings:'wdth' 125, 'wght' 648;text-align:center;text-anchor:middle;stroke:none"
         id="path9479" />
      <path
         d="m 150.54297,83.767268 q -0.35106,0 -0.64261,-0.113052 -0.28561,-0.119002 -0.49386,-0.333207 -0.20826,-0.220154 -0.32131,-0.52361 -0.1071,-0.303456 -0.1071,-0.678314 0,-0.50576 0.19635,-0.874667 0.19636,-0.368908 0.54742,-0.565262 0.357,-0.202304 0.82111,-0.202304 0.31536,0 0.55336,0.07735 0.23801,0.0714 0.40461,0.202304 0.1666,0.124952 0.26181,0.297506 h 0.0357 l 0.0298,-0.523611 h 0.87467 v 3.177364 h -0.92227 v -0.541461 h -0.0357 q -0.14876,0.273706 -0.47601,0.440309 -0.32131,0.160653 -0.72592,0.160653 z m 0.27966,-0.702114 q 0.30345,0 0.51766,-0.119002 0.2142,-0.119002 0.3213,-0.315356 0.11306,-0.196354 0.11306,-0.434359 v -0.172554 q 0,-0.238004 -0.11306,-0.428408 -0.1071,-0.190404 -0.32725,-0.303456 -0.21421,-0.113053 -0.51171,-0.113053 -0.27371,0 -0.48196,0.113053 -0.20231,0.107102 -0.32131,0.315356 -0.11305,0.208254 -0.11305,0.51171 0,0.297506 0.11305,0.511711 0.11305,0.208254 0.31536,0.321306 0.20825,0.113052 0.48791,0.113052 z"
         style="font-weight:normal;font-family:'Mona Sans';-inkscape-font-specification:'Mona Sans, @wght=648,wdth=125.0';font-variation-settings:'wdth' 125, 'wght' 648;text-align:center;text-anchor:middle;stroke:none"
         id="path9481" />
      <path
         d="M 153.25944,83.707767 V 79.37013 h 0.92227 v 4.337637 z"
         style="font-weight:normal;font-family:'Mona Sans';-inkscape-font-specification:'Mona Sans, @wght=648,wdth=125.0';font-variation-settings:'wdth' 125, 'wght' 648;text-align:center;text-anchor:middle;stroke:none"
         id="path9483" />
    </g>
    <g
       id="g18315"
       transform="translate(-40.216328,33.107059)">
      <path
         id="path9385"
         style="color:#000000;fill:url(#linearGradient1967);fill-opacity:1;stroke-width:0.149456;stroke-linecap:round;-inkscape-stroke:none;paint-order:stroke fill markers"
         d="m 95.193525,24.77519 c -0.31393,9.9e-5 -0.60818,0.199137 -0.73395,0.48526 -0.7239,1.462507 -1.447986,2.924933 -2.171803,4.387423 -1.638942,0.237411 -3.279229,0.468084 -4.91732,0.71001 -0.373403,0.05971 -0.668222,0.415657 -0.654401,0.79404 -0.0031,0.262805 0.149441,0.496091 0.343386,0.66197 1.142432,1.117278 2.284845,2.234607 3.427323,3.351794 -0.280768,1.633589 -0.568623,3.266303 -0.84479,4.900486 -0.0592,0.37826 0.197035,0.770303 0.566203,0.870346 0.230599,0.07439 0.472257,0.02113 0.681603,-0.105189 1.428767,-0.748852 2.857274,-1.498011 4.286169,-2.246577 1.475041,0.775753 2.94612,1.559535 4.42323,2.331147 0.384511,0.180784 0.887795,-0.01658 1.047205,-0.409804 0.1399,-0.292827 0.0168,-0.612628 -0.0218,-0.913288 -0.24996,-1.471189 -0.49979,-2.942383 -0.749854,-4.413527 1.186574,-1.156703 2.378794,-2.308077 3.562104,-3.467797 0.26565,-0.267961 0.29415,-0.728046 0.0612,-1.025435 -0.15436,-0.21816 -0.4206,-0.314791 -0.67857,-0.335117 -1.57661,-0.231374 -3.153154,-0.463032 -4.729734,-0.694254 -0.73207,-1.485269 -1.45768,-2.974196 -2.19406,-4.457089 -0.13434,-0.258832 -0.41161,-0.421308 -0.70189,-0.424399 z m -0.002,2.59583 c 0.0228,0.0465 0.0457,0.09313 0.0685,0.139637 0.53352,1.081209 1.06053,2.16612 1.598201,3.244981 0.131479,0.256525 0.406149,0.409744 0.68862,0.431042 1.20153,0.176404 2.403049,0.352799 3.604524,0.529128 -0.90018,0.878742 -1.806585,1.751706 -2.703665,2.633365 -0.20379,0.204487 -0.262,0.514273 -0.19555,0.789404 0.20361,1.196864 0.4069,2.393741 0.61067,3.590602 -1.1144,-0.585479 -2.22513,-1.178517 -3.341279,-1.760159 -0.26109,-0.132284 -0.576791,-0.08547 -0.81952,0.0655 -1.071212,0.561315 -2.142262,1.122935 -3.213531,1.684083 0.212569,-1.240338 0.432682,-2.479693 0.64055,-3.720661 0.04355,-0.28467 -0.08998,-0.569194 -0.305384,-0.75241 -0.867968,-0.848825 -1.736045,-1.697504 -2.604001,-2.546401 1.244076,-0.180888 2.489481,-0.354889 3.732637,-0.540483 0.284293,-0.04539 0.514494,-0.259685 0.621962,-0.521172 0.539101,-1.088807 1.077936,-2.177749 1.617256,-3.266451 z m -13.760042,4.195881 -0.0015,0.0028 c -0.883137,0 -1.624448,0.08891 -2.257787,0.308008 -0.633306,0.219187 -1.188939,0.604938 -1.486278,1.178281 l -0.0073,0.01405 -0.0067,0.01413 c -0.203212,0.435558 -0.346218,0.850832 -0.414086,1.258216 v 0.02818 l -0.0073,0.02812 c -0.03073,0.335291 -0.04326,0.787478 -0.04326,1.392833 v 18.427218 c 0,2.829653 0.346698,4.952033 1.19394,6.438063 0.769446,1.37153 2.354594,2.10366 4.472614,2.37864 h 0.0067 c 1.29336,0.1585 2.363298,0.22839 3.236419,0.18622 0.873063,-0.0422 1.562597,-0.1573 2.129558,-0.54983 v -0.008 c 0.493018,-0.34507 0.743534,-0.87757 0.899689,-1.47895 0.156203,-0.60135 0.221831,-1.30917 0.221831,-2.16525 0,-0.7953 -0.06139,-1.45929 -0.221831,-2.02871 -0.159455,-0.56612 -0.429926,-1.0749 -0.914348,-1.39376 -0.300503,-0.20915 -0.593426,-0.36814 -0.957632,-0.42887 -0.362356,-0.0927 -0.699252,-0.0999 -1.236122,-0.0999 -0.172034,0 -0.258216,-0.014 -0.300681,-0.0213 -0.01924,-0.13369 -0.1282,-0.610852 -0.1282,-1.293977 v -17.92678 c 0,-0.590499 -0.01885,-1.038165 -0.07778,-1.421178 0,-0.006 -0.0064,-0.01023 -0.0067,-0.01405 -0.04095,-0.455361 -0.196541,-0.901524 -0.43612,-1.35074 l -0.0067,-0.008 c -0.307165,-0.553087 -0.844291,-0.93816 -1.464075,-1.158372 -0.61977,-0.220187 -1.338917,-0.306986 -2.186112,-0.307003 z m -16.672045,0.774887 c -4.114182,0 -7.757692,1.476521 -10.781372,4.365255 -3.038292,2.875594 -4.587081,6.557949 -4.587081,10.852898 0,4.291527 1.513953,8.043389 4.486212,11.096719 2.967842,3.02179 6.561333,4.57966 10.610993,4.57966 4.476703,0 7.982551,-1.17432 10.338892,-3.61478 0.826569,-0.85608 1.313825,-1.86624 1.313825,-2.92947 V 48.1748 c 0,-1.016628 -0.12075,-1.836587 -0.470809,-2.515275 -0.252019,-0.538 -0.722887,-0.935804 -1.279549,-1.172025 -0.559946,-0.237536 -1.210986,-0.350273 -1.97188,-0.378446 h -0.02224 -6.822823 c -0.855658,0 -1.595789,0.123039 -2.222097,0.43622 -0.528065,0.264045 -0.896407,0.773788 -1.072085,1.335989 l -0.0073,0.02139 -0.0067,0.02216 c -0.129333,0.517425 -0.178709,1.127573 -0.178709,1.864657 0,0.712793 0.05036,1.309134 0.178709,1.822717 v 0.008 0.0081 c 0.150514,0.564421 0.524631,1.065871 1.02165,1.37175 0.581394,0.357786 1.25948,0.428883 2.129572,0.428883 h 2.243098 v 2.750833 C 66.746293,54.48858 65.78421,54.7231 64.64508,54.7231 c -1.74423,0 -3.261988,-0.657358 -4.686861,-2.079063 l -0.0073,-0.0081 c -1.409457,-1.437238 -2.086288,-3.089749 -2.086288,-5.116894 0,-2.061594 0.65686,-3.595126 2.01503,-4.815142 h 0.0073 c 1.394455,-1.276319 2.910706,-1.879409 4.679607,-1.879409 1.36608,0 2.474898,0.315969 3.415127,0.942795 l 0.0072,0.0081 h 0.0067 c 1.130982,0.727051 1.925371,1.17828 2.801193,1.17828 1.275123,0 2.338193,-0.932516 3.407785,-2.386061 v -0.0081 c 0.649889,-0.90415 1.043756,-1.764124 1.043756,-2.64356 0,-0.938126 -0.544543,-1.7807 -1.371768,-2.393397 -2.827284,-2.100216 -5.892398,-3.179637 -9.117369,-3.179637 z m 16.670532,0.859227 c 0.727206,0 1.283092,0.08601 1.644075,0.214401 0.360969,0.128094 0.505555,0.264025 0.585425,0.407872 0.166424,0.314628 0.23713,0.564186 0.250235,0.721055 l 0.0073,0.02818 v 0.03584 c 0.03755,0.226614 0.07144,0.652398 0.07144,1.222456 v 17.926895 c 0,0.974406 -0.03366,1.572576 0.342699,2.200006 l 0.01448,0.0141 0.0067,0.0141 c 0.386299,0.57954 1.047831,0.71473 1.686095,0.71473 0.516048,0 0.882553,0.0504 0.857749,0.0433 l 0.05671,0.0141 0.05049,0.008 c -0.02775,-0.005 0.107185,0.0312 0.306922,0.17131 l 0.01358,0.008 0.01448,0.008 c 0.02606,0.0162 0.137795,0.13133 0.235487,0.47823 0.09772,0.34682 0.164976,0.89179 0.164976,1.59357 0,0.76999 -0.06308,1.36509 -0.164976,1.75745 -0.100329,0.38626 -0.23025,0.53074 -0.256487,0.55076 0,5.5e-4 -0.0064,-5.6e-4 -0.0073,0 -0.107185,0.0726 -0.5485,0.22874 -1.271737,0.26383 -0.727176,0.0354 -1.722914,-0.02 -2.958977,-0.17123 v 0.008 c -1.856917,-0.2418 -2.846881,-0.82742 -3.264762,-1.5724 -0.596172,-1.04326 -0.978618,-2.94641 -0.978618,-5.637216 V 35.79761 c 0,-0.561942 0.01583,-0.962866 0.03583,-1.200367 0.03544,-0.20322 0.118856,-0.476771 0.263907,-0.793576 l 0.0067,-0.0081 c 0.0651,-0.122038 0.189244,-0.252078 0.557078,-0.379451 0.373328,-0.12916 0.960364,-0.214399 1.729125,-0.214399 z m -16.670532,0.766931 v 8.46e-4 c 2.866406,0 5.552178,0.931801 8.14514,2.858035 0.566603,0.419678 0.722071,0.733478 0.722071,1.085757 0,0.359619 -0.205709,0.945759 -0.743072,1.693427 -0.938885,1.271409 -1.711123,1.71436 -2.08654,1.71436 -0.104198,0 -0.882243,-0.251645 -1.907758,-0.907111 l -0.01448,-0.0081 c -1.225254,-0.812805 -2.6851,-1.214039 -4.307325,-1.214039 -2.15114,0 -4.124228,0.793054 -5.773932,2.299871 -1.687391,1.51582 -2.551094,3.594481 -2.551094,6.023928 0,2.408959 0.875839,4.555025 2.558513,6.265749 1.670093,1.670121 3.668524,2.564781 5.844202,2.564781 1.508325,0 2.891646,-0.24729 4.137274,-0.75682 l 0.507586,-0.20714 v -5.580357 h -3.87344 c -0.730132,0 -1.188507,-0.138286 -1.278212,-0.193392 -0.168543,-0.103765 -0.238113,-0.195724 -0.293189,-0.392118 v -0.008 c -0.07744,-0.312579 -0.128198,-0.795996 -0.128198,-1.422182 0,-0.647189 0.05283,-1.133642 0.128198,-1.443191 0.07653,-0.22606 0.14205,-0.29966 0.228067,-0.342687 0.302893,-0.151489 0.808031,-0.264835 1.500967,-0.264835 h 6.780909 c 0.63283,0.02305 1.108295,0.118961 1.400082,0.242746 0.291847,0.123871 0.390581,0.243719 0.449809,0.372113 l 0.0073,0.01413 0.0073,0.02216 c 0.156737,0.297771 0.293324,0.904103 0.293324,1.785803 v 8.51727 c 0,0.58862 -0.231621,1.15964 -0.85042,1.80055 -1.979895,2.05058 -4.978394,3.11554 -9.174147,3.11554 -3.641972,0 -6.734893,-1.32805 -9.445382,-4.08784 -2.706161,-2.77997 -4.030062,-6.043089 -4.030062,-9.959376 0,-3.912874 1.343513,-7.07816 4.086839,-9.674462 2.757806,-2.63475 5.927341,-3.915394 9.659555,-3.915445 z m 57.054232,0.268698 c -0.87824,9.4e-5 -1.60923,0.08512 -2.23537,0.285842 -0.62649,0.200789 -1.18279,0.54731 -1.49255,1.100504 v 0.0082 l -0.008,0.0081 c -0.21079,0.391419 -0.35751,0.771897 -0.42887,1.164687 l -0.008,0.03677 v 0.03584 c -0.0307,0.335251 -0.0422,0.788451 -0.0422,1.393762 v 3.044094 l -2.35879,-0.02818 h -0.007 c -0.82906,0 -1.72679,0.02048 -2.6298,0.03582 v -2.858114 c 0,-0.942095 -0.0488,-1.641489 -0.2281,-2.215684 l -0.008,-0.01413 -0.008,-0.01408 c -0.24126,-0.686802 -0.785,-1.232778 -1.4642,-1.543056 -0.67921,-0.310231 -1.48516,-0.436217 -2.43648,-0.436217 -0.87898,0 -1.6141,0.0836 -2.23686,0.285922 -0.61753,0.200574 -1.15487,0.558475 -1.4505,1.115253 -0.2312,0.383311 -0.41257,0.762689 -0.48565,1.164609 v 0.03592 l -0.008,0.03584 c -0.0307,0.335286 -0.0434,0.787441 -0.0434,1.392755 v 3.06603 c -2.34049,-0.09173 -3.02581,1.100587 -3.33311,2.110723 -0.17046,0.617305 -0.22074,1.406015 -0.22074,2.494266 0,1.150824 0.16296,2.070507 0.72841,2.757093 l 0.008,0.01422 0.007,0.0081 c 0.51184,0.58 1.24716,0.935534 2.00871,0.935534 0.28012,0 0.53682,-0.03891 0.80733,-0.05684 v 4.858314 c 0,2.781599 0.78936,5.036309 2.42915,6.558999 1.62226,1.50648 3.87257,2.22936 6.59468,2.22936 0.58,0 1.01731,-0.0119 1.35067,-0.0433 h 0.0282 l 0.0281,-0.008 c 0.40735,-0.0679 0.82154,-0.21077 1.25716,-0.41412 l 0.0144,-0.008 h 0.007 c 0.57962,-0.28978 0.98567,-0.8334 1.21505,-1.46419 0.22943,-0.63084 0.32167,-1.3709 0.32167,-2.24419 0,-0.75466 -0.0792,-1.39792 -0.27124,-1.95718 -0.19199,-0.5593 -0.52945,-1.05683 -1.03633,-1.34333 -0.42951,-0.24458 -0.88066,-0.40029 -1.34332,-0.44255 -0.39194,-0.0628 -0.86343,-0.0935 -1.49364,-0.0935 -0.43549,0 -0.53394,-0.0828 -0.57083,-0.12814 -0.0527,-0.0889 -0.16497,-0.42947 -0.16497,-1.029056 v -4.494639 l 2.694,0.11454 h 0.0138 c 0.62111,0 1.4622,-0.05981 2.28726,-0.11454 v 4.880405 c 0,2.78151 0.78935,5.03632 2.42917,6.55892 1.62232,1.50648 3.86522,2.22944 6.58736,2.22944 0.58,0 1.01727,-0.0119 1.35073,-0.0432 h 0.0358 l 0.0281,-0.008 c 0.40729,-0.068 0.82141,-0.21087 1.25705,-0.41413 l 0.008,-0.008 h 0.008 c 0.57967,-0.28983 0.98466,-0.83341 1.21404,-1.4642 0.22936,-0.6308 0.3216,-1.36977 0.3216,-2.2431 0,-0.75714 -0.0767,-1.41 -0.2785,-1.97302 -0.20058,-0.55968 -0.55888,-1.04758 -1.07115,-1.32857 -0.40529,-0.24352 -0.84777,-0.40086 -1.30124,-0.44248 -0.39092,-0.0623 -0.86534,-0.0936 -1.49263,-0.0936 -0.4405,0 -0.53622,-0.0842 -0.57177,-0.12937 -0.0527,-0.0889 -0.16396,-0.42943 -0.16396,-1.029063 v -4.479871 l 1.6786,0.09986 h 0.0281 c 0.60524,0 1.05079,-0.0059 1.38642,-0.03583 l 0.0281,-0.0081 h 0.0359 c 0.40737,-0.06786 0.81516,-0.210863 1.2508,-0.41413 l 0.0136,-0.008 0.0221,-0.0081 c 0.5698,-0.295464 0.9509,-0.845141 1.17094,-1.472694 0.22005,-0.627637 0.30793,-1.364489 0.30793,-2.235689 0,-0.883146 -0.0872,-1.620752 -0.30793,-2.250439 -0.21846,-0.62294 -0.60496,-1.16693 -1.17837,-1.450527 -0.42233,-0.236735 -0.85315,-0.397623 -1.30022,-0.436294 h -0.008 c -0.36937,-0.06062 -0.8022,-0.0862 -1.3864,-0.0862 -0.40916,0 -1.10578,0.0608 -1.74271,0.107203 v -2.92948 c 0,-0.9377 -0.0559,-1.637457 -0.27233,-2.228426 0,-0.0052 -0.005,-0.0053 -0.007,-0.0082 -0.2263,-0.687435 -0.75705,-1.239431 -1.42952,-1.550387 -0.67527,-0.312334 -1.48429,-0.43609 -2.43497,-0.43622 z m -7e-5,1.635193 h 7e-5 c 0.80384,0 1.39336,0.120826 1.75012,0.285844 0.35682,0.164976 0.4939,0.32257 0.57918,0.585508 v 0.01405 l 0.007,0.02007 c 0.0865,0.230372 0.18605,0.82916 0.18605,1.686013 v 4.688017 l 0.88611,-0.08627 c 1.12345,-0.102101 1.96104,-0.150297 2.47958,-0.150297 0.56988,0 0.98558,0.03034 1.17203,0.06411 l 0.0358,0.0081 0.0421,0.0081 c 0.15758,0.01196 0.38491,0.07867 0.6718,0.242747 l 0.0221,0.01422 0.0281,0.01396 c 0.1133,0.05456 0.23716,0.164772 0.36481,0.528746 0.12752,0.36397 0.22064,0.945602 0.22064,1.714356 0,0.754921 -0.0923,1.327288 -0.22064,1.69335 -0.12656,0.360775 -0.25404,0.491324 -0.37955,0.558173 0,0 -0.005,0.0061 -0.007,0.0082 -0.31683,0.144999 -0.59047,0.229575 -0.79358,0.264836 -0.22731,0.01834 -0.61585,0.03463 -1.14259,0.03592 l -3.38045,-0.207063 v 6.208905 c 0,0.777298 0.0807,1.413158 0.44363,1.957258 l 0.0136,0.0222 0.0144,0.014 c 0.43189,0.57591 1.15057,0.79366 1.88575,0.79366 0.59666,0 1.04189,0.0264 1.26547,0.064 l 0.0281,0.008 h 0.0358 c 0.19141,0.0141 0.39814,0.0846 0.64328,0.23548 l 0.0215,0.008 0.0221,0.0141 c 0.10226,0.0556 0.2062,0.15561 0.31434,0.45723 0.10796,0.30169 0.18499,0.78558 0.18499,1.42218 0,0.75279 -0.0888,1.32307 -0.22084,1.68593 -0.13203,0.36296 -0.27202,0.49301 -0.41513,0.56451 -0.32118,0.1479 -0.59455,0.22918 -0.79991,0.26491 -0.23883,0.0201 -0.62465,0.0358 -1.15726,0.0358 -2.44008,0 -4.21949,-0.61533 -5.48793,-1.79322 -1.25101,-1.16166 -1.90775,-2.88219 -1.90775,-5.365975 V 47.84272 l -0.87885,0.07137 c -1.20961,0.100868 -2.20558,0.156439 -2.9935,0.157633 l -4.37267,-0.193624 v 6.195385 c 0,0.777256 0.087,1.413076 0.44989,1.957186 l 0.008,0.0222 0.0145,0.014 c 0.43195,0.5759 1.1579,0.79358 1.89307,0.79358 0.59669,0 1.0335,0.0269 1.25714,0.0641 l 0.0358,0.008 h 0.0358 c 0.19299,0.0141 0.42776,0.0906 0.70739,0.25024 0.0869,0.0489 0.19582,0.15194 0.30066,0.45723 0.10477,0.30532 0.17865,0.78931 0.17865,1.42844 0,0.75278 -0.0897,1.32415 -0.22173,1.68702 -0.13203,0.3629 -0.27108,0.493 -0.41413,0.56449 -0.31868,0.14667 -0.58893,0.22764 -0.79366,0.26384 -0.23773,0.0205 -0.6255,0.0367 -1.16461,0.0367 -2.44005,0 -4.21845,-0.6154 -5.48684,-1.79321 -1.25106,-1.16161 -1.90785,-2.88214 -1.90785,-5.365885 v -6.67362 l -0.93652,0.135624 c -0.47292,0.07098 -0.96908,0.107203 -1.49995,0.107203 -0.31655,0 -0.51599,-0.08658 -0.77151,-0.371032 -0.15657,-0.195455 -0.35744,-0.757388 -0.35744,-1.715366 0,-1.025119 0.0776,-1.753373 0.16397,-2.064461 l 0.008,-0.0081 v -0.0081 c 0.10338,-0.392312 0.23385,-0.579966 0.28591,-0.629609 0.25334,-0.200362 0.54924,-0.312897 1.0069,-0.314264 l 2.10123,0.264837 v -4.908715 c 0,-0.555202 0.0161,-0.947758 0.0357,-1.186622 0.029,-0.151359 0.10635,-0.36705 0.27123,-0.634936 l 0.0144,-0.02216 0.0138,-0.02818 c 0.0418,-0.08012 0.15045,-0.208567 0.52132,-0.328938 0.37094,-0.120455 0.96347,-0.199802 1.73645,-0.199802 l -0.004,-0.0032 c 0.80375,0 1.39866,0.118596 1.76479,0.285919 0.36176,0.165152 0.49854,0.330124 0.59287,0.592847 0.0782,0.2556 0.15769,0.856821 0.15769,1.71436 v 4.50961 l 0.82826,-0.01413 c 1.20528,-0.02603 2.3468,-0.04333 3.42246,-0.04333 l 3.99424,0.05051 v -4.69435 c 0,-0.555242 0.0163,-0.947835 0.0358,-1.186694 0.0329,-0.171509 0.10642,-0.395335 0.25015,-0.664288 l 0.008,-0.0081 c 0.0533,-0.09199 0.18266,-0.222666 0.55708,-0.342609 0.38015,-0.121862 0.97077,-0.199797 1.74371,-0.199801 z m 22.61745,5.151727 c -0.79413,0 -1.61242,0.277207 -2.48693,0.756813 -0.65997,0.361926 -1.03894,0.64282 -1.40742,0.943876 -0.0464,-0.08093 -0.0329,-0.179771 -0.0863,-0.257499 -0.66074,-0.998866 -1.926,-1.250801 -3.57176,-1.250801 -0.88314,0 -1.62454,0.08133 -2.25785,0.300593 -0.63331,0.219229 -1.18894,0.604982 -1.48622,1.178279 v 0.0082 0.0081 c -0.20838,0.416773 -0.3604,0.825154 -0.42888,1.236124 v 0.02818 l -0.008,0.02812 c -0.0307,0.335335 -0.0434,0.788484 -0.0434,1.393839 V 58.98629 60.1373 l 0.008,0.0282 c 0.0612,0.8881 0.36145,1.68841 0.97129,2.22201 l 0.0142,0.008 0.008,0.0141 c 0.7776,0.6296 1.85098,0.83676 3.18589,0.83676 0.86903,0 1.6014,-0.084 2.22942,-0.29326 0.628,-0.20933 1.17699,-0.57249 1.49371,-1.12159 l 0.008,-0.0141 0.008,-0.008 c 0.23613,-0.44269 0.39325,-0.86096 0.43619,-1.30023 0.061,-0.38587 0.0862,-0.84356 0.0862,-1.44319 v -8.130482 c 0,-0.4601 0.15058,-0.779423 0.58551,-1.143521 0.50058,-0.394582 0.96143,-0.564503 1.46528,-0.564503 0.61654,0 1.05108,0.103559 1.30023,0.228071 h 0.008 l 0.014,0.0081 c 0.53893,0.253635 1.11568,0.385705 1.70077,0.385705 1.21549,0 2.27562,-0.756768 2.85796,-1.921423 0.5312,-1.06251 0.822,-2.085442 0.822,-3.072361 0,-0.922288 -0.18776,-1.715355 -0.71474,-2.300949 -0.40555,-0.496553 -0.93891,-0.87679 -1.55772,-1.072161 -0.51089,-0.161307 -0.99145,-0.267236 -1.4506,-0.327933 -0.48543,-0.09096 -1.04732,-0.129366 -1.70071,-0.129366 z m -45.097214,0.567434 c -0.41118,0.0051 -0.78916,0.403472 -0.83713,0.820612 -0.0261,0.552513 -0.0729,1.134301 -0.40153,1.603915 -0.71556,1.061184 -1.84828,1.724766 -2.90623,2.396026 -1.104384,-0.707881 -2.321892,-1.400136 -3.00364,-2.565556 -0.279279,-0.457195 -0.253886,-1.002311 -0.320274,-1.511156 -0.09754,-0.401535 -0.448139,-0.790444 -0.893674,-0.737813 -0.621024,0.09084 -0.857067,0.817838 -0.769555,1.365571 0.08101,1.648649 1.067616,3.126808 2.359166,4.100959 0.226065,0.183204 0.465093,0.349843 0.697204,0.525192 -1.156895,0.776772 -2.274596,1.751634 -2.764584,3.096072 -0.613609,1.555257 -0.255704,3.398004 0.810559,4.66932 0.530375,0.66845 1.239824,1.19669 1.954025,1.69614 -0.970649,0.68628 -1.908058,1.48736 -2.45565,2.5345 -0.433281,0.82877 -0.702083,1.79341 -0.565653,2.72944 0.0987,0.51811 0.719842,0.9523 1.204681,0.6127 0.441897,-0.27681 0.474573,-0.83044 0.484796,-1.29784 0.115197,-1.07245 0.997303,-1.83064 1.805182,-2.43997 0.467275,-0.34809 0.965187,-0.65076 1.457417,-0.96164 1.10598,0.70678 2.32249,1.40124 3.00517,2.56648 0.27849,0.45759 0.25345,1.0022 0.31957,1.51108 0.0931,0.52161 0.7161,0.96122 1.20384,0.62444 0.574964,-0.38284 0.497284,-1.15586 0.403344,-1.74935 -0.171844,-1.08043 -0.713284,-2.06734 -1.452154,-2.83656 -0.46467,-0.48921 -1.00396,-0.89768 -1.54807,-1.29328 0.6578,-0.45984 1.31993,-0.95327 1.81228,-1.52699 1.112114,-1.225396 1.563664,-3.040391 1.0276,-4.622369 -0.43775,-1.410988 -1.56734,-2.457667 -2.76165,-3.256256 -0.14885,-0.145299 0.34025,-0.296097 0.44455,-0.4434 1.2609,-0.922077 2.29543,-2.272781 2.494254,-3.857364 0.0903,-0.572228 0.11535,-1.321194 -0.457134,-1.656359 -0.11383,-0.06848 -0.23157,-0.09795 -0.34671,-0.09654 z m 45.097204,1.054477 c 0.5856,0 1.05958,0.04335 1.40009,0.107199 h 0.0213 l 0.0221,0.0081 c 0.35296,0.0443 0.76251,0.135671 1.2151,0.27858 0.35166,0.111066 0.59528,0.277389 0.80726,0.542335 l 0.0215,0.02216 0.0221,0.02147 c 0.12532,0.134836 0.28591,0.513007 0.28591,1.228789 0,0.664858 -0.20114,1.444702 -0.6507,2.343814 -0.39841,0.796967 -0.75714,1.021802 -1.40003,1.021802 -0.33889,0 -0.66011,-0.06734 -0.99337,-0.221813 -0.5767,-0.288336 -1.25238,-0.393121 -2.02962,-0.393121 -0.88781,0 -1.74274,0.325666 -2.47868,0.90827 l -0.008,0.0079 -0.008,0.0081 c -0.73949,0.610862 -1.18561,1.480268 -1.18561,2.408153 v 8.131407 c 0,0.56993 -0.0265,0.99432 -0.0641,1.22153 l -0.008,0.0285 v 0.0282 c -0.0101,0.11777 -0.0844,0.36545 -0.24281,0.67163 h -0.008 c -0.0712,0.12122 -0.21735,0.26792 -0.59284,0.39311 -0.37867,0.1261 -0.95838,0.20715 -1.71545,0.20715 -1.13565,0 -1.83366,-0.23211 -2.14323,-0.47831 -0.21,-0.19021 -0.37295,-0.48947 -0.41413,-1.08676 V 58.98988 45.399965 c 0,-0.561902 0.0161,-0.962829 0.0358,-1.200367 0.0358,-0.204716 0.11614,-0.453735 0.26376,-0.75048 0.0641,-0.123526 0.19131,-0.256533 0.5645,-0.385785 0.37333,-0.129121 0.96035,-0.221893 1.72912,-0.221893 1.44466,0 2.10601,0.343573 2.22202,0.521484 l 0.008,0.0081 0.008,0.01396 c 0.2077,0.302123 0.17561,0.57221 0.27859,0.814662 v 2.536284 l 1.47896,-2.065467 c 0.096,-0.134414 0.25506,-0.330522 0.45723,-0.557008 l 0.008,-0.0081 c 0.12671,-0.126732 0.62382,-0.478091 1.39274,-0.899773 0.72571,-0.397995 1.30752,-0.557087 1.7007,-0.557087 z m -52.001978,0.01892 c 0.03881,0.37744 0.07002,0.680497 0.196562,0.896761 h 5.131482 c 0.12016,-0.245277 0.17251,-0.55164 0.19996,-0.896761 z m 0.765834,1.635348 c 0.318811,0.326789 0.695353,0.618373 1.099588,0.896762 h 1.790741 c 0.40263,-0.278008 0.77996,-0.569111 1.10111,-0.896762 z m 1.994039,4.481183 c 0.0397,0.02477 0.079,0.04943 0.118471,0.07415 1.066689,0.67433 2.24598,1.32262 2.918739,2.433017 0.455831,0.836065 0.27833,1.945717 -0.399209,2.612667 -0.73631,0.82497 -1.71117,1.37674 -2.638001,1.95734 -1.093372,-0.69512 -2.309231,-1.34444 -3.017599,-2.472643 -0.478886,-0.83952 -0.306897,-1.972481 0.381074,-2.648351 0.736695,-0.82373 1.710195,-1.375875 2.636525,-1.95618 z m -0.955242,1.230258 c -0.410136,0.276353 -0.792953,0.56661 -1.121583,0.896762 h 4.150865 c -0.32274,-0.328544 -0.70778,-0.618795 -1.12161,-0.896763 z m -1.740466,1.859714 c -0.07729,0.294299 -0.08287,0.608748 -0.0084,0.896763 h 5.402259 c 0.0775,-0.294423 0.0825,-0.608787 0.007,-0.896763 z m 0.62345,1.859635 c 0.323928,0.328835 0.709255,0.618852 1.122894,0.896687 h 1.907455 c 0.41023,-0.276286 0.79308,-0.566435 1.12135,-0.896687 z m 1.014681,5.815247 c -0.029,0.0209 -0.0581,0.0418 -0.08656,0.063 -0.346505,0.26145 -0.680444,0.53726 -0.953383,0.83374 h 4.19156 c -0.30065,-0.32833 -0.6604,-0.62017 -1.04997,-0.89676 z m -1.590313,1.75012 c -0.04558,0.12508 -0.07847,0.2534 -0.093,0.38601 -0.0033,0.15369 -0.0093,0.3264 -0.03602,0.51075 h 5.562381 c -0.04,-0.35793 -0.0594,-0.65994 -0.12889,-0.89676 z" />
      <g
         id="g14071">
        <g
           id="g4023"
           transform="matrix(1.1266776,0,0,1.1266776,-26.847022,-4.3370147)">
          <path
             d="m 162.04455,34.236639 -0.39641,2.466286 c 0.19003,0.124316 0.31583,0.338741 0.31583,0.58283 v 0 c 0,0.01337 -10e-4,0.02644 -0.002,0.03959 v 0 l 2.13346,1.196779 c 0.11856,-0.09339 0.26772,-0.14952 0.43028,-0.14952 v 0 c 0.38463,0 0.69643,0.311797 0.69643,0.696378 v 0 c 0,0.384581 -0.3118,0.696406 -0.69643,0.696406 v 0 c -0.38461,0 -0.69638,-0.311825 -0.69638,-0.696406 v 0 c 0,-0.01542 0.001,-0.03053 0.002,-0.0457 v 0 l -2.12884,-1.19434 c -0.11927,0.09569 -0.27038,0.153193 -0.43521,0.153193 v 0 c -0.18903,0 -0.36016,-0.07553 -0.48568,-0.1978 v 0 l -1.86627,0.744686 v 1.365701 c 0,0.822039 0.67257,1.494614 1.49461,1.494614 v 0 h 4.16347 c 0.82206,0 1.49461,-0.672575 1.49461,-1.494614 v 0 -4.163522 c 0,-0.822012 -0.67255,-1.494559 -1.49461,-1.494559 v 0 z"
             style="fill:url(#radialGradient1969);stroke:none;stroke-width:0.0280368"
             id="path9491" />
          <path
             d="m 160.41023,34.236639 c -0.82204,0 -1.49461,0.672575 -1.49461,1.494587 v 0 2.188104 l 1.65697,-0.661192 c 0.0122,-0.310395 0.2271,-0.567997 0.5163,-0.644706 v 0 l 0.38203,-2.376793 z"
             style="fill:url(#radialGradient9497);stroke:none;stroke-width:0.0280368"
             id="path9489" />
          <path
             style="font-variation-settings:'wdth' 75, 'wght' 400;opacity:1;fill:#ffffff;stroke-width:1.04023;stroke-linejoin:bevel"
             d="m 161.4712,34.237116 -0.3824,2.376599 c -0.2892,0.07671 -0.50405,0.334016 -0.51625,0.644405 l -1.65675,0.661459 h -10e-4 v 0.609781 h 5.2e-4 l 1.86655,-0.744657 c 0.12552,0.122271 0.29621,0.197921 0.48524,0.197921 0.16483,0 0.31636,-0.05779 0.43563,-0.153479 l 2.12856,1.194242 c -0.001,0.01517 -0.002,0.03057 -0.002,0.04599 0,0.384581 0.31199,0.696082 0.6966,0.696082 0.38463,0 0.6966,-0.311501 0.6966,-0.696082 0,-0.384575 -0.31197,-0.696598 -0.6966,-0.696598 -0.16256,0 -0.31191,0.05595 -0.43047,0.149345 l -2.1332,-1.19631 c 0.001,-0.01315 0.002,-0.02642 0.002,-0.03979 0,-0.244089 -0.12572,-0.458596 -0.31575,-0.582911 l 0.39636,-2.465999 z"
             id="path3331" />
        </g>
      </g>
    </g>
  </g>
</svg>
