<?xml version="1.0" encoding="UTF-8" standalone="no"?>
<!-- Created with Inkscape (http://www.inkscape.org/) -->

<svg
   width="168.66055mm"
   height="42.850437mm"
   viewBox="0 0 168.66056 42.850437"
   version="1.1"
   id="svg29616"
   xmlns:xlink="http://www.w3.org/1999/xlink"
   xmlns="http://www.w3.org/2000/svg"
   xmlns:svg="http://www.w3.org/2000/svg">
  <defs
     id="defs29613">
    <linearGradient
       xlink:href="#linearGradient8740"
       id="linearGradient25943"
       gradientUnits="userSpaceOnUse"
       gradientTransform="matrix(0.113147,0,0,0.113147,330.76207,244.26506)"
       x1="-2747.7346"
       y1="-584.57153"
       x2="-2075.5229"
       y2="-584.57153" />
    <linearGradient
       id="linearGradient8740">
      <stop
         id="stop8738"
         offset="0"
         style="stop-color:#000000;stop-opacity:1;" />
      <stop
         id="stop8736"
         offset="0.18261695"
         style="stop-color:#3a86ff;stop-opacity:1" />
      <stop
         style="stop-color:#8338ec;stop-opacity:1"
         offset="0.38739288"
         id="stop8734" />
      <stop
         id="stop8732"
         offset="0.59400356"
         style="stop-color:#ff006e;stop-opacity:1" />
      <stop
         style="stop-color:#fb5607;stop-opacity:1"
         offset="0.74514398"
         id="stop8730" />
      <stop
         id="stop8728"
         offset="1"
         style="stop-color:#ffbe0b;stop-opacity:1" />
    </linearGradient>
  </defs>
  <g
     id="layer1"
     transform="translate(-19.45385,-162.84004)">
    <path
       id="path29798"
       style="font-weight:normal;font-size:4.53833px;line-height:1.1;font-family:'Mona Sans';-inkscape-font-specification:'Mona Sans, @wght=649,wdth=125.0';font-variation-settings:'wdth' 125, 'wght' 649;letter-spacing:-0.04301px;fill:#1f2937;stroke:none;stroke-width:4.15947;stroke-linecap:round;stroke-linejoin:round;stroke-miterlimit:10;paint-order:fill markers stroke"
       d="m 114.66177,179.49604 c -0.28743,0 -0.54624,0.0408 -0.77618,0.12248 -0.22994,0.0787 -0.42514,0.19178 -0.58549,0.34003 -0.16036,0.14825 -0.2827,0.32712 -0.36742,0.53588 -0.0847,0.20877 -0.12713,0.43987 -0.12713,0.69402 0,0.25716 0.0408,0.49041 0.12248,0.69918 0.0847,0.20574 0.20596,0.38409 0.36328,0.53537 0.16036,0.14825 0.35393,0.2635 0.58085,0.3452 0.22691,0.0787 0.48084,0.11782 0.76222,0.11782 h 5.2e-4 c 0.25112,0 0.48548,-0.0332 0.70332,-0.0997 0.22086,-0.0666 0.41281,-0.16497 0.57619,-0.29507 0.16338,-0.13313 0.2906,-0.29678 0.38137,-0.49041 0.0938,-0.19364 0.14056,-0.41713 0.14056,-0.67128 v -0.25889 h -1.84692 v 0.4718 h 1.11518 c -0.0139,0.13203 -0.0528,0.24977 -0.11679,0.35398 -0.0817,0.1301 -0.20293,0.23177 -0.36328,0.30438 -0.15733,0.0726 -0.3509,0.10904 -0.58085,0.10904 -0.1664,0 -0.31757,-0.0245 -0.45371,-0.0729 -0.13616,-0.0514 -0.25415,-0.12376 -0.35399,-0.21756 -0.0968,-0.0968 -0.17074,-0.21481 -0.22221,-0.35398 -0.0515,-0.13917 -0.0775,-0.29847 -0.0775,-0.47697 0,-0.22692 0.044,-0.42322 0.13177,-0.58963 0.0877,-0.1664 0.21497,-0.29526 0.38138,-0.38602 0.16943,-0.0908 0.37334,-0.13591 0.61236,-0.13591 0.16943,0 0.32222,0.0228 0.45837,0.0682 0.13615,0.0454 0.24978,0.11173 0.34055,0.19947 0.0938,0.0877 0.15577,0.19487 0.18603,0.32195 h 0.73536 c -0.0333,-0.236 -0.12408,-0.43991 -0.27234,-0.61237 -0.14825,-0.17548 -0.3467,-0.31194 -0.59479,-0.40876 -0.24507,-0.0998 -0.52945,-0.14935 -0.85318,-0.14935 z m 2.12597,0.0408 v 0.5581 h 0.70332 v -0.5581 z m 17.69298,0 v 0.5581 h 0.70331 v -0.5581 z m 7.92613,0 v 0.5581 h 0.70331 v -0.5581 z m 11.80445,0 v 0.5581 h 0.70383 v -0.5581 z m 3.02048,0 v 3.30832 h 0.70332 V 181.638 c 0,-0.1422 0.0288,-0.26617 0.0863,-0.37207 0.0605,-0.1089 0.1437,-0.19371 0.2496,-0.25425 0.10892,-0.0635 0.23452,-0.0951 0.37672,-0.0951 0.1422,0 0.25694,0.0272 0.34468,0.0816 0.0877,0.0545 0.1497,0.13602 0.18603,0.24494 0.0393,0.1059 0.0589,0.23749 0.0589,0.39481 v 1.20716 h 0.70332 v -1.32963 c 0,-0.21179 -0.0256,-0.39066 -0.077,-0.53589 -0.0514,-0.14825 -0.12376,-0.26624 -0.21755,-0.35398 -0.0908,-0.0877 -0.20115,-0.15083 -0.33125,-0.19017 -0.12707,-0.0393 -0.26952,-0.0594 -0.42685,-0.0594 -0.19666,0 -0.37826,0.044 -0.54467,0.13178 -0.1664,0.0847 -0.29038,0.20433 -0.37207,0.35863 h -0.0362 v -1.32963 z m -38.31342,0.11782 -0.69402,0.13643 v 0.63045 h -0.46302 v 0.53123 h 0.46302 v 1.31155 c 0,0.1301 0.0256,0.23886 0.077,0.3266 0.0545,0.0847 0.13004,0.14835 0.22686,0.19068 0.0968,0.0423 0.21045,0.0636 0.34055,0.0636 h 0.66249 v -0.59893 h -0.37672 c -0.0817,0 -0.14205,-0.0136 -0.18138,-0.0408 -0.0363,-0.0303 -0.0548,-0.0846 -0.0548,-0.1633 v -1.08934 h 0.61288 v -0.53123 h -0.61288 z m 17.69349,0 -0.69453,0.13643 v 0.63045 h -0.46302 v 0.53123 h 0.46302 v 1.31155 c 0,0.1301 0.0255,0.23886 0.077,0.3266 0.0545,0.0847 0.13005,0.14835 0.22686,0.19068 0.0968,0.0423 0.21045,0.0636 0.34055,0.0636 h 0.66249 v -0.59893 h -0.37672 c -0.0817,0 -0.14205,-0.0136 -0.18139,-0.0408 -0.0363,-0.0303 -0.0543,-0.0846 -0.0543,-0.1633 v -1.08934 h 0.61237 v -0.53123 h -0.61237 z m 19.73058,0 -0.69453,0.13643 v 0.63045 h -0.46302 v 0.53123 h 0.46302 v 1.31155 c 0,0.1301 0.0255,0.23886 0.077,0.3266 0.0545,0.0847 0.13004,0.14835 0.22686,0.19068 0.0968,0.0423 0.21045,0.0636 0.34055,0.0636 h 0.66249 v -0.59893 h -0.37672 c -0.0817,0 -0.14206,-0.0136 -0.18139,-0.0408 -0.0363,-0.0303 -0.0543,-0.0846 -0.0543,-0.1633 v -1.08934 h 0.61237 v -0.53123 h -0.61237 z m -32.52463,0.7214 c -0.28742,0 -0.53863,0.0516 -0.75344,0.15452 -0.21179,0.0998 -0.37818,0.24502 -0.4992,0.43563 -0.118,0.18758 -0.17725,0.41432 -0.17725,0.68058 0,0.25717 0.0592,0.47845 0.17725,0.66301 0.118,0.18456 0.28439,0.32648 0.4992,0.42633 0.21784,0.0998 0.47177,0.14986 0.76223,0.14986 0.24809,0 0.47047,-0.0332 0.66714,-0.0997 0.19666,-0.0666 0.35706,-0.16061 0.48111,-0.28163 0.12405,-0.12405 0.19801,-0.26598 0.22221,-0.42633 h -0.66715 c -0.0333,0.0968 -0.1116,0.17511 -0.23564,0.23564 -0.12405,0.0605 -0.2741,0.0909 -0.44959,0.0909 -0.15127,0 -0.28286,-0.024 -0.3948,-0.0724 -0.11193,-0.0484 -0.19785,-0.11963 -0.25839,-0.21342 -0.0605,-0.0968 -0.0943,-0.21045 -0.10025,-0.34055 h 2.11047 c 0.0212,-0.29348 -0.0212,-0.54468 -0.12713,-0.75344 -0.10589,-0.20877 -0.26629,-0.36916 -0.48111,-0.48111 -0.21178,-0.11194 -0.47007,-0.16795 -0.77566,-0.16795 z m 6.21306,0 c -0.29045,0 -0.54491,0.0516 -0.76275,0.15452 -0.21481,0.0998 -0.3823,0.24339 -0.50332,0.43098 -0.12102,0.18758 -0.1819,0.4116 -0.1819,0.67179 0,0.19969 0.0332,0.37693 0.0997,0.53124 0.0696,0.1543 0.168,0.28588 0.29507,0.3948 0.1301,0.10894 0.28289,0.19213 0.45837,0.2496 0.17851,0.0545 0.37696,0.0816 0.5948,0.0816 0.29045,0 0.54276,-0.05 0.75758,-0.14986 0.21784,-0.0999 0.38584,-0.2434 0.50384,-0.43098 0.12102,-0.19061 0.1819,-0.41625 0.1819,-0.67645 0,-0.19666 -0.0348,-0.37228 -0.10438,-0.52658 -0.0666,-0.15733 -0.16498,-0.28892 -0.29508,-0.39481 -0.12707,-0.10894 -0.27986,-0.19213 -0.45837,-0.2496 -0.17548,-0.0575 -0.37068,-0.0863 -0.58549,-0.0863 z m 2.90008,0 c -0.25415,0 -0.47217,0.0321 -0.65371,0.0956 -0.18153,0.0635 -0.32072,0.15271 -0.41754,0.26768 -0.0968,0.11195 -0.14521,0.24789 -0.14521,0.40824 0,0.118 0.0212,0.21804 0.0636,0.29973 0.0424,0.0817 0.11033,0.14965 0.20412,0.20412 0.0938,0.0545 0.21503,0.0985 0.36329,0.13177 0.14825,0.0333 0.3266,0.0589 0.53536,0.077 0.16036,0.0151 0.28433,0.0336 0.37207,0.0548 0.0907,0.0181 0.15436,0.0464 0.19069,0.0858 0.0393,0.0363 0.0589,0.0923 0.0589,0.16795 0,0.0999 -0.0495,0.17433 -0.14934,0.22273 -0.0968,0.0454 -0.23328,0.0677 -0.40876,0.0677 -0.19666,0 -0.34783,-0.0316 -0.45372,-0.0951 -0.10288,-0.0666 -0.15888,-0.16173 -0.16795,-0.28577 h -0.68988 c 0.0151,0.24809 0.13149,0.44602 0.34933,0.59427 0.21784,0.14523 0.53265,0.21808 0.94413,0.21808 0.42963,0 0.74717,-0.0696 0.95291,-0.20877 0.20876,-0.1422 0.31316,-0.32868 0.31316,-0.55863 0,-0.1301 -0.0212,-0.23885 -0.0636,-0.32659 -0.0423,-0.0877 -0.1087,-0.15896 -0.19947,-0.21342 -0.0908,-0.0575 -0.21038,-0.101 -0.35864,-0.13126 -0.14825,-0.0333 -0.32823,-0.0589 -0.54001,-0.077 -0.15128,-0.0151 -0.27363,-0.032 -0.36742,-0.0501 -0.0938,-0.0212 -0.16179,-0.0484 -0.20413,-0.0816 -0.0393,-0.0363 -0.0594,-0.0879 -0.0594,-0.15451 0,-0.0998 0.0484,-0.17216 0.14521,-0.21756 0.0998,-0.0454 0.22706,-0.0682 0.38137,-0.0682 0.0998,0 0.18791,0.0136 0.26355,0.0408 0.0756,0.0242 0.13598,0.0617 0.18138,0.11317 0.0454,0.0484 0.0726,0.11364 0.0816,0.19533 h 0.66715 c -0.0151,-0.1664 -0.0744,-0.30722 -0.17726,-0.42219 -0.0998,-0.11495 -0.23578,-0.2025 -0.40824,-0.26304 -0.16943,-0.0605 -0.37061,-0.0909 -0.60358,-0.0909 z m 5.88543,0 c -0.29045,0 -0.54439,0.0516 -0.76223,0.15452 -0.21481,0.0998 -0.38282,0.24339 -0.50384,0.43098 -0.12103,0.18758 -0.18139,0.4116 -0.18139,0.67179 0,0.19969 0.0331,0.37693 0.0997,0.53124 0.0696,0.1543 0.168,0.28588 0.29507,0.3948 0.1301,0.10894 0.28289,0.19213 0.45837,0.2496 0.17837,0.0544 0.37716,0.0816 0.5948,0.0816 0.29023,-6e-5 0.54289,-0.0501 0.75757,-0.14986 0.21784,-0.0999 0.38585,-0.2434 0.50385,-0.43098 0.12102,-0.19061 0.18138,-0.41625 0.18138,-0.67645 0,-0.19666 -0.0348,-0.37228 -0.10438,-0.52658 -0.0666,-0.15733 -0.16498,-0.28892 -0.29508,-0.39481 -0.12707,-0.10894 -0.27986,-0.19213 -0.45837,-0.2496 -0.17548,-0.0575 -0.37068,-0.0863 -0.58549,-0.0863 z m 6.04769,0 c -0.28742,0 -0.53811,0.0516 -0.75292,0.15452 -0.2118,0.0998 -0.37818,0.24502 -0.4992,0.43563 -0.118,0.18758 -0.17725,0.41432 -0.17725,0.68058 0,0.25717 0.0593,0.47845 0.17725,0.66301 0.118,0.18456 0.28438,0.32648 0.4992,0.42633 0.21784,0.0998 0.47178,0.14986 0.76222,0.14986 0.2481,0 0.47049,-0.0332 0.66715,-0.0997 0.19666,-0.0666 0.35706,-0.16061 0.4811,-0.28163 0.12406,-0.12405 0.19801,-0.26598 0.22221,-0.42633 h -0.66714 c -0.0333,0.0968 -0.11211,0.17511 -0.23616,0.23564 -0.12405,0.0605 -0.27359,0.0909 -0.44907,0.0909 -0.15128,0 -0.28286,-0.024 -0.39481,-0.0724 -0.11192,-0.0484 -0.19836,-0.11963 -0.2589,-0.21342 -0.0605,-0.0968 -0.0937,-0.21045 -0.0997,-0.34055 h 2.11046 c 0.0212,-0.29348 -0.0212,-0.54468 -0.12712,-0.75344 -0.1059,-0.20877 -0.26629,-0.36916 -0.48111,-0.48111 -0.21178,-0.11194 -0.4706,-0.16795 -0.77618,-0.16795 z m 2.84117,0 c -0.25414,0 -0.47165,0.0321 -0.65319,0.0956 -0.18153,0.0635 -0.32073,0.15271 -0.41754,0.26768 -0.0968,0.11195 -0.14521,0.24789 -0.14521,0.40824 0,0.118 0.0212,0.21804 0.0636,0.29973 0.0423,0.0817 0.11033,0.14965 0.20412,0.20412 0.0938,0.0545 0.21452,0.0985 0.36277,0.13177 0.14825,0.0333 0.32712,0.0589 0.53588,0.077 0.16036,0.0151 0.28433,0.0336 0.37207,0.0548 0.0907,0.0181 0.15436,0.0464 0.19069,0.0858 0.0393,0.0363 0.0589,0.0923 0.0589,0.16795 0,0.0999 -0.05,0.17433 -0.14986,0.22273 -0.0968,0.0454 -0.23277,0.0677 -0.40825,0.0677 -0.19665,0 -0.34781,-0.0316 -0.45371,-0.0951 -0.10288,-0.0666 -0.15889,-0.16173 -0.16795,-0.28577 h -0.68988 c 0.0151,0.24809 0.13149,0.44602 0.34933,0.59427 0.21784,0.14523 0.53266,0.21808 0.94413,0.21808 0.42963,0 0.74718,-0.0696 0.95291,-0.20877 0.20877,-0.1422 0.31316,-0.32868 0.31316,-0.55863 0,-0.1301 -0.0212,-0.23885 -0.0636,-0.32659 -0.0423,-0.0877 -0.10871,-0.15896 -0.19947,-0.21342 -0.0908,-0.0575 -0.21038,-0.101 -0.35864,-0.13126 -0.14825,-0.0333 -0.32823,-0.0589 -0.54002,-0.077 -0.15128,-0.0151 -0.27414,-0.032 -0.36793,-0.0501 -0.0938,-0.0212 -0.16179,-0.0484 -0.20412,-0.0816 -0.0393,-0.0363 -0.0589,-0.0879 -0.0589,-0.15451 0,-0.0998 0.0484,-0.17216 0.14521,-0.21756 0.0998,-0.0454 0.22707,-0.0682 0.38137,-0.0682 0.0998,0 0.18739,0.0136 0.26303,0.0408 0.0756,0.0242 0.13599,0.0617 0.18139,0.11317 0.0454,0.0484 0.0726,0.11364 0.0816,0.19533 h 0.66715 c -0.0151,-0.1664 -0.0739,-0.30722 -0.17674,-0.42219 -0.0998,-0.11495 -0.2363,-0.2025 -0.40876,-0.26304 -0.16943,-0.0605 -0.37061,-0.0909 -0.60358,-0.0909 z m -20.53621,0.005 c -0.23599,0 -0.4323,0.0408 -0.58963,0.12247 -0.1543,0.0817 -0.26793,0.18771 -0.34055,0.31781 h -0.0274 l -0.0227,-0.39946 h -0.66715 v 3.18172 h 0.70384 v -1.17099 h 0.0269 c 0.0514,0.0938 0.12266,0.17536 0.21342,0.24495 0.0908,0.0666 0.19516,0.11931 0.31316,0.15864 0.12102,0.0363 0.24988,0.0548 0.38602,0.0548 0.24205,0 0.45195,-0.0516 0.63046,-0.15451 0.1785,-0.1059 0.3177,-0.25108 0.41754,-0.43564 0.0998,-0.18758 0.14986,-0.40997 0.14986,-0.66714 0,-0.19363 -0.0288,-0.36762 -0.0863,-0.52193 -0.0575,-0.1543 -0.13905,-0.28426 -0.24494,-0.39016 -0.1059,-0.10894 -0.2315,-0.19213 -0.37672,-0.24959 -0.14523,-0.0605 -0.30726,-0.0909 -0.48576,-0.0909 z m -5.05086,0.005 c -0.16036,0 -0.29955,0.0392 -0.41754,0.11782 -0.11797,0.0756 -0.20278,0.18004 -0.25425,0.31316 h -0.0227 l -0.0269,-0.39481 h -0.64027 v 2.42362 h 0.70383 v -1.19372 c 0.006,-0.14825 0.0348,-0.26898 0.0863,-0.36277 0.0545,-0.0938 0.12842,-0.16337 0.22221,-0.20877 0.0938,-0.0454 0.2058,-0.0682 0.3359,-0.0682 0.0363,0 0.0722,0.002 0.10852,0.005 0.0393,0.003 0.0773,0.009 0.11369,0.0181 v -0.63562 c -0.0272,-0.006 -0.0587,-0.009 -0.0951,-0.009 -0.0333,-0.003 -0.0713,-0.005 -0.11369,-0.005 z m 19.82308,0 c -0.16035,0 -0.29955,0.0392 -0.41754,0.11782 -0.11804,0.0756 -0.20233,0.18004 -0.25373,0.31316 h -0.0227 l -0.0274,-0.39481 h -0.63975 v 2.42362 h 0.70331 v -1.19372 c 0.006,-0.14825 0.0348,-0.26898 0.0863,-0.36277 0.0545,-0.0938 0.12842,-0.16337 0.22221,-0.20877 0.0938,-0.0454 0.2058,-0.0682 0.3359,-0.0682 0.0363,0 0.0727,0.002 0.10903,0.005 0.0393,0.003 0.0768,0.009 0.11318,0.0181 v -0.63562 c -0.0272,-0.006 -0.0588,-0.009 -0.0951,-0.009 -0.0333,-0.003 -0.0714,-0.005 -0.11369,-0.005 z m -25.1535,0.0362 v 2.42362 h 0.70332 v -2.42362 z m 17.69298,0 v 2.42362 h 0.70331 v -2.42362 z m 7.92613,0 v 2.42362 h 0.70331 v -2.42362 z m 7.57266,0 0.7121,2.42362 h 0.83096 l 0.44442,-1.63814 h 0.0274 l 0.44906,1.63814 h 0.8444 l 0.71675,-2.42362 h -0.63975 l -0.51729,1.83813 h -0.0181 l -0.47233,-1.83813 h -0.69401 l -0.47646,1.82469 h -0.0274 l -0.5085,-1.82469 z m 4.23179,0 v 2.42362 h 0.70383 v -2.42362 z m -30.39815,0.44028 c 0.14825,0 0.27222,0.0228 0.37207,0.0682 0.10286,0.0454 0.1817,0.11062 0.23616,0.19533 0.0491,0.0768 0.0774,0.16595 0.0847,0.26769 h -1.42317 c 0.0177,-0.10549 0.0541,-0.19619 0.10852,-0.27234 0.0635,-0.0847 0.14673,-0.14835 0.2496,-0.19068 0.10589,-0.0454 0.22986,-0.0682 0.37207,-0.0682 z m 21.04678,0 c 0.14825,0 0.27223,0.0228 0.37207,0.0682 0.10286,0.0454 0.18118,0.11062 0.23564,0.19533 0.0491,0.0768 0.078,0.16595 0.0853,0.26769 h -1.42317 c 0.0177,-0.10549 0.0536,-0.19619 0.108,-0.27234 0.0635,-0.0847 0.14724,-0.14835 0.25012,-0.19068 0.10589,-0.0454 0.22987,-0.0682 0.37207,-0.0682 z m -14.82907,0.0543 c 0.11497,0 0.21774,0.0185 0.30851,0.0548 0.0938,0.0333 0.17263,0.0817 0.23616,0.14521 0.0636,0.0605 0.11194,0.13447 0.14521,0.22221 0.0333,0.0877 0.0496,0.18615 0.0496,0.29507 0,0.14523 -0.0288,0.27245 -0.0863,0.38137 -0.0575,0.10592 -0.14179,0.18748 -0.25373,0.24495 -0.11195,0.0575 -0.24515,0.0863 -0.39946,0.0863 -0.11799,0 -0.22402,-0.0169 -0.31781,-0.0501 -0.0908,-0.0333 -0.16798,-0.08 -0.23151,-0.14056 -0.0635,-0.0635 -0.11195,-0.13911 -0.14521,-0.22686 -0.0333,-0.0877 -0.0496,-0.18615 -0.0496,-0.29507 0,-0.14522 0.0283,-0.27083 0.0858,-0.37672 0.0605,-0.10894 0.14533,-0.19213 0.25425,-0.2496 0.11195,-0.0605 0.24678,-0.0909 0.40411,-0.0909 z m 8.78603,0 c 0.11497,0 0.21774,0.0185 0.3085,0.0548 0.0938,0.0333 0.17212,0.0817 0.23565,0.14521 0.0635,0.0605 0.11194,0.13447 0.14521,0.22221 0.0333,0.0877 0.0501,0.18615 0.0501,0.29507 0,0.14523 -0.0288,0.27245 -0.0863,0.38137 -0.0575,0.10592 -0.14231,0.18748 -0.25425,0.24495 -0.11194,0.0575 -0.24464,0.0863 -0.39894,0.0863 -0.118,0 -0.22402,-0.0169 -0.31781,-0.0501 -0.0908,-0.0333 -0.16798,-0.08 -0.23151,-0.14056 -0.0635,-0.0635 -0.11195,-0.13911 -0.14522,-0.22686 -0.0333,-0.0877 -0.0501,-0.18615 -0.0501,-0.29507 0,-0.14522 0.0288,-0.27083 0.0863,-0.37672 0.0605,-0.10894 0.14533,-0.19213 0.25425,-0.2496 0.11194,-0.0605 0.24678,-0.0909 0.40411,-0.0909 z m -11.8892,5.2e-4 c 0.009,-2.2e-4 0.019,0 0.0284,0 0.13917,0 0.26152,0.0283 0.36742,0.0858 0.10591,0.0545 0.18748,0.13491 0.24495,0.24081 0.0575,0.1059 0.0863,0.23586 0.0863,0.39016 0,0.15128 -0.0304,0.28124 -0.091,0.39016 -0.0575,0.10591 -0.13743,0.188 -0.2403,0.24546 -0.10287,0.0575 -0.22522,0.0858 -0.36742,0.0858 -0.11497,0 -0.21774,-0.0163 -0.30851,-0.0496 -0.0877,-0.0363 -0.16384,-0.0847 -0.22737,-0.14522 -0.0636,-0.0605 -0.11195,-0.13011 -0.14521,-0.20877 -0.0333,-0.0817 -0.0496,-0.16813 -0.0496,-0.2589 v -0.13126 c 0,-0.12102 0.0288,-0.23029 0.0863,-0.32711 0.0575,-0.0968 0.14067,-0.17404 0.24959,-0.23151 0.10495,-0.0539 0.22687,-0.0824 0.36639,-0.0858 z m -14.0224,4.00647 v 3.30833 h 0.66714 l 0.0227,-0.39946 h 0.0274 c 0.0484,0.0847 0.11476,0.16026 0.19947,0.22686 0.0877,0.0665 0.19214,0.11818 0.31316,0.15451 0.12404,0.0363 0.26213,0.0543 0.41341,0.0543 0.24204,0 0.45194,-0.05 0.63045,-0.14986 0.17851,-0.10287 0.31771,-0.24805 0.41755,-0.43563 0.0998,-0.18758 0.14986,-0.40997 0.14986,-0.66714 0,-0.19062 -0.0288,-0.36136 -0.0863,-0.51263 -0.0575,-0.15431 -0.13905,-0.28752 -0.24495,-0.39946 -0.10286,-0.11197 -0.22846,-0.19678 -0.37672,-0.25425 -0.14522,-0.0575 -0.30725,-0.0863 -0.48576,-0.0863 -0.20271,0 -0.38704,0.0408 -0.55345,0.12247 -0.16641,0.0817 -0.28765,0.1937 -0.36329,0.3359 h -0.0269 v -1.2976 z m 3.16105,0 v 0.55811 h 0.70383 v -0.55811 z m 4.23901,0 v 0.55811 h 0.70384 v -0.55811 z m 5.31286,0 c -0.2844,0 -0.50243,0.056 -0.65371,0.16795 -0.14824,0.11195 -0.22221,0.28868 -0.22221,0.53072 v 0.18603 h -0.43563 v 0.53124 h 0.43563 v 1.89239 h 0.70332 v -1.89239 h 0.55397 v -0.53124 h -0.55397 v -0.16329 c 0,-0.0878 0.0228,-0.15301 0.0682,-0.19534 0.0484,-0.0423 0.11964,-0.0636 0.21343,-0.0636 h 0.31315 v -0.46251 z m 15.39596,0 v 0.55811 h 0.70331 v -0.55811 z m 14.57534,0 v 0.55811 h 0.70331 v -0.55811 z m 4.2571,0 v 0.55811 h 0.70332 v -0.55811 z m 22.96656,0 v 0.55811 h 0.70331 v -0.55811 z m 4.28862,0 v 3.30833 h 0.70332 v -3.30833 z m -46.97697,0.11783 -0.69453,0.1359 v 0.63097 h -0.46251 v 0.53124 h 0.46251 v 1.31155 c 0,0.13009 0.026,0.23884 0.0775,0.32659 0.0545,0.0847 0.13004,0.14835 0.22686,0.19069 0.0968,0.0423 0.21045,0.0636 0.34055,0.0636 h 0.66249 v -0.59893 h -0.37672 c -0.0817,0 -0.14205,-0.0136 -0.18139,-0.0408 -0.0363,-0.0303 -0.0548,-0.0851 -0.0548,-0.16381 v -1.08882 h 0.61288 v -0.53124 h -0.61288 z m 9.67124,0 -0.69401,0.1359 v 0.63097 h -0.46302 v 0.53124 h 0.46302 v 1.31155 c 0,0.13009 0.0255,0.23884 0.077,0.32659 0.0545,0.0847 0.13004,0.14835 0.22686,0.19069 0.0968,0.0423 0.21045,0.0636 0.34055,0.0636 h 0.66249 v -0.59893 h -0.37672 c -0.0817,0 -0.14205,-0.0136 -0.18138,-0.0408 -0.0363,-0.0303 -0.0548,-0.0851 -0.0548,-0.16381 v -1.08882 h 0.61288 v -0.53124 h -0.61288 z m 27.29911,0 -0.69453,0.1359 v 0.63097 h -0.46302 v 0.53124 h 0.46302 v 1.31155 c 0,0.13009 0.0256,0.23884 0.077,0.32659 0.0545,0.0847 0.13055,0.14835 0.22737,0.19069 0.0968,0.0423 0.20994,0.0636 0.34003,0.0636 h 0.66301 v -0.59893 h -0.37672 c -0.0817,0 -0.14257,-0.0136 -0.1819,-0.0408 -0.0363,-0.0303 -0.0543,-0.0851 -0.0543,-0.16381 v -1.08882 h 0.61288 v -0.53124 h -0.61288 z m -58.55302,0.7214 c -0.29045,0 -0.54438,0.0516 -0.76222,0.15451 -0.21482,0.0999 -0.38283,0.2434 -0.50385,0.43098 -0.12102,0.18759 -0.18138,0.4116 -0.18138,0.6718 0,0.19968 0.0331,0.37641 0.0997,0.53071 0.0696,0.15431 0.168,0.28641 0.29508,0.39533 0.1301,0.10894 0.28289,0.19213 0.45837,0.2496 0.1785,0.0545 0.37643,0.0816 0.59427,0.0816 0.29046,0 0.54328,-0.05 0.7581,-0.14986 0.21784,-0.0998 0.38584,-0.24391 0.50384,-0.4315 0.12102,-0.19061 0.18139,-0.41573 0.18139,-0.67592 0,-0.19666 -0.0348,-0.37228 -0.10439,-0.52659 -0.0666,-0.15732 -0.16498,-0.28891 -0.29507,-0.3948 -0.12707,-0.10894 -0.27987,-0.19213 -0.45837,-0.2496 -0.17549,-0.0575 -0.37068,-0.0863 -0.5855,-0.0863 z m 4.54753,0 c -0.19061,0 -0.37058,0.0424 -0.54002,0.12712 -0.16943,0.0847 -0.29503,0.20434 -0.37672,0.35864 h -0.0362 l -0.0227,-0.44029 h -0.68058 v 2.42363 h 0.70332 V 187.025 c 0,-0.14221 0.0288,-0.2678 0.0863,-0.37672 0.0605,-0.1089 0.1437,-0.19372 0.24959,-0.25425 0.10892,-0.0635 0.23453,-0.0951 0.37673,-0.0951 0.1422,0 0.25745,0.0283 0.34519,0.0858 0.0877,0.0545 0.14971,0.13654 0.18604,0.24546 0.0393,0.10589 0.0589,0.23747 0.0589,0.39481 v 1.20716 h 0.70332 v -1.32964 c 0,-0.21178 -0.0255,-0.39065 -0.077,-0.53588 -0.0514,-0.14825 -0.12428,-0.26624 -0.21808,-0.35398 -0.0908,-0.0877 -0.20114,-0.15136 -0.33124,-0.19069 -0.12708,-0.0393 -0.26952,-0.0589 -0.42685,-0.0589 z m 4.4111,0 c -0.29045,0 -0.54439,0.0516 -0.76223,0.15451 -0.21481,0.0999 -0.38282,0.2434 -0.50384,0.43098 -0.12102,0.18759 -0.18139,0.4116 -0.18139,0.6718 0,0.19968 0.0332,0.37641 0.0997,0.53071 0.0696,0.15431 0.168,0.28641 0.29507,0.39533 0.1301,0.10894 0.28289,0.19213 0.45837,0.2496 0.17851,0.0545 0.37644,0.0816 0.59428,0.0816 0.29045,0 0.54328,-0.05 0.75809,-0.14986 0.21784,-0.0998 0.38586,-0.24391 0.50385,-0.4315 0.12103,-0.19061 0.18138,-0.41573 0.18138,-0.67592 0,-0.19666 -0.0348,-0.37228 -0.10438,-0.52659 -0.0666,-0.15732 -0.16498,-0.28891 -0.29508,-0.3948 -0.12707,-0.10894 -0.27986,-0.19213 -0.45837,-0.2496 -0.17548,-0.0575 -0.37068,-0.0863 -0.58549,-0.0863 z m 5.19658,0 c -0.19666,0 -0.37065,0.0408 -0.52193,0.12247 -0.15128,0.0817 -0.26602,0.19857 -0.34468,0.34985 h -0.032 l -0.0315,-0.42685 h -0.67645 v 2.42363 h 0.70797 v -1.25729 c 0,-0.13312 0.0245,-0.24948 0.0729,-0.34933 0.0514,-0.10289 0.12377,-0.18335 0.21756,-0.24081 0.0938,-0.0575 0.20905,-0.0858 0.3452,-0.0858 0.13313,0 0.23863,0.0283 0.31729,0.0858 0.0787,0.0545 0.13468,0.13329 0.16795,0.23616 0.0363,0.10287 0.0548,0.22684 0.0548,0.37207 v 1.2392 h 0.70331 v -1.25729 c 0,-0.13615 0.0261,-0.25414 0.0775,-0.35398 0.0514,-0.0999 0.12376,-0.1787 0.21756,-0.23616 0.0968,-0.0575 0.21045,-0.0858 0.34054,-0.0858 0.13918,0 0.24794,0.0283 0.3266,0.0858 0.0786,0.0545 0.13303,0.13329 0.1633,0.23616 0.0333,0.0998 0.0501,0.21783 0.0501,0.35398 v 1.25729 h 0.70797 v -1.34772 c 0,-0.25718 -0.0408,-0.46759 -0.12247,-0.63097 -0.0787,-0.16338 -0.1923,-0.28625 -0.34055,-0.36794 -0.14825,-0.0817 -0.32823,-0.12247 -0.54002,-0.12247 -0.21179,0 -0.39938,0.044 -0.56276,0.13177 -0.16338,0.0877 -0.29222,0.22694 -0.38602,0.41755 h -0.0408 c -0.0635,-0.17851 -0.1723,-0.31445 -0.3266,-0.40824 -0.15128,-0.0938 -0.33288,-0.14108 -0.54467,-0.14108 z m 10.78384,0 c -0.28743,0 -0.54025,0.05 -0.75809,0.14986 -0.21482,0.0998 -0.38283,0.2434 -0.50385,0.43098 -0.118,0.18758 -0.17673,0.40997 -0.17673,0.66714 0,0.19062 0.0316,0.36461 0.0951,0.52194 0.0666,0.1543 0.1601,0.28751 0.28112,0.39946 0.12102,0.11196 0.26783,0.19678 0.44029,0.25424 0.17548,0.0575 0.3723,0.0863 0.59014,0.0863 0.24507,0 0.46908,-0.0381 0.67179,-0.11369 0.20574,-0.0756 0.37213,-0.18439 0.4992,-0.32659 0.13009,-0.1422 0.20242,-0.30858 0.21756,-0.49919 h -0.70332 c -0.0212,0.0817 -0.0636,0.15289 -0.12712,0.21342 -0.0635,0.0605 -0.14075,0.10729 -0.23151,0.14056 -0.0908,0.0303 -0.19191,0.0455 -0.30386,0.0455 -0.14825,0 -0.2771,-0.0272 -0.38602,-0.0816 -0.1089,-0.0545 -0.1932,-0.13603 -0.25374,-0.24495 -0.0575,-0.10892 -0.0863,-0.23939 -0.0863,-0.39067 0,-0.1422 0.0288,-0.26618 0.0863,-0.37207 0.0575,-0.10588 0.14068,-0.18907 0.2496,-0.2496 0.11195,-0.0605 0.24353,-0.091 0.39481,-0.091 0.11497,0 0.21611,0.0152 0.30386,0.0455 0.0907,0.0303 0.16632,0.0743 0.22686,0.13178 0.0605,0.0575 0.10127,0.12708 0.12247,0.20877 h 0.69453 c -0.0121,-0.18456 -0.0757,-0.34496 -0.19068,-0.48111 -0.11498,-0.13918 -0.2705,-0.24793 -0.46716,-0.32659 -0.19666,-0.0787 -0.42504,-0.11834 -0.68523,-0.11834 z m 2.82515,0 c -0.25415,0 -0.47218,0.0321 -0.65371,0.0956 -0.18153,0.0635 -0.32072,0.15271 -0.41754,0.26768 -0.0968,0.11194 -0.14521,0.24789 -0.14521,0.40825 0,0.11799 0.0212,0.21803 0.0636,0.29972 0.0424,0.0817 0.11034,0.14966 0.20412,0.20412 0.0938,0.0545 0.21503,0.0985 0.36329,0.13178 0.14825,0.0333 0.32661,0.0589 0.53537,0.077 0.16035,0.0151 0.28432,0.0331 0.37207,0.0543 0.0907,0.0181 0.15435,0.047 0.19068,0.0863 0.0393,0.0363 0.0589,0.0923 0.0589,0.16794 0,0.0999 -0.05,0.17433 -0.14986,0.22273 -0.0968,0.0454 -0.23276,0.0677 -0.40824,0.0677 -0.19666,0 -0.34783,-0.0316 -0.45372,-0.0951 -0.10288,-0.0666 -0.15888,-0.16172 -0.16795,-0.28577 h -0.68988 c 0.0151,0.2481 0.13149,0.44603 0.34933,0.59428 0.21784,0.14523 0.53265,0.21807 0.94413,0.21807 0.42963,0 0.74717,-0.0696 0.95291,-0.20877 0.20876,-0.1422 0.31316,-0.32868 0.31316,-0.55862 0,-0.1301 -0.0212,-0.23886 -0.0636,-0.3266 -0.0423,-0.0877 -0.1087,-0.15895 -0.19947,-0.21342 -0.0908,-0.0575 -0.21038,-0.10099 -0.35863,-0.13126 -0.14826,-0.0333 -0.32824,-0.0594 -0.54002,-0.0775 -0.15128,-0.0151 -0.27415,-0.0315 -0.36794,-0.0496 -0.0938,-0.0212 -0.16179,-0.0484 -0.20412,-0.0816 -0.0393,-0.0363 -0.0589,-0.088 -0.0589,-0.15451 0,-0.0998 0.0484,-0.17216 0.14521,-0.21756 0.0998,-0.0454 0.22706,-0.0682 0.38137,-0.0682 0.0998,0 0.18739,0.0136 0.26303,0.0408 0.0756,0.0242 0.1365,0.0622 0.1819,0.11369 0.0454,0.0484 0.0726,0.11313 0.0816,0.19482 h 0.66715 c -0.0151,-0.1664 -0.0744,-0.30722 -0.17725,-0.4222 -0.0998,-0.11494 -0.23579,-0.2025 -0.40825,-0.26303 -0.16942,-0.0605 -0.37061,-0.091 -0.60358,-0.091 z m 12.06748,0 c -0.1906,0 -0.37058,0.0424 -0.54002,0.12712 -0.16943,0.0847 -0.29503,0.20434 -0.37672,0.35864 h -0.0362 l -0.0227,-0.44029 h -0.68109 v 2.42363 h 0.70383 V 187.025 c 0,-0.14221 0.0288,-0.2678 0.0863,-0.37672 0.0605,-0.1089 0.1437,-0.19372 0.2496,-0.25425 0.10892,-0.0635 0.23452,-0.0951 0.37672,-0.0951 0.1422,0 0.25694,0.0283 0.34468,0.0858 0.0877,0.0545 0.1497,0.13654 0.18603,0.24546 0.0393,0.10589 0.0589,0.23747 0.0589,0.39481 v 1.20716 h 0.70384 v -1.32964 c 0,-0.21178 -0.026,-0.39065 -0.0775,-0.53588 -0.0514,-0.14825 -0.12376,-0.26624 -0.21755,-0.35398 -0.0908,-0.0877 -0.20167,-0.15136 -0.33177,-0.19069 -0.12706,-0.0393 -0.269,-0.0589 -0.42633,-0.0589 z m 4.25711,0 c -0.19061,0 -0.37059,0.0424 -0.54002,0.12712 -0.16944,0.0847 -0.29504,0.20434 -0.37672,0.35864 h -0.0362 l -0.0227,-0.44029 h -0.68058 v 2.42363 h 0.70331 V 187.025 c 0,-0.14221 0.0288,-0.2678 0.0863,-0.37672 0.0605,-0.1089 0.14371,-0.19372 0.2496,-0.25425 0.10892,-0.0635 0.23452,-0.0951 0.37672,-0.0951 0.1422,0 0.25694,0.0283 0.34468,0.0858 0.0877,0.0545 0.1497,0.13654 0.18604,0.24546 0.0393,0.10589 0.0589,0.23747 0.0589,0.39481 v 1.20716 h 0.70383 v -1.32964 c 0,-0.21178 -0.026,-0.39065 -0.0775,-0.53588 -0.0514,-0.14825 -0.12377,-0.26624 -0.21756,-0.35398 -0.0908,-0.0877 -0.20115,-0.15136 -0.33125,-0.19069 -0.12707,-0.0393 -0.26951,-0.0589 -0.42684,-0.0589 z m 2.4753,0 c -0.2239,0 -0.42183,0.0484 -0.59428,0.14521 -0.16943,0.0938 -0.30264,0.22863 -0.39946,0.40411 -0.0968,0.17548 -0.14521,0.37829 -0.14521,0.60823 0,0.17549 0.0256,0.33426 0.077,0.47646 0.0514,0.13917 0.12702,0.25989 0.22686,0.36277 0.0998,0.10286 0.21783,0.18169 0.35398,0.23616 0.13918,0.0545 0.29522,0.0816 0.46767,0.0816 0.19061,0 0.36623,-0.0375 0.52658,-0.11318 0.16338,-0.0756 0.28137,-0.18166 0.35399,-0.31781 h 0.0315 v 0.39946 c 0,0.12405 -0.0288,0.22357 -0.0863,0.29921 -0.0575,0.0787 -0.13743,0.13468 -0.24029,0.16795 -0.10288,0.0363 -0.22412,0.0548 -0.36329,0.0548 -0.10892,0 -0.20571,-0.0125 -0.29042,-0.0367 -0.0847,-0.0212 -0.15272,-0.056 -0.20412,-0.10439 -0.0484,-0.0454 -0.0799,-0.0998 -0.0951,-0.1633 h -0.67179 c 0.0151,0.15431 0.0728,0.29077 0.1726,0.40876 0.0998,0.11798 0.24014,0.20715 0.42168,0.26769 0.18153,0.0635 0.40119,0.0951 0.65836,0.0951 0.23599,0 0.4399,-0.024 0.61236,-0.0724 0.17548,-0.0454 0.32066,-0.11498 0.43563,-0.20877 0.11802,-0.0908 0.20609,-0.20277 0.26355,-0.3359 0.0575,-0.13312 0.0863,-0.28591 0.0863,-0.45837 v -2.15129 h -0.66301 l -0.0269,0.38138 h -0.0367 c -0.0726,-0.1301 -0.18572,-0.23287 -0.34003,-0.30851 -0.15127,-0.0787 -0.32852,-0.11834 -0.53123,-0.11834 z m 4.56148,0 c -0.19666,0 -0.37066,0.0408 -0.52194,0.12247 -0.15127,0.0817 -0.26601,0.19857 -0.34468,0.34985 h -0.032 l -0.032,-0.42685 h -0.67592 v 2.42363 h 0.70796 v -1.25729 c 0,-0.13312 0.024,-0.24948 0.0724,-0.34933 0.0514,-0.10289 0.12429,-0.18335 0.21807,-0.24081 0.0938,-0.0575 0.20853,-0.0858 0.34469,-0.0858 0.13312,0 0.23914,0.0283 0.31781,0.0858 0.0787,0.0545 0.13468,0.13329 0.16794,0.23616 0.0363,0.10287 0.0548,0.22684 0.0548,0.37207 v 1.2392 h 0.70332 v -1.25729 c 0,-0.13615 0.0255,-0.25414 0.077,-0.35398 0.0514,-0.0999 0.12428,-0.1787 0.21807,-0.23616 0.0968,-0.0575 0.20993,-0.0858 0.34003,-0.0858 0.13917,0 0.24845,0.0283 0.32711,0.0858 0.0787,0.0545 0.13303,0.13329 0.1633,0.23616 0.0333,0.0998 0.0496,0.21783 0.0496,0.35398 v 1.25729 h 0.70797 v -1.34772 c 0,-0.25718 -0.0408,-0.46759 -0.12248,-0.63097 -0.0787,-0.16338 -0.19178,-0.28625 -0.34003,-0.36794 -0.14825,-0.0817 -0.32823,-0.12247 -0.54002,-0.12247 -0.21179,0 -0.39937,0.044 -0.56275,0.13177 -0.16338,0.0877 -0.29223,0.22694 -0.38602,0.41755 h -0.0408 c -0.0635,-0.17851 -0.17229,-0.31445 -0.32659,-0.40824 -0.15128,-0.0938 -0.33289,-0.14108 -0.54467,-0.14108 z m 9.6144,0 c -0.28743,0 -0.53863,0.0516 -0.75345,0.15451 -0.21178,0.0999 -0.37817,0.24503 -0.49919,0.43563 -0.118,0.18759 -0.17725,0.41434 -0.17725,0.68058 0,0.25718 0.0593,0.47845 0.17725,0.66301 0.11799,0.18456 0.28438,0.32649 0.49919,0.42633 0.21784,0.0999 0.47178,0.14986 0.76223,0.14986 0.2481,0 0.47048,-0.0331 0.66714,-0.0997 0.19666,-0.0666 0.35707,-0.16062 0.48111,-0.28164 0.12405,-0.12405 0.19853,-0.26597 0.22273,-0.42633 h -0.66715 c -0.0333,0.0968 -0.11211,0.17511 -0.23616,0.23565 -0.12404,0.0605 -0.2741,0.0909 -0.44958,0.0909 -0.15128,0 -0.28286,-0.0245 -0.39481,-0.0729 -0.11192,-0.0484 -0.19785,-0.11911 -0.25838,-0.21291 -0.0606,-0.0968 -0.0942,-0.21044 -0.10025,-0.34054 h 2.11046 c 0.0212,-0.29348 -0.0212,-0.54468 -0.12712,-0.75345 -0.1059,-0.20876 -0.2663,-0.36916 -0.48111,-0.4811 -0.21179,-0.11195 -0.47008,-0.16795 -0.77566,-0.16795 z m -42.24394,0.005 c -0.23599,0 -0.44478,0.0517 -0.62632,0.15451 -0.1785,0.0999 -0.31769,0.2434 -0.41754,0.43098 -0.0998,0.18759 -0.14986,0.40997 -0.14986,0.66715 0,0.1906 0.0272,0.36297 0.0816,0.51728 0.0575,0.1543 0.13905,0.28751 0.24494,0.39946 0.1059,0.1089 0.2315,0.19371 0.37672,0.25424 0.14826,0.0575 0.31191,0.0863 0.49041,0.0863 0.20574,0 0.39008,-0.0408 0.55346,-0.12247 0.1664,-0.0847 0.28602,-0.19672 0.35863,-0.3359 h 0.032 v 0.4129 h 0.70332 v -2.42363 h -0.66714 l -0.0227,0.39946 h -0.0274 c -0.0484,-0.0877 -0.11475,-0.16332 -0.19947,-0.22686 -0.0847,-0.0665 -0.18749,-0.11818 -0.30851,-0.15451 -0.12103,-0.0393 -0.26184,-0.0589 -0.4222,-0.0589 z m 16.48375,0 c -0.23599,0 -0.44478,0.0517 -0.62632,0.15451 -0.1785,0.0999 -0.3177,0.2434 -0.41754,0.43098 -0.0998,0.18759 -0.14935,0.40997 -0.14935,0.66715 0,0.1906 0.0272,0.36297 0.0816,0.51728 0.0575,0.1543 0.13905,0.28751 0.24495,0.39946 0.10589,0.1089 0.23149,0.19371 0.37672,0.25424 0.14825,0.0575 0.31139,0.0863 0.48989,0.0863 0.20573,0 0.39059,-0.0408 0.55397,-0.12247 0.16641,-0.0847 0.28602,-0.19672 0.35864,-0.3359 h 0.0315 v 0.4129 h 0.70332 v -2.42363 h -0.66715 l -0.0227,0.39946 h -0.0269 c -0.0484,-0.0877 -0.11527,-0.16332 -0.19998,-0.22686 -0.0847,-0.0665 -0.18749,-0.11818 -0.30851,-0.15451 -0.12102,-0.0393 -0.26185,-0.0589 -0.4222,-0.0589 z m 20.48609,0 c -0.23599,0 -0.44427,0.0517 -0.6258,0.15451 -0.17851,0.0999 -0.31771,0.2434 -0.41755,0.43098 -0.0998,0.18759 -0.14986,0.40997 -0.14986,0.66715 0,0.1906 0.0272,0.36297 0.0816,0.51728 0.0575,0.1543 0.13905,0.28751 0.24495,0.39946 0.10589,0.1089 0.23149,0.19371 0.37672,0.25424 0.14811,0.0574 0.3121,0.0863 0.49041,0.0863 0.20553,-6e-5 0.39021,-0.0408 0.55345,-0.12247 0.16641,-0.0847 0.28602,-0.19672 0.35864,-0.3359 h 0.0315 v 0.4129 h 0.70331 v -2.42363 h -0.66714 l -0.0227,0.39946 h -0.0269 c -0.0484,-0.0877 -0.11527,-0.16332 -0.19999,-0.22686 -0.0847,-0.0665 -0.18748,-0.11818 -0.3085,-0.15451 -0.12103,-0.0393 -0.26185,-0.0589 -0.4222,-0.0589 z m 11.02672,0 c -0.236,0 -0.44479,0.0517 -0.62632,0.15451 -0.17851,0.0999 -0.3177,0.2434 -0.41755,0.43098 -0.0998,0.18759 -0.14986,0.40997 -0.14986,0.66715 0,0.1906 0.0272,0.36297 0.0816,0.51728 0.0575,0.1543 0.13905,0.28751 0.24495,0.39946 0.10589,0.1089 0.23149,0.19371 0.37672,0.25424 0.14825,0.0575 0.3119,0.0863 0.49041,0.0863 0.20573,0 0.39007,-0.0408 0.55345,-0.12247 0.16641,-0.0847 0.28602,-0.19672 0.35864,-0.3359 h 0.0315 v 0.4129 h 0.70383 v -2.42363 h -0.66714 l -0.0227,0.39946 h -0.0274 c -0.0484,-0.0877 -0.11476,-0.16332 -0.19947,-0.22686 -0.0847,-0.0665 -0.188,-0.11818 -0.30902,-0.15451 -0.12102,-0.0393 -0.26133,-0.0589 -0.42168,-0.0589 z m -54.40909,0.005 c -0.16035,0 -0.29955,0.0392 -0.41754,0.11782 -0.11797,0.0756 -0.20278,0.18004 -0.25425,0.31316 h -0.0227 l -0.0269,-0.39481 h -0.64027 v 2.42363 h 0.70383 v -1.19373 c 0.006,-0.14825 0.0344,-0.26949 0.0858,-0.36328 0.0545,-0.0938 0.12893,-0.16338 0.22272,-0.20877 0.0938,-0.0454 0.2058,-0.0677 0.3359,-0.0677 0.0363,0 0.0722,0.001 0.10852,0.005 0.0393,0.003 0.0773,0.009 0.11369,0.0181 v -0.63511 c -0.0272,-0.006 -0.0593,-0.009 -0.0956,-0.009 -0.0333,-0.003 -0.0708,-0.005 -0.11318,-0.005 z m 21.43332,0 c -0.16035,0 -0.29955,0.0392 -0.41754,0.11782 -0.11804,0.0756 -0.20285,0.18004 -0.25425,0.31316 h -0.0227 l -0.0274,-0.39481 h -0.63975 v 2.42363 h 0.70331 v -1.19373 c 0.006,-0.14825 0.0348,-0.26949 0.0863,-0.36328 0.0545,-0.0938 0.12842,-0.16338 0.22221,-0.20877 0.0938,-0.0454 0.2058,-0.0677 0.3359,-0.0677 0.0363,0 0.0727,0.001 0.10904,0.005 0.0393,0.003 0.0774,0.009 0.11368,0.0181 v -0.63511 c -0.0272,-0.006 -0.0593,-0.009 -0.0956,-0.009 -0.0333,-0.003 -0.0708,-0.005 -0.11317,-0.005 z m 30.28859,0 c -0.16035,0 -0.29954,0.0392 -0.41754,0.11782 -0.11796,0.0756 -0.20278,0.18004 -0.25425,0.31316 h -0.0227 l -0.0269,-0.39481 h -0.63975 v 2.42363 h 0.70331 v -1.19373 c 0.006,-0.14825 0.0349,-0.26949 0.0863,-0.36328 0.0545,-0.0938 0.12842,-0.16338 0.22221,-0.20877 0.0938,-0.0454 0.2058,-0.0677 0.3359,-0.0677 0.0363,0 0.0727,0.001 0.10903,0.005 0.0393,0.003 0.0768,0.009 0.11318,0.0181 v -0.63511 c -0.0272,-0.006 -0.0588,-0.009 -0.0951,-0.009 -0.0333,-0.003 -0.0713,-0.005 -0.11369,-0.005 z m -66.28122,0.0362 v 2.42363 h 0.70383 v -2.42363 z m 4.23901,0 v 2.42363 h 0.70384 v -2.42363 z m 20.70882,0 v 2.42363 h 0.70331 v -2.42363 z m 14.57534,0 v 2.42363 h 0.70331 v -2.42363 z m 4.2571,0 v 2.42363 h 0.70332 v -2.42363 z m 22.96656,0 v 2.42363 h 0.70331 v -2.42363 z m -3.5357,0.44029 c 0.14825,0 0.27223,0.0228 0.37207,0.0682 0.10286,0.0454 0.18169,0.11011 0.23616,0.19482 0.0491,0.0769 0.0774,0.16647 0.0847,0.2682 h -1.42317 c 0.0177,-0.10548 0.0541,-0.19619 0.10852,-0.27233 0.0635,-0.0847 0.14672,-0.14836 0.2496,-0.19069 0.10589,-0.0454 0.22987,-0.0682 0.37207,-0.0682 z m -13.93507,0.0227 c 0.13615,0 0.25252,0.0256 0.34933,0.077 0.0998,0.0514 0.17705,0.12266 0.23151,0.21343 0.0545,0.0877 0.0816,0.19051 0.0816,0.3085 v 0.11369 c 0,0.11195 -0.0288,0.21147 -0.0863,0.29921 -0.0545,0.0877 -0.13166,0.15624 -0.23151,0.20464 -0.0968,0.0484 -0.2148,0.0724 -0.35398,0.0724 -0.1301,0 -0.24484,-0.024 -0.34468,-0.0724 -0.0998,-0.0514 -0.17705,-0.12591 -0.23152,-0.22273 -0.0545,-0.0968 -0.0816,-0.21155 -0.0816,-0.34468 0,-0.13312 0.0272,-0.24675 0.0816,-0.34055 0.0545,-0.0968 0.13168,-0.17239 0.23152,-0.22686 0.10286,-0.0545 0.22085,-0.0817 0.35398,-0.0817 z m -51.03099,0.0274 c 0.009,-2.3e-4 0.019,0 0.0284,0 0.1059,0 0.20105,0.0163 0.28577,0.0496 0.0877,0.0333 0.16167,0.08 0.22221,0.14056 0.0635,0.0605 0.11029,0.13661 0.14056,0.22738 0.0333,0.0877 0.0501,0.18726 0.0501,0.29921 0,0.1543 -0.0288,0.28425 -0.0863,0.39015 -0.0575,0.10592 -0.13905,0.188 -0.24494,0.24547 -0.10287,0.0545 -0.22522,0.0816 -0.36742,0.0816 -0.15128,0 -0.28286,-0.0288 -0.39481,-0.0863 -0.10894,-0.0575 -0.19213,-0.13469 -0.2496,-0.23151 -0.0575,-0.0998 -0.0863,-0.20859 -0.0863,-0.32659 v -0.12712 c 0,-0.12405 0.0288,-0.23605 0.0863,-0.3359 0.0575,-0.0999 0.14068,-0.1787 0.2496,-0.23616 0.10495,-0.0568 0.22687,-0.0869 0.36639,-0.0904 z m 4.23074,0.004 c 0.11498,0 0.21775,0.0184 0.30851,0.0548 0.0938,0.0333 0.17263,0.0817 0.23616,0.14522 0.0636,0.0605 0.11195,0.13446 0.14521,0.2222 0.0333,0.0877 0.0501,0.18616 0.0501,0.29508 0,0.14522 -0.0288,0.27245 -0.0863,0.38137 -0.0575,0.10591 -0.1423,0.18748 -0.25425,0.24494 -0.11194,0.0575 -0.24515,0.0863 -0.39946,0.0863 -0.11799,0 -0.2235,-0.0169 -0.31729,-0.0501 -0.0908,-0.0333 -0.16798,-0.08 -0.23151,-0.14056 -0.0636,-0.0635 -0.11194,-0.13912 -0.14521,-0.22686 -0.0333,-0.0877 -0.0501,-0.18615 -0.0501,-0.29507 0,-0.14523 0.0288,-0.27083 0.0863,-0.37672 0.0605,-0.10894 0.14533,-0.19214 0.25425,-0.2496 0.11195,-0.0605 0.24627,-0.091 0.40359,-0.091 z m 8.95863,0 c 0.11497,0 0.21774,0.0184 0.30851,0.0548 0.0938,0.0333 0.17263,0.0817 0.23616,0.14522 0.0636,0.0605 0.11194,0.13446 0.14521,0.2222 0.0333,0.0877 0.0501,0.18616 0.0501,0.29508 0,0.14522 -0.0288,0.27245 -0.0863,0.38137 -0.0575,0.10591 -0.1423,0.18748 -0.25425,0.24494 -0.11195,0.0575 -0.24516,0.0863 -0.39946,0.0863 -0.118,0 -0.22402,-0.0169 -0.31781,-0.0501 -0.0908,-0.0333 -0.16746,-0.08 -0.23099,-0.14056 -0.0636,-0.0635 -0.11195,-0.13912 -0.14521,-0.22686 -0.0333,-0.0877 -0.0501,-0.18615 -0.0501,-0.29507 0,-0.14523 0.0288,-0.27083 0.0863,-0.37672 0.0605,-0.10894 0.14533,-0.19214 0.25425,-0.2496 0.11194,-0.0605 0.24626,-0.091 0.40359,-0.091 z m 9.75083,0 c 0.15128,0 0.28123,0.0288 0.39015,0.0863 0.10894,0.0575 0.19213,0.13469 0.2496,0.23151 0.0575,0.0968 0.0863,0.20557 0.0863,0.32659 v 0.13178 c 0,0.12102 -0.0288,0.2314 -0.0863,0.33124 -0.0545,0.0998 -0.13603,0.18028 -0.24495,0.24082 -0.10892,0.0605 -0.23939,0.0904 -0.39067,0.0904 -0.1422,0 -0.26618,-0.0288 -0.37207,-0.0863 -0.10591,-0.0575 -0.18748,-0.13905 -0.24495,-0.24495 -0.0575,-0.10892 -0.0863,-0.23888 -0.0863,-0.39015 0,-0.15431 0.0288,-0.28427 0.0863,-0.39016 0.0605,-0.10589 0.14208,-0.18635 0.24495,-0.24081 0.10589,-0.0575 0.22876,-0.0863 0.36794,-0.0863 z m 16.48375,0 c 0.15128,0 0.28123,0.0288 0.39015,0.0863 0.10894,0.0575 0.19213,0.13469 0.2496,0.23151 0.0575,0.0968 0.0863,0.20557 0.0863,0.32659 v 0.13178 c 0,0.12102 -0.0288,0.2314 -0.0863,0.33124 -0.0545,0.0998 -0.13603,0.18028 -0.24495,0.24082 -0.10892,0.0605 -0.23888,0.0904 -0.39015,0.0904 -0.1422,0 -0.26617,-0.0288 -0.37207,-0.0863 -0.10592,-0.0575 -0.18748,-0.13905 -0.24495,-0.24495 -0.0575,-0.10892 -0.0863,-0.23888 -0.0863,-0.39015 0,-0.15431 0.0288,-0.28427 0.0863,-0.39016 0.0605,-0.10589 0.14208,-0.18635 0.24495,-0.24081 0.1059,-0.0575 0.22824,-0.0863 0.36742,-0.0863 z m 20.48608,0 c 0.15128,0 0.28176,0.0288 0.39068,0.0863 0.10894,0.0575 0.19213,0.13469 0.24959,0.23151 0.0575,0.0968 0.0858,0.20557 0.0858,0.32659 v 0.13178 c 0,0.12102 -0.0283,0.2314 -0.0858,0.33124 -0.0545,0.0998 -0.13654,0.18028 -0.24546,0.24082 -0.10892,0.0605 -0.23888,0.0904 -0.39016,0.0904 -0.1422,0 -0.26617,-0.0288 -0.37207,-0.0863 -0.10591,-0.0575 -0.18748,-0.13905 -0.24494,-0.24495 -0.0575,-0.10892 -0.0863,-0.23888 -0.0863,-0.39015 0,-0.15431 0.0288,-0.28427 0.0863,-0.39016 0.0605,-0.10589 0.14208,-0.18635 0.24494,-0.24081 0.1059,-0.0575 0.22825,-0.0863 0.36742,-0.0863 z m 11.0262,0 c 0.15128,0 0.28176,0.0288 0.39068,0.0863 0.10893,0.0575 0.19213,0.13469 0.24959,0.23151 0.0575,0.0968 0.0863,0.20557 0.0863,0.32659 v 0.13178 c 0,0.12102 -0.0288,0.2314 -0.0863,0.33124 -0.0545,0.0998 -0.13654,0.18028 -0.24546,0.24082 -0.10892,0.0605 -0.23888,0.0904 -0.39016,0.0904 -0.1422,0 -0.26617,-0.0288 -0.37207,-0.0863 -0.10591,-0.0575 -0.18748,-0.13905 -0.24494,-0.24495 -0.0575,-0.10892 -0.0863,-0.23888 -0.0863,-0.39015 0,-0.15431 0.0288,-0.28427 0.0863,-0.39016 0.0605,-0.10589 0.14207,-0.18635 0.24494,-0.24081 0.1059,-0.0575 0.22825,-0.0863 0.36742,-0.0863 z" />
    <g
       id="path2866"
       transform="matrix(1,0,0,0.63855438,-23.378967,164.29525)">
      <path
         style="color:#000000;fill:#e6e6e6;stroke-width:0.5;stroke-linecap:round;stroke-linejoin:round;stroke-miterlimit:10;paint-order:fill markers stroke"
         d="M 128.12934,20.96256 V 44.752327"
         id="path4289" />
      <path
         style="color:#000000;opacity:0.5;fill:#1f2937;fill-opacity:1;stroke-width:1.0632;stroke-linecap:round;stroke-linejoin:round;stroke-miterlimit:10;paint-order:fill markers stroke"
         d="m 128.12891,17.545609 a 0.25,0.28259988 0 0 0 -0.25,0.282599 v 26.891145 a 0.25,0.28259988 0 0 0 0.25,0.2826 0.25,0.28259988 0 0 0 0.25,-0.2826 V 17.828208 a 0.25,0.28259988 0 0 0 -0.25,-0.282599 z"
         id="path4291" />
    </g>
    <path
       id="path25941"
       style="color:#000000;fill:url(#linearGradient25943);fill-opacity:1;stroke-width:0.113146;stroke-linecap:round;-inkscape-stroke:none;paint-order:stroke fill markers"
       d="m 54.539125,163.55991 c -0.237665,8e-5 -0.460428,0.15075 -0.555645,0.36737 -0.548034,1.1072 -1.096207,2.21434 -1.644177,3.32152 -1.240772,0.17974 -2.482561,0.35437 -3.722687,0.53753 -0.282689,0.0451 -0.505881,0.31467 -0.495419,0.60113 -0.0024,0.19895 0.113136,0.37556 0.259963,0.50114 0.864885,0.84585 1.729756,1.69173 2.594675,2.53749 -0.212556,1.23673 -0.430479,2.47278 -0.639553,3.70995 -0.04481,0.28637 0.149168,0.58317 0.428647,0.6589 0.174576,0.0563 0.357525,0.016 0.516013,-0.0796 1.081656,-0.56692 2.163114,-1.13408 3.24487,-1.70079 1.116687,0.58729 2.230377,1.18066 3.348632,1.76482 0.291095,0.13687 0.672109,-0.0125 0.792793,-0.31025 0.105908,-0.22168 0.01268,-0.46379 -0.01653,-0.6914 -0.189239,-1.11378 -0.378371,-2.22755 -0.567677,-3.3413 0.898297,-0.87569 1.800875,-1.74734 2.696707,-2.62532 0.201112,-0.20285 0.222686,-0.55116 0.04634,-0.77631 -0.116857,-0.16516 -0.318416,-0.23831 -0.513718,-0.2537 -1.19358,-0.17515 -2.387107,-0.35054 -3.580671,-0.52558 -0.554214,-1.12444 -1.103546,-2.25165 -1.661025,-3.37427 -0.101708,-0.19596 -0.311614,-0.31895 -0.531371,-0.3213 z m -0.0016,1.96519 c 0.01729,0.0352 0.03458,0.0706 0.05187,0.10577 0.403901,0.81854 0.802876,1.63988 1.209929,2.45663 0.09953,0.1942 0.30747,0.3102 0.521317,0.32633 0.909626,0.13354 1.819245,0.26709 2.728825,0.40058 -0.681484,0.66526 -1.367678,1.32614 -2.046818,1.99361 -0.154285,0.1548 -0.198354,0.38933 -0.148044,0.59762 0.154146,0.90608 0.308047,1.81219 0.462309,2.71829 -0.843663,-0.44325 -1.68455,-0.89221 -2.529533,-1.33255 -0.197662,-0.10014 -0.436665,-0.0647 -0.620423,0.0496 -0.810971,0.42495 -1.621815,0.85013 -2.432826,1.27495 0.160929,-0.939 0.327565,-1.87727 0.484932,-2.81675 0.03297,-0.21551 -0.06813,-0.43091 -0.231192,-0.56962 -0.657099,-0.64261 -1.314283,-1.2851 -1.971375,-1.92776 0.941835,-0.13694 1.884677,-0.26867 2.825814,-0.40917 0.215227,-0.0344 0.389502,-0.19661 0.470862,-0.39457 0.40813,-0.82428 0.816057,-1.64867 1.224354,-2.47288 z m -10.417128,3.17651 -0.0011,0.002 c -0.668584,0 -1.229799,0.0673 -1.709271,0.23318 -0.479448,0.16593 -0.900094,0.45798 -1.125198,0.89202 l -0.0055,0.0102 -0.005,0.0101 c -0.153843,0.32974 -0.262106,0.64413 -0.313486,0.95254 v 0.0214 l -0.0055,0.0213 c -0.02326,0.25384 -0.03274,0.59616 -0.03274,1.05445 v 13.95043 c 0,2.14222 0.26247,3.74897 0.90388,4.87398 0.582514,1.03835 1.782559,1.5926 3.38602,1.80076 h 0.005 c 0.979147,0.11999 1.789149,0.17291 2.450151,0.14098 0.660957,-0.032 1.182974,-0.11908 1.612196,-0.41625 v -0.006 c 0.373242,-0.26123 0.562897,-0.66436 0.681115,-1.11964 0.118254,-0.45526 0.167938,-0.99111 0.167938,-1.63922 0,-0.60208 -0.04648,-1.10476 -0.167938,-1.53584 -0.120718,-0.42859 -0.325478,-0.81376 -0.692213,-1.05515 -0.227499,-0.15835 -0.449257,-0.27871 -0.724981,-0.32469 -0.274324,-0.0702 -0.529373,-0.0756 -0.935814,-0.0756 -0.130239,0 -0.195485,-0.0102 -0.227632,-0.0162 -0.01457,-0.10127 -0.09706,-0.46245 -0.09706,-0.97961 v -13.57159 c 0,-0.44705 -0.01427,-0.78595 -0.05889,-1.07592 0,-0.005 -0.0048,-0.008 -0.005,-0.0102 -0.031,-0.34474 -0.148793,-0.68251 -0.330167,-1.02258 l -0.005,-0.006 c -0.232541,-0.41873 -0.639176,-0.71024 -1.108386,-0.87695 -0.469201,-0.16669 -1.013636,-0.23242 -1.655009,-0.23243 z m -12.621674,0.58664 c -3.114668,0 -5.873009,1.11781 -8.162105,3.30475 -2.300157,2.17698 -3.472678,4.96474 -3.472678,8.21625 0,3.24892 1.146148,6.0893 3.396315,8.40084 2.246823,2.28766 4.967297,3.46706 8.033117,3.46706 3.389116,0 6.04324,-0.88903 7.827122,-2.73659 0.625759,-0.64809 0.99464,-1.41284 0.99464,-2.21778 v -6.44806 c 0,-0.76963 -0.09142,-1.39038 -0.356429,-1.90419 -0.190791,-0.40729 -0.547267,-0.70846 -0.968691,-0.88728 -0.423911,-0.17983 -0.916785,-0.26519 -1.492823,-0.28652 h -0.01682 -5.165261 c -0.647781,0 -1.208103,0.0932 -1.682253,0.33024 -0.399773,0.1999 -0.67863,0.5858 -0.811627,1.01142 l -0.0055,0.0163 -0.005,0.0168 c -0.09791,0.39172 -0.135292,0.85363 -0.135292,1.41166 0,0.53961 0.03813,0.99108 0.135292,1.37989 v 0.006 0.006 c 0.113948,0.4273 0.397175,0.80693 0.773447,1.03849 0.440147,0.27086 0.953496,0.32469 1.612206,0.32469 h 1.69815 v 2.08254 c -0.691534,0.23379 -1.419883,0.41133 -2.282269,0.41133 -1.32048,0 -2.469509,-0.49765 -3.548218,-1.57396 l -0.0055,-0.006 c -1.067039,-1.08807 -1.579439,-2.33911 -1.579439,-3.87379 0,-1.56074 0.497281,-2.7217 1.525492,-3.64532 h 0.0055 c 1.055679,-0.96626 2.203565,-1.42282 3.542724,-1.42282 1.0342,0 1.873638,0.2392 2.585443,0.71374 l 0.0054,0.006 h 0.005 c 0.856216,0.55041 1.457613,0.89202 2.12066,0.89202 0.96534,0 1.770143,-0.70597 2.579884,-1.80639 v -0.006 c 0.492004,-0.68449 0.790182,-1.33554 0.790182,-2.00132 0,-0.71022 -0.412249,-1.3481 -1.038505,-1.81194 -2.140413,-1.58998 -4.460876,-2.40716 -6.902361,-2.40716 z m 12.620528,0.65049 c 0.550536,0 0.971374,0.0651 1.244658,0.16231 0.273274,0.097 0.382734,0.19988 0.443199,0.30878 0.125993,0.23819 0.179521,0.42712 0.189443,0.54588 l 0.0055,0.0214 v 0.0272 c 0.02844,0.17156 0.05408,0.4939 0.05408,0.92547 v 13.57165 c 0,0.7377 -0.02548,1.19055 0.259443,1.66554 l 0.01093,0.0102 0.005,0.0102 c 0.29245,0.43876 0.793268,0.54109 1.276469,0.54109 0.390678,0 0.668143,0.038 0.649365,0.0328 l 0.04293,0.0102 0.03823,0.006 c -0.021,-0.003 0.08115,0.0236 0.232358,0.12969 l 0.01025,0.006 0.01093,0.006 c 0.01972,0.0123 0.104321,0.0995 0.178277,0.36205 0.07397,0.26256 0.124895,0.67514 0.124895,1.20641 0,0.58293 -0.04776,1.03347 -0.124895,1.3305 -0.07595,0.29242 -0.174312,0.4018 -0.194175,0.41695 0,4.2e-4 -0.0048,-4.2e-4 -0.0055,0 -0.08115,0.055 -0.415244,0.17317 -0.962776,0.19974 -0.550513,0.0268 -1.304342,-0.0151 -2.240111,-0.12963 v 0.006 c -1.405792,-0.18305 -2.155249,-0.62641 -2.471609,-1.19038 -0.451335,-0.78982 -0.740869,-2.23061 -0.740869,-4.26771 V 171.9027 c 0,-0.42541 0.01199,-0.72893 0.02712,-0.90875 0.02683,-0.15383 0.08998,-0.36093 0.199792,-0.60077 l 0.005,-0.006 c 0.04928,-0.0923 0.143268,-0.19084 0.42174,-0.28726 0.28263,-0.0978 0.727048,-0.16232 1.309045,-0.16232 z m -12.620528,0.5806 v 6.5e-4 c 2.17003,0 4.20331,0.70542 6.166327,2.16369 0.428951,0.31773 0.54665,0.55528 0.54665,0.82198 0,0.27224 -0.155734,0.71598 -0.562548,1.28202 -0.710788,0.96253 -1.295416,1.29787 -1.579628,1.29787 -0.07889,0 -0.667907,-0.19052 -1.444279,-0.68675 l -0.01093,-0.006 c -0.927586,-0.61534 -2.032772,-0.9191 -3.260888,-0.9191 -1.628534,0 -3.122271,0.60038 -4.371189,1.74112 -1.277451,1.14758 -1.931323,2.72124 -1.931323,4.56046 0,1.82372 0.66306,3.4484 1.936939,4.74353 1.264354,1.26437 2.777278,1.94168 4.424388,1.94168 1.141887,0 2.189139,-0.18721 3.13215,-0.57295 l 0.384271,-0.15682 v -4.22465 h -2.932411 c -0.552752,0 -0.899768,-0.10465 -0.96768,-0.14641 -0.127596,-0.0785 -0.180265,-0.14817 -0.221961,-0.29685 v -0.006 c -0.05862,-0.23664 -0.09705,-0.60262 -0.09705,-1.07667 0,-0.48996 0.04,-0.85824 0.09705,-1.09257 0.05795,-0.17115 0.107543,-0.22687 0.172661,-0.25945 0.229306,-0.11468 0.611724,-0.20048 1.136316,-0.20048 h 5.13353 c 0.479087,0.0174 0.839041,0.09 1.059939,0.18376 0.220945,0.0937 0.295692,0.18452 0.340531,0.28172 l 0.0055,0.0101 0.0055,0.0168 c 0.118657,0.22543 0.222062,0.68445 0.222062,1.35196 v 6.44805 c 0,0.44563 -0.17535,0.87791 -0.643817,1.36312 -1.498891,1.5524 -3.768923,2.35864 -6.945344,2.35864 -2.757177,0 -5.098692,-1.00541 -7.150684,-3.09472 -2.048717,-2.10459 -3.050984,-4.57496 -3.050984,-7.53982 0,-2.96225 1.017115,-5.35855 3.093967,-7.32411 2.087814,-1.99465 4.487329,-2.96416 7.312826,-2.96421 z m 43.193256,0.20342 c -0.664875,8e-5 -1.218274,0.0645 -1.692296,0.21639 -0.474293,0.15202 -0.895439,0.41436 -1.129945,0.83317 v 0.006 l -0.0062,0.006 c -0.159582,0.29633 -0.270659,0.58437 -0.32468,0.88175 l -0.0062,0.0278 v 0.0272 c -0.02322,0.25379 -0.03197,0.59688 -0.03197,1.05514 v 2.30455 l -1.785735,-0.0214 h -0.0054 c -0.627647,0 -1.307279,0.0156 -1.990907,0.0271 v -2.16377 c 0,-0.71321 -0.03697,-1.2427 -0.172684,-1.67739 l -0.0062,-0.0102 -0.0062,-0.0101 c -0.182652,-0.51994 -0.594293,-0.93328 -1.108486,-1.16819 -0.514196,-0.23484 -1.124351,-0.33023 -1.844546,-0.33023 -0.665444,0 -1.22197,0.0633 -1.693434,0.21645 -0.467505,0.15186 -0.874303,0.42281 -1.098112,0.84431 -0.175027,0.29019 -0.312336,0.5774 -0.367663,0.88167 v 0.0272 l -0.0062,0.0271 c -0.02322,0.25384 -0.03281,0.59613 -0.03281,1.0544 v 2.32115 c -1.771879,-0.0695 -2.290708,0.83321 -2.523346,1.59794 -0.129055,0.46733 -0.167113,1.06443 -0.167113,1.88829 0,0.87125 0.123367,1.5675 0.551446,2.08728 l 0.0062,0.0112 0.0054,0.006 c 0.387492,0.4391 0.944172,0.70826 1.520703,0.70826 0.212073,0 0.406406,-0.0294 0.611193,-0.0431 v 3.67801 c 0,2.10584 0.597597,3.81277 1.839003,4.96554 1.228142,1.14049 2.931759,1.68775 4.99255,1.68775 0.439092,0 0.770157,-0.009 1.022533,-0.0328 h 0.02137 l 0.02129,-0.006 c 0.308385,-0.0513 0.621952,-0.15957 0.951734,-0.31351 l 0.01093,-0.006 h 0.0054 c 0.438801,-0.21939 0.746204,-0.63093 0.919856,-1.10848 0.173689,-0.47759 0.24352,-1.03784 0.24352,-1.69897 0,-0.57132 -0.05995,-1.05831 -0.205338,-1.4817 -0.145348,-0.42342 -0.400826,-0.80007 -0.784561,-1.01697 -0.325163,-0.18517 -0.666713,-0.30305 -1.016969,-0.33504 -0.29672,-0.0475 -0.653662,-0.0708 -1.130768,-0.0708 -0.329689,0 -0.404223,-0.0628 -0.432151,-0.097 -0.03989,-0.0673 -0.124889,-0.32513 -0.124889,-0.77905 v -3.4027 l 2.039509,0.0867 h 0.01048 c 0.470211,0 1.106965,-0.0453 1.731584,-0.0867 v 3.69474 c 0,2.10576 0.597582,3.81277 1.839019,4.96547 1.228188,1.14049 2.926188,1.68781 4.987,1.68781 0.439093,0 0.770127,-0.009 1.022579,-0.0328 h 0.02712 l 0.02129,-0.006 c 0.308341,-0.0513 0.621852,-0.15963 0.951658,-0.31351 l 0.0062,-0.006 h 0.0062 c 0.43884,-0.21942 0.745441,-0.63093 0.919095,-1.10847 0.173637,-0.47755 0.243466,-1.03699 0.243466,-1.69815 0,-0.57322 -0.05802,-1.06747 -0.210834,-1.49369 -0.151848,-0.42371 -0.423107,-0.79308 -0.810922,-1.00581 -0.306826,-0.18436 -0.64181,-0.30347 -0.985112,-0.33497 -0.295953,-0.0472 -0.655115,-0.0709 -1.130006,-0.0709 -0.33348,0 -0.405946,-0.0638 -0.43286,-0.098 -0.03989,-0.0673 -0.124126,-0.32509 -0.124126,-0.77905 v -3.39151 l 1.270794,0.0756 h 0.02129 c 0.458198,0 0.795504,-0.005 1.049593,-0.0271 l 0.02129,-0.006 h 0.0272 c 0.308402,-0.0513 0.617119,-0.15964 0.946924,-0.31352 l 0.01025,-0.006 0.01675,-0.006 c 0.431376,-0.22369 0.719887,-0.63983 0.886469,-1.11491 0.16659,-0.47515 0.233123,-1.033 0.233123,-1.69254 0,-0.66861 -0.06602,-1.227 -0.233123,-1.70372 -0.165383,-0.47161 -0.457991,-0.88343 -0.892088,-1.09812 -0.319729,-0.17924 -0.645885,-0.30102 -0.984344,-0.33031 h -0.0062 c -0.279635,-0.0458 -0.607311,-0.0652 -1.049578,-0.0652 -0.309762,0 -0.837137,0.046 -1.319329,0.0812 v -2.21653 c 0,-0.70989 -0.04234,-1.23964 -0.20617,-1.68704 0,-0.003 -0.0038,-0.003 -0.0054,-0.006 -0.171317,-0.52043 -0.573126,-0.93833 -1.082225,-1.17374 -0.511214,-0.23645 -1.12369,-0.33014 -1.843408,-0.33024 z m -5.5e-5,1.23794 h 5.5e-5 c 0.608556,0 1.05485,0.0915 1.32494,0.2164 0.270135,0.12489 0.373911,0.2442 0.438469,0.44326 v 0.0101 l 0.0054,0.0152 c 0.06549,0.17441 0.140851,0.62772 0.140851,1.2764 v 3.5491 l 0.670831,-0.0654 c 0.850516,-0.0773 1.484621,-0.11379 1.877185,-0.11379 0.431429,0 0.746134,0.023 0.887292,0.0486 l 0.02712,0.006 0.03189,0.006 c 0.119301,0.009 0.291401,0.0596 0.508592,0.18377 l 0.01676,0.0112 0.02129,0.0101 c 0.08577,0.0412 0.179539,0.12475 0.276177,0.40031 0.09655,0.27555 0.167042,0.71587 0.167042,1.29786 0,0.57152 -0.06986,1.00483 -0.167042,1.28196 -0.0958,0.27313 -0.192322,0.37195 -0.287337,0.42256 0,0 -0.0038,0.005 -0.0054,0.006 -0.239855,0.10983 -0.447017,0.1738 -0.60078,0.2005 -0.172092,0.014 -0.466236,0.0262 -0.865003,0.0273 l -2.559192,-0.15676 v 4.70049 c 0,0.58845 0.0611,1.06984 0.335854,1.48176 l 0.01025,0.0168 0.01093,0.0102 c 0.326961,0.43599 0.871045,0.60085 1.427617,0.60085 0.451705,0 0.788765,0.0199 0.958029,0.0484 l 0.02129,0.006 h 0.02712 c 0.144909,0.0102 0.301416,0.0641 0.486995,0.17826 l 0.01629,0.006 0.01676,0.0102 c 0.07742,0.042 0.156106,0.1178 0.237972,0.34615 0.08174,0.2284 0.140043,0.59472 0.140043,1.07667 0,0.56989 -0.06725,1.00162 -0.167181,1.27634 -0.09996,0.27478 -0.205939,0.37324 -0.314281,0.42736 -0.243152,0.11198 -0.450106,0.17351 -0.605574,0.20055 -0.180808,0.0152 -0.472893,0.0272 -0.87611,0.0272 -1.847281,0 -3.194393,-0.46585 -4.154673,-1.35758 -0.947086,-0.87944 -1.444273,-2.18197 -1.444273,-4.06235 v -5.00926 l -0.665345,0.0541 c -0.915735,0.0764 -1.669746,0.11844 -2.266245,0.11933 l -3.310358,-0.14658 v 4.69025 c 0,0.58843 0.06586,1.06979 0.340597,1.48171 l 0.0062,0.0168 0.01104,0.0102 c 0.327008,0.43598 0.876594,0.60077 1.433159,0.60077 0.451727,0 0.782416,0.0204 0.951727,0.0486 l 0.02712,0.006 h 0.02712 c 0.1461,0.0102 0.323834,0.0686 0.535529,0.18945 0.06578,0.037 0.148252,0.11503 0.22762,0.34614 0.07931,0.23115 0.135248,0.59756 0.135248,1.08141 0,0.56991 -0.06794,1.00246 -0.167865,1.27717 -0.09995,0.27475 -0.205224,0.37323 -0.31352,0.42735 -0.241253,0.11107 -0.445848,0.17235 -0.600841,0.19975 -0.179978,0.0156 -0.473537,0.0277 -0.881674,0.0277 -1.847258,0 -3.193608,-0.4659 -4.153851,-1.35757 -0.947124,-0.87941 -1.444349,-2.18194 -1.444349,-4.06228 v -5.0523 l -0.708997,0.10273 c -0.358027,0.0537 -0.733644,0.0811 -1.135547,0.0811 -0.239648,0 -0.390636,-0.0656 -0.584079,-0.28089 -0.118533,-0.14797 -0.270597,-0.57339 -0.270597,-1.29862 0,-0.77609 0.05872,-1.32742 0.124136,-1.56292 l 0.0062,-0.006 v -0.006 c 0.07827,-0.297 0.177034,-0.43905 0.216445,-0.47664 0.191792,-0.15169 0.415806,-0.23689 0.76228,-0.23792 l 1.59075,0.20049 v -3.71616 c 0,-0.42032 0.01222,-0.71751 0.02705,-0.89834 0.02198,-0.11459 0.08051,-0.27788 0.20534,-0.48068 l 0.01093,-0.0168 0.01048,-0.0214 c 0.03167,-0.0606 0.113899,-0.15789 0.394663,-0.24902 0.280826,-0.0913 0.729403,-0.15126 1.314595,-0.15126 l -0.0031,-0.002 c 0.608479,0 1.058861,0.0898 1.336045,0.21645 0.273872,0.12503 0.377417,0.24993 0.44883,0.44882 0.05917,0.1935 0.119386,0.64866 0.119386,1.29787 v 3.41385 l 0.627039,-0.0102 c 0.912463,-0.0197 1.77666,-0.0328 2.590993,-0.0328 l 3.023862,0.0382 v -3.55388 c 0,-0.42036 0.01237,-0.71757 0.02712,-0.89839 0.02491,-0.12984 0.08056,-0.29929 0.189376,-0.50291 l 0.0062,-0.006 c 0.04035,-0.0696 0.138283,-0.16857 0.421746,-0.25936 0.287789,-0.0923 0.73492,-0.15127 1.320082,-0.15127 z m 17.122686,3.90015 c -0.601204,0 -1.220691,0.20986 -1.882748,0.57295 -0.499635,0.27399 -0.786542,0.48664 -1.065494,0.71456 -0.03509,-0.0613 -0.02494,-0.1361 -0.06535,-0.19494 -0.500212,-0.7562 -1.458088,-0.94692 -2.704022,-0.94692 -0.668587,0 -1.22987,0.0616 -1.70932,0.22757 -0.479448,0.16596 -0.900095,0.458 -1.125148,0.89201 v 0.006 0.006 c -0.15776,0.31552 -0.27285,0.62468 -0.324688,0.93581 v 0.0214 l -0.0062,0.0213 c -0.0232,0.25386 -0.03281,0.59693 -0.03281,1.05522 v 10.28756 0.87138 l 0.0062,0.0214 c 0.04634,0.67235 0.273634,1.27822 0.735321,1.6822 l 0.01081,0.006 0.0062,0.0101 c 0.588689,0.47663 1.401303,0.63347 2.4119,0.63347 0.657904,0 1.212347,-0.0636 1.687801,-0.22203 0.475429,-0.15845 0.891042,-0.4334 1.130829,-0.84909 l 0.0059,-0.0102 0.0059,-0.006 c 0.178773,-0.33514 0.297719,-0.6518 0.330215,-0.98435 0.04623,-0.29212 0.06525,-0.63862 0.06525,-1.09257 v -6.15577 c 0,-0.34832 0.113998,-0.59007 0.443257,-0.86571 0.378974,-0.29872 0.727857,-0.42735 1.109305,-0.42735 0.466755,0 0.795728,0.0784 0.984348,0.17266 h 0.0059 l 0.01055,0.006 c 0.408001,0.192 0.844634,0.29201 1.287576,0.29201 0.920203,0 1.72278,-0.57293 2.163644,-1.45462 0.402147,-0.8044 0.622303,-1.57881 0.622303,-2.32596 0,-0.69824 -0.14215,-1.29863 -0.541097,-1.74195 -0.307035,-0.37592 -0.710818,-0.66378 -1.179287,-0.81169 -0.38677,-0.12212 -0.750586,-0.20231 -1.098187,-0.24827 -0.367502,-0.0688 -0.79288,-0.0979 -1.287527,-0.0979 z m -34.141124,0.42957 c -0.31129,0.003 -0.597444,0.30545 -0.633756,0.62125 -0.01974,0.41829 -0.05519,0.85873 -0.303983,1.21425 -0.541717,0.80337 -1.399251,1.30575 -2.200181,1.81393 -0.836077,-0.5359 -1.7578,-1.05998 -2.27392,-1.94226 -0.211431,-0.34612 -0.192208,-0.75881 -0.242466,-1.14403 -0.07384,-0.30399 -0.339266,-0.59842 -0.676562,-0.55858 -0.47015,0.0688 -0.648848,0.61915 -0.582596,1.03382 0.06133,1.24812 0.808245,2.36717 1.786021,3.10466 0.171145,0.1387 0.352102,0.26485 0.527823,0.39759 -0.875835,0.58807 -1.721998,1.3261 -2.092946,2.3439 -0.464536,1.17742 -0.193583,2.57249 0.613639,3.53494 0.401523,0.50605 0.938617,0.90596 1.479307,1.28408 -0.734836,0.51956 -1.444507,1.12601 -1.859065,1.91875 -0.328019,0.62744 -0.531517,1.35772 -0.428231,2.06635 0.07472,0.39224 0.544961,0.72093 0.912011,0.46384 0.334541,-0.20955 0.359278,-0.62868 0.367017,-0.98252 0.08721,-0.81191 0.755015,-1.3859 1.366625,-1.8472 0.353754,-0.26353 0.7307,-0.49266 1.103343,-0.72801 0.83729,0.53506 1.75826,1.06081 2.275084,1.94297 0.210835,0.34641 0.191874,0.7587 0.241937,1.14397 0.07047,0.39488 0.542123,0.7277 0.911371,0.47272 0.43528,-0.28982 0.376471,-0.87505 0.30535,-1.32436 -0.130091,-0.81794 -0.539995,-1.5651 -1.099356,-2.14743 -0.351787,-0.37035 -0.760052,-0.6796 -1.171977,-0.97908 0.497993,-0.34813 0.999261,-0.72169 1.371997,-1.15602 0.841933,-0.9277 1.183782,-2.30174 0.777952,-3.49938 -0.331405,-1.0682 -1.186563,-1.8606 -2.090724,-2.46518 -0.112692,-0.10995 0.257584,-0.22416 0.336545,-0.33568 0.954578,-0.69806 1.73777,-1.72062 1.88829,-2.92024 0.0684,-0.4332 0.08734,-1.00022 -0.346075,-1.25396 -0.08617,-0.0519 -0.175305,-0.0741 -0.262474,-0.0731 z m 34.141114,0.7983 c 0.443326,0 0.802164,0.0328 1.059945,0.0811 h 0.01616 l 0.01676,0.006 c 0.267214,0.0336 0.577263,0.10273 0.919907,0.21089 0.266219,0.0842 0.450659,0.21 0.611139,0.41059 l 0.01626,0.0168 0.01676,0.0164 c 0.09482,0.10205 0.216444,0.38837 0.216444,0.93025 0,0.50333 -0.15227,1.09372 -0.492617,1.7744 -0.301613,0.60335 -0.573193,0.77357 -1.059896,0.77357 -0.256559,0 -0.499744,-0.051 -0.752035,-0.16793 -0.436594,-0.21829 -0.948125,-0.29761 -1.536536,-0.29761 -0.67212,0 -1.319353,0.24654 -1.876499,0.6876 l -0.0059,0.006 -0.0059,0.006 c -0.559846,0.46247 -0.897581,1.12065 -0.897581,1.82312 v 6.15593 c 0,0.43146 -0.02006,0.75275 -0.04849,0.92477 l -0.0062,0.0217 v 0.0214 c -0.0077,0.0891 -0.06387,0.27665 -0.183821,0.50844 h -0.0062 c -0.05387,0.0918 -0.164546,0.20285 -0.448815,0.29762 -0.286674,0.0954 -0.725544,0.15682 -1.298686,0.15682 -0.859755,0 -1.388183,-0.17572 -1.622551,-0.36211 -0.158981,-0.14399 -0.282339,-0.37055 -0.313519,-0.82273 v -0.80535 -10.28833 c 0,-0.42538 0.01222,-0.72891 0.02712,-0.90873 0.02712,-0.15499 0.08792,-0.34351 0.199684,-0.56818 0.04849,-0.0935 0.144832,-0.1942 0.427356,-0.29205 0.282632,-0.0978 0.727037,-0.16799 1.30904,-0.16799 1.093691,0 1.594367,0.26011 1.682197,0.3948 l 0.0062,0.006 0.0062,0.0101 c 0.157243,0.22872 0.13295,0.43319 0.21091,0.61674 v 1.92012 l 1.119657,-1.56368 c 0.07274,-0.10172 0.193094,-0.25022 0.346153,-0.42168 l 0.0059,-0.006 c 0.0959,-0.096 0.472264,-0.36193 1.054386,-0.68117 0.549399,-0.3013 0.989857,-0.42174 1.287517,-0.42174 z m -39.368418,0.0143 c 0.02938,0.28575 0.05301,0.51519 0.148808,0.6789 h 3.884824 c 0.09096,-0.18568 0.130598,-0.41762 0.151379,-0.6789 z m 0.57978,1.23807 c 0.241358,0.24738 0.526421,0.46812 0.83245,0.67888 h 1.355695 c 0.304811,-0.21046 0.590472,-0.43084 0.8336,-0.67888 z m 1.509595,3.39249 c 0.03005,0.0187 0.05979,0.0374 0.08969,0.0561 0.807548,0.5105 1.700334,1.0013 2.209648,1.84193 0.345092,0.63295 0.210712,1.47301 -0.302221,1.97794 -0.557427,0.62454 -1.295452,1.04226 -1.997117,1.4818 -0.827741,-0.52622 -1.748214,-1.01782 -2.284488,-1.87192 -0.362543,-0.63557 -0.232337,-1.49327 0.288495,-2.00495 0.55772,-0.62361 1.294714,-1.04161 1.995993,-1.48094 z m -0.723167,0.93138 c -0.310498,0.20921 -0.600311,0.42895 -0.849101,0.6789 h 3.142436 c -0.244327,-0.24872 -0.53583,-0.46847 -0.84912,-0.6789 z m -1.317631,1.4079 c -0.05851,0.22281 -0.06274,0.46086 -0.0064,0.67891 h 4.089815 c 0.05864,-0.2229 0.06248,-0.46088 0.0054,-0.67891 z m 0.47201,1.40785 c 0.245231,0.24895 0.536944,0.46851 0.850093,0.67885 h 1.444047 c 0.310569,-0.20918 0.600411,-0.42884 0.848927,-0.67885 z m 0.768169,4.40246 c -0.02196,0.0159 -0.04399,0.0316 -0.06553,0.0478 -0.262324,0.19793 -0.515136,0.40673 -0.721765,0.6312 h 3.173247 c -0.227612,-0.24857 -0.499961,-0.46952 -0.794891,-0.67891 z m -1.203955,1.32494 c -0.03451,0.0947 -0.0594,0.19184 -0.0704,0.29224 -0.0026,0.11635 -0.0071,0.24709 -0.02727,0.38666 h 4.211034 c -0.03028,-0.27096 -0.04496,-0.49962 -0.09759,-0.6789 z" />
  </g>
</svg>
