<svg viewBox="0 0 110.867 65.309" xmlns="http://www.w3.org/2000/svg">
  <defs>
    <linearGradient x1="-2747.735" y1="-584.572" x2="-2075.523" y2="-584.572" gradientUnits="userSpaceOnUse" gradientTransform="matrix(.14945 0 0 .14945 419.833 164.484)" spreadMethod="pad" id="a">
      <stop offset="0"/>
      <stop offset=".183" stop-color="#3a86ff"/>
      <stop offset=".387" stop-color="#8338ec"/>
      <stop offset=".594" stop-color="#ff006e"/>
      <stop offset=".745" stop-color="#fb5607"/>
      <stop offset="1" stop-color="#ffbe0b"/>
    </linearGradient>
  </defs>
  <path d="M54.977 57.882a.812.812 0 0 0-.733.487c-.725 1.462-1.45 2.924-2.172 4.386-1.64.238-3.28.468-4.918.71a.795.795 0 0 0-.654.795c-.005.261.148.495.343.66l3.426 3.353c-.28 1.632-.567 3.265-.844 4.9a.8.8 0 0 0 .567.87c.229.075.471.022.68-.104 1.43-.749 2.858-1.5 4.287-2.248 1.476.777 2.946 1.56 4.422 2.333.386.179.888-.017 1.048-.41.14-.293.017-.614-.022-.915l-.749-4.413c1.185-1.157 2.38-2.307 3.562-3.468a.796.796 0 0 0 .06-1.026c-.154-.216-.42-.314-.677-.334l-4.73-.694c-.734-1.486-1.458-2.974-2.194-4.457a.808.808 0 0 0-.702-.425zm-.003 2.597c.022.046.046.092.068.14.535 1.08 1.06 2.165 1.6 3.243.13.258.406.41.687.432l3.606.528c-.901.88-1.807 1.753-2.704 2.635-.205.205-.262.513-.197.79.205 1.196.408 2.392.612 3.59-1.116-.587-2.225-1.178-3.342-1.761-.26-.131-.576-.086-.819.065l-3.214 1.685c.214-1.24.434-2.48.642-3.721.043-.284-.09-.57-.306-.753-.869-.85-1.737-1.696-2.604-2.545 1.244-.18 2.488-.356 3.732-.541.284-.046.515-.26.622-.522.54-1.088 1.078-2.178 1.617-3.265zm-13.76 4.195v.002c-.884 0-1.626.09-2.26.31-.632.218-1.189.604-1.486 1.176l-.012.03a4.868 4.868 0 0 0-.415 1.258v.028l-.007.028c-.03.334-.043.788-.043 1.393v18.427c0 2.828.347 4.952 1.193 6.438.77 1.37 2.355 2.104 4.472 2.379h.007c1.294.157 2.364.227 3.237.185.873-.04 1.562-.156 2.13-.55v-.009c.493-.345.744-.877.899-1.478.157-.602.222-1.309.222-2.164 0-.797-.06-1.46-.222-2.03-.16-.565-.43-1.074-.915-1.393-.299-.209-.593-.369-.958-.43-.362-.091-.698-.1-1.235-.1-.172 0-.258-.013-.301-.022-.02-.133-.127-.609-.127-1.292V68.933c0-.592-.02-1.04-.078-1.42 0-.007-.007-.012-.007-.017-.041-.453-.196-.9-.436-1.35l-.007-.006c-.307-.555-.844-.939-1.464-1.16-.62-.22-1.338-.307-2.185-.307Zm-16.67.775c-4.114 0-7.759 1.477-10.782 4.365-3.038 2.876-4.587 6.558-4.587 10.854 0 4.29 1.514 8.042 4.487 11.095 2.965 3.02 6.56 4.579 10.609 4.579 4.476 0 7.983-1.174 10.338-3.614.828-.856 1.315-1.866 1.315-2.929v-8.518c0-1.015-.12-1.836-.47-2.515-.253-.538-.724-.936-1.28-1.171-.56-.238-1.21-.352-1.972-.378h-6.844c-.856 0-1.596.122-2.222.434-.528.264-.897.775-1.074 1.338l-.007.02-.006.024c-.129.517-.179 1.126-.179 1.864 0 .71.05 1.31.18 1.822v.016a2.33 2.33 0 0 0 1.02 1.373c.581.358 1.26.428 2.13.428h2.244v2.752c-.914.307-1.877.543-3.016.543-1.744 0-3.26-.66-4.686-2.08l-.006-.008c-1.41-1.436-2.087-3.088-2.087-5.116 0-2.062.657-3.594 2.015-4.815h.006c1.395-1.276 2.912-1.879 4.68-1.879 1.366 0 2.474.315 3.415.944l.007.006h.006c1.133.727 1.928 1.179 2.802 1.179 1.275 0 2.338-.932 3.408-2.386v-.008c.65-.904 1.043-1.764 1.043-2.643 0-.939-.544-1.78-1.37-2.394-2.83-2.1-5.894-3.178-9.12-3.178zm16.67.86c.726 0 1.283.085 1.643.213.36.13.507.265.585.409.166.314.238.563.251.72l.007.029v.036c.037.225.071.65.071 1.223v17.925c0 .975-.032 1.573.343 2.2l.015.015.007.013c.386.58 1.048.716 1.685.716.517 0 .884.05.858.043l.056.013.05.008c-.026-.003.107.03.309.17l.012.01.016.008c.026.016.137.131.235.478.096.347.164.89.164 1.593 0 .77-.063 1.364-.164 1.757-.1.386-.231.53-.257.55 0 .002-.006 0-.006 0-.108.074-.55.229-1.273.264-.727.037-1.722-.02-2.96-.17v.006c-1.855-.24-2.845-.827-3.262-1.572-.599-1.043-.98-2.946-.98-5.637V68.902c0-.56.015-.962.037-1.2.035-.203.118-.476.262-.792l.008-.01c.064-.122.188-.25.557-.38.373-.128.96-.213 1.728-.213zm-16.67.766v.002c2.865 0 5.552.93 8.145 2.856.565.42.72.733.72 1.085 0 .36-.205.947-.742 1.694-.938 1.272-1.711 1.715-2.086 1.715-.105 0-.882-.25-1.908-.908l-.015-.006c-1.225-.814-2.685-1.216-4.306-1.216-2.152 0-4.125.795-5.775 2.3-1.687 1.517-2.552 3.595-2.552 6.024 0 2.41.878 4.555 2.56 6.267 1.67 1.669 3.667 2.564 5.843 2.564 1.508 0 2.892-.247 4.138-.758l.507-.207V82.91H25.2c-.731 0-1.19-.14-1.28-.195a.57.57 0 0 1-.292-.392v-.007c-.078-.312-.129-.797-.129-1.423 0-.646.053-1.132.13-1.442.075-.227.141-.3.226-.343.304-.15.808-.264 1.502-.264h6.78c.634.022 1.11.118 1.4.242.292.124.39.242.45.371l.008.016.007.022c.157.297.293.903.293 1.786v8.518c0 .587-.232 1.159-.85 1.8-1.98 2.05-4.978 3.114-9.175 3.114-3.64 0-6.733-1.326-9.444-4.087-2.706-2.78-4.03-6.043-4.03-9.959 0-3.913 1.343-7.078 4.087-9.675 2.757-2.634 5.928-3.915 9.66-3.915zm57.053.268c-.88 0-1.61.085-2.237.286-.626.2-1.183.548-1.49 1.1v.008l-.01.01a3.91 3.91 0 0 0-.43 1.163l-.006.037v.037c-.03.334-.044.788-.044 1.393v3.044l-2.357-.028h-.009c-.827 0-1.725.02-2.63.035V71.57c0-.943-.048-1.642-.226-2.215l-.009-.016-.006-.013c-.243-.688-.786-1.233-1.465-1.543-.68-.312-1.486-.436-2.438-.436-.877 0-1.613.082-2.237.286-.615.2-1.155.558-1.449 1.115-.231.382-.413.761-.487 1.163v.037l-.006.035c-.031.336-.044.788-.044 1.393v3.066c-2.342-.092-3.027 1.1-3.333 2.11-.17.618-.222 1.406-.222 2.495 0 1.15.164 2.071.728 2.757l.01.015.006.007c.513.58 1.248.936 2.007.936.282 0 .537-.04.808-.057v4.859c0 2.78.79 5.037 2.43 6.558 1.623 1.506 3.873 2.23 6.595 2.23.58 0 1.017-.012 1.35-.043h.03l.028-.01c.405-.067.82-.209 1.257-.414l.013-.006h.007c.58-.29.986-.834 1.215-1.465.23-.63.321-1.37.321-2.243 0-.755-.079-1.4-.271-1.958-.192-.559-.528-1.056-1.036-1.345a3.314 3.314 0 0 0-1.343-.44c-.393-.064-.864-.094-1.495-.094-.434 0-.532-.083-.57-.129-.052-.09-.165-.43-.165-1.028v-4.496l2.695.116h.013c.622 0 1.462-.061 2.288-.116v4.88c0 2.783.79 5.037 2.428 6.561 1.622 1.506 3.866 2.228 6.587 2.228.581 0 1.018-.013 1.351-.043h.035l.029-.007a4.883 4.883 0 0 0 1.257-.414l.008-.01h.01c.578-.29.984-.833 1.213-1.464.229-.631.32-1.369.32-2.241 0-.758-.076-1.41-.277-1.974-.2-.56-.558-1.047-1.071-1.329a3.093 3.093 0 0 0-1.301-.443 9.772 9.772 0 0 0-1.493-.093c-.44 0-.537-.084-.571-.13-.053-.089-.164-.429-.164-1.027v-4.48l1.678.1h.028c.605 0 1.05-.007 1.386-.038l.028-.006h.036c.407-.068.816-.212 1.25-.415l.016-.01.021-.006c.57-.297.95-.844 1.17-1.473.22-.629.308-1.364.308-2.235 0-.884-.087-1.621-.308-2.25-.218-.625-.605-1.168-1.179-1.451-.42-.238-.853-.398-1.298-.437h-.009c-.369-.061-.803-.085-1.385-.085-.411 0-1.107.059-1.744.107v-2.931c0-.937-.055-1.637-.273-2.229 0-.003-.004-.003-.007-.006-.227-.688-.757-1.24-1.43-1.552-.674-.312-1.483-.435-2.433-.435zm0 1.635c.803 0 1.392.122 1.748.286.358.165.495.323.58.587v.012l.007.02c.088.231.185.829.185 1.687v4.688l.886-.087c1.125-.1 1.963-.151 2.48-.151.57 0 .986.03 1.172.066l.037.006.042.01c.157.012.384.078.672.242l.021.016.029.013c.113.054.238.166.364.53.127.362.22.945.22 1.713 0 .755-.09 1.327-.22 1.694-.126.36-.253.491-.38.559 0 0-.004.006-.006.006a3.305 3.305 0 0 1-.794.266c-.227.018-.615.035-1.142.035l-3.38-.207v6.209c0 .777.08 1.414.442 1.958l.014.021.015.016c.432.575 1.15.793 1.886.793.596 0 1.04.026 1.266.063l.028.008h.035c.192.016.4.086.644.236l.021.01.023.012c.102.057.205.158.314.459.106.301.185.785.185 1.42 0 .753-.09 1.323-.222 1.687-.132.363-.271.494-.415.564a3.38 3.38 0 0 1-.799.266c-.24.02-.624.035-1.157.035-2.44 0-4.22-.616-5.489-1.792-1.25-1.163-1.907-2.883-1.907-5.367V80.95l-.88.072c-1.209.1-2.204.157-2.992.157l-4.374-.192v6.194c0 .777.088 1.414.45 1.957l.009.022.015.016c.432.574 1.156.792 1.892.792.598 0 1.034.027 1.257.066l.037.007h.035c.192.016.428.091.707.25.088.049.197.151.301.457.105.306.18.79.18 1.43 0 .752-.09 1.322-.223 1.687-.131.362-.27.493-.415.563-.318.148-.587.229-.792.263-.238.022-.627.038-1.166.038-2.44 0-4.219-.616-5.486-1.794-1.25-1.161-1.908-2.881-1.908-5.365v-6.674l-.936.135a9.92 9.92 0 0 1-1.5.11c-.316 0-.517-.088-.772-.372-.158-.196-.358-.76-.358-1.715 0-1.026.079-1.755.166-2.065l.006-.01v-.007c.105-.391.233-.579.286-.629.253-.2.55-.312 1.008-.314l2.1.264v-4.908c0-.555.017-.948.037-1.185.029-.153.105-.37.27-.636l.016-.024.013-.026c.042-.081.15-.21.522-.33.37-.12.962-.2 1.735-.2l-.003-.002c.804 0 1.397.118 1.764.286.362.166.5.33.594.591.078.258.157.858.157 1.716v4.51l.827-.014c1.207-.026 2.348-.043 3.424-.043l3.994.05v-4.694c0-.555.016-.948.035-1.188.033-.17.107-.395.251-.663l.007-.008c.054-.092.183-.223.559-.343.38-.12.969-.199 1.743-.199zm22.615 5.153c-.792 0-1.61.277-2.486.757-.66.36-1.039.642-1.408.943-.046-.08-.032-.18-.085-.257-.66-1-1.927-1.251-3.572-1.251-.884 0-1.624.08-2.257.3-.635.22-1.19.605-1.487 1.18v.016c-.21.416-.362.825-.43 1.235v.028l-.008.029c-.03.336-.041.788-.041 1.395v14.738l.006.028c.061.888.362 1.69.971 2.222l.015.01.007.012c.78.631 1.853.838 3.186.838.87 0 1.602-.085 2.23-.294.627-.21 1.178-.572 1.494-1.122l.009-.013.007-.008c.237-.443.395-.86.436-1.298.061-.387.087-.845.087-1.445v-8.13c0-.46.151-.78.585-1.144.5-.395.963-.563 1.465-.563.618 0 1.052.103 1.3.227h.01l.012.01a3.99 3.99 0 0 0 1.7.384c1.216 0 2.277-.756 2.86-1.921.53-1.063.822-2.084.822-3.073 0-.92-.187-1.715-.715-2.3a3.3 3.3 0 0 0-1.559-1.072 8.3 8.3 0 0 0-1.449-.327c-.487-.092-1.048-.131-1.7-.131zm-45.095.567c-.413.005-.79.404-.838.821-.027.552-.072 1.135-.401 1.604-.717 1.06-1.85 1.724-2.906 2.396-1.104-.709-2.322-1.4-3.003-2.566-.28-.456-.255-1.002-.32-1.51-.099-.402-.45-.79-.895-.738-.62.09-.856.816-.768 1.364.08 1.65 1.067 3.127 2.358 4.1.226.184.465.352.697.527-1.157.777-2.274 1.75-2.765 3.095-.614 1.556-.256 3.398.811 4.67.53.668 1.24 1.196 1.954 1.696-.971.686-1.908 1.486-2.455 2.534-.435.83-.703 1.794-.566 2.73.099.518.72.952 1.205.614.44-.277.474-.832.484-1.3.116-1.073.998-1.83 1.805-2.44.468-.348.965-.65 1.458-.961 1.105.706 2.323 1.4 3.006 2.566.277.459.253 1.002.319 1.512.093.522.715.96 1.204.625.574-.384.496-1.157.402-1.75-.17-1.081-.712-2.067-1.452-2.835-.465-.492-1.004-.9-1.547-1.295.657-.46 1.32-.954 1.812-1.528 1.113-1.224 1.564-3.04 1.027-4.622-.439-1.41-1.567-2.458-2.76-3.254-.151-.147.34-.297.442-.446 1.262-.92 2.296-2.272 2.495-3.856.092-.572.116-1.32-.456-1.657a.648.648 0 0 0-.347-.096zm45.095 1.055c.587 0 1.06.043 1.401.106h.022l.022.01a7.01 7.01 0 0 1 1.213.277c.354.111.596.277.808.544l.043.043c.127.135.286.513.286 1.229 0 .665-.2 1.445-.65 2.344-.397.796-.757 1.02-1.399 1.02-.34 0-.661-.067-.993-.221-.578-.289-1.253-.393-2.03-.393-.888 0-1.744.325-2.479.908l-.009.01-.007.007c-.74.61-1.187 1.48-1.187 2.408v8.131c0 .57-.026.994-.063 1.22l-.009.03v.028c-.008.117-.083.366-.242.672h-.009c-.07.122-.216.268-.59.392-.38.127-.96.208-1.717.208-1.137 0-1.833-.232-2.143-.478-.21-.19-.373-.49-.415-1.087V78.508c0-.563.015-.963.036-1.201.037-.205.118-.454.263-.75.066-.125.193-.256.566-.387.373-.128.96-.22 1.728-.22 1.445 0 2.106.342 2.222.521l.009.007.009.015c.207.302.174.573.277.814v2.537l1.48-2.065c.095-.135.255-.332.455-.556l.01-.01c.126-.126.623-.478 1.391-.899.727-.4 1.308-.559 1.7-.559zm-52 .019c.039.378.07.679.196.897h5.13c.121-.247.174-.552.202-.897zm.765 1.635c.319.327.697.617 1.1.897h1.79c.404-.28.781-.57 1.103-.897zm1.995 4.48.118.074c1.067.675 2.246 1.323 2.918 2.434.456.836.28 1.945-.4 2.612-.735.826-1.71 1.378-2.636 1.958-1.093-.696-2.308-1.344-3.018-2.472-.478-.84-.306-1.974.382-2.65.735-.823 1.709-1.375 2.636-1.956zm-.956 1.231c-.41.276-.792.566-1.121.897h4.15a7.024 7.024 0 0 0-1.121-.897Zm-1.74 1.86a1.792 1.792 0 0 0-.008.897h5.402a1.78 1.78 0 0 0 .006-.897zm.623 1.86c.325.33.71.617 1.124.896h1.907c.411-.277.793-.567 1.122-.896zm1.015 5.814c-.029.021-.057.04-.086.063-.347.262-.68.537-.953.833h4.19a6.638 6.638 0 0 0-1.05-.896zm-1.59 1.75a1.652 1.652 0 0 0-.093.386c-.004.153-.009.328-.037.51h5.563c-.04-.357-.059-.658-.129-.896z" fill="url(#a)" transform="translate(-9.175 -57.882)"/>
  <path d="M104.492 9.46c-.928 0-1.685.759-1.685 1.686v2.464l1.868-.742a.786.786 0 0 1 .58-.73l.431-2.677zm1.842 0-.447 2.78a.786.786 0 0 1 .355.656l-.002.046 2.406 1.349c.665-.524 1.573.234 1.178.982-.397.748-1.534.425-1.477-.42l-2.399-1.344a.78.78 0 0 1-1.037-.05l-2.103.838v1.539a1.69 1.69 0 0 0 1.684 1.685h4.69a1.69 1.69 0 0 0 1.685-1.685v-4.69c0-.927-.757-1.685-1.684-1.685h-2.85z" fill="#e30613"/>
  <path d="m105.686 9.46-.43 2.681a.781.781 0 0 0-.58.725l-1.869.746v.687l2.104-.84a.78.78 0 0 0 1.037.05l2.399 1.345c-.055.844 1.082 1.167 1.477.417.395-.749-.515-1.504-1.178-.98l-2.406-1.349a.787.787 0 0 0-.353-.703l.447-2.778z" fill="#fff"/>
  <path d="M24.64 49.894c-.405 0-.77-.056-1.093-.168a2.398 2.398 0 0 1-.827-.49 2.248 2.248 0 0 1-.52-.765 2.648 2.648 0 0 1-.18-.997c0-.362.06-.692.18-.99.127-.298.304-.553.53-.765.23-.211.509-.373.836-.485a3.286 3.286 0 0 1 1.113-.174c.468 0 .874.07 1.225.214.354.137.635.332.847.583.216.244.345.537.388.872h-1.087a.904.904 0 0 0-.26-.44 1.288 1.288 0 0 0-.477-.278 1.943 1.943 0 0 0-.636-.098c-.335 0-.624.066-.86.195a1.26 1.26 0 0 0-.53.537c-.122.233-.183.51-.183.829 0 .255.035.478.105.672a1.4 1.4 0 0 0 .31.493c.14.13.303.23.493.297.19.07.404.105.64.105.325 0 .595-.05.816-.151.22-.098.386-.237.497-.42.118-.185.175-.402.175-.653v-.13l.312.304H24.57v-.692h2.648v.376c0 .362-.068.682-.2.964a1.92 1.92 0 0 1-.55.692 2.543 2.543 0 0 1-.824.421c-.31.094-.646.142-1.004.142zm3.027-.058v-3.462h1.035v3.462zm0-3.916v-.803h1.035v.803zm2.967 3.916c-.19 0-.356-.029-.498-.09a.701.701 0 0 1-.323-.28.908.908 0 0 1-.111-.47v-1.838h-.653v-.784h.653v-.893l1.023-.194v1.087h.867v.784h-.867v1.508c0 .11.027.187.076.224.057.04.142.06.254.06h.537v.886zm2.62 0v-3.462h.94l.036.557h.04a.927.927 0 0 1 .355-.441c.168-.112.367-.168.596-.168.061 0 .116.002.162.006.048.004.092.01.13.012v.939a.902.902 0 0 0-.156-.026 2.059 2.059 0 0 0-.162-.006 1.09 1.09 0 0 0-.471.096.691.691 0 0 0-.317.292 1.115 1.115 0 0 0-.118.524v1.676zm4.379.058c-.424 0-.79-.072-1.103-.214a1.683 1.683 0 0 1-.717-.608c-.169-.262-.251-.579-.251-.95 0-.38.085-.705.257-.971.173-.268.413-.474.718-.615a2.48 2.48 0 0 1 1.076-.221c.439 0 .81.081 1.113.24.306.155.535.384.686.685.155.299.218.66.188 1.08h-2.997a.87.87 0 0 0 .135.468c.087.128.208.229.362.296.157.07.343.105.557.105.242 0 .45-.041.622-.122.172-.087.284-.197.33-.332h.984c-.03.23-.135.433-.317.61a1.743 1.743 0 0 1-.694.407 2.97 2.97 0 0 1-.95.142zm-1.057-2.09-.039-.053h2.085l-.05.052a.766.766 0 0 0-.125-.414.671.671 0 0 0-.323-.27 1.196 1.196 0 0 0-.517-.099c-.199 0-.371.033-.52.098a.878.878 0 0 0-.349.264.914.914 0 0 0-.162.421zm3.434 3.114v-4.544h.977l.04.563h.037c.104-.186.266-.334.487-.447.22-.112.497-.168.833-.168.256 0 .487.04.694.122.207.083.385.2.53.358.151.155.267.342.35.563.083.218.122.467.122.744 0 .362-.07.677-.214.945-.142.266-.34.476-.593.626-.256.146-.555.22-.902.22a1.673 1.673 0 0 1-.989-.297 1.076 1.076 0 0 1-.298-.343h-.04v1.658zm2.058-1.807c.194 0 .362-.04.504-.116a.868.868 0 0 0 .345-.35 1.13 1.13 0 0 0 .122-.536c0-.216-.041-.397-.122-.546a.8.8 0 0 0-.338-.336 1.088 1.088 0 0 0-.511-.115c-.216 0-.402.041-.557.122a.85.85 0 0 0-.35.323.876.876 0 0 0-.117.447v.182c0 .124.022.246.066.362a.963.963 0 0 0 .2.299c.092.08.2.146.323.194.127.046.271.07.435.07zm4.345.79c-.31 0-.594-.04-.847-.116-.25-.083-.47-.2-.655-.356a1.647 1.647 0 0 1-.42-.563 1.88 1.88 0 0 1-.149-.757c0-.375.087-.698.26-.965.172-.268.412-.473.724-.615.31-.142.673-.214 1.087-.214.314 0 .598.041.849.122.254.078.471.194.652.352.186.154.328.344.428.569.099.218.15.47.15.75 0 .372-.089.693-.26.964a1.648 1.648 0 0 1-.725.615c-.306.142-.67.214-1.094.214zm0-.803c.22 0 .408-.04.563-.116a.842.842 0 0 0 .356-.349 1.07 1.07 0 0 0 .122-.524c0-.157-.022-.295-.07-.415a.865.865 0 0 0-.53-.517 1.27 1.27 0 0 0-.44-.072c-.217 0-.403.041-.557.122a.848.848 0 0 0-.35.35 1.066 1.066 0 0 0-.122.53c0 .153.022.29.07.414a.927.927 0 0 0 .2.313c.092.085.2.152.324.2.13.042.275.064.434.064zm4.101.803c-.587 0-1.037-.103-1.353-.31-.31-.212-.476-.495-.498-.849h1.018a.494.494 0 0 0 .237.395c.149.092.358.135.629.135.242 0 .43-.03.563-.096.137-.07.207-.17.207-.306 0-.106-.026-.187-.078-.237-.05-.057-.14-.096-.264-.118a5.692 5.692 0 0 0-.518-.07 6.514 6.514 0 0 1-.77-.118 1.793 1.793 0 0 1-.52-.187.778.778 0 0 1-.297-.29.96.96 0 0 1-.091-.435c0-.225.07-.419.207-.583.14-.168.339-.296.596-.388.264-.09.579-.136.945-.136.336 0 .629.044.876.13.244.086.438.211.58.375.148.163.231.364.253.602h-.984a.445.445 0 0 0-.116-.264.57.57 0 0 0-.253-.164 1.212 1.212 0 0 0-.363-.05c-.215 0-.392.033-.53.096-.133.062-.2.16-.2.299 0 .09.028.161.084.212.06.048.156.085.284.112.133.025.306.05.518.071a5.5 5.5 0 0 1 .77.11c.216.043.388.104.52.187.133.079.229.18.29.304.06.126.09.283.09.473 0 .332-.151.6-.453.803-.299.199-.757.297-1.379.297zm2.192-.066v-3.46h1.034v3.46zm0-3.915v-.803h1.034v.803zm2.965 3.915c-.19 0-.355-.028-.497-.089a.704.704 0 0 1-.325-.28.93.93 0 0 1-.11-.47v-1.838h-.655v-.784h.655v-.893l1.024-.194v1.087h.866v.784h-.866v1.507c0 .112.024.188.076.225.057.04.14.06.254.06h.536v.885zm3.191.066c-.31 0-.591-.04-.846-.116a1.96 1.96 0 0 1-.655-.356 1.6 1.6 0 0 1-.42-.563c-.1-.225-.15-.478-.15-.757 0-.375.087-.698.26-.965a1.66 1.66 0 0 1 .724-.615 2.601 2.601 0 0 1 1.087-.214c.317 0 .598.041.85.122.255.078.47.194.652.352.185.154.33.344.427.569.101.218.149.47.149.75 0 .372-.085.693-.258.964a1.66 1.66 0 0 1-.724.615c-.308.142-.672.214-1.096.214zm0-.803c.22 0 .409-.04.563-.116a.834.834 0 0 0 .356-.349c.083-.15.124-.327.124-.524 0-.157-.024-.295-.072-.415a.831.831 0 0 0-.207-.318.851.851 0 0 0-.323-.199 1.252 1.252 0 0 0-.44-.072c-.215 0-.4.041-.557.122a.865.865 0 0 0-.35.35c-.08.148-.122.325-.122.53 0 .153.024.29.07.414a.92.92 0 0 0 .201.313.986.986 0 0 0 .325.2c.129.042.273.064.432.064zm2.488.737v-3.46h.939l.039.556h.04a.918.918 0 0 1 .355-.441c.168-.112.367-.168.596-.168.059 0 .113 0 .162.006.048.004.089.01.128.012v.939a.885.885 0 0 0-.155-.026 2.101 2.101 0 0 0-.161-.006c-.181 0-.339.033-.474.096a.702.702 0 0 0-.316.292 1.152 1.152 0 0 0-.116.524v1.676zm2.593 0v-3.46h1.034v3.46zm0-3.915v-.803h1.034v.803zm3.516 3.974c-.423 0-.79-.072-1.1-.214a1.667 1.667 0 0 1-.718-.608c-.168-.262-.253-.579-.253-.95 0-.38.087-.705.26-.971.172-.268.41-.474.718-.615a2.46 2.46 0 0 1 1.074-.221c.44 0 .811.081 1.113.24.307.155.534.384.687.685.155.299.216.66.188 1.08h-3c.005.182.051.339.138.468.086.128.208.229.363.296.155.07.34.105.556.105.242 0 .448-.041.622-.122.173-.087.282-.197.33-.332h.984c-.03.23-.137.433-.319.61a1.749 1.749 0 0 1-.691.407 2.994 2.994 0 0 1-.952.142zm-1.054-2.09-.04-.053h2.085l-.052.052a.784.784 0 0 0-.123-.414.677.677 0 0 0-.325-.27 1.196 1.196 0 0 0-.517-.099c-.198 0-.371.033-.517.098a.86.86 0 0 0-.35.264.89.89 0 0 0-.161.421zM71.45 49.9c-.587 0-1.039-.103-1.353-.31-.31-.212-.476-.495-.498-.849h1.015a.497.497 0 0 0 .24.395c.147.092.356.135.629.135.24 0 .428-.03.563-.096.137-.07.207-.17.207-.306 0-.106-.026-.187-.079-.237-.052-.057-.14-.096-.266-.118a5.499 5.499 0 0 0-.517-.07 6.588 6.588 0 0 1-.77-.118 1.763 1.763 0 0 1-.518-.187.76.76 0 0 1-.296-.29.96.96 0 0 1-.092-.435c0-.225.07-.419.207-.583.138-.168.337-.296.596-.388.262-.09.579-.136.945-.136.336 0 .626.044.873.13.247.086.44.211.583.375.146.163.23.364.253.602h-.984a.45.45 0 0 0-.118-.264.566.566 0 0 0-.251-.164 1.225 1.225 0 0 0-.363-.05c-.216 0-.392.033-.53.096-.135.062-.2.16-.2.299 0 .09.025.161.082.212.061.048.155.085.286.112.133.025.306.05.517.071.302.024.559.062.77.11.217.043.39.104.518.187a.724.724 0 0 1 .293.304c.058.126.09.283.09.473 0 .332-.152.6-.455.803-.297.199-.757.297-1.377.297zm4.18-.066-1.004-3.46h.984l.711 2.58h.04l.665-2.58h1.024l.653 2.594h.026l.724-2.595h.945l-1.014 3.461h-1.251l-.62-2.302h-.04l-.615 2.302zm5.017 0v-3.46h1.037v3.46zm0-3.915v-.803h1.037v.803zm2.968 3.915c-.19 0-.358-.028-.5-.089a.712.712 0 0 1-.323-.28.908.908 0 0 1-.109-.47v-1.838h-.654v-.784h.654v-.893l1.022-.194v1.087h.866v.784h-.866v1.507c0 .112.026.188.079.225.054.04.14.06.25.06h.537v.885zm1.312 0v-4.718h1.034v1.877h.053c.111-.21.286-.378.523-.498.239-.12.496-.181.778-.181.224 0 .428.028.609.085.185.055.342.146.471.27.133.127.238.293.312.5.072.206.109.461.109.762v1.903h-1.043v-1.722c0-.214-.026-.397-.083-.55a.641.641 0 0 0-.26-.342c-.115-.077-.272-.116-.471-.116-.203 0-.38.043-.53.129a.912.912 0 0 0-.345.355 1.09 1.09 0 0 0-.123.524v1.722zM14.313 57.09c-.424 0-.79-.07-1.1-.214a1.685 1.685 0 0 1-.718-.607c-.168-.264-.253-.58-.253-.951 0-.38.087-.705.26-.971.172-.269.412-.474.717-.616.306-.146.666-.22 1.074-.22.441 0 .812.08 1.113.24a1.5 1.5 0 0 1 .688.685c.155.299.218.66.187 1.083h-2.996a.848.848 0 0 0 .135.465c.087.128.207.229.363.299.154.067.34.102.556.102.242 0 .45-.041.622-.122.173-.087.282-.197.33-.332h.984c-.03.23-.136.432-.319.61a1.714 1.714 0 0 1-.692.407c-.279.094-.597.142-.951.142zM13.259 55l-.04-.051h2.084l-.052.05a.772.772 0 0 0-.122-.412.678.678 0 0 0-.323-.273 1.221 1.221 0 0 0-.52-.098c-.198 0-.37.032-.517.098a.867.867 0 0 0-.349.266.872.872 0 0 0-.161.42zm4.997 2.097a1.94 1.94 0 0 1-.698-.123 1.547 1.547 0 0 1-.543-.362c-.151-.16-.269-.35-.35-.57a2.076 2.076 0 0 1-.122-.737c0-.367.07-.686.212-.952.149-.269.351-.476.609-.622.26-.15.559-.227.899-.227.194 0 .373.026.537.079.17.048.316.12.44.22.13.094.23.21.3.343h.043v-1.832h1.044v4.72h-.998l-.026-.57h-.04a1.168 1.168 0 0 1-.484.458c-.216.115-.489.174-.823.174zm.32-.79c.207 0 .385-.038.536-.116a.822.822 0 0 0 .343-.323.945.945 0 0 0 .122-.48v-.168a.99.99 0 0 0-.07-.376.802.802 0 0 0-.513-.478 1.263 1.263 0 0 0-.419-.065c-.203 0-.377.039-.526.115a.831.831 0 0 0-.342.345 1.163 1.163 0 0 0-.116.544c0 .207.039.386.116.537.082.15.196.266.342.349.149.078.323.115.526.115zm4.072.783c-.301 0-.566-.05-.79-.148a1.156 1.156 0 0 1-.53-.51c-.125-.239-.188-.556-.188-.953v-1.91h1.043v1.722c0 .217.024.4.076.55.057.151.144.264.267.343.12.079.277.116.471.116.203 0 .378-.04.524-.123a.885.885 0 0 0 .351-.355 1.13 1.13 0 0 0 .122-.53v-1.723h1.041v3.464h-1.001l-.04-.622h-.052c-.107.212-.28.378-.517.498a1.666 1.666 0 0 1-.777.18zm4.778 0c-.31 0-.592-.041-.843-.123a1.786 1.786 0 0 1-.633-.362 1.645 1.645 0 0 1-.402-.569 1.96 1.96 0 0 1-.135-.745c0-.37.085-.69.258-.951a1.66 1.66 0 0 1 .724-.615 2.587 2.587 0 0 1 1.083-.214c.375 0 .702.057.982.168.286.109.51.262.674.46.164.199.255.432.27.699h-1.027a.612.612 0 0 0-.168-.291.816.816 0 0 0-.312-.181 1.258 1.258 0 0 0-.42-.065c-.215 0-.4.043-.556.128a.846.846 0 0 0-.35.35c-.077.148-.117.32-.117.519 0 .212.041.393.122.544.083.15.199.263.352.342.15.074.332.109.543.109.15 0 .288-.022.415-.063a.885.885 0 0 0 .323-.188.725.725 0 0 0 .18-.306h1.036a1.17 1.17 0 0 1-.31.725c-.186.203-.426.36-.718.467-.29.107-.614.162-.971.162zm3.956.006a1.93 1.93 0 0 1-.698-.123 1.6 1.6 0 0 1-.537-.362 1.638 1.638 0 0 1-.351-.57 2.127 2.127 0 0 1-.123-.737 2 2 0 0 1 .214-.952c.142-.268.34-.473.596-.615a1.78 1.78 0 0 1 .893-.22c.229 0 .427.026.595.078.173.048.32.118.441.214.12.09.214.199.284.323h.04l.032-.563h.989v3.462h-1.041v-.575h-.046c-.103.192-.273.35-.511.465a1.723 1.723 0 0 1-.777.175zm.317-.79c.211 0 .392-.04.543-.123a.898.898 0 0 0 .467-.802v-.182a.843.843 0 0 0-.122-.445.807.807 0 0 0-.345-.326 1.141 1.141 0 0 0-.543-.121c-.195 0-.365.039-.511.115a.776.776 0 0 0-.343.338 1.085 1.085 0 0 0-.122.544c0 .207.037.386.116.537a.88.88 0 0 0 .342.35c.147.077.319.115.518.115zm4.007.724c-.19 0-.356-.028-.498-.089a.7.7 0 0 1-.323-.28.908.908 0 0 1-.111-.47v-1.838h-.653v-.784h.653v-.893l1.023-.194v1.087h.867v.784h-.867v1.508c0 .11.027.187.077.224.056.04.142.06.253.06h.537v.885zm1.312 0V53.57h1.036v3.461zm0-3.915v-.801h1.036v.801zm3.517 3.98c-.311 0-.593-.038-.848-.115a1.987 1.987 0 0 1-.653-.356 1.62 1.62 0 0 1-.421-.563 1.835 1.835 0 0 1-.149-.757c0-.375.086-.698.258-.965a1.66 1.66 0 0 1 .724-.615 2.606 2.606 0 0 1 1.09-.214c.314 0 .596.041.846.125.256.076.474.194.655.349.186.155.328.345.426.57.1.218.15.469.15.75 0 .371-.087.692-.26.965a1.665 1.665 0 0 1-.724.613c-.307.142-.672.214-1.094.214zm0-.803c.221 0 .409-.036.564-.115a.855.855 0 0 0 .356-.35c.08-.15.122-.325.122-.523 0-.157-.024-.294-.07-.414a.845.845 0 0 0-.207-.317.853.853 0 0 0-.325-.2 1.254 1.254 0 0 0-.44-.073c-.215 0-.4.041-.556.123a.842.842 0 0 0-.35.349 1.075 1.075 0 0 0-.123.532c0 .15.024.289.072.413a.885.885 0 0 0 .2.312c.09.085.199.152.323.2.13.042.275.064.434.064zm2.489.738V53.57h1.001l.033.622h.053c.115-.22.292-.389.53-.507.242-.115.498-.174.77-.174.225 0 .428.028.61.085.185.055.342.146.471.27.133.127.237.293.31.5.074.208.11.46.11.764v1.901H45.87v-1.72c0-.216-.027-.399-.083-.55a.638.638 0 0 0-.26-.344c-.116-.08-.273-.123-.472-.123-.202 0-.379.046-.53.135a.918.918 0 0 0-.344.356 1.106 1.106 0 0 0-.123.527v1.72zm5.95.066c-.256 0-.487-.041-.7-.123a1.611 1.611 0 0 1-.536-.362 1.617 1.617 0 0 1-.35-.57 2.088 2.088 0 0 1-.124-.737 2 2 0 0 1 .214-.952c.142-.268.34-.473.596-.615.258-.147.557-.22.893-.22.229 0 .428.026.596.078.172.048.318.118.44.214.12.09.214.199.284.323h.04l.032-.563h.989v3.462h-1.041v-.575h-.046c-.103.195-.273.35-.51.465a1.724 1.724 0 0 1-.778.175zm.316-.79c.211 0 .392-.04.543-.123a.894.894 0 0 0 .467-.802v-.182a.838.838 0 0 0-.122-.445.804.804 0 0 0-.345-.326 1.141 1.141 0 0 0-.543-.121c-.194 0-.365.039-.511.115a.782.782 0 0 0-.343.338 1.091 1.091 0 0 0-.122.544c0 .207.037.386.116.537.083.15.196.266.343.35.146.077.318.115.517.115zm2.612.725v-4.717h1.035v4.717zm2.885 0v-3.462h.995l.04.603h.053c.11-.217.275-.38.49-.494.216-.111.463-.168.738-.168.304 0 .561.065.777.194.216.131.37.321.467.576h.057c.135-.27.318-.467.55-.589.233-.12.502-.181.803-.181.297 0 .552.058.764.174a1.1 1.1 0 0 1 .491.527c.118.23.174.532.174.899v1.92h-1.04v-1.785c0-.194-.025-.36-.073-.497a.606.606 0 0 0-.224-.332c-.11-.08-.26-.123-.454-.123a.906.906 0 0 0-.478.123.793.793 0 0 0-.312.332 1.086 1.086 0 0 0-.103.484v1.799h-1.037v-1.766c0-.203-.024-.376-.07-.517a.639.639 0 0 0-.24-.339.775.775 0 0 0-.44-.116.92.92 0 0 0-.485.123.871.871 0 0 0-.306.338 1.07 1.07 0 0 0-.102.478v1.799zm8.462.065c-.255 0-.489-.041-.7-.123a1.606 1.606 0 0 1-.537-.362c-.151-.159-.267-.349-.35-.57a2.127 2.127 0 0 1-.122-.737c0-.366.07-.686.214-.951.142-.27.34-.474.593-.616.26-.147.557-.22.896-.22.226 0 .425.026.593.078.175.048.321.118.441.214.122.09.216.199.286.323h.037l.033-.563h.99v3.464h-1.04v-.577h-.046c-.105.195-.275.35-.513.465-.232.116-.49.175-.775.175zm.316-.79c.212 0 .393-.04.544-.123a.911.911 0 0 0 .467-.803V55.2a.82.82 0 0 0-.124-.445.802.802 0 0 0-.343-.325 1.141 1.141 0 0 0-.544-.122c-.194 0-.364.039-.51.115a.78.78 0 0 0-.345.338 1.11 1.11 0 0 0-.122.544c0 .207.039.386.118.537.08.15.194.266.342.35.146.077.32.115.517.115zm4.008.727c-.19 0-.356-.03-.5-.092a.712.712 0 0 1-.323-.28.93.93 0 0 1-.11-.47v-1.838h-.654v-.784h.655v-.893l1.021-.194v1.087h.869v.784h-.869v1.508c0 .11.026.187.079.226.056.038.14.057.253.057h.537v.889zm3.19.056c-.423 0-.79-.07-1.1-.214a1.688 1.688 0 0 1-.718-.607c-.168-.263-.253-.58-.253-.951 0-.38.087-.705.26-.971.172-.268.412-.474.718-.616.306-.146.663-.22 1.074-.22.44 0 .812.08 1.113.24.308.155.535.384.687.685.155.3.216.66.188 1.083h-2.997a.848.848 0 0 0 .136.465c.085.128.207.229.362.299.155.067.34.102.557.102.242 0 .45-.041.622-.122.172-.087.281-.196.33-.332h.984c-.031.23-.138.432-.32.61a1.714 1.714 0 0 1-.691.407c-.28.097-.598.142-.952.142zM69.71 55l-.039-.05h2.084l-.052.05a.77.77 0 0 0-.122-.413.673.673 0 0 0-.325-.273 1.205 1.205 0 0 0-.518-.096c-.198 0-.37.03-.517.096a.852.852 0 0 0-.35.266.872.872 0 0 0-.16.42zm3.434 2.034v-3.464h.938l.037.557h.04a.936.936 0 0 1 .355-.442c.168-.11.367-.167.596-.167.061 0 .113 0 .161.006.048.004.092.01.131.012v.939a.847.847 0 0 0-.157-.026 2.038 2.038 0 0 0-.162-.006c-.18 0-.338.033-.47.098a.681.681 0 0 0-.32.29c-.072.133-.11.31-.115.524v1.676zm2.59 0v-3.464h1.035v3.464zm0-3.918v-.801h1.035v.801zm3.154 3.98a1.94 1.94 0 0 1-.699-.122 1.611 1.611 0 0 1-.537-.362 1.65 1.65 0 0 1-.349-.57 2.088 2.088 0 0 1-.124-.737 2 2 0 0 1 .214-.952c.142-.268.34-.473.596-.615.259-.147.556-.22.892-.22.23 0 .428.026.596.078.172.048.319.118.441.214.12.09.216.199.284.323h.039l.032-.563h.992v3.464H80.22v-.577h-.045c-.103.195-.274.35-.511.465a1.724 1.724 0 0 1-.777.175zm.318-.79c.21 0 .391-.038.544-.122a.9.9 0 0 0 .465-.802v-.182a.838.838 0 0 0-.123-.445.808.808 0 0 0-.342-.326 1.152 1.152 0 0 0-.544-.121c-.194 0-.366.039-.513.115a.79.79 0 0 0-.342.338c-.08.147-.123.328-.123.544 0 .207.04.386.116.537.083.15.197.266.343.35.148.077.32.115.52.115zm2.61.728v-4.72h1.035v4.72zm3.196.063c-.587 0-1.039-.103-1.353-.31-.31-.212-.476-.495-.498-.849h1.015a.496.496 0 0 0 .24.395c.146.092.356.138.629.138.24 0 .427-.033.563-.099.137-.07.205-.17.205-.303 0-.109-.024-.188-.076-.24-.053-.057-.14-.096-.267-.116a4.827 4.827 0 0 0-.517-.072 6.97 6.97 0 0 1-.77-.116 1.878 1.878 0 0 1-.518-.187.781.781 0 0 1-.296-.292.942.942 0 0 1-.092-.435c0-.223.07-.416.207-.58.138-.17.336-.3.596-.389a2.88 2.88 0 0 1 .945-.137c.336 0 .626.043.873.13.246.086.44.21.583.376.146.163.231.365.253.6h-.985a.447.447 0 0 0-.117-.264.539.539 0 0 0-.251-.161 1.134 1.134 0 0 0-.362-.053c-.217 0-.393.033-.531.096-.135.061-.2.162-.2.3 0 .088.026.16.083.213.06.046.154.083.285.11.134.025.306.05.517.071.302.026.56.062.77.11.217.043.39.106.518.187a.695.695 0 0 1 .29.305c.062.125.092.282.092.472 0 .332-.15.6-.454.803-.296.199-.757.297-1.377.297zm3.843-.063v-2.68h-.615v-.785h.615v-.246c0-.35.107-.604.323-.764.217-.163.53-.244.945-.244h.616v.678h-.454c-.129 0-.227.031-.29.092-.066.055-.099.146-.099.271v.213h.784v.784h-.784v2.68zm3.924.063c-.311 0-.593-.04-.848-.116-.251-.083-.467-.2-.653-.356a1.58 1.58 0 0 1-.421-.563 1.835 1.835 0 0 1-.149-.757c0-.375.086-.698.258-.965a1.66 1.66 0 0 1 .724-.615 2.606 2.606 0 0 1 1.09-.214c.314 0 .595.041.846.125.256.076.474.194.655.349.186.155.328.345.426.57.1.22.15.469.15.75 0 .371-.087.692-.26.965a1.665 1.665 0 0 1-.724.613c-.308.144-.672.214-1.094.214zm0-.803c.219 0 .407-.037.564-.116a.844.844 0 0 0 .355-.35c.08-.15.123-.324.123-.523 0-.155-.024-.294-.072-.414a.826.826 0 0 0-.206-.317.845.845 0 0 0-.325-.2 1.248 1.248 0 0 0-.439-.073c-.215 0-.4.042-.556.123a.852.852 0 0 0-.352.351c-.08.146-.121.323-.121.53 0 .15.024.289.071.415.046.12.114.223.201.31.09.085.199.152.323.2.129.044.273.064.434.064zm2.488.74v-3.464h.939l.037.557h.04a.936.936 0 0 1 .355-.442c.168-.11.367-.167.596-.167.06 0 .113 0 .161.006.049.004.092.01.129.012v.94a.794.794 0 0 0-.155-.027 2.049 2.049 0 0 0-.161-.006c-.181 0-.338.033-.472.098a.682.682 0 0 0-.318.29c-.072.134-.111.31-.116.524v1.676zM3.771 64.23c-.19 0-.355-.031-.5-.092a.719.719 0 0 1-.323-.278.941.941 0 0 1-.109-.473v-1.838h-.654v-.784h.654v-.892l1.022-.195v1.087h.868v.784h-.868v1.508c0 .111.026.188.078.227a.46.46 0 0 0 .254.057h.536v.888zm1.312 0v-4.72h1.034v1.878h.053c.111-.212.288-.378.524-.5.238-.12.497-.182.777-.182.224 0 .427.029.609.085.185.057.342.147.47.271.136.127.239.293.313.5.072.207.109.46.109.764v1.903h-1.04v-1.722c0-.216-.03-.4-.086-.55a.636.636 0 0 0-.26-.343c-.115-.078-.273-.117-.471-.117-.203 0-.38.043-.53.128a.909.909 0 0 0-.343.358c-.083.15-.125.325-.125.524v1.722zm6.312.056c-.422 0-.788-.07-1.1-.214a1.691 1.691 0 0 1-.718-.607c-.169-.264-.254-.58-.254-.952 0-.379.088-.703.26-.97.173-.27.413-.474.718-.616.308-.146.666-.22 1.076-.22.439 0 .81.08 1.113.24.306.154.535.384.686.685.155.299.218.659.188 1.083h-2.997c.004.18.05.335.135.464.088.131.208.23.362.3.155.067.34.101.557.101.242 0 .45-.04.622-.121.172-.088.281-.197.33-.332h.984c-.03.229-.135.432-.317.609a1.723 1.723 0 0 1-.694.408c-.28.096-.595.141-.951.141zm-1.055-2.091-.039-.05h2.085l-.053.05a.751.751 0 0 0-.122-.412.678.678 0 0 0-.323-.274 1.211 1.211 0 0 0-.517-.096c-.199 0-.371.03-.52.096a.875.875 0 0 0-.35.267.895.895 0 0 0-.16.419zm6.587 2.09c-.31 0-.591-.038-.84-.122a1.777 1.777 0 0 1-.635-.362 1.672 1.672 0 0 1-.402-.57 1.998 1.998 0 0 1-.135-.744c0-.371.085-.687.26-.951.172-.269.412-.474.725-.616a2.57 2.57 0 0 1 1.08-.214c.375 0 .703.057.984.169.284.109.509.261.672.46.164.198.256.432.273.698h-1.03a.594.594 0 0 0-.168-.29.854.854 0 0 0-.31-.181 1.284 1.284 0 0 0-.421-.066c-.216 0-.402.044-.557.129a.854.854 0 0 0-.349.351 1.077 1.077 0 0 0-.118.518c0 .211.041.392.125.543.08.15.198.266.349.343.15.074.332.111.543.111.15 0 .288-.022.415-.065a.87.87 0 0 0 .323-.188.702.702 0 0 0 .181-.306h1.036a1.183 1.183 0 0 1-.311.727 1.783 1.783 0 0 1-.718.465 2.737 2.737 0 0 1-.972.161zm4.32.007c-.31 0-.592-.04-.847-.116a1.986 1.986 0 0 1-.655-.356 1.574 1.574 0 0 1-.42-.563c-.1-.225-.15-.478-.15-.757 0-.376.088-.699.26-.965.172-.268.415-.473.725-.615.31-.142.674-.214 1.087-.214.316 0 .597.041.848.124.254.076.472.194.653.35.185.154.33.344.428.569.1.22.149.47.149.75 0 .372-.086.693-.258.965a1.668 1.668 0 0 1-.725.614c-.308.144-.672.214-1.095.214zm0-.802c.22 0 .407-.039.563-.117a.816.816 0 0 0 .355-.35c.083-.15.125-.325.125-.523 0-.155-.024-.295-.072-.415a.836.836 0 0 0-.208-.316.84.84 0 0 0-.323-.201 1.261 1.261 0 0 0-.44-.072 1.19 1.19 0 0 0-.557.122.854.854 0 0 0-.35.352 1.078 1.078 0 0 0-.121.53c0 .15.024.288.07.412a.933.933 0 0 0 .2.313.994.994 0 0 0 .326.2c.128.044.272.063.432.063zm2.488.739v-3.465h.997l.04.603h.05c.113-.216.276-.38.493-.493a1.58 1.58 0 0 1 .737-.168c.302 0 .561.065.777.194.217.13.371.323.465.576h.06a1.27 1.27 0 0 1 .55-.59c.233-.12.5-.18.802-.18.297 0 .553.058.764.174.216.113.38.288.492.526.115.232.174.533.174.9v1.923h-1.041V62.44c0-.194-.024-.36-.072-.498a.604.604 0 0 0-.227-.33c-.107-.083-.257-.124-.452-.124a.894.894 0 0 0-.48.125.793.793 0 0 0-.31.33c-.07.137-.105.298-.105.484v1.8h-1.034v-1.767c0-.204-.024-.376-.072-.518a.621.621 0 0 0-.238-.336.759.759 0 0 0-.441-.118.913.913 0 0 0-.485.123.852.852 0 0 0-.305.338 1.074 1.074 0 0 0-.102.478v1.8zm6.953 1.08v-4.545h.978l.04.564h.038c.103-.186.265-.334.485-.448.22-.111.498-.168.836-.168.253 0 .484.042.692.124.207.082.384.202.53.356.15.155.268.343.35.564a2.1 2.1 0 0 1 .123.744c0 .362-.071.676-.213.945-.142.266-.34.476-.596.626-.255.148-.554.22-.9.22-.19 0-.37-.026-.543-.076a1.774 1.774 0 0 1-.447-.22 1.088 1.088 0 0 1-.297-.343h-.04v1.656zm2.058-1.807c.195 0 .362-.038.506-.116a.88.88 0 0 0 .343-.35c.081-.15.122-.329.122-.536a1.11 1.11 0 0 0-.122-.544.794.794 0 0 0-.336-.338 1.103 1.103 0 0 0-.513-.115c-.214 0-.4.04-.556.121a.85.85 0 0 0-.35.326.879.879 0 0 0-.115.445v.181c0 .127.022.247.063.363a.955.955 0 0 0 .201.298c.092.082.199.147.325.195.124.048.269.07.432.07zm3.857.783c-.304 0-.565-.048-.79-.148a1.132 1.132 0 0 1-.53-.511c-.125-.238-.188-.555-.188-.952v-1.91h1.04v1.722c0 .217.027.4.08.55.056.151.143.267.266.343.12.079.277.118.47.118.204 0 .378-.041.525-.125a.886.886 0 0 0 .349-.355c.083-.155.124-.332.124-.53v-1.723h1.042v3.464h-1.002l-.04-.622h-.052a1.136 1.136 0 0 1-.517.498 1.674 1.674 0 0 1-.777.18zm4.33-.056c-.19 0-.356-.031-.498-.092a.71.71 0 0 1-.325-.278.941.941 0 0 1-.11-.473v-1.838h-.654v-.784H40v-.892l1.023-.194v1.086h.867v.784h-.867v1.508c0 .111.024.188.077.227a.46.46 0 0 0 .253.057h.537v.888zm2.828.063c-.253 0-.486-.042-.698-.123a1.606 1.606 0 0 1-.537-.362c-.15-.16-.269-.349-.349-.57a2.076 2.076 0 0 1-.125-.737 2 2 0 0 1 .214-.952c.142-.268.34-.473.596-.615.26-.147.557-.22.893-.22.229 0 .428.025.595.078.173.048.32.118.442.214.12.09.215.199.283.323h.04l.032-.563h.991v3.464h-1.043v-.577h-.046c-.102.195-.273.35-.51.465-.234.118-.491.175-.777.175zm.319-.79c.21 0 .39-.04.544-.123a.889.889 0 0 0 .342-.336.928.928 0 0 0 .122-.467v-.181a.842.842 0 0 0-.122-.445.813.813 0 0 0-.342-.326 1.154 1.154 0 0 0-.544-.121c-.194 0-.367.039-.513.117a.78.78 0 0 0-.342.336 1.11 1.11 0 0 0-.123.544c0 .207.04.386.116.537.083.15.197.268.342.349.149.078.322.118.52.118zm4.005.727c-.19 0-.356-.031-.498-.092a.707.707 0 0 1-.323-.278.924.924 0 0 1-.111-.473v-1.838H46.5v-.784h.653v-.892l1.024-.194v1.086h.866v.784h-.866v1.508c0 .111.026.188.076.227a.464.464 0 0 0 .253.057h.537v.888zm1.312 0v-3.464h1.036v3.464zm0-3.918v-.801h1.036v.8zm3.518 3.98c-.31 0-.594-.038-.85-.115a1.998 1.998 0 0 1-.652-.356 1.606 1.606 0 0 1-.421-.563 1.872 1.872 0 0 1-.148-.757c0-.376.085-.698.26-.965.172-.268.412-.473.724-.615a2.59 2.59 0 0 1 1.087-.214c.314 0 .598.041.847.125.255.076.473.193.654.349.186.154.328.344.428.57.099.22.148.468.148.75 0 .371-.087.692-.259.964a1.671 1.671 0 0 1-.725.614c-.305.144-.67.214-1.093.214zm0-.8c.22 0 .408-.04.563-.118a.838.838 0 0 0 .356-.35c.083-.15.122-.325.122-.523 0-.155-.024-.295-.07-.415a.886.886 0 0 0-.53-.517 1.272 1.272 0 0 0-.44-.072c-.217 0-.403.041-.557.122a.84.84 0 0 0-.35.352 1.055 1.055 0 0 0-.124.53c0 .15.024.288.072.415.048.12.113.222.2.31a.98.98 0 0 0 .323.2c.13.044.275.064.435.064zm2.488.738v-3.464h1.002l.032.622h.053c.115-.22.292-.389.53-.507.242-.115.498-.174.77-.174.226 0 .428.028.61.085.185.057.342.146.471.27.135.127.238.293.312.5.072.207.11.46.11.764v1.904H58.25v-1.722c0-.217-.028-.4-.085-.55a.625.625 0 0 0-.26-.343c-.116-.084-.273-.125-.471-.125-.203 0-.38.046-.53.135a.907.907 0 0 0-.343.358c-.083.151-.125.326-.125.525v1.722zm5.95.063c-.254 0-.487-.041-.7-.122a1.611 1.611 0 0 1-.536-.363c-.15-.16-.268-.349-.35-.57a2.088 2.088 0 0 1-.123-.737 2 2 0 0 1 .213-.951c.142-.27.341-.474.596-.616.26-.146.557-.22.893-.22.23 0 .428.025.596.078.172.048.318.118.44.214.12.09.217.199.284.323h.04l.033-.563h.99v3.464h-1.043v-.577h-.046a1.09 1.09 0 0 1-.51.465 1.695 1.695 0 0 1-.778.175zm.318-.79c.21 0 .39-.04.543-.123a.881.881 0 0 0 .343-.336.928.928 0 0 0 .122-.467v-.181a.841.841 0 0 0-.122-.445.807.807 0 0 0-.343-.326 1.15 1.15 0 0 0-.543-.121c-.194 0-.364.039-.513.117a.784.784 0 0 0-.343.336c-.08.147-.122.328-.122.544 0 .207.04.386.116.537.083.15.196.268.343.349.148.078.32.118.519.118zm2.61.727v-4.72h1.035v4.72zm2.885 0v-4.72h1.035v4.72zm1.594 0v-3.464h1.036v3.464zm0-3.918v-.801h1.036v.8zm1.958 3.918v-2.68h-.616v-.784h.616v-.247c0-.349.106-.602.323-.764.216-.163.532-.244.944-.244h.616v.679h-.454c-.129 0-.225.03-.29.091-.065.055-.096.146-.096.271v.214h.781v.783h-.781v2.68zm3.924.056c-.423 0-.79-.07-1.1-.214a1.693 1.693 0 0 1-.718-.607c-.168-.263-.254-.58-.254-.951 0-.38.088-.703.26-.971.173-.269.413-.474.718-.616a2.47 2.47 0 0 1 1.074-.22c.44 0 .812.08 1.113.24.308.155.535.384.688.685.155.3.216.66.188 1.083h-2.997a.84.84 0 0 0 .135.465.82.82 0 0 0 .362.299c.155.067.341.102.557.102.242 0 .45-.041.622-.122.172-.088.281-.197.33-.332h.984a1.03 1.03 0 0 1-.319.61 1.72 1.72 0 0 1-.692.407c-.28.096-.598.142-.951.142zm-1.054-2.09-.04-.05h2.085l-.053.05a.77.77 0 0 0-.122-.413.678.678 0 0 0-.323-.273 1.22 1.22 0 0 0-.52-.096c-.198 0-.37.03-.516.096a.852.852 0 0 0-.35.266.867.867 0 0 0-.161.42zm6.366 2.097c-.587 0-1.036-.103-1.353-.31-.31-.212-.476-.494-.498-.849h1.017c.01.17.092.301.238.395.146.092.356.137.629.137.242 0 .43-.033.563-.098.138-.07.207-.17.207-.303 0-.11-.026-.188-.078-.24-.05-.057-.14-.094-.265-.116a4.826 4.826 0 0 0-.519-.072 6.92 6.92 0 0 1-.768-.116 1.921 1.921 0 0 1-.52-.187.777.777 0 0 1-.296-.293.942.942 0 0 1-.092-.434c0-.223.07-.417.207-.58.14-.17.336-.3.596-.39.264-.09.578-.137.945-.137.336 0 .629.044.873.132.246.085.44.21.583.375.148.163.231.364.253.6h-.985a.462.462 0 0 0-.115-.264.558.558 0 0 0-.253-.162 1.124 1.124 0 0 0-.362-.052c-.217 0-.393.033-.53.098-.134.059-.202.16-.202.297 0 .09.029.161.086.214a.672.672 0 0 0 .283.109c.134.026.306.05.517.072.304.026.56.063.77.11.217.043.39.106.518.186.135.08.232.18.292.306.062.125.09.282.09.472 0 .332-.15.6-.452.803-.298.198-.757.297-1.38.297zm4.038-.006c-.312 0-.592-.04-.843-.123a1.771 1.771 0 0 1-.633-.362 1.62 1.62 0 0 1-.401-.57 1.954 1.954 0 0 1-.138-.744c0-.37.087-.687.26-.951.173-.268.414-.471.725-.615a2.586 2.586 0 0 1 1.08-.214 2.6 2.6 0 0 1 .984.17c.286.107.508.26.674.458.164.198.254.432.271.699h-1.028a.607.607 0 0 0-.168-.291.84.84 0 0 0-.312-.181 1.262 1.262 0 0 0-.42-.065c-.215 0-.4.043-.558.128a.867.867 0 0 0-.35.351 1.11 1.11 0 0 0-.115.518c0 .212.042.393.123.543a.82.82 0 0 0 .349.343c.153.074.334.111.543.111.153 0 .29-.022.415-.065a.876.876 0 0 0 .325-.188.73.73 0 0 0 .181-.303h1.035a1.18 1.18 0 0 1-.31.724 1.783 1.783 0 0 1-.718.465c-.29.11-.614.162-.971.162zm2.396-.057v-3.464h1.037v3.464zm0-3.915v-.804h1.037v.804zm3.516 3.972c-.421 0-.788-.07-1.1-.212a1.708 1.708 0 0 1-.718-.609c-.168-.264-.25-.58-.25-.951 0-.38.084-.703.257-.972.172-.268.412-.471.718-.615.308-.146.665-.22 1.075-.22.44 0 .81.08 1.114.24a1.5 1.5 0 0 1 .685.687c.155.297.218.657.188 1.08h-2.997c.005.182.05.336.135.466a.83.83 0 0 0 .363.298c.155.068.34.103.557.103.241 0 .449-.042.621-.122.172-.088.284-.197.33-.33h.984c-.03.227-.135.43-.316.607a1.723 1.723 0 0 1-.694.408c-.28.096-.596.142-.952.142zm-1.054-2.089-.04-.052h2.085l-.053.052a.754.754 0 0 0-.121-.414.67.67 0 0 0-.323-.273 1.24 1.24 0 0 0-.518-.097c-.199 0-.37.033-.52.097a.867.867 0 0 0-.349.266.895.895 0 0 0-.161.421zm3.433 2.032v-3.464h1.004l.03.623h.053c.118-.221.294-.39.53-.505.243-.118.5-.176.77-.176.225 0 .429.028.61.084.185.057.342.147.471.274.135.124.238.29.312.497.072.207.109.46.109.764v1.903h-1.04v-1.722c0-.216-.03-.4-.086-.55a.63.63 0 0 0-.257-.343c-.118-.083-.275-.124-.474-.124a1 1 0 0 0-.53.137.883.883 0 0 0-.343.356c-.083.151-.125.325-.125.524v1.722zm6.255.057c-.312 0-.591-.04-.842-.123a1.796 1.796 0 0 1-.633-.362 1.64 1.64 0 0 1-.402-.57 1.943 1.943 0 0 1-.135-.744c0-.37.085-.687.257-.951.173-.268.415-.471.725-.615a2.59 2.59 0 0 1 1.083-.214c.375 0 .702.056.981.17.286.107.511.26.675.458.163.198.253.432.27.699H99.49a.606.606 0 0 0-.168-.291.843.843 0 0 0-.312-.181 1.263 1.263 0 0 0-.42-.065c-.215 0-.401.043-.556.128a.852.852 0 0 0-.351.351 1.103 1.103 0 0 0-.116.518c0 .212.041.393.122.543a.82.82 0 0 0 .35.343c.152.074.333.111.545.111.15 0 .288-.022.412-.065a.872.872 0 0 0 .326-.188.724.724 0 0 0 .18-.303h1.035c-.022.279-.124.521-.31.724a1.779 1.779 0 0 1-.718.465 2.74 2.74 0 0 1-.97.162zm4.32 0c-.424 0-.79-.07-1.1-.212a1.7 1.7 0 0 1-.719-.609c-.168-.264-.253-.58-.253-.951 0-.38.088-.703.26-.972a1.67 1.67 0 0 1 .718-.615c.305-.146.663-.22 1.074-.22.44 0 .811.08 1.113.24.307.155.534.384.685.687.157.297.219.657.188 1.08h-2.997a.82.82 0 0 0 .5.764c.155.068.34.103.556.103.243 0 .448-.042.623-.122.172-.088.28-.197.329-.33h.984a1.03 1.03 0 0 1-.318.607 1.736 1.736 0 0 1-.692.408 2.928 2.928 0 0 1-.952.142zm-1.055-2.089-.04-.052h2.085l-.052.052a.768.768 0 0 0-.123-.414.673.673 0 0 0-.325-.273 1.237 1.237 0 0 0-.517-.097c-.199 0-.371.033-.517.097a.853.853 0 0 0-.35.266.844.844 0 0 0-.16.421zm5.046 2.096c-.587 0-1.039-.103-1.353-.31-.31-.212-.478-.494-.498-.847h1.015a.493.493 0 0 0 .24.393c.146.091.356.137.629.137.24 0 .428-.033.563-.098.137-.068.205-.17.205-.303 0-.11-.024-.188-.076-.24-.053-.057-.14-.095-.267-.116a4.699 4.699 0 0 0-.517-.072 7.022 7.022 0 0 1-.77-.116 1.876 1.876 0 0 1-.517-.188.78.78 0 0 1-.3-.292.968.968 0 0 1-.09-.432c0-.225.07-.419.209-.583.137-.168.335-.299.595-.388a2.88 2.88 0 0 1 .945-.138c.336 0 .626.044.873.131.247.085.441.212.583.375.146.164.231.365.253.603h-.984a.453.453 0 0 0-.118-.266.551.551 0 0 0-.25-.162 1.134 1.134 0 0 0-.363-.052c-.216 0-.393.033-.53.098-.136.058-.201.16-.201.297 0 .089.026.161.082.214a.69.69 0 0 0 .286.109c.133.026.306.05.518.072.3.026.559.063.77.109.216.043.389.107.518.187.133.079.231.18.29.306.061.124.091.281.091.471 0 .332-.15.6-.453.804-.298.198-.758.296-1.378.296z" fill="#1f2937"/>
</svg>
