<?xml version="1.0" encoding="UTF-8" standalone="no"?>
<!-- Created with Inkscape (http://www.inkscape.org/) -->

<svg
   width="210mm"
   height="57.097618mm"
   viewBox="0 0 210 57.097618"
   version="1.1"
   id="svg21044"
   xml:space="preserve"
   inkscape:version="1.2.2 (1:1.2.2+202212051552+b0a8486541)"
   sodipodi:docname="logo-horizontal.svg"
   xmlns:inkscape="http://www.inkscape.org/namespaces/inkscape"
   xmlns:sodipodi="http://sodipodi.sourceforge.net/DTD/sodipodi-0.dtd"
   xmlns:xlink="http://www.w3.org/1999/xlink"
   xmlns="http://www.w3.org/2000/svg"
   xmlns:svg="http://www.w3.org/2000/svg"><sodipodi:namedview
     id="namedview21046"
     pagecolor="#ffffff"
     bordercolor="#000000"
     borderopacity="0.25"
     inkscape:showpageshadow="2"
     inkscape:pageopacity="0.0"
     inkscape:pagecheckerboard="0"
     inkscape:deskcolor="#d1d1d1"
     inkscape:document-units="mm"
     showgrid="false"
     inkscape:zoom="0.56756529"
     inkscape:cx="541.78789"
     inkscape:cy="233.45332"
     inkscape:window-width="1866"
     inkscape:window-height="1016"
     inkscape:window-x="1974"
     inkscape:window-y="27"
     inkscape:window-maximized="1"
     inkscape:current-layer="layer1" /><defs
     id="defs21041"><linearGradient
       inkscape:collect="always"
       xlink:href="#linearGradient8740"
       id="linearGradient14468"
       gradientUnits="userSpaceOnUse"
       gradientTransform="matrix(0.14945655,0,0,0.14945655,460.05805,131.3791)"
       x1="-2747.7346"
       y1="-584.57153"
       x2="-2075.5229"
       y2="-584.57153" /><linearGradient
       id="linearGradient8740"><stop
         id="stop8738"
         offset="0"
         style="stop-color:#000000;stop-opacity:1;" /><stop
         id="stop8736"
         offset="0.18261695"
         style="stop-color:#3a86ff;stop-opacity:1" /><stop
         style="stop-color:#8338ec;stop-opacity:1"
         offset="0.38739288"
         id="stop8734" /><stop
         id="stop8732"
         offset="0.59400356"
         style="stop-color:#ff006e;stop-opacity:1" /><stop
         style="stop-color:#fb5607;stop-opacity:1"
         offset="0.74514398"
         id="stop8730" /><stop
         id="stop8728"
         offset="1"
         style="stop-color:#ffbe0b;stop-opacity:1" /></linearGradient><radialGradient
       inkscape:collect="always"
       xlink:href="#radialGradient4071-7"
       id="radialGradient14470"
       gradientUnits="userSpaceOnUse"
       gradientTransform="matrix(3.8278643,0,0,-3.827887,160.94685,37.285569)"
       cx="0"
       cy="0"
       fx="0"
       fy="0"
       r="1"
       spreadMethod="pad" /><radialGradient
       fx="0"
       fy="0"
       cx="0"
       cy="0"
       r="1"
       gradientUnits="userSpaceOnUse"
       gradientTransform="matrix(136.52995,0,0,136.53076,86.62188,160.54361)"
       spreadMethod="pad"
       id="radialGradient4071-7"><stop
         style="stop-opacity:1;stop-color:#ffffff"
         offset="0"
         id="stop4061-0" /><stop
         style="stop-opacity:1;stop-color:#ffffff"
         offset="0.00205545"
         id="stop4063-9" /><stop
         style="stop-opacity:1;stop-color:#ffffff"
         offset="0.032588"
         id="stop4065-3" /><stop
         style="stop-opacity:1;stop-color:#ffffff"
         offset="0.08358642"
         id="stop4067-6" /><stop
         style="stop-opacity:1;stop-color:#ff0000"
         offset="1"
         id="stop4069-0" /></radialGradient><radialGradient
       inkscape:collect="always"
       xlink:href="#radialGradient4045-6"
       id="radialGradient14472"
       gradientUnits="userSpaceOnUse"
       gradientTransform="matrix(3.9119447,0,0,-3.911968,161.26706,37.285787)"
       cx="0"
       cy="0"
       fx="0"
       fy="0"
       r="1"
       spreadMethod="pad" /><radialGradient
       fx="0"
       fy="0"
       cx="0"
       cy="0"
       r="1"
       gradientUnits="userSpaceOnUse"
       gradientTransform="matrix(139.52888,0,0,139.52971,98.042976,160.53586)"
       spreadMethod="pad"
       id="radialGradient4045-6"><stop
         style="stop-opacity:1;stop-color:#ffffff"
         offset="0"
         id="stop4037-2" /><stop
         style="stop-opacity:1;stop-color:#ff0000"
         offset="0.96810947"
         id="stop4039-9" /><stop
         style="stop-opacity:1;stop-color:#ff0000"
         offset="0.999999"
         id="stop4041-1" /><stop
         style="stop-opacity:1;stop-color:#ff0000"
         offset="1"
         id="stop4043-2" /></radialGradient><linearGradient
       xlink:href="#linearGradient8740"
       id="linearGradient25943"
       gradientUnits="userSpaceOnUse"
       gradientTransform="matrix(0.113147,0,0,0.113147,330.76207,244.26506)"
       x1="-2747.7346"
       y1="-584.57153"
       x2="-2075.5229"
       y2="-584.57153" /></defs><g
     inkscape:label="Layer 1"
     inkscape:groupmode="layer"
     id="layer1"
     transform="translate(-0.10469249)"><g
       id="g16037"
       transform="matrix(1.2827861,0,0,1.2827861,-33.612097,-143.72952)"><path
         id="path29798"
         style="font-weight:normal;font-size:4.53833px;line-height:1.1;font-family:'Mona Sans';-inkscape-font-specification:'Mona Sans, @wght=649,wdth=125.0';font-variation-settings:'wdth' 125, 'wght' 649;letter-spacing:-0.04301px;fill:#1f2937;stroke:none;stroke-width:3.66371;stroke-linecap:round;stroke-linejoin:round;stroke-miterlimit:10;paint-order:fill markers stroke"
         d="m 125.48313,129.8679 c -0.25317,0 -0.48114,0.0358 -0.68366,0.10796 -0.20255,0.0693 -0.37448,0.16892 -0.51572,0.2995 -0.14123,0.13057 -0.249,0.28812 -0.32362,0.47202 -0.0745,0.18388 -0.11199,0.38742 -0.11199,0.61129 0,0.22652 0.0358,0.43195 0.10796,0.61583 0.0745,0.18124 0.18141,0.33831 0.31998,0.47158 0.14124,0.13056 0.31175,0.23208 0.51162,0.30405 0.19986,0.0692 0.42352,0.10381 0.67136,0.10381 h 4.6e-4 c 0.22119,0 0.42762,-0.0292 0.6195,-0.0878 0.19453,-0.0587 0.36361,-0.1453 0.50752,-0.2599 0.14391,-0.11726 0.25595,-0.26141 0.3359,-0.43196 0.0825,-0.17055 0.12381,-0.3674 0.12381,-0.59126 v -0.22804 h -1.62678 v 0.41557 h 0.98227 c -0.0123,0.1163 -0.0466,0.22 -0.10292,0.31179 -0.072,0.11459 -0.17875,0.20415 -0.31999,0.26811 -0.13858,0.0641 -0.30907,0.0961 -0.51161,0.0961 -0.14658,0 -0.27973,-0.0217 -0.39964,-0.0643 -0.11993,-0.0452 -0.22385,-0.10908 -0.3118,-0.19162 -0.0852,-0.0852 -0.15038,-0.1892 -0.19572,-0.31179 -0.0454,-0.12258 -0.0683,-0.26289 -0.0683,-0.42012 0,-0.19987 0.0386,-0.37277 0.11608,-0.51935 0.0773,-0.14657 0.18934,-0.26007 0.33592,-0.34001 0.14922,-0.08 0.32885,-0.11972 0.53938,-0.11972 0.14922,0 0.28382,0.0202 0.40372,0.0601 0.11993,0.04 0.22002,0.0984 0.29997,0.1757 0.0825,0.0773 0.1372,0.17164 0.16387,0.28357 h 0.64771 c -0.0294,-0.20786 -0.10931,-0.38747 -0.23988,-0.53938 -0.13059,-0.15456 -0.30538,-0.27476 -0.5239,-0.36004 -0.21587,-0.0879 -0.46636,-0.13155 -0.75149,-0.13155 z m 1.87258,0.0358 v 0.49159 h 0.61948 v -0.49158 z m 15.58417,0 v 0.49159 h 0.61948 v -0.49158 z m 6.98142,0 v 0.49159 h 0.61949 v -0.49158 z m 10.39749,0 v 0.49159 h 0.61994 v -0.49158 z m 2.66046,0 v 2.91401 h 0.6195 v -1.06328 c 0,-0.12526 0.0253,-0.23445 0.076,-0.32773 0.0533,-0.096 0.12657,-0.17062 0.21985,-0.22395 0.096,-0.056 0.20658,-0.0838 0.33183,-0.0838 0.12525,0 0.22631,0.024 0.30359,0.0719 0.0773,0.048 0.13186,0.1198 0.16386,0.21574 0.0346,0.0933 0.0519,0.20918 0.0519,0.34774 v 1.06329 h 0.6195 v -1.17116 c 0,-0.18654 -0.0226,-0.34409 -0.0679,-0.47202 -0.0453,-0.13057 -0.10908,-0.2345 -0.19162,-0.31178 -0.08,-0.0773 -0.17718,-0.13286 -0.29177,-0.1675 -0.11199,-0.0346 -0.2374,-0.0523 -0.37598,-0.0523 -0.17322,0 -0.33318,0.0386 -0.47974,0.11608 -0.14658,0.0745 -0.25578,0.17997 -0.32774,0.31588 h -0.0319 v -1.17115 z m -33.74687,0.10382 -0.6113,0.12018 v 0.5553 h -0.40784 v 0.46791 h 0.40784 v 1.15523 c 0,0.1146 0.0225,0.2104 0.0679,0.28768 0.0481,0.0746 0.11454,0.13066 0.19982,0.16795 0.0852,0.0372 0.18536,0.056 0.29995,0.056 h 0.58354 v -0.52753 h -0.33183 c -0.0719,0 -0.12511,-0.0121 -0.15974,-0.0358 -0.0319,-0.0267 -0.0483,-0.0745 -0.0483,-0.14383 v -0.95951 h 0.53983 v -0.46791 h -0.53983 z m 15.58462,0 -0.61175,0.12018 v 0.5553 h -0.40784 v 0.46791 h 0.40784 v 1.15523 c 0,0.1146 0.0224,0.2104 0.0679,0.28768 0.048,0.0746 0.11454,0.13066 0.19982,0.16795 0.0852,0.0372 0.18537,0.056 0.29997,0.056 h 0.58352 v -0.52753 h -0.33182 c -0.0719,0 -0.12512,-0.0121 -0.15977,-0.0358 -0.0319,-0.0267 -0.0478,-0.0745 -0.0478,-0.14383 v -0.95951 h 0.53939 v -0.46791 h -0.53939 z m 17.37891,0 -0.61176,0.12018 v 0.5553 h -0.40781 v 0.46791 h 0.40781 v 1.15523 c 0,0.1146 0.0225,0.2104 0.0679,0.28768 0.048,0.0746 0.11454,0.13066 0.19982,0.16795 0.0852,0.0372 0.18538,0.056 0.29997,0.056 h 0.58352 v -0.52753 h -0.33183 c -0.0719,0 -0.12511,-0.0121 -0.15976,-0.0358 -0.0319,-0.0267 -0.0478,-0.0745 -0.0478,-0.14383 v -0.95951 h 0.53939 v -0.46791 h -0.53939 z m -28.64805,0.63542 c -0.25316,0 -0.47443,0.0455 -0.66364,0.13612 -0.18654,0.0879 -0.3331,0.21582 -0.43971,0.3837 -0.10393,0.16522 -0.15611,0.36493 -0.15611,0.59945 0,0.22653 0.0522,0.42143 0.15611,0.584 0.10393,0.16256 0.2505,0.28756 0.43971,0.37551 0.19187,0.0879 0.41554,0.13201 0.67137,0.13201 0.21853,0 0.41442,-0.0292 0.58763,-0.0878 0.17323,-0.0587 0.31451,-0.14148 0.42378,-0.24806 0.1093,-0.1093 0.1744,-0.23428 0.19571,-0.37551 h -0.58763 c -0.0293,0.0852 -0.0983,0.15423 -0.20755,0.20754 -0.1093,0.0533 -0.24143,0.0801 -0.396,0.0801 -0.13325,0 -0.24915,-0.0212 -0.34775,-0.0638 -0.0986,-0.0427 -0.17426,-0.10539 -0.22759,-0.188 -0.0533,-0.0852 -0.0831,-0.18535 -0.0882,-0.29996 h 1.85894 c 0.0187,-0.2585 -0.0187,-0.47976 -0.11199,-0.66362 -0.0933,-0.1839 -0.23456,-0.32517 -0.42377,-0.42378 -0.18653,-0.0985 -0.41404,-0.14794 -0.68321,-0.14794 z m 5.47253,0 c -0.25583,0 -0.47997,0.0455 -0.67183,0.13612 -0.18921,0.0879 -0.33674,0.21437 -0.44333,0.37961 -0.10662,0.16522 -0.16023,0.36253 -0.16023,0.59171 0,0.1759 0.0292,0.332 0.0878,0.46793 0.0614,0.1359 0.14798,0.2518 0.2599,0.34775 0.11459,0.096 0.24917,0.16921 0.40375,0.21984 0.15724,0.048 0.33203,0.0719 0.52391,0.0719 0.25582,0 0.47806,-0.0441 0.66728,-0.13201 0.19186,-0.088 0.33984,-0.21438 0.44379,-0.37961 0.10661,-0.1679 0.16021,-0.36664 0.16021,-0.59583 0,-0.17322 -0.0306,-0.3279 -0.0919,-0.46382 -0.0587,-0.13857 -0.14532,-0.25447 -0.25991,-0.34774 -0.11188,-0.096 -0.24651,-0.16923 -0.40375,-0.21985 -0.15456,-0.0507 -0.32649,-0.076 -0.5157,-0.076 z m 2.55442,0 c -0.22387,0 -0.41589,0.0282 -0.5758,0.0842 -0.15989,0.056 -0.28249,0.13451 -0.36777,0.23578 -0.0852,0.0987 -0.1279,0.21834 -0.1279,0.35959 0,0.10392 0.0187,0.19205 0.056,0.26399 0.0373,0.0719 0.0972,0.13183 0.17979,0.17979 0.0827,0.048 0.18943,0.0868 0.32001,0.11607 0.13058,0.0293 0.28767,0.0519 0.47153,0.0679 0.14126,0.0133 0.25045,0.0296 0.32773,0.0483 0.0798,0.016 0.13597,0.0409 0.16797,0.0755 0.0346,0.0319 0.0519,0.0813 0.0519,0.14793 0,0.088 -0.0436,0.15355 -0.13154,0.19618 -0.0852,0.04 -0.20549,0.0597 -0.36006,0.0597 -0.17321,0 -0.30635,-0.0278 -0.39962,-0.0838 -0.0906,-0.0586 -0.13995,-0.14245 -0.14793,-0.25172 h -0.60766 c 0.0133,0.21853 0.11582,0.39286 0.30769,0.52345 0.19187,0.12791 0.46916,0.19208 0.8316,0.19208 0.37843,0 0.65812,-0.0614 0.83934,-0.18389 0.18388,-0.12526 0.27584,-0.2895 0.27584,-0.49204 0,-0.1146 -0.0187,-0.21039 -0.056,-0.28767 -0.0372,-0.0773 -0.0958,-0.14001 -0.17569,-0.18799 -0.08,-0.0507 -0.18532,-0.0889 -0.31591,-0.11561 -0.13057,-0.0293 -0.28909,-0.0519 -0.47565,-0.0679 -0.13323,-0.0133 -0.241,-0.0282 -0.32362,-0.0441 -0.0827,-0.0187 -0.14249,-0.0427 -0.1798,-0.0718 -0.0346,-0.0319 -0.0523,-0.0774 -0.0523,-0.13609 0,-0.0879 0.0426,-0.15165 0.1279,-0.19162 0.0879,-0.04 0.2,-0.0601 0.33592,-0.0601 0.0879,0 0.16552,0.0121 0.23214,0.0358 0.0666,0.0213 0.11977,0.0544 0.15977,0.0997 0.04,0.0427 0.064,0.10012 0.0719,0.17204 h 0.58762 c -0.0133,-0.14656 -0.0656,-0.2706 -0.15614,-0.37187 -0.0879,-0.10124 -0.20767,-0.17836 -0.35957,-0.23167 -0.14924,-0.0533 -0.32644,-0.0801 -0.53164,-0.0801 z m 5.18396,0 c -0.25584,0 -0.4795,0.0455 -0.67139,0.13612 -0.18921,0.0879 -0.33719,0.21437 -0.44379,0.37961 -0.10661,0.16522 -0.15977,0.36253 -0.15977,0.59171 0,0.1759 0.0291,0.332 0.0878,0.46793 0.0614,0.1359 0.14797,0.2518 0.25988,0.34775 0.1146,0.096 0.24918,0.16921 0.40374,0.21984 0.15711,0.0479 0.33221,0.0719 0.52392,0.0719 0.25563,-6e-5 0.47819,-0.0441 0.66727,-0.13201 0.19187,-0.088 0.33985,-0.21438 0.4438,-0.37961 0.10662,-0.1679 0.15976,-0.36664 0.15976,-0.59583 0,-0.17322 -0.0306,-0.3279 -0.092,-0.46382 -0.0587,-0.13857 -0.14532,-0.25447 -0.25992,-0.34774 -0.11188,-0.096 -0.24649,-0.16923 -0.40373,-0.21985 -0.15457,-0.0507 -0.3265,-0.076 -0.5157,-0.076 z m 5.32686,0 c -0.25315,0 -0.47396,0.0455 -0.66317,0.13612 -0.18656,0.0879 -0.33311,0.21582 -0.4397,0.3837 -0.10393,0.16522 -0.15613,0.36493 -0.15613,0.59945 0,0.22653 0.0523,0.42143 0.15613,0.584 0.10393,0.16256 0.25048,0.28756 0.4397,0.37551 0.19187,0.0879 0.41555,0.13201 0.67137,0.13201 0.21853,0 0.41441,-0.0292 0.58764,-0.0878 0.1732,-0.0587 0.31449,-0.14148 0.42375,-0.24806 0.1093,-0.1093 0.1744,-0.23428 0.19573,-0.37551 h -0.58763 c -0.0293,0.0852 -0.0988,0.15423 -0.20801,0.20754 -0.10931,0.0533 -0.24098,0.0801 -0.39554,0.0801 -0.13326,0 -0.24915,-0.0212 -0.34777,-0.0638 -0.0986,-0.0427 -0.17472,-0.10539 -0.22802,-0.188 -0.0533,-0.0852 -0.0825,-0.18535 -0.0878,-0.29996 h 1.85892 c 0.0187,-0.2585 -0.0187,-0.47976 -0.11199,-0.66362 -0.0933,-0.1839 -0.23455,-0.32517 -0.42376,-0.42378 -0.18654,-0.0985 -0.41452,-0.14794 -0.68367,-0.14794 z m 2.50254,0 c -0.22385,0 -0.41544,0.0282 -0.57534,0.0842 -0.15988,0.056 -0.2825,0.13451 -0.36778,0.23578 -0.0852,0.0987 -0.12789,0.21834 -0.12789,0.35959 0,0.10392 0.0187,0.19205 0.056,0.26399 0.0372,0.0719 0.0972,0.13183 0.17979,0.17979 0.0825,0.048 0.18895,0.0868 0.31953,0.11607 0.13058,0.0293 0.28814,0.0519 0.47201,0.0679 0.14126,0.0133 0.25045,0.0296 0.32772,0.0483 0.0798,0.016 0.13598,0.0409 0.16796,0.0755 0.0346,0.0319 0.0519,0.0813 0.0519,0.14793 0,0.088 -0.0441,0.15355 -0.132,0.19618 -0.0852,0.04 -0.20502,0.0597 -0.35959,0.0597 -0.1732,0 -0.30636,-0.0278 -0.39963,-0.0838 -0.0906,-0.0586 -0.13995,-0.14245 -0.14794,-0.25172 h -0.60765 c 0.0133,0.21853 0.11582,0.39286 0.3077,0.52345 0.19188,0.12791 0.46917,0.19208 0.83161,0.19208 0.37842,0 0.6581,-0.0614 0.83931,-0.18389 0.18389,-0.12526 0.27585,-0.2895 0.27585,-0.49204 0,-0.1146 -0.0187,-0.21039 -0.056,-0.28767 -0.0372,-0.0773 -0.0958,-0.14001 -0.17569,-0.18799 -0.08,-0.0507 -0.18531,-0.0889 -0.3159,-0.11561 -0.13058,-0.0293 -0.28911,-0.0519 -0.47565,-0.0679 -0.13326,-0.0133 -0.24146,-0.0282 -0.32408,-0.0441 -0.0825,-0.0187 -0.14251,-0.0427 -0.17979,-0.0718 -0.0346,-0.0319 -0.0519,-0.0774 -0.0519,-0.13609 0,-0.0879 0.0427,-0.15165 0.1279,-0.19162 0.0879,-0.04 0.20001,-0.0601 0.33593,-0.0601 0.0879,0 0.16504,0.0121 0.23167,0.0358 0.0666,0.0213 0.11978,0.0544 0.15976,0.0997 0.04,0.0427 0.0641,0.10012 0.0718,0.17204 h 0.58763 c -0.0133,-0.14656 -0.0652,-0.2706 -0.15567,-0.37187 -0.0879,-0.10124 -0.20814,-0.17836 -0.36003,-0.23167 -0.14925,-0.0533 -0.32645,-0.0801 -0.53164,-0.0801 z m -18.08852,0.004 c -0.20786,0 -0.38076,0.0358 -0.51935,0.10796 -0.1359,0.0719 -0.236,0.16533 -0.29997,0.27992 h -0.0241 l -0.0199,-0.35185 h -0.58764 v 2.8025 h 0.61996 v -1.03141 h 0.0236 c 0.0452,0.0825 0.10807,0.15445 0.18796,0.21575 0.08,0.0587 0.17192,0.10516 0.27585,0.13973 0.10661,0.0319 0.22009,0.0483 0.34001,0.0483 0.21319,0 0.39807,-0.0455 0.55531,-0.1361 0.15722,-0.0933 0.27985,-0.22116 0.36778,-0.38372 0.0879,-0.16522 0.132,-0.3611 0.132,-0.58762 0,-0.17055 -0.0253,-0.3238 -0.076,-0.45974 -0.0507,-0.13591 -0.12247,-0.25036 -0.21575,-0.34365 -0.0933,-0.096 -0.2039,-0.16922 -0.33181,-0.21984 -0.12792,-0.0533 -0.27065,-0.0801 -0.42787,-0.0801 z m -4.44885,0.004 c -0.14125,0 -0.26385,0.0346 -0.36777,0.10382 -0.10393,0.0665 -0.17863,0.15858 -0.22396,0.27582 h -0.0199 l -0.0236,-0.34774 h -0.56398 v 2.13475 h 0.61995 v -1.05144 c 0.006,-0.13057 0.0306,-0.23693 0.0759,-0.31955 0.048,-0.0825 0.11312,-0.14389 0.19574,-0.18387 0.0827,-0.04 0.18126,-0.0601 0.29585,-0.0601 0.0319,0 0.0636,0.001 0.0956,0.004 0.0346,0.002 0.0681,0.008 0.10012,0.016 v -0.55985 c -0.024,-0.006 -0.0517,-0.008 -0.0838,-0.008 -0.0293,-0.002 -0.0628,-0.004 -0.10012,-0.004 z m 17.46038,0 c -0.14124,0 -0.26385,0.0346 -0.36776,0.10382 -0.10404,0.0665 -0.17823,0.15858 -0.2235,0.27582 h -0.0199 l -0.0241,-0.34774 h -0.56352 v 2.13475 h 0.6195 v -1.05144 c 0.006,-0.13057 0.0306,-0.23693 0.0759,-0.31955 0.0481,-0.0825 0.11311,-0.14389 0.19573,-0.18387 0.0827,-0.04 0.18127,-0.0601 0.29587,-0.0601 0.0319,0 0.0641,0.001 0.096,0.004 0.0346,0.002 0.0678,0.008 0.0997,0.016 v -0.55985 c -0.0239,-0.006 -0.0517,-0.008 -0.0838,-0.008 -0.0294,-0.002 -0.0629,-0.004 -0.10012,-0.004 z m -22.15547,0.0319 v 2.13476 h 0.61948 v -2.13476 z m 15.58417,0 v 2.13476 h 0.61948 v -2.13476 z m 6.98142,0 v 2.13476 h 0.61949 v -2.13476 z m 6.67008,0 0.62723,2.13476 h 0.73192 l 0.39145,-1.44289 h 0.0242 l 0.39553,1.44289 h 0.74375 l 0.63133,-2.13476 h -0.56351 l -0.45563,1.61906 h -0.016 l -0.41603,-1.61906 h -0.6113 l -0.41967,1.60721 h -0.0241 l -0.44791,-1.60721 z m 3.72741,0 v 2.13476 h 0.61994 v -2.13476 z m -26.77503,0.38782 c 0.13059,0 0.23978,0.0202 0.32772,0.0601 0.0906,0.04 0.16004,0.0974 0.20802,0.17203 0.0432,0.0678 0.0681,0.14618 0.0745,0.23579 h -1.25353 c 0.0156,-0.093 0.0476,-0.1728 0.0956,-0.23987 0.056,-0.0746 0.12923,-0.13068 0.21985,-0.16795 0.0933,-0.04 0.20246,-0.0601 0.32773,-0.0601 z m 18.53823,0 c 0.13058,0 0.2398,0.0202 0.32773,0.0601 0.0906,0.04 0.15959,0.0974 0.20754,0.17203 0.0432,0.0678 0.0688,0.14618 0.0752,0.23579 h -1.25354 c 0.0156,-0.093 0.0472,-0.1728 0.0951,-0.23987 0.056,-0.0746 0.12969,-0.13068 0.22031,-0.16795 0.0933,-0.04 0.20247,-0.0601 0.32772,-0.0601 z m -13.0616,0.0479 c 0.10124,0 0.19178,0.0162 0.27173,0.0483 0.0827,0.0293 0.15207,0.0719 0.20802,0.1279 0.056,0.0533 0.0985,0.11844 0.1279,0.19573 0.0293,0.0772 0.0437,0.16396 0.0437,0.2599 0,0.12791 -0.0253,0.23997 -0.076,0.33591 -0.0507,0.0933 -0.1249,0.16513 -0.22349,0.21576 -0.0987,0.0507 -0.21593,0.076 -0.35185,0.076 -0.10392,0 -0.19732,-0.015 -0.27993,-0.0441 -0.08,-0.0293 -0.14796,-0.0706 -0.20392,-0.12381 -0.056,-0.056 -0.0987,-0.12253 -0.1279,-0.19981 -0.0293,-0.0773 -0.0437,-0.16397 -0.0437,-0.25991 0,-0.12792 0.025,-0.23855 0.0755,-0.33182 0.0533,-0.096 0.12801,-0.16923 0.22395,-0.21985 0.0987,-0.0533 0.21736,-0.0801 0.35594,-0.0801 z m 7.73884,0 c 0.10123,0 0.19179,0.0162 0.27172,0.0483 0.0827,0.0293 0.15161,0.0719 0.20756,0.1279 0.0559,0.0533 0.0987,0.11844 0.12791,0.19573 0.0293,0.0772 0.0441,0.16396 0.0441,0.2599 0,0.12791 -0.0253,0.23997 -0.076,0.33591 -0.0507,0.0933 -0.12535,0.16513 -0.22396,0.21576 -0.0985,0.0507 -0.21546,0.076 -0.35137,0.076 -0.10393,0 -0.19733,-0.015 -0.27994,-0.0441 -0.08,-0.0293 -0.14797,-0.0706 -0.20391,-0.12381 -0.056,-0.056 -0.0987,-0.12253 -0.12793,-0.19981 -0.0293,-0.0773 -0.0441,-0.16397 -0.0441,-0.25991 0,-0.12792 0.0254,-0.23855 0.076,-0.33182 0.0533,-0.096 0.12801,-0.16923 0.22394,-0.21985 0.0987,-0.0533 0.21736,-0.0801 0.35595,-0.0801 z m -10.47216,4.4e-4 c 0.008,-1.7e-4 0.0168,0 0.025,0 0.12257,0 0.23034,0.0249 0.32363,0.0755 0.0933,0.048 0.16513,0.11883 0.21574,0.21211 0.0507,0.0933 0.076,0.20774 0.076,0.34365 0,0.13325 -0.0268,0.24772 -0.0802,0.34365 -0.0507,0.0933 -0.12105,0.16561 -0.21165,0.21621 -0.0906,0.0507 -0.19838,0.0755 -0.32362,0.0755 -0.10124,0 -0.1918,-0.0145 -0.27174,-0.0437 -0.0772,-0.0319 -0.14431,-0.0746 -0.20028,-0.12791 -0.056,-0.0533 -0.0987,-0.11462 -0.12791,-0.18389 -0.0293,-0.0719 -0.0437,-0.1481 -0.0437,-0.22805 v -0.11562 c 0,-0.10662 0.0254,-0.20284 0.076,-0.28811 0.0507,-0.0852 0.12391,-0.1533 0.21985,-0.20392 0.0924,-0.0475 0.19983,-0.0727 0.32272,-0.0755 z m -12.35107,3.52896 v 2.91401 h 0.58761 l 0.02,-0.35185 h 0.0242 c 0.0427,0.0746 0.10113,0.14116 0.17569,0.19982 0.0773,0.0586 0.16924,0.10416 0.27584,0.13611 0.10931,0.0319 0.23087,0.0479 0.36414,0.0479 0.21319,0 0.39806,-0.0441 0.55531,-0.13199 0.15722,-0.0906 0.27983,-0.2185 0.36777,-0.38372 0.0879,-0.16522 0.13201,-0.36109 0.13201,-0.58761 0,-0.16791 -0.0255,-0.31831 -0.0759,-0.45154 -0.0507,-0.13591 -0.12248,-0.25326 -0.21576,-0.35186 -0.0906,-0.0987 -0.20124,-0.17331 -0.33183,-0.22393 -0.1279,-0.0507 -0.27061,-0.0759 -0.42785,-0.0759 -0.17856,0 -0.34092,0.0358 -0.48748,0.10796 -0.14659,0.0719 -0.25337,0.17062 -0.32,0.29587 h -0.0237 v -1.14295 z m 2.78429,0 v 0.49159 h 0.61994 v -0.49159 z m 3.73375,0 v 0.49159 h 0.61996 v -0.49159 z m 4.67964,0 c -0.25051,0 -0.44254,0.0494 -0.57579,0.14793 -0.13057,0.0987 -0.19573,0.25427 -0.19573,0.46747 v 0.16385 h -0.38371 v 0.46792 h 0.38371 v 1.66684 h 0.61948 v -1.66684 h 0.48796 v -0.46792 h -0.48796 v -0.14383 c 0,-0.0774 0.0202,-0.13477 0.0601,-0.17205 0.0427,-0.0372 0.10538,-0.056 0.188,-0.056 h 0.27582 V 134.649 Z m 13.56093,0 v 0.49159 h 0.61948 v -0.49159 z m 12.83813,0 v 0.49159 h 0.61948 v -0.49159 z m 3.74969,0 v 0.49159 h 0.61949 v -0.49159 z m 20.22921,0 v 0.49159 h 0.61948 v -0.49159 z m 3.77746,0 v 2.91401 h 0.61949 v -2.91401 z m -41.37784,0.10382 -0.61176,0.11969 v 0.55578 h -0.40738 v 0.46792 h 0.40738 v 1.15523 c 0,0.11459 0.0229,0.21036 0.0683,0.28766 0.048,0.0745 0.11453,0.13067 0.19981,0.16796 0.0852,0.0372 0.18536,0.056 0.29997,0.056 h 0.58352 v -0.52755 h -0.33182 c -0.0719,0 -0.12513,-0.012 -0.15977,-0.0358 -0.0319,-0.0267 -0.0483,-0.0749 -0.0483,-0.14429 v -0.95905 h 0.53983 v -0.46792 h -0.53983 z m 8.51853,0 -0.61128,0.11969 v 0.55578 h -0.40784 v 0.46792 h 0.40784 v 1.15523 c 0,0.11459 0.0224,0.21036 0.0679,0.28766 0.048,0.0745 0.11455,0.13067 0.19983,0.16796 0.0852,0.0372 0.18537,0.056 0.29995,0.056 h 0.58354 v -0.52755 h -0.33182 c -0.0719,0 -0.12511,-0.012 -0.15978,-0.0358 -0.0319,-0.0267 -0.0483,-0.0749 -0.0483,-0.14429 v -0.95905 h 0.53983 v -0.46792 h -0.53988 z m 24.04536,0 -0.61175,0.11969 v 0.55578 h -0.40782 v 0.46792 h 0.40782 v 1.15523 c 0,0.11459 0.0225,0.21036 0.0678,0.28766 0.048,0.0745 0.11499,0.13067 0.20027,0.16796 0.0852,0.0372 0.18492,0.056 0.2995,0.056 h 0.58399 v -0.52755 h -0.33181 c -0.072,0 -0.12557,-0.012 -0.16024,-0.0358 -0.0319,-0.0267 -0.0478,-0.0749 -0.0478,-0.14429 v -0.95905 h 0.53982 v -0.46792 h -0.53982 z m -51.57414,0.63542 c -0.25583,0 -0.47949,0.0455 -0.67136,0.1361 -0.18923,0.0879 -0.33721,0.21438 -0.4438,0.3796 -0.10662,0.16524 -0.15978,0.36254 -0.15978,0.59173 0,0.17588 0.0291,0.33155 0.0878,0.46745 0.0614,0.13593 0.14798,0.25227 0.25991,0.34823 0.11459,0.096 0.24917,0.16921 0.40374,0.21983 0.15722,0.048 0.33156,0.0718 0.52344,0.0718 0.25584,0 0.47852,-0.0441 0.66774,-0.132 0.19187,-0.0879 0.33986,-0.21483 0.4438,-0.38008 0.10661,-0.16788 0.15976,-0.36617 0.15976,-0.59534 0,-0.17323 -0.0306,-0.32791 -0.0919,-0.46383 -0.0588,-0.13857 -0.14532,-0.25448 -0.2599,-0.34775 -0.11188,-0.096 -0.24651,-0.16923 -0.40374,-0.21986 -0.15457,-0.0506 -0.3265,-0.0759 -0.5157,-0.0759 z m 4.00551,0 c -0.16789,0 -0.32641,0.0373 -0.47566,0.11199 -0.14924,0.0746 -0.25986,0.17998 -0.33181,0.31589 h -0.0319 l -0.02,-0.38781 h -0.59945 v 2.13476 h 0.61948 v -1.06328 c 0,-0.12526 0.0254,-0.23588 0.0759,-0.33181 0.0533,-0.0959 0.12659,-0.17064 0.21985,-0.22396 0.096,-0.0559 0.20657,-0.0838 0.33183,-0.0838 0.12525,0 0.22676,0.025 0.30406,0.0755 0.0772,0.048 0.13186,0.12028 0.16385,0.21621 0.0346,0.0933 0.0519,0.20916 0.0519,0.34774 v 1.06329 h 0.61949 v -1.17117 c 0,-0.18652 -0.0224,-0.34407 -0.0679,-0.47201 -0.0452,-0.13058 -0.10952,-0.23449 -0.19208,-0.31177 -0.08,-0.0773 -0.17717,-0.13332 -0.29176,-0.16797 -0.11199,-0.0346 -0.2374,-0.0519 -0.37598,-0.0519 z m 3.88535,0 c -0.25584,0 -0.4795,0.0455 -0.67138,0.1361 -0.18921,0.0879 -0.3372,0.21438 -0.4438,0.3796 -0.10662,0.16524 -0.15977,0.36254 -0.15977,0.59173 0,0.17588 0.0292,0.33155 0.0878,0.46745 0.0614,0.13593 0.14799,0.25227 0.2599,0.34823 0.1146,0.096 0.24918,0.16921 0.40374,0.21983 0.15724,0.048 0.33158,0.0718 0.52345,0.0718 0.25584,0 0.47852,-0.0441 0.66774,-0.132 0.19186,-0.0879 0.33986,-0.21483 0.44379,-0.38008 0.10661,-0.16788 0.15976,-0.36617 0.15976,-0.59534 0,-0.17323 -0.0306,-0.32791 -0.0919,-0.46383 -0.0587,-0.13857 -0.14531,-0.25448 -0.2599,-0.34775 -0.11188,-0.096 -0.2465,-0.16923 -0.40374,-0.21986 -0.15457,-0.0506 -0.32651,-0.0759 -0.51571,-0.0759 z m 4.5772,0 c -0.17322,0 -0.32647,0.0358 -0.45972,0.10796 -0.13326,0.0719 -0.23432,0.1749 -0.30361,0.30814 h -0.0282 l -0.0277,-0.37597 h -0.59583 v 2.13475 h 0.62358 v -1.10744 c 0,-0.11724 0.0217,-0.21974 0.0643,-0.30768 0.0453,-0.0906 0.10908,-0.16149 0.19164,-0.21211 0.0827,-0.0506 0.18413,-0.0755 0.30406,-0.0755 0.11726,0 0.21019,0.0249 0.27947,0.0755 0.0692,0.048 0.11863,0.1174 0.14793,0.20802 0.0319,0.0906 0.0483,0.1998 0.0483,0.32772 v 1.09149 h 0.61947 v -1.10744 c 0,-0.11992 0.0231,-0.22384 0.0682,-0.31177 0.0452,-0.088 0.10908,-0.1574 0.19162,-0.20802 0.0852,-0.0506 0.18538,-0.0755 0.29996,-0.0755 0.12259,0 0.21839,0.0249 0.28767,0.0755 0.0693,0.048 0.11717,0.1174 0.14384,0.20802 0.0292,0.0879 0.0441,0.19185 0.0441,0.31177 v 1.10744 h 0.62358 V 136.375 c 0,-0.22652 -0.0358,-0.41185 -0.10795,-0.55577 -0.0693,-0.1439 -0.16939,-0.25214 -0.29996,-0.32407 -0.13058,-0.0719 -0.28912,-0.10796 -0.47567,-0.10796 -0.18654,0 -0.35178,0.0386 -0.49568,0.11606 -0.14391,0.0773 -0.25739,0.19989 -0.34001,0.36779 h -0.0358 c -0.0559,-0.15724 -0.15177,-0.27698 -0.28768,-0.3596 -0.13326,-0.0825 -0.29321,-0.12425 -0.47976,-0.12425 z m 9.49853,0 c -0.25317,0 -0.47586,0.0441 -0.66772,0.132 -0.18924,0.0879 -0.33721,0.21439 -0.44381,0.37961 -0.10393,0.16522 -0.15567,0.36111 -0.15567,0.58762 0,0.1679 0.0278,0.32115 0.0838,0.45973 0.0587,0.13591 0.14103,0.25324 0.24762,0.35185 0.10662,0.0987 0.23591,0.17333 0.38783,0.22394 0.15454,0.0507 0.3279,0.0759 0.51979,0.0759 0.21586,0 0.41316,-0.0335 0.59171,-0.10012 0.18123,-0.0666 0.32778,-0.16241 0.4397,-0.28767 0.11458,-0.12525 0.1783,-0.27181 0.19163,-0.43969 h -0.61949 c -0.0187,0.0719 -0.056,0.13467 -0.11199,0.18799 -0.0559,0.0533 -0.12396,0.0945 -0.20391,0.1238 -0.08,0.0267 -0.16903,0.04 -0.26764,0.04 -0.13058,0 -0.24407,-0.0239 -0.34,-0.0718 -0.096,-0.0481 -0.17018,-0.11982 -0.2235,-0.21576 -0.0507,-0.096 -0.076,-0.21086 -0.076,-0.34411 0,-0.12525 0.0253,-0.23446 0.076,-0.32772 0.0507,-0.0933 0.12391,-0.16655 0.21984,-0.21986 0.0987,-0.0533 0.2145,-0.0802 0.34776,-0.0802 0.10124,0 0.19035,0.0134 0.26765,0.0401 0.0798,0.0267 0.14649,0.0655 0.1998,0.11607 0.0533,0.0507 0.0892,0.11188 0.10796,0.18388 h 0.61175 c -0.0112,-0.16256 -0.0668,-0.30385 -0.16795,-0.42377 -0.10135,-0.12259 -0.23825,-0.21838 -0.41148,-0.28766 -0.17322,-0.0692 -0.37437,-0.10426 -0.60356,-0.10426 z m 2.48842,0 c -0.22387,0 -0.4159,0.0282 -0.5758,0.0842 -0.15989,0.056 -0.28248,0.13451 -0.36776,0.23577 -0.0852,0.0986 -0.12792,0.21834 -0.12792,0.35958 0,0.10393 0.0187,0.19205 0.056,0.264 0.0373,0.0719 0.0972,0.13183 0.17979,0.17979 0.0826,0.048 0.18942,0.0868 0.32,0.11609 0.13058,0.0293 0.28768,0.0519 0.47155,0.0679 0.14124,0.0133 0.25043,0.0291 0.32773,0.0478 0.0799,0.016 0.13595,0.0414 0.16795,0.0761 0.0346,0.0319 0.0519,0.0813 0.0519,0.14792 0,0.088 -0.0441,0.15356 -0.132,0.19619 -0.0852,0.04 -0.20502,0.0597 -0.35958,0.0597 -0.17323,0 -0.30636,-0.0278 -0.39964,-0.0838 -0.0906,-0.0587 -0.13995,-0.14243 -0.14793,-0.25171 h -0.60765 c 0.0133,0.21854 0.11581,0.39288 0.30768,0.52346 0.19189,0.12791 0.46917,0.19208 0.8316,0.19208 0.37843,0 0.65812,-0.0614 0.83933,-0.1839 0.18389,-0.12525 0.27585,-0.28949 0.27585,-0.49203 0,-0.1146 -0.0187,-0.21039 -0.056,-0.28767 -0.0372,-0.0773 -0.0958,-0.14001 -0.17569,-0.18799 -0.08,-0.0507 -0.18531,-0.0889 -0.31588,-0.11562 -0.1306,-0.0293 -0.28911,-0.0523 -0.47566,-0.0682 -0.13324,-0.0133 -0.24148,-0.0277 -0.32408,-0.0437 -0.0825,-0.0186 -0.14251,-0.0427 -0.17979,-0.0718 -0.0345,-0.0319 -0.0519,-0.0775 -0.0519,-0.1361 0,-0.0879 0.0427,-0.15164 0.12789,-0.19163 0.0879,-0.04 0.2,-0.0601 0.33593,-0.0601 0.0879,0 0.16505,0.012 0.23167,0.0358 0.0665,0.0212 0.12024,0.0548 0.16023,0.10012 0.04,0.0427 0.0641,0.0997 0.0719,0.17159 h 0.58763 c -0.0133,-0.14655 -0.0656,-0.27059 -0.15613,-0.37187 -0.0879,-0.10124 -0.20769,-0.17836 -0.35959,-0.23167 -0.14923,-0.0533 -0.32642,-0.0802 -0.53164,-0.0802 z m 10.62917,0 c -0.16788,0 -0.32641,0.0373 -0.47565,0.11199 -0.14924,0.0746 -0.25986,0.17998 -0.33183,0.31589 h -0.0319 l -0.0199,-0.38781 H 162.526 v 2.13476 h 0.61994 v -1.06328 c 0,-0.12526 0.0253,-0.23588 0.0759,-0.33181 0.0533,-0.0959 0.12656,-0.17064 0.21985,-0.22396 0.096,-0.0559 0.20658,-0.0838 0.33182,-0.0838 0.12525,0 0.22632,0.025 0.30361,0.0755 0.0773,0.048 0.13184,0.12028 0.16385,0.21621 0.0346,0.0933 0.0519,0.20916 0.0519,0.34774 v 1.06329 h 0.61995 v -1.17117 c 0,-0.18652 -0.023,-0.34407 -0.0683,-0.47201 -0.0453,-0.13058 -0.10908,-0.23449 -0.19163,-0.31177 -0.08,-0.0773 -0.17763,-0.13332 -0.29222,-0.16797 -0.11188,-0.0346 -0.23695,-0.0519 -0.37552,-0.0519 z m 3.74972,0 c -0.1679,0 -0.32643,0.0373 -0.47567,0.11199 -0.14924,0.0746 -0.25987,0.17998 -0.33182,0.31589 h -0.0319 l -0.02,-0.38781 h -0.59947 v 2.13476 h 0.61949 v -1.06328 c 0,-0.12526 0.0255,-0.23588 0.076,-0.33181 0.0533,-0.0959 0.12657,-0.17064 0.21985,-0.22396 0.096,-0.0559 0.20658,-0.0838 0.33182,-0.0838 0.12525,0 0.22632,0.025 0.30361,0.0755 0.0772,0.048 0.13184,0.12028 0.16385,0.21621 0.0346,0.0933 0.0519,0.20916 0.0519,0.34774 v 1.06329 h 0.61994 v -1.17117 c 0,-0.18652 -0.0231,-0.34407 -0.0682,-0.47201 -0.0453,-0.13058 -0.10908,-0.23449 -0.19163,-0.31177 -0.08,-0.0773 -0.17717,-0.13332 -0.29177,-0.16797 -0.11188,-0.0346 -0.23739,-0.0519 -0.37595,-0.0519 z m 2.18026,0 c -0.19722,0 -0.37155,0.0427 -0.52345,0.12789 -0.14924,0.0825 -0.26658,0.2014 -0.35184,0.35596 -0.0852,0.15455 -0.12791,0.3332 -0.12791,0.53573 0,0.15457 0.0226,0.29442 0.0679,0.41967 0.0452,0.12259 0.11188,0.22891 0.19982,0.31953 0.0879,0.0906 0.19186,0.16005 0.31179,0.20801 0.1226,0.048 0.26003,0.0719 0.41191,0.0719 0.16791,0 0.3226,-0.033 0.46384,-0.0997 0.1439,-0.0665 0.24783,-0.16 0.31179,-0.27991 h 0.0277 v 0.35183 c 0,0.1093 -0.0253,0.19693 -0.0759,0.26356 -0.0506,0.0693 -0.12105,0.11862 -0.21164,0.14793 -0.0906,0.0319 -0.1974,0.0483 -0.31999,0.0483 -0.096,0 -0.18119,-0.0112 -0.25581,-0.0323 -0.0745,-0.0187 -0.13452,-0.0494 -0.17979,-0.0919 -0.0427,-0.04 -0.0703,-0.0879 -0.0838,-0.14384 h -0.59171 c 0.0133,0.13592 0.0642,0.25612 0.15202,0.36004 0.0879,0.10393 0.21153,0.18248 0.37142,0.23579 0.15989,0.056 0.35338,0.0838 0.5799,0.0838 0.20786,0 0.38746,-0.0212 0.53937,-0.0638 0.15457,-0.04 0.28244,-0.10135 0.3837,-0.18389 0.10404,-0.08 0.18153,-0.1786 0.23214,-0.29587 0.0507,-0.11725 0.0759,-0.25183 0.0759,-0.40374 v -1.89488 h -0.58398 l -0.0236,0.33594 h -0.0323 c -0.0641,-0.1146 -0.1636,-0.20513 -0.2995,-0.27174 -0.13324,-0.0692 -0.28936,-0.10426 -0.46791,-0.10426 z m 4.0178,0 c -0.17322,0 -0.32648,0.0358 -0.45973,0.10796 -0.13325,0.0719 -0.2343,0.1749 -0.3036,0.30814 h -0.0282 l -0.0282,-0.37597 h -0.59534 v 2.13475 h 0.62356 v -1.10744 c 0,-0.11724 0.0211,-0.21974 0.0638,-0.30768 0.0452,-0.0906 0.10952,-0.16149 0.19208,-0.21211 0.0825,-0.0506 0.18368,-0.0755 0.3036,-0.0755 0.11727,0 0.21064,0.0249 0.27993,0.0755 0.0693,0.048 0.11863,0.1174 0.14794,0.20802 0.0319,0.0906 0.0483,0.1998 0.0483,0.32772 v 1.09149 h 0.61948 v -1.10744 c 0,-0.11992 0.0224,-0.22384 0.0679,-0.31177 0.0452,-0.088 0.10953,-0.1574 0.19208,-0.20802 0.0852,-0.0506 0.18491,-0.0755 0.29951,-0.0755 0.12258,0 0.21883,0.0249 0.28812,0.0755 0.0692,0.048 0.11717,0.1174 0.14384,0.20802 0.0293,0.0879 0.0437,0.19185 0.0437,0.31177 v 1.10744 h 0.62359 V 136.375 c 0,-0.22652 -0.0358,-0.41185 -0.10796,-0.55577 -0.0693,-0.1439 -0.16891,-0.25214 -0.29949,-0.32407 -0.13059,-0.0719 -0.28912,-0.10796 -0.47566,-0.10796 -0.18655,0 -0.35178,0.0386 -0.49567,0.11606 -0.14391,0.0773 -0.25742,0.19989 -0.34002,0.36779 h -0.0358 c -0.056,-0.15724 -0.15174,-0.27698 -0.28766,-0.3596 -0.13324,-0.0825 -0.2932,-0.12425 -0.47975,-0.12425 z m 8.46847,0 c -0.25318,0 -0.47442,0.0455 -0.66364,0.1361 -0.18655,0.0879 -0.3331,0.21582 -0.43969,0.38369 -0.10393,0.16525 -0.15614,0.36496 -0.15614,0.59947 0,0.22652 0.0523,0.42142 0.15614,0.58398 0.10393,0.16257 0.25049,0.28759 0.43969,0.37552 0.19187,0.088 0.41554,0.132 0.67138,0.132 0.21853,0 0.4144,-0.0291 0.58762,-0.0878 0.17322,-0.0587 0.31451,-0.14147 0.42376,-0.24807 0.1093,-0.1093 0.17486,-0.23426 0.1962,-0.37551 h -0.58764 c -0.0293,0.0852 -0.0988,0.15423 -0.208,0.20756 -0.10931,0.0533 -0.24144,0.0801 -0.39601,0.0801 -0.13325,0 -0.24915,-0.0217 -0.34776,-0.0643 -0.0986,-0.0427 -0.17426,-0.10493 -0.22757,-0.18753 -0.0533,-0.0852 -0.083,-0.18536 -0.0882,-0.29995 h 1.85891 c 0.0187,-0.2585 -0.0187,-0.47976 -0.11199,-0.66364 -0.0933,-0.18389 -0.23455,-0.32516 -0.42376,-0.42376 -0.18655,-0.0987 -0.41406,-0.14793 -0.68321,-0.14793 z m -37.20893,0.004 c -0.20786,0 -0.39176,0.0455 -0.55166,0.13609 -0.15722,0.088 -0.27983,0.21438 -0.36778,0.37962 -0.0879,0.16522 -0.13199,0.3611 -0.13199,0.58763 0,0.16787 0.0239,0.3197 0.0718,0.45562 0.0506,0.13591 0.12247,0.25325 0.21573,0.35185 0.0933,0.0959 0.20392,0.17062 0.33184,0.22394 0.13059,0.0507 0.27472,0.076 0.43194,0.076 0.18122,0 0.34359,-0.0358 0.4875,-0.10796 0.14656,-0.0745 0.25193,-0.17327 0.31589,-0.29585 h 0.0282 v 0.36367 h 0.61948 v -2.13476 h -0.58761 l -0.02,0.35187 h -0.0241 c -0.0427,-0.0773 -0.10113,-0.14387 -0.1757,-0.19983 -0.0745,-0.0586 -0.16513,-0.10415 -0.27174,-0.13609 -0.10661,-0.0346 -0.23062,-0.0519 -0.37187,-0.0519 z m 14.51907,0 c -0.20785,0 -0.39176,0.0455 -0.55168,0.13609 -0.15721,0.088 -0.27982,0.21438 -0.36775,0.37962 -0.0879,0.16522 -0.13156,0.3611 -0.13156,0.58763 0,0.16787 0.024,0.3197 0.0718,0.45562 0.0507,0.13591 0.12247,0.25325 0.21576,0.35185 0.0933,0.0959 0.20389,0.17062 0.33182,0.22394 0.13057,0.0507 0.27427,0.076 0.4315,0.076 0.1812,0 0.34403,-0.0358 0.48794,-0.10796 0.14657,-0.0745 0.25193,-0.17327 0.31588,-0.29585 h 0.0277 v 0.36367 h 0.61951 v -2.13476 h -0.58765 l -0.0199,0.35187 h -0.0237 c -0.0427,-0.0773 -0.10157,-0.14387 -0.17614,-0.19983 -0.0746,-0.0586 -0.16514,-0.10415 -0.27173,-0.13609 -0.10662,-0.0346 -0.23065,-0.0519 -0.37188,-0.0519 z m 18.04437,0 c -0.20786,0 -0.39132,0.0455 -0.55121,0.13609 -0.15723,0.088 -0.27984,0.21438 -0.36778,0.37962 -0.0879,0.16522 -0.132,0.3611 -0.132,0.58763 0,0.16787 0.024,0.3197 0.0718,0.45562 0.0507,0.13591 0.12247,0.25325 0.21576,0.35185 0.0933,0.0959 0.20389,0.17062 0.33182,0.22394 0.13045,0.0505 0.2749,0.076 0.43196,0.076 0.18103,-4e-5 0.3437,-0.0358 0.48748,-0.10796 0.14656,-0.0745 0.25192,-0.17327 0.31588,-0.29585 h 0.0277 v 0.36367 h 0.6195 v -2.13476 h -0.58763 l -0.0199,0.35187 h -0.0237 c -0.0427,-0.0773 -0.10158,-0.14387 -0.17615,-0.19983 -0.0746,-0.0586 -0.16513,-0.10415 -0.27173,-0.13609 -0.10661,-0.0346 -0.23065,-0.0519 -0.37187,-0.0519 z m 9.71246,0 c -0.20786,0 -0.39178,0.0455 -0.55165,0.13609 -0.15725,0.088 -0.27986,0.21438 -0.3678,0.37962 -0.0879,0.16522 -0.132,0.3611 -0.132,0.58763 0,0.16787 0.0239,0.3197 0.0718,0.45562 0.0507,0.13591 0.12249,0.25325 0.21577,0.35185 0.0933,0.0959 0.2039,0.17062 0.33181,0.22394 0.13059,0.0507 0.27472,0.076 0.43196,0.076 0.18122,0 0.34359,-0.0358 0.48749,-0.10796 0.14658,-0.0745 0.25193,-0.17327 0.3159,-0.29585 h 0.0277 v 0.36367 h 0.61995 v -2.13476 h -0.58763 l -0.0201,0.35187 h -0.0241 c -0.0427,-0.0773 -0.10112,-0.14387 -0.17569,-0.19983 -0.0745,-0.0586 -0.16559,-0.10415 -0.27219,-0.13609 -0.10662,-0.0346 -0.23019,-0.0519 -0.37142,-0.0519 z m -47.92412,0.004 c -0.14124,0 -0.26385,0.0345 -0.36777,0.10381 -0.10393,0.0665 -0.17861,0.15857 -0.22396,0.27583 h -0.0199 l -0.0237,-0.34776 h -0.56395 v 2.13477 h 0.61993 v -1.05146 c 0.006,-0.13058 0.0303,-0.23737 0.0755,-0.31998 0.048,-0.0825 0.11357,-0.14391 0.19618,-0.18389 0.0827,-0.04 0.18127,-0.0597 0.29586,-0.0597 0.0319,0 0.0636,7.4e-4 0.0956,0.004 0.0346,0.002 0.0682,0.008 0.10012,0.016 v -0.55942 c -0.024,-0.006 -0.0522,-0.008 -0.0842,-0.008 -0.0293,-0.002 -0.0625,-0.004 -0.0997,-0.004 z m 18.8787,0 c -0.14124,0 -0.26385,0.0345 -0.36777,0.10381 -0.10404,0.0665 -0.17868,0.15857 -0.22395,0.27583 h -0.02 l -0.0241,-0.34776 h -0.5635 v 2.13477 h 0.61949 v -1.05146 c 0.006,-0.13058 0.0306,-0.23737 0.076,-0.31998 0.048,-0.0825 0.11312,-0.14391 0.19574,-0.18389 0.0825,-0.04 0.18126,-0.0597 0.29585,-0.0597 0.0319,0 0.0641,7.4e-4 0.0961,0.004 0.0345,0.002 0.0681,0.008 0.10012,0.016 v -0.55942 c -0.024,-0.006 -0.0523,-0.008 -0.0842,-0.008 -0.0293,-0.002 -0.0624,-0.004 -0.0997,-0.004 z m 26.67853,0 c -0.14124,0 -0.26385,0.0345 -0.36777,0.10381 -0.10393,0.0665 -0.17861,0.15857 -0.22396,0.27583 h -0.02 l -0.0238,-0.34776 h -0.56348 v 2.13477 h 0.61947 v -1.05146 c 0.006,-0.13058 0.0307,-0.23737 0.0759,-0.31998 0.048,-0.0825 0.11311,-0.14391 0.19572,-0.18389 0.0827,-0.04 0.18126,-0.0597 0.29587,-0.0597 0.0319,0 0.0641,7.4e-4 0.0961,0.004 0.0346,0.002 0.0678,0.008 0.0997,0.016 v -0.55942 c -0.0239,-0.006 -0.0519,-0.008 -0.0838,-0.008 -0.0293,-0.002 -0.0628,-0.004 -0.10012,-0.004 z m -58.38123,0.0319 v 2.13475 h 0.61994 v -2.13475 z m 3.73375,0 v 2.13475 h 0.61996 v -2.13475 z m 18.24057,0 v 2.13475 h 0.61948 v -2.13475 z m 12.83813,0 v 2.13475 h 0.61948 v -2.13475 z m 3.74969,0 v 2.13475 h 0.61949 v -2.13475 z m 20.22921,0 v 2.13475 h 0.61948 v -2.13475 z m -3.1143,0.38781 c 0.13058,0 0.2398,0.0202 0.32773,0.0601 0.0906,0.04 0.16004,0.097 0.20801,0.17159 0.0432,0.0678 0.0681,0.14663 0.0746,0.23623 h -1.25356 c 0.0157,-0.093 0.0477,-0.1728 0.0956,-0.23987 0.056,-0.0746 0.12924,-0.13067 0.21984,-0.16795 0.0933,-0.04 0.20248,-0.0601 0.32773,-0.0601 z m -12.27415,0.02 c 0.11992,0 0.22242,0.0226 0.30769,0.0679 0.0879,0.0452 0.15595,0.10807 0.20391,0.18801 0.048,0.0772 0.0718,0.1678 0.0718,0.27173 v 0.10012 c 0,0.0987 -0.0253,0.18626 -0.076,0.26356 -0.048,0.0773 -0.11598,0.13761 -0.20392,0.18024 -0.0852,0.0427 -0.1892,0.0638 -0.31178,0.0638 -0.11462,0 -0.21566,-0.0212 -0.30361,-0.0638 -0.0879,-0.0452 -0.15594,-0.11098 -0.20393,-0.19619 -0.048,-0.0852 -0.0718,-0.18633 -0.0718,-0.3036 0,-0.11725 0.024,-0.21734 0.0718,-0.29995 0.0481,-0.0852 0.11599,-0.15184 0.20393,-0.19983 0.0906,-0.048 0.19453,-0.0719 0.31179,-0.0719 z m -44.94867,0.0241 c 0.008,-2e-4 0.0167,0 0.025,0 0.0933,0 0.1771,0.0144 0.25172,0.0437 0.0772,0.0292 0.14241,0.0705 0.19573,0.12382 0.056,0.0533 0.0972,0.12032 0.1238,0.20027 0.0293,0.0773 0.0442,0.16494 0.0442,0.26356 0,0.1359 -0.0254,0.25036 -0.0759,0.34363 -0.0507,0.0933 -0.12249,0.16561 -0.21575,0.21622 -0.0906,0.048 -0.19838,0.0718 -0.32363,0.0718 -0.13325,0 -0.24914,-0.0253 -0.34776,-0.0759 -0.096,-0.0507 -0.16923,-0.11862 -0.21983,-0.20391 -0.0507,-0.0879 -0.0761,-0.18374 -0.0761,-0.28766 v -0.11199 c 0,-0.10931 0.0255,-0.20793 0.0761,-0.29586 0.0507,-0.088 0.1239,-0.1574 0.21983,-0.20802 0.0925,-0.0501 0.19984,-0.0765 0.32274,-0.0795 z m 3.72649,0.003 c 0.10124,0 0.19179,0.0162 0.27174,0.0483 0.0825,0.0293 0.15204,0.0719 0.20801,0.12791 0.056,0.0533 0.0987,0.11845 0.12789,0.19571 0.0293,0.0773 0.0441,0.16398 0.0441,0.25992 0,0.12791 -0.0255,0.23998 -0.0759,0.33591 -0.0507,0.0933 -0.12533,0.16514 -0.22392,0.21575 -0.0987,0.0507 -0.21595,0.0759 -0.35186,0.0759 -0.10392,0 -0.19686,-0.015 -0.27948,-0.0441 -0.08,-0.0293 -0.14795,-0.0705 -0.20391,-0.1238 -0.056,-0.056 -0.0987,-0.12253 -0.12791,-0.19982 -0.0293,-0.0772 -0.0441,-0.16396 -0.0441,-0.25989 0,-0.12794 0.0255,-0.23857 0.0759,-0.33183 0.0533,-0.096 0.128,-0.16923 0.22395,-0.21985 0.0987,-0.0533 0.21691,-0.0801 0.35548,-0.0801 z m 7.89086,0 c 0.10124,0 0.19179,0.0162 0.27174,0.0483 0.0827,0.0293 0.15206,0.0719 0.20802,0.12791 0.056,0.0533 0.0985,0.11845 0.1279,0.19571 0.0293,0.0773 0.0441,0.16398 0.0441,0.25992 0,0.12791 -0.0254,0.23998 -0.076,0.33591 -0.0507,0.0933 -0.12534,0.16514 -0.22395,0.21575 -0.0987,0.0507 -0.21594,0.0759 -0.35185,0.0759 -0.10393,0 -0.19731,-0.015 -0.27992,-0.0441 -0.08,-0.0293 -0.14751,-0.0705 -0.20347,-0.1238 -0.056,-0.056 -0.0987,-0.12253 -0.1279,-0.19982 -0.0293,-0.0772 -0.0441,-0.16396 -0.0441,-0.25989 0,-0.12794 0.0253,-0.23857 0.076,-0.33183 0.0533,-0.096 0.12802,-0.16923 0.22396,-0.21985 0.0987,-0.0533 0.21691,-0.0801 0.35548,-0.0801 z m 8.58865,0 c 0.13324,0 0.24769,0.0253 0.34364,0.0759 0.096,0.0507 0.16922,0.11865 0.21984,0.20393 0.0507,0.0852 0.0759,0.18106 0.0759,0.28766 v 0.11608 c 0,0.10661 -0.0253,0.20381 -0.0759,0.29175 -0.048,0.0879 -0.11982,0.1588 -0.21575,0.21213 -0.096,0.0533 -0.21087,0.0796 -0.3441,0.0796 -0.12527,0 -0.23446,-0.0253 -0.32772,-0.076 -0.0933,-0.0507 -0.16516,-0.12248 -0.21578,-0.21576 -0.0507,-0.096 -0.076,-0.21041 -0.076,-0.34365 0,-0.13592 0.0253,-0.25038 0.076,-0.34365 0.0533,-0.0933 0.12515,-0.16416 0.21578,-0.21211 0.0933,-0.0507 0.20148,-0.076 0.32409,-0.076 z m 14.51905,0 c 0.13326,0 0.24771,0.0253 0.34366,0.0759 0.096,0.0507 0.16922,0.11865 0.21984,0.20393 0.0507,0.0852 0.0761,0.18106 0.0761,0.28766 v 0.11608 c 0,0.10661 -0.0253,0.20381 -0.0761,0.29175 -0.048,0.0879 -0.11981,0.1588 -0.21576,0.21213 -0.096,0.0533 -0.21039,0.0796 -0.34364,0.0796 -0.12524,0 -0.23444,-0.0253 -0.32773,-0.076 -0.0933,-0.0507 -0.16512,-0.12248 -0.21575,-0.21576 -0.0506,-0.096 -0.076,-0.21041 -0.076,-0.34365 0,-0.13592 0.0255,-0.25038 0.076,-0.34365 0.0533,-0.0933 0.12515,-0.16416 0.21575,-0.21211 0.0933,-0.0507 0.20104,-0.076 0.32363,-0.076 z m 18.04437,0 c 0.13324,0 0.24818,0.0253 0.34411,0.0759 0.096,0.0507 0.16923,0.11865 0.21985,0.20393 0.0507,0.0852 0.0755,0.18106 0.0755,0.28766 v 0.11608 c 0,0.10661 -0.0249,0.20381 -0.0755,0.29175 -0.048,0.0879 -0.12027,0.1588 -0.21621,0.21213 -0.096,0.0533 -0.21041,0.0796 -0.34366,0.0796 -0.12523,0 -0.23445,-0.0253 -0.32772,-0.076 -0.0933,-0.0507 -0.16513,-0.12248 -0.21574,-0.21576 -0.0507,-0.096 -0.076,-0.21041 -0.076,-0.34365 0,-0.13592 0.0255,-0.25038 0.076,-0.34365 0.0533,-0.0933 0.12514,-0.16416 0.21574,-0.21211 0.0933,-0.0507 0.20105,-0.076 0.32363,-0.076 z m 9.71199,0 c 0.13326,0 0.24819,0.0253 0.34412,0.0759 0.096,0.0507 0.16923,0.11865 0.21984,0.20393 0.0507,0.0852 0.076,0.18106 0.076,0.28766 v 0.11608 c 0,0.10661 -0.0254,0.20381 -0.076,0.29175 -0.048,0.0879 -0.12026,0.1588 -0.21621,0.21213 -0.096,0.0533 -0.21039,0.0796 -0.34365,0.0796 -0.12524,0 -0.23444,-0.0253 -0.32772,-0.076 -0.0933,-0.0507 -0.16513,-0.12248 -0.21574,-0.21576 -0.0507,-0.096 -0.076,-0.21041 -0.076,-0.34365 0,-0.13592 0.0253,-0.25038 0.076,-0.34365 0.0533,-0.0933 0.12514,-0.16416 0.21574,-0.21211 0.0933,-0.0507 0.20105,-0.076 0.32362,-0.076 z" /><rect
         style="font-variation-settings:'wdth' 75, 'wght' 400;fill:#999999;fill-opacity:1;stroke-width:1.67352;stroke-linejoin:bevel"
         id="rect9016"
         width="0.095015816"
         height="15.996076"
         x="118.74702"
         y="126.28485" /><g
         id="g14466"
         transform="matrix(0.80606099,0,0,0.80606099,-13.609728,92.074496)"><path
           id="path14456"
           style="color:#000000;fill:url(#linearGradient14468);fill-opacity:1;stroke-width:0.149456;stroke-linecap:round;-inkscape-stroke:none;paint-order:stroke fill markers"
           d="m 95.193525,24.77519 c -0.31393,9.9e-5 -0.60818,0.199137 -0.73395,0.48526 -0.7239,1.462507 -1.447986,2.924933 -2.171803,4.387423 -1.638942,0.237411 -3.279229,0.468084 -4.91732,0.71001 -0.373403,0.05971 -0.668222,0.415657 -0.654401,0.79404 -0.0031,0.262805 0.149441,0.496091 0.343386,0.66197 1.142432,1.117278 2.284845,2.234607 3.427323,3.351794 -0.280768,1.633589 -0.568623,3.266303 -0.84479,4.900486 -0.0592,0.37826 0.197035,0.770303 0.566203,0.870346 0.230599,0.07439 0.472257,0.02113 0.681603,-0.105189 1.428767,-0.748852 2.857274,-1.498011 4.286169,-2.246577 1.475041,0.775753 2.94612,1.559535 4.42323,2.331147 0.384511,0.180784 0.887795,-0.01658 1.047205,-0.409804 0.1399,-0.292827 0.0168,-0.612628 -0.0218,-0.913288 -0.24996,-1.471189 -0.49979,-2.942383 -0.749854,-4.413527 1.186574,-1.156703 2.378794,-2.308077 3.562104,-3.467797 0.26565,-0.267961 0.29415,-0.728046 0.0612,-1.025435 -0.15436,-0.21816 -0.4206,-0.314791 -0.67857,-0.335117 -1.57661,-0.231374 -3.153154,-0.463032 -4.729734,-0.694254 -0.73207,-1.485269 -1.45768,-2.974196 -2.19406,-4.457089 -0.13434,-0.258832 -0.41161,-0.421308 -0.70189,-0.424399 z m -0.002,2.59583 c 0.0228,0.0465 0.0457,0.09313 0.0685,0.139637 0.53352,1.081209 1.06053,2.16612 1.598201,3.244981 0.131479,0.256525 0.406149,0.409744 0.68862,0.431042 1.20153,0.176404 2.403049,0.352799 3.604524,0.529128 -0.90018,0.878742 -1.806585,1.751706 -2.703665,2.633365 -0.20379,0.204487 -0.262,0.514273 -0.19555,0.789404 0.20361,1.196864 0.4069,2.393741 0.61067,3.590602 -1.1144,-0.585479 -2.22513,-1.178517 -3.341279,-1.760159 -0.26109,-0.132284 -0.576791,-0.08547 -0.81952,0.0655 -1.071212,0.561315 -2.142262,1.122935 -3.213531,1.684083 0.212569,-1.240338 0.432682,-2.479693 0.64055,-3.720661 0.04355,-0.28467 -0.08998,-0.569194 -0.305384,-0.75241 -0.867968,-0.848825 -1.736045,-1.697504 -2.604001,-2.546401 1.244076,-0.180888 2.489481,-0.354889 3.732637,-0.540483 0.284293,-0.04539 0.514494,-0.259685 0.621962,-0.521172 0.539101,-1.088807 1.077936,-2.177749 1.617256,-3.266451 z m -13.760042,4.195881 -0.0015,0.0028 c -0.883137,0 -1.624448,0.08891 -2.257787,0.308008 -0.633306,0.219187 -1.188939,0.604938 -1.486278,1.178281 l -0.0073,0.01405 -0.0067,0.01413 c -0.203212,0.435558 -0.346218,0.850832 -0.414086,1.258216 v 0.02818 l -0.0073,0.02812 c -0.03073,0.335291 -0.04326,0.787478 -0.04326,1.392833 v 18.427218 c 0,2.829653 0.346698,4.952033 1.19394,6.438063 0.769446,1.37153 2.354594,2.10366 4.472614,2.37864 h 0.0067 c 1.29336,0.1585 2.363298,0.22839 3.236419,0.18622 0.873063,-0.0422 1.562597,-0.1573 2.129558,-0.54983 v -0.008 c 0.493018,-0.34507 0.743534,-0.87757 0.899689,-1.47895 0.156203,-0.60135 0.221831,-1.30917 0.221831,-2.16525 0,-0.7953 -0.06139,-1.45929 -0.221831,-2.02871 -0.159455,-0.56612 -0.429926,-1.0749 -0.914348,-1.39376 -0.300503,-0.20915 -0.593426,-0.36814 -0.957632,-0.42887 -0.362356,-0.0927 -0.699252,-0.0999 -1.236122,-0.0999 -0.172034,0 -0.258216,-0.014 -0.300681,-0.0213 -0.01924,-0.13369 -0.1282,-0.610852 -0.1282,-1.293977 v -17.92678 c 0,-0.590499 -0.01885,-1.038165 -0.07778,-1.421178 0,-0.006 -0.0064,-0.01023 -0.0067,-0.01405 -0.04095,-0.455361 -0.196541,-0.901524 -0.43612,-1.35074 l -0.0067,-0.008 c -0.307165,-0.553087 -0.844291,-0.93816 -1.464075,-1.158372 -0.61977,-0.220187 -1.338917,-0.306986 -2.186112,-0.307003 z m -16.672045,0.774887 c -4.114182,0 -7.757692,1.476521 -10.781372,4.365255 -3.038292,2.875594 -4.587081,6.557949 -4.587081,10.852898 0,4.291527 1.513953,8.043389 4.486212,11.096719 2.967842,3.02179 6.561333,4.57966 10.610993,4.57966 4.476703,0 7.982551,-1.17432 10.338892,-3.61478 0.826569,-0.85608 1.313825,-1.86624 1.313825,-2.92947 V 48.1748 c 0,-1.016628 -0.12075,-1.836587 -0.470809,-2.515275 -0.252019,-0.538 -0.722887,-0.935804 -1.279549,-1.172025 -0.559946,-0.237536 -1.210986,-0.350273 -1.97188,-0.378446 h -0.02224 -6.822823 c -0.855658,0 -1.595789,0.123039 -2.222097,0.43622 -0.528065,0.264045 -0.896407,0.773788 -1.072085,1.335989 l -0.0073,0.02139 -0.0067,0.02216 c -0.129333,0.517425 -0.178709,1.127573 -0.178709,1.864657 0,0.712793 0.05036,1.309134 0.178709,1.822717 v 0.008 0.0081 c 0.150514,0.564421 0.524631,1.065871 1.02165,1.37175 0.581394,0.357786 1.25948,0.428883 2.129572,0.428883 h 2.243098 v 2.750833 C 66.746293,54.48858 65.78421,54.7231 64.64508,54.7231 c -1.74423,0 -3.261988,-0.657358 -4.686861,-2.079063 l -0.0073,-0.0081 c -1.409457,-1.437238 -2.086288,-3.089749 -2.086288,-5.116894 0,-2.061594 0.65686,-3.595126 2.01503,-4.815142 h 0.0073 c 1.394455,-1.276319 2.910706,-1.879409 4.679607,-1.879409 1.36608,0 2.474898,0.315969 3.415127,0.942795 l 0.0072,0.0081 h 0.0067 c 1.130982,0.727051 1.925371,1.17828 2.801193,1.17828 1.275123,0 2.338193,-0.932516 3.407785,-2.386061 v -0.0081 c 0.649889,-0.90415 1.043756,-1.764124 1.043756,-2.64356 0,-0.938126 -0.544543,-1.7807 -1.371768,-2.393397 -2.827284,-2.100216 -5.892398,-3.179637 -9.117369,-3.179637 z m 16.670532,0.859227 c 0.727206,0 1.283092,0.08601 1.644075,0.214401 0.360969,0.128094 0.505555,0.264025 0.585425,0.407872 0.166424,0.314628 0.23713,0.564186 0.250235,0.721055 l 0.0073,0.02818 v 0.03584 c 0.03755,0.226614 0.07144,0.652398 0.07144,1.222456 v 17.926895 c 0,0.974406 -0.03366,1.572576 0.342699,2.200006 l 0.01448,0.0141 0.0067,0.0141 c 0.386299,0.57954 1.047831,0.71473 1.686095,0.71473 0.516048,0 0.882553,0.0504 0.857749,0.0433 l 0.05671,0.0141 0.05049,0.008 c -0.02775,-0.005 0.107185,0.0312 0.306922,0.17131 l 0.01358,0.008 0.01448,0.008 c 0.02606,0.0162 0.137795,0.13133 0.235487,0.47823 0.09772,0.34682 0.164976,0.89179 0.164976,1.59357 0,0.76999 -0.06308,1.36509 -0.164976,1.75745 -0.100329,0.38626 -0.23025,0.53074 -0.256487,0.55076 0,5.5e-4 -0.0064,-5.6e-4 -0.0073,0 -0.107185,0.0726 -0.5485,0.22874 -1.271737,0.26383 -0.727176,0.0354 -1.722914,-0.02 -2.958977,-0.17123 v 0.008 c -1.856917,-0.2418 -2.846881,-0.82742 -3.264762,-1.5724 -0.596172,-1.04326 -0.978618,-2.94641 -0.978618,-5.637216 V 35.79761 c 0,-0.561942 0.01583,-0.962866 0.03583,-1.200367 0.03544,-0.20322 0.118856,-0.476771 0.263907,-0.793576 l 0.0067,-0.0081 c 0.0651,-0.122038 0.189244,-0.252078 0.557078,-0.379451 0.373328,-0.12916 0.960364,-0.214399 1.729125,-0.214399 z m -16.670532,0.766931 v 8.46e-4 c 2.866406,0 5.552178,0.931801 8.14514,2.858035 0.566603,0.419678 0.722071,0.733478 0.722071,1.085757 0,0.359619 -0.205709,0.945759 -0.743072,1.693427 -0.938885,1.271409 -1.711123,1.71436 -2.08654,1.71436 -0.104198,0 -0.882243,-0.251645 -1.907758,-0.907111 l -0.01448,-0.0081 c -1.225254,-0.812805 -2.6851,-1.214039 -4.307325,-1.214039 -2.15114,0 -4.124228,0.793054 -5.773932,2.299871 -1.687391,1.51582 -2.551094,3.594481 -2.551094,6.023928 0,2.408959 0.875839,4.555025 2.558513,6.265749 1.670093,1.670121 3.668524,2.564781 5.844202,2.564781 1.508325,0 2.891646,-0.24729 4.137274,-0.75682 l 0.507586,-0.20714 v -5.580357 h -3.87344 c -0.730132,0 -1.188507,-0.138286 -1.278212,-0.193392 -0.168543,-0.103765 -0.238113,-0.195724 -0.293189,-0.392118 v -0.008 c -0.07744,-0.312579 -0.128198,-0.795996 -0.128198,-1.422182 0,-0.647189 0.05283,-1.133642 0.128198,-1.443191 0.07653,-0.22606 0.14205,-0.29966 0.228067,-0.342687 0.302893,-0.151489 0.808031,-0.264835 1.500967,-0.264835 h 6.780909 c 0.63283,0.02305 1.108295,0.118961 1.400082,0.242746 0.291847,0.123871 0.390581,0.243719 0.449809,0.372113 l 0.0073,0.01413 0.0073,0.02216 c 0.156737,0.297771 0.293324,0.904103 0.293324,1.785803 v 8.51727 c 0,0.58862 -0.231621,1.15964 -0.85042,1.80055 -1.979895,2.05058 -4.978394,3.11554 -9.174147,3.11554 -3.641972,0 -6.734893,-1.32805 -9.445382,-4.08784 -2.706161,-2.77997 -4.030062,-6.043089 -4.030062,-9.959376 0,-3.912874 1.343513,-7.07816 4.086839,-9.674462 2.757806,-2.63475 5.927341,-3.915394 9.659555,-3.915445 z m 57.054232,0.268698 c -0.87824,9.4e-5 -1.60923,0.08512 -2.23537,0.285842 -0.62649,0.200789 -1.18279,0.54731 -1.49255,1.100504 v 0.0082 l -0.008,0.0081 c -0.21079,0.391419 -0.35751,0.771897 -0.42887,1.164687 l -0.008,0.03677 v 0.03584 c -0.0307,0.335251 -0.0422,0.788451 -0.0422,1.393762 v 3.044094 l -2.35879,-0.02818 h -0.007 c -0.82906,0 -1.72679,0.02048 -2.6298,0.03582 v -2.858114 c 0,-0.942095 -0.0488,-1.641489 -0.2281,-2.215684 l -0.008,-0.01413 -0.008,-0.01408 c -0.24126,-0.686802 -0.785,-1.232778 -1.4642,-1.543056 -0.67921,-0.310231 -1.48516,-0.436217 -2.43648,-0.436217 -0.87898,0 -1.6141,0.0836 -2.23686,0.285922 -0.61753,0.200574 -1.15487,0.558475 -1.4505,1.115253 -0.2312,0.383311 -0.41257,0.762689 -0.48565,1.164609 v 0.03592 l -0.008,0.03584 c -0.0307,0.335286 -0.0434,0.787441 -0.0434,1.392755 v 3.06603 c -2.34049,-0.09173 -3.02581,1.100587 -3.33311,2.110723 -0.17046,0.617305 -0.22074,1.406015 -0.22074,2.494266 0,1.150824 0.16296,2.070507 0.72841,2.757093 l 0.008,0.01422 0.007,0.0081 c 0.51184,0.58 1.24716,0.935534 2.00871,0.935534 0.28012,0 0.53682,-0.03891 0.80733,-0.05684 v 4.858314 c 0,2.781599 0.78936,5.036309 2.42915,6.558999 1.62226,1.50648 3.87257,2.22936 6.59468,2.22936 0.58,0 1.01731,-0.0119 1.35067,-0.0433 h 0.0282 l 0.0281,-0.008 c 0.40735,-0.0679 0.82154,-0.21077 1.25716,-0.41412 l 0.0144,-0.008 h 0.007 c 0.57962,-0.28978 0.98567,-0.8334 1.21505,-1.46419 0.22943,-0.63084 0.32167,-1.3709 0.32167,-2.24419 0,-0.75466 -0.0792,-1.39792 -0.27124,-1.95718 -0.19199,-0.5593 -0.52945,-1.05683 -1.03633,-1.34333 -0.42951,-0.24458 -0.88066,-0.40029 -1.34332,-0.44255 -0.39194,-0.0628 -0.86343,-0.0935 -1.49364,-0.0935 -0.43549,0 -0.53394,-0.0828 -0.57083,-0.12814 -0.0527,-0.0889 -0.16497,-0.42947 -0.16497,-1.029056 v -4.494639 l 2.694,0.11454 h 0.0138 c 0.62111,0 1.4622,-0.05981 2.28726,-0.11454 v 4.880405 c 0,2.78151 0.78935,5.03632 2.42917,6.55892 1.62232,1.50648 3.86522,2.22944 6.58736,2.22944 0.58,0 1.01727,-0.0119 1.35073,-0.0432 h 0.0358 l 0.0281,-0.008 c 0.40729,-0.068 0.82141,-0.21087 1.25705,-0.41413 l 0.008,-0.008 h 0.008 c 0.57967,-0.28983 0.98466,-0.83341 1.21404,-1.4642 0.22936,-0.6308 0.3216,-1.36977 0.3216,-2.2431 0,-0.75714 -0.0767,-1.41 -0.2785,-1.97302 -0.20058,-0.55968 -0.55888,-1.04758 -1.07115,-1.32857 -0.40529,-0.24352 -0.84777,-0.40086 -1.30124,-0.44248 -0.39092,-0.0623 -0.86534,-0.0936 -1.49263,-0.0936 -0.4405,0 -0.53622,-0.0842 -0.57177,-0.12937 -0.0527,-0.0889 -0.16396,-0.42943 -0.16396,-1.029063 v -4.479871 l 1.6786,0.09986 h 0.0281 c 0.60524,0 1.05079,-0.0059 1.38642,-0.03583 l 0.0281,-0.0081 h 0.0359 c 0.40737,-0.06786 0.81516,-0.210863 1.2508,-0.41413 l 0.0136,-0.008 0.0221,-0.0081 c 0.5698,-0.295464 0.9509,-0.845141 1.17094,-1.472694 0.22005,-0.627637 0.30793,-1.364489 0.30793,-2.235689 0,-0.883146 -0.0872,-1.620752 -0.30793,-2.250439 -0.21846,-0.62294 -0.60496,-1.16693 -1.17837,-1.450527 -0.42233,-0.236735 -0.85315,-0.397623 -1.30022,-0.436294 h -0.008 c -0.36937,-0.06062 -0.8022,-0.0862 -1.3864,-0.0862 -0.40916,0 -1.10578,0.0608 -1.74271,0.107203 v -2.92948 c 0,-0.9377 -0.0559,-1.637457 -0.27233,-2.228426 0,-0.0052 -0.005,-0.0053 -0.007,-0.0082 -0.2263,-0.687435 -0.75705,-1.239431 -1.42952,-1.550387 -0.67527,-0.312334 -1.48429,-0.43609 -2.43497,-0.43622 z m -7e-5,1.635193 h 7e-5 c 0.80384,0 1.39336,0.120826 1.75012,0.285844 0.35682,0.164976 0.4939,0.32257 0.57918,0.585508 v 0.01405 l 0.007,0.02007 c 0.0865,0.230372 0.18605,0.82916 0.18605,1.686013 v 4.688017 l 0.88611,-0.08627 c 1.12345,-0.102101 1.96104,-0.150297 2.47958,-0.150297 0.56988,0 0.98558,0.03034 1.17203,0.06411 l 0.0358,0.0081 0.0421,0.0081 c 0.15758,0.01196 0.38491,0.07867 0.6718,0.242747 l 0.0221,0.01422 0.0281,0.01396 c 0.1133,0.05456 0.23716,0.164772 0.36481,0.528746 0.12752,0.36397 0.22064,0.945602 0.22064,1.714356 0,0.754921 -0.0923,1.327288 -0.22064,1.69335 -0.12656,0.360775 -0.25404,0.491324 -0.37955,0.558173 0,0 -0.005,0.0061 -0.007,0.0082 -0.31683,0.144999 -0.59047,0.229575 -0.79358,0.264836 -0.22731,0.01834 -0.61585,0.03463 -1.14259,0.03592 l -3.38045,-0.207063 v 6.208905 c 0,0.777298 0.0807,1.413158 0.44363,1.957258 l 0.0136,0.0222 0.0144,0.014 c 0.43189,0.57591 1.15057,0.79366 1.88575,0.79366 0.59666,0 1.04189,0.0264 1.26547,0.064 l 0.0281,0.008 h 0.0358 c 0.19141,0.0141 0.39814,0.0846 0.64328,0.23548 l 0.0215,0.008 0.0221,0.0141 c 0.10226,0.0556 0.2062,0.15561 0.31434,0.45723 0.10796,0.30169 0.18499,0.78558 0.18499,1.42218 0,0.75279 -0.0888,1.32307 -0.22084,1.68593 -0.13203,0.36296 -0.27202,0.49301 -0.41513,0.56451 -0.32118,0.1479 -0.59455,0.22918 -0.79991,0.26491 -0.23883,0.0201 -0.62465,0.0358 -1.15726,0.0358 -2.44008,0 -4.21949,-0.61533 -5.48793,-1.79322 -1.25101,-1.16166 -1.90775,-2.88219 -1.90775,-5.365975 V 47.84272 l -0.87885,0.07137 c -1.20961,0.100868 -2.20558,0.156439 -2.9935,0.157633 l -4.37267,-0.193624 v 6.195385 c 0,0.777256 0.087,1.413076 0.44989,1.957186 l 0.008,0.0222 0.0145,0.014 c 0.43195,0.5759 1.1579,0.79358 1.89307,0.79358 0.59669,0 1.0335,0.0269 1.25714,0.0641 l 0.0358,0.008 h 0.0358 c 0.19299,0.0141 0.42776,0.0906 0.70739,0.25024 0.0869,0.0489 0.19582,0.15194 0.30066,0.45723 0.10477,0.30532 0.17865,0.78931 0.17865,1.42844 0,0.75278 -0.0897,1.32415 -0.22173,1.68702 -0.13203,0.3629 -0.27108,0.493 -0.41413,0.56449 -0.31868,0.14667 -0.58893,0.22764 -0.79366,0.26384 -0.23773,0.0205 -0.6255,0.0367 -1.16461,0.0367 -2.44005,0 -4.21845,-0.6154 -5.48684,-1.79321 -1.25106,-1.16161 -1.90785,-2.88214 -1.90785,-5.365885 v -6.67362 l -0.93652,0.135624 c -0.47292,0.07098 -0.96908,0.107203 -1.49995,0.107203 -0.31655,0 -0.51599,-0.08658 -0.77151,-0.371032 -0.15657,-0.195455 -0.35744,-0.757388 -0.35744,-1.715366 0,-1.025119 0.0776,-1.753373 0.16397,-2.064461 l 0.008,-0.0081 v -0.0081 c 0.10338,-0.392312 0.23385,-0.579966 0.28591,-0.629609 0.25334,-0.200362 0.54924,-0.312897 1.0069,-0.314264 l 2.10123,0.264837 v -4.908715 c 0,-0.555202 0.0161,-0.947758 0.0357,-1.186622 0.029,-0.151359 0.10635,-0.36705 0.27123,-0.634936 l 0.0144,-0.02216 0.0138,-0.02818 c 0.0418,-0.08012 0.15045,-0.208567 0.52132,-0.328938 0.37094,-0.120455 0.96347,-0.199802 1.73645,-0.199802 l -0.004,-0.0032 c 0.80375,0 1.39866,0.118596 1.76479,0.285919 0.36176,0.165152 0.49854,0.330124 0.59287,0.592847 0.0782,0.2556 0.15769,0.856821 0.15769,1.71436 v 4.50961 l 0.82826,-0.01413 c 1.20528,-0.02603 2.3468,-0.04333 3.42246,-0.04333 l 3.99424,0.05051 v -4.69435 c 0,-0.555242 0.0163,-0.947835 0.0358,-1.186694 0.0329,-0.171509 0.10642,-0.395335 0.25015,-0.664288 l 0.008,-0.0081 c 0.0533,-0.09199 0.18266,-0.222666 0.55708,-0.342609 0.38015,-0.121862 0.97077,-0.199797 1.74371,-0.199801 z m 22.61745,5.151727 c -0.79413,0 -1.61242,0.277207 -2.48693,0.756813 -0.65997,0.361926 -1.03894,0.64282 -1.40742,0.943876 -0.0464,-0.08093 -0.0329,-0.179771 -0.0863,-0.257499 -0.66074,-0.998866 -1.926,-1.250801 -3.57176,-1.250801 -0.88314,0 -1.62454,0.08133 -2.25785,0.300593 -0.63331,0.219229 -1.18894,0.604982 -1.48622,1.178279 v 0.0082 0.0081 c -0.20838,0.416773 -0.3604,0.825154 -0.42888,1.236124 v 0.02818 l -0.008,0.02812 c -0.0307,0.335335 -0.0434,0.788484 -0.0434,1.393839 V 58.98629 60.1373 l 0.008,0.0282 c 0.0612,0.8881 0.36145,1.68841 0.97129,2.22201 l 0.0142,0.008 0.008,0.0141 c 0.7776,0.6296 1.85098,0.83676 3.18589,0.83676 0.86903,0 1.6014,-0.084 2.22942,-0.29326 0.628,-0.20933 1.17699,-0.57249 1.49371,-1.12159 l 0.008,-0.0141 0.008,-0.008 c 0.23613,-0.44269 0.39325,-0.86096 0.43619,-1.30023 0.061,-0.38587 0.0862,-0.84356 0.0862,-1.44319 v -8.130482 c 0,-0.4601 0.15058,-0.779423 0.58551,-1.143521 0.50058,-0.394582 0.96143,-0.564503 1.46528,-0.564503 0.61654,0 1.05108,0.103559 1.30023,0.228071 h 0.008 l 0.014,0.0081 c 0.53893,0.253635 1.11568,0.385705 1.70077,0.385705 1.21549,0 2.27562,-0.756768 2.85796,-1.921423 0.5312,-1.06251 0.822,-2.085442 0.822,-3.072361 0,-0.922288 -0.18776,-1.715355 -0.71474,-2.300949 -0.40555,-0.496553 -0.93891,-0.87679 -1.55772,-1.072161 -0.51089,-0.161307 -0.99145,-0.267236 -1.4506,-0.327933 -0.48543,-0.09096 -1.04732,-0.129366 -1.70071,-0.129366 z m -45.097214,0.567434 c -0.41118,0.0051 -0.78916,0.403472 -0.83713,0.820612 -0.0261,0.552513 -0.0729,1.134301 -0.40153,1.603915 -0.71556,1.061184 -1.84828,1.724766 -2.90623,2.396026 -1.104384,-0.707881 -2.321892,-1.400136 -3.00364,-2.565556 -0.279279,-0.457195 -0.253886,-1.002311 -0.320274,-1.511156 -0.09754,-0.401535 -0.448139,-0.790444 -0.893674,-0.737813 -0.621024,0.09084 -0.857067,0.817838 -0.769555,1.365571 0.08101,1.648649 1.067616,3.126808 2.359166,4.100959 0.226065,0.183204 0.465093,0.349843 0.697204,0.525192 -1.156895,0.776772 -2.274596,1.751634 -2.764584,3.096072 -0.613609,1.555257 -0.255704,3.398004 0.810559,4.66932 0.530375,0.66845 1.239824,1.19669 1.954025,1.69614 -0.970649,0.68628 -1.908058,1.48736 -2.45565,2.5345 -0.433281,0.82877 -0.702083,1.79341 -0.565653,2.72944 0.0987,0.51811 0.719842,0.9523 1.204681,0.6127 0.441897,-0.27681 0.474573,-0.83044 0.484796,-1.29784 0.115197,-1.07245 0.997303,-1.83064 1.805182,-2.43997 0.467275,-0.34809 0.965187,-0.65076 1.457417,-0.96164 1.10598,0.70678 2.32249,1.40124 3.00517,2.56648 0.27849,0.45759 0.25345,1.0022 0.31957,1.51108 0.0931,0.52161 0.7161,0.96122 1.20384,0.62444 0.574964,-0.38284 0.497284,-1.15586 0.403344,-1.74935 -0.171844,-1.08043 -0.713284,-2.06734 -1.452154,-2.83656 -0.46467,-0.48921 -1.00396,-0.89768 -1.54807,-1.29328 0.6578,-0.45984 1.31993,-0.95327 1.81228,-1.52699 1.112114,-1.225396 1.563664,-3.040391 1.0276,-4.622369 -0.43775,-1.410988 -1.56734,-2.457667 -2.76165,-3.256256 -0.14885,-0.145299 0.34025,-0.296097 0.44455,-0.4434 1.2609,-0.922077 2.29543,-2.272781 2.494254,-3.857364 0.0903,-0.572228 0.11535,-1.321194 -0.457134,-1.656359 -0.11383,-0.06848 -0.23157,-0.09795 -0.34671,-0.09654 z m 45.097204,1.054477 c 0.5856,0 1.05958,0.04335 1.40009,0.107199 h 0.0213 l 0.0221,0.0081 c 0.35296,0.0443 0.76251,0.135671 1.2151,0.27858 0.35166,0.111066 0.59528,0.277389 0.80726,0.542335 l 0.0215,0.02216 0.0221,0.02147 c 0.12532,0.134836 0.28591,0.513007 0.28591,1.228789 0,0.664858 -0.20114,1.444702 -0.6507,2.343814 -0.39841,0.796967 -0.75714,1.021802 -1.40003,1.021802 -0.33889,0 -0.66011,-0.06734 -0.99337,-0.221813 -0.5767,-0.288336 -1.25238,-0.393121 -2.02962,-0.393121 -0.88781,0 -1.74274,0.325666 -2.47868,0.90827 l -0.008,0.0079 -0.008,0.0081 c -0.73949,0.610862 -1.18561,1.480268 -1.18561,2.408153 v 8.131407 c 0,0.56993 -0.0265,0.99432 -0.0641,1.22153 l -0.008,0.0285 v 0.0282 c -0.0101,0.11777 -0.0844,0.36545 -0.24281,0.67163 h -0.008 c -0.0712,0.12122 -0.21735,0.26792 -0.59284,0.39311 -0.37867,0.1261 -0.95838,0.20715 -1.71545,0.20715 -1.13565,0 -1.83366,-0.23211 -2.14323,-0.47831 -0.21,-0.19021 -0.37295,-0.48947 -0.41413,-1.08676 V 58.98988 45.399965 c 0,-0.561902 0.0161,-0.962829 0.0358,-1.200367 0.0358,-0.204716 0.11614,-0.453735 0.26376,-0.75048 0.0641,-0.123526 0.19131,-0.256533 0.5645,-0.385785 0.37333,-0.129121 0.96035,-0.221893 1.72912,-0.221893 1.44466,0 2.10601,0.343573 2.22202,0.521484 l 0.008,0.0081 0.008,0.01396 c 0.2077,0.302123 0.17561,0.57221 0.27859,0.814662 v 2.536284 l 1.47896,-2.065467 c 0.096,-0.134414 0.25506,-0.330522 0.45723,-0.557008 l 0.008,-0.0081 c 0.12671,-0.126732 0.62382,-0.478091 1.39274,-0.899773 0.72571,-0.397995 1.30752,-0.557087 1.7007,-0.557087 z m -52.001978,0.01892 c 0.03881,0.37744 0.07002,0.680497 0.196562,0.896761 h 5.131482 c 0.12016,-0.245277 0.17251,-0.55164 0.19996,-0.896761 z m 0.765834,1.635348 c 0.318811,0.326789 0.695353,0.618373 1.099588,0.896762 h 1.790741 c 0.40263,-0.278008 0.77996,-0.569111 1.10111,-0.896762 z m 1.994039,4.481183 c 0.0397,0.02477 0.079,0.04943 0.118471,0.07415 1.066689,0.67433 2.24598,1.32262 2.918739,2.433017 0.455831,0.836065 0.27833,1.945717 -0.399209,2.612667 -0.73631,0.82497 -1.71117,1.37674 -2.638001,1.95734 -1.093372,-0.69512 -2.309231,-1.34444 -3.017599,-2.472643 -0.478886,-0.83952 -0.306897,-1.972481 0.381074,-2.648351 0.736695,-0.82373 1.710195,-1.375875 2.636525,-1.95618 z m -0.955242,1.230258 c -0.410136,0.276353 -0.792953,0.56661 -1.121583,0.896762 h 4.150865 c -0.32274,-0.328544 -0.70778,-0.618795 -1.12161,-0.896763 z m -1.740466,1.859714 c -0.07729,0.294299 -0.08287,0.608748 -0.0084,0.896763 h 5.402259 c 0.0775,-0.294423 0.0825,-0.608787 0.007,-0.896763 z m 0.62345,1.859635 c 0.323928,0.328835 0.709255,0.618852 1.122894,0.896687 h 1.907455 c 0.41023,-0.276286 0.79308,-0.566435 1.12135,-0.896687 z m 1.014681,5.815247 c -0.029,0.0209 -0.0581,0.0418 -0.08656,0.063 -0.346505,0.26145 -0.680444,0.53726 -0.953383,0.83374 h 4.19156 c -0.30065,-0.32833 -0.6604,-0.62017 -1.04997,-0.89676 z m -1.590313,1.75012 c -0.04558,0.12508 -0.07847,0.2534 -0.093,0.38601 -0.0033,0.15369 -0.0093,0.3264 -0.03602,0.51075 h 5.562381 c -0.04,-0.35793 -0.0594,-0.65994 -0.12889,-0.89676 z" /><g
           id="g14464"
           transform="matrix(1.1266776,0,0,1.1266776,-26.847022,-4.3370147)"><path
             d="m 162.04455,34.236639 -0.39641,2.466286 c 0.19003,0.124316 0.31583,0.338741 0.31583,0.58283 v 0 c 0,0.01337 -10e-4,0.02644 -0.002,0.03959 v 0 l 2.13346,1.196779 c 0.11856,-0.09339 0.26772,-0.14952 0.43028,-0.14952 v 0 c 0.38463,0 0.69643,0.311797 0.69643,0.696378 v 0 c 0,0.384581 -0.3118,0.696406 -0.69643,0.696406 v 0 c -0.38461,0 -0.69638,-0.311825 -0.69638,-0.696406 v 0 c 0,-0.01542 0.001,-0.03053 0.002,-0.0457 v 0 l -2.12884,-1.19434 c -0.11927,0.09569 -0.27038,0.153193 -0.43521,0.153193 v 0 c -0.18903,0 -0.36016,-0.07553 -0.48568,-0.1978 v 0 l -1.86627,0.744686 v 1.365701 c 0,0.822039 0.67257,1.494614 1.49461,1.494614 v 0 h 4.16347 c 0.82206,0 1.49461,-0.672575 1.49461,-1.494614 v 0 -4.163522 c 0,-0.822012 -0.67255,-1.494559 -1.49461,-1.494559 v 0 z"
             style="fill:url(#radialGradient14470);stroke:none;stroke-width:0.0280368"
             id="path14458" /><path
             d="m 160.41023,34.236639 c -0.82204,0 -1.49461,0.672575 -1.49461,1.494587 v 0 2.188104 l 1.65697,-0.661192 c 0.0122,-0.310395 0.2271,-0.567997 0.5163,-0.644706 v 0 l 0.38203,-2.376793 z"
             style="fill:url(#radialGradient14472);stroke:none;stroke-width:0.0280368"
             id="path14460" /><path
             style="font-variation-settings:'wdth' 75, 'wght' 400;opacity:1;fill:#ffffff;stroke-width:1.04023;stroke-linejoin:bevel"
             d="m 161.4712,34.237116 -0.3824,2.376599 c -0.2892,0.07671 -0.50405,0.334016 -0.51625,0.644405 l -1.65675,0.661459 h -10e-4 v 0.609781 h 5.2e-4 l 1.86655,-0.744657 c 0.12552,0.122271 0.29621,0.197921 0.48524,0.197921 0.16483,0 0.31636,-0.05779 0.43563,-0.153479 l 2.12856,1.194242 c -0.001,0.01517 -0.002,0.03057 -0.002,0.04599 0,0.384581 0.31199,0.696082 0.6966,0.696082 0.38463,0 0.6966,-0.311501 0.6966,-0.696082 0,-0.384575 -0.31197,-0.696598 -0.6966,-0.696598 -0.16256,0 -0.31191,0.05595 -0.43047,0.149345 l -2.1332,-1.19631 c 0.001,-0.01315 0.002,-0.02642 0.002,-0.03979 0,-0.244089 -0.12572,-0.458596 -0.31575,-0.582911 l 0.39636,-2.465999 z"
             id="path14462" /></g></g></g></g></svg>
