<svg width="583.401" height="144" viewBox="0 0 154.358 38.1" xml:space="preserve" xmlns:xlink="http://www.w3.org/1999/xlink" xmlns="http://www.w3.org/2000/svg"><defs><radialGradient fx="0" fy="0" cx="0" cy="0" r="1" gradientUnits="userSpaceOnUse" gradientTransform="matrix(136.52995 0 0 136.53076 86.622 160.544)" spreadMethod="pad" id="b"><stop style="stop-color:#e30613;stop-opacity:1" offset="0"/><stop style="stop-opacity:1;stop-color:#fff" offset=".002"/><stop style="stop-opacity:1;stop-color:#fff" offset=".033"/><stop style="stop-opacity:1;stop-color:#fff" offset=".084"/><stop style="stop-opacity:1;stop-color:red" offset="1"/></radialGradient><radialGradient fx="0" fy="0" cx="0" cy="0" r="1" gradientUnits="userSpaceOnUse" gradientTransform="matrix(139.52888 0 0 139.52971 98.043 160.536)" spreadMethod="pad" id="c"><stop style="stop-opacity:1;stop-color:#fff" offset="0"/><stop style="stop-opacity:1;stop-color:red" offset=".968"/><stop style="stop-opacity:1;stop-color:red" offset="1"/><stop style="stop-opacity:1;stop-color:red" offset="1"/></radialGradient><linearGradient xlink:href="#a" id="d" gradientUnits="userSpaceOnUse" gradientTransform="matrix(.14946 0 0 .14946 460.058 131.38)" x1="-2747.735" y1="-584.572" x2="-2075.523" y2="-584.572"/><linearGradient id="a"><stop offset="0" style="stop-color:#000;stop-opacity:1"/><stop offset=".183" style="stop-color:#3a86ff;stop-opacity:1"/><stop style="stop-color:#8338ec;stop-opacity:1" offset=".387"/><stop offset=".594" style="stop-color:#ff006e;stop-opacity:1"/><stop style="stop-color:#fb5607;stop-opacity:1" offset=".745"/><stop offset="1" style="stop-color:#ffbe0b;stop-opacity:1"/></linearGradient></defs><path style="font-weight:400;font-size:4.53833px;line-height:1.1;font-family:&quot;Mona Sans&quot;;-inkscape-font-specification:&quot;Mona Sans, @wght=649,wdth=125.0&quot;;font-variation-settings:&quot;wdth&quot;125,&quot;wght&quot;649;letter-spacing:-.04301px;fill:#1f2937;stroke:none;stroke-width:4.53659;stroke-linecap:round;stroke-linejoin:round;stroke-miterlimit:10;paint-order:fill markers stroke" d="M126.067 128.867a2.51 2.51 0 0 0-.846.134 1.77 1.77 0 0 0-.64.37 1.608 1.608 0 0 0-.4.585c-.092.228-.138.48-.138.757 0 .28.044.535.133.763.092.224.225.418.396.583.175.162.386.288.634.377.247.086.524.129.831.129.275 0 .53-.037.768-.11.24-.072.45-.18.628-.321.179-.145.317-.324.416-.535.102-.211.154-.455.154-.732v-.282h-2.015v.514h1.217a.91.91 0 0 1-.128.386.882.882 0 0 1-.396.332c-.172.08-.383.12-.634.12a1.47 1.47 0 0 1-.495-.08 1.15 1.15 0 0 1-.386-.238 1.055 1.055 0 0 1-.242-.386 1.493 1.493 0 0 1-.085-.52c0-.247.048-.461.144-.643.096-.181.235-.322.416-.421.185-.1.407-.148.668-.148.185 0 .351.025.5.074.148.05.272.122.371.218a.69.69 0 0 1 .203.35h.802a1.275 1.275 0 0 0-.297-.667 1.583 1.583 0 0 0-.648-.446 2.455 2.455 0 0 0-.931-.163zm2.319.044v.61h.767v-.61zm19.297 0v.61h.767v-.61zm8.645 0v.61h.767v-.61zm12.874 0v.61h.768v-.61zm3.295 0v3.609h.767v-1.317c0-.155.031-.29.094-.406a.71.71 0 0 1 .272-.277.8.8 0 0 1 .41-.104c.156 0 .281.03.377.09a.48.48 0 0 1 .203.266c.043.116.064.26.064.43v1.317h.767v-1.45c0-.23-.028-.426-.084-.584a.874.874 0 0 0-.599-.593 1.572 1.572 0 0 0-.465-.065c-.215 0-.413.047-.594.143a.913.913 0 0 0-.406.391h-.04v-1.45zm-41.787.129-.757.149v.687h-.505v.58h.505v1.43c0 .142.028.26.084.356.06.093.142.162.247.208.106.046.23.07.372.07h.722v-.654h-.41a.354.354 0 0 1-.199-.044c-.04-.033-.06-.092-.06-.178v-1.188h.67v-.58h-.67zm19.297 0-.757.149v.687h-.505v.58h.505v1.43c0 .142.027.26.084.356.06.093.142.162.247.208.106.046.23.07.372.07h.722v-.654h-.41a.355.355 0 0 1-.198-.044c-.04-.033-.06-.092-.06-.178v-1.188h.668v-.58h-.668zm21.52 0-.758.149v.687h-.505v.58h.505v1.43c0 .142.028.26.084.356.06.093.142.162.248.208.105.046.23.07.371.07h.723v-.654h-.411a.355.355 0 0 1-.198-.044c-.04-.033-.06-.092-.06-.178v-1.188h.669v-.58h-.668zm-35.474.787c-.313 0-.587.056-.822.168a1.272 1.272 0 0 0-.544.475 1.366 1.366 0 0 0-.193.743c0 .28.064.522.193.723.129.201.31.356.544.465.238.109.515.163.832.163.27 0 .513-.036.727-.108.215-.073.39-.176.525-.308a.819.819 0 0 0 .242-.465h-.727c-.036.106-.122.191-.257.257a1.11 1.11 0 0 1-.49.1 1.08 1.08 0 0 1-.431-.08.617.617 0 0 1-.282-.232.752.752 0 0 1-.11-.372h2.303c.023-.32-.023-.594-.139-.821a1.187 1.187 0 0 0-.525-.525c-.23-.122-.512-.183-.846-.183zm6.777 0a1.93 1.93 0 0 0-.832.168 1.276 1.276 0 0 0-.55.47 1.322 1.322 0 0 0-.198.733c0 .218.037.411.109.58.076.168.183.311.322.43.142.119.308.21.5.272.194.06.41.09.649.09.316 0 .591-.055.826-.164.237-.11.42-.266.55-.47.131-.208.198-.454.198-.738 0-.215-.038-.406-.114-.574a1.099 1.099 0 0 0-.322-.431 1.43 1.43 0 0 0-.5-.272 2.04 2.04 0 0 0-.638-.094zm3.163 0c-.278 0-.515.035-.713.104-.198.07-.35.167-.456.292a.658.658 0 0 0-.158.445c0 .129.023.238.07.327.045.09.12.163.222.223.102.06.234.107.396.143.162.037.356.065.584.085.175.016.31.036.406.06.098.02.168.05.208.093.042.04.064.1.064.183 0 .109-.054.19-.163.243-.105.05-.254.074-.446.074-.214 0-.38-.035-.495-.104a.386.386 0 0 1-.183-.312h-.752c.016.271.143.487.38.649.238.158.582.237 1.03.237.47 0 .815-.076 1.04-.227.228-.155.341-.359.341-.61a.817.817 0 0 0-.069-.356.546.546 0 0 0-.217-.233 1.17 1.17 0 0 0-.392-.143 4.488 4.488 0 0 0-.589-.084 4.628 4.628 0 0 1-.4-.054.579.579 0 0 1-.223-.09.218.218 0 0 1-.065-.168c0-.109.053-.188.159-.237.108-.05.247-.075.416-.075.108 0 .205.015.287.045a.433.433 0 0 1 .198.123.36.36 0 0 1 .089.213h.727a.777.777 0 0 0-.193-.46 1.023 1.023 0 0 0-.445-.287 1.96 1.96 0 0 0-.658-.1zm6.419 0c-.317 0-.594.056-.832.168a1.277 1.277 0 0 0-.55.47 1.322 1.322 0 0 0-.197.733c0 .218.036.411.109.58.076.168.183.311.321.43.142.119.309.21.5.272.195.06.412.09.65.09.316 0 .591-.055.825-.164.238-.11.421-.266.55-.47.132-.208.198-.454.198-.738 0-.215-.038-.406-.114-.574a1.099 1.099 0 0 0-.322-.431 1.43 1.43 0 0 0-.5-.272 2.04 2.04 0 0 0-.639-.094zm6.596 0c-.314 0-.587.056-.822.168a1.272 1.272 0 0 0-.544.475 1.366 1.366 0 0 0-.193.743c0 .28.064.522.193.723.129.201.31.356.544.465.238.109.515.163.832.163.27 0 .513-.036.727-.108.215-.073.39-.176.525-.308a.819.819 0 0 0 .242-.465h-.727c-.036.106-.123.191-.258.257s-.298.1-.49.1a1.08 1.08 0 0 1-.43-.08.618.618 0 0 1-.282-.232.754.754 0 0 1-.11-.372h2.303c.023-.32-.024-.594-.14-.821a1.187 1.187 0 0 0-.524-.525c-.23-.122-.513-.183-.846-.183zm3.098 0c-.277 0-.514.035-.712.104-.198.07-.35.167-.455.292a.658.658 0 0 0-.159.445c0 .129.023.238.07.327.046.09.12.163.222.223.102.06.234.107.396.143.161.037.357.065.584.085.175.016.31.036.406.06.099.02.168.05.208.093.043.04.064.1.064.183 0 .109-.054.19-.163.243-.106.05-.254.074-.445.074-.215 0-.38-.035-.495-.104a.386.386 0 0 1-.183-.312h-.753c.017.271.144.487.381.649.238.158.581.237 1.03.237.468 0 .815-.076 1.04-.227.227-.155.34-.359.34-.61a.817.817 0 0 0-.069-.356.546.546 0 0 0-.217-.233 1.17 1.17 0 0 0-.391-.143 4.489 4.489 0 0 0-.59-.084 4.644 4.644 0 0 1-.4-.054.58.58 0 0 1-.223-.09c-.043-.039-.064-.095-.064-.168 0-.109.052-.188.158-.237.109-.05.248-.075.416-.075.109 0 .204.015.287.045a.433.433 0 0 1 .198.123c.049.053.079.124.088.213h.728a.777.777 0 0 0-.193-.46 1.025 1.025 0 0 0-.445-.287 1.96 1.96 0 0 0-.659-.1zm-22.398.005c-.257 0-.471.044-.643.133a.882.882 0 0 0-.371.347h-.03l-.025-.436h-.727v3.47h.767v-1.277h.03a.853.853 0 0 0 .232.268 1.227 1.227 0 0 0 .763.232c.264 0 .493-.056.687-.168.195-.116.347-.274.456-.475.109-.205.163-.447.163-.728 0-.211-.031-.4-.094-.57a1.17 1.17 0 0 0-.678-.697 1.366 1.366 0 0 0-.53-.1zm-5.509.005a.802.802 0 0 0-.455.128.69.69 0 0 0-.277.342h-.025l-.029-.43h-.698v2.643h.767v-1.302a.902.902 0 0 1 .094-.396.557.557 0 0 1 .243-.228.834.834 0 0 1 .366-.074 1.173 1.173 0 0 1 .242.025v-.694a.456.456 0 0 0-.103-.01c-.037-.002-.078-.005-.124-.005zm21.62 0a.802.802 0 0 0-.455.128.688.688 0 0 0-.276.342h-.025l-.03-.43h-.698v2.643h.768v-1.302a.902.902 0 0 1 .094-.396.558.558 0 0 1 .242-.228.834.834 0 0 1 .366-.074 1.181 1.181 0 0 1 .243.025v-.694a.455.455 0 0 0-.104-.01c-.037-.002-.078-.005-.124-.005zm-27.433.04v2.643h.767v-2.644zm19.297 0v2.643h.767v-2.644zm8.645 0v2.643h.767v-2.644zm8.259 0 .776 2.643h.907l.485-1.787h.03l.49 1.787h.92l.782-2.644h-.698l-.564 2.005h-.02l-.515-2.005h-.757l-.52 1.99h-.03l-.554-1.99zm4.615 0v2.643h.768v-2.644zm-33.154.48c.162 0 .297.024.406.074a.57.57 0 0 1 .258.213.615.615 0 0 1 .092.292h-1.552a.7.7 0 0 1 .118-.297.635.635 0 0 1 .272-.208c.116-.05.25-.075.406-.075zm22.955 0c.162 0 .297.024.406.074a.569.569 0 0 1 .35.505h-1.552a.703.703 0 0 1 .118-.297.636.636 0 0 1 .272-.208c.116-.05.251-.075.406-.075zm-16.173.059c.125 0 .237.02.336.06a.678.678 0 0 1 .416.4.902.902 0 0 1 .054.322.878.878 0 0 1-.094.416.638.638 0 0 1-.277.267.942.942 0 0 1-.435.094 1.04 1.04 0 0 1-.347-.054.72.72 0 0 1-.253-.154.69.69 0 0 1-.158-.247.902.902 0 0 1-.054-.322c0-.158.031-.295.093-.41a.667.667 0 0 1 .278-.273c.122-.066.269-.1.44-.1zm9.582 0c.126 0 .238.02.337.06a.675.675 0 0 1 .415.4.901.901 0 0 1 .055.322.878.878 0 0 1-.094.416.639.639 0 0 1-.278.267.939.939 0 0 1-.435.094 1.04 1.04 0 0 1-.347-.054.72.72 0 0 1-.252-.154.691.691 0 0 1-.158-.247.902.902 0 0 1-.055-.322.85.85 0 0 1 .094-.41.667.667 0 0 1 .277-.273c.123-.066.27-.1.441-.1zm-12.967 0h.03c.153 0 .286.031.402.094.115.06.204.147.267.262a.88.88 0 0 1 .094.426.862.862 0 0 1-.1.425.66.66 0 0 1-.261.268.807.807 0 0 1-.401.094.978.978 0 0 1-.337-.054.798.798 0 0 1-.248-.159.673.673 0 0 1-.212-.51v-.143c0-.132.031-.251.094-.357a.674.674 0 0 1 .272-.252.91.91 0 0 1 .4-.094zm-15.294 4.37v3.608h.728l.025-.435h.03a.856.856 0 0 0 .217.247c.096.073.21.129.342.169.135.04.286.059.45.059.265 0 .494-.055.688-.164a1.17 1.17 0 0 0 .456-.475c.109-.204.163-.447.163-.727a1.57 1.57 0 0 0-.094-.56 1.273 1.273 0 0 0-.267-.435 1.077 1.077 0 0 0-.41-.277 1.426 1.426 0 0 0-.53-.094c-.222 0-.423.044-.604.133a.86.86 0 0 0-.397.367h-.029v-1.416zm3.448 0v.609h.768v-.609zm4.623 0v.609h.768v-.609zm5.795 0c-.31 0-.548.061-.713.183-.162.122-.243.315-.243.579v.203h-.475v.58h.475v2.063h.768v-2.064h.604v-.58h-.604v-.177c0-.096.025-.167.074-.213.053-.046.13-.07.233-.07h.341v-.503zm16.792 0v.609h.767v-.609zm15.896 0v.609h.768v-.609zm4.644 0v.609h.767v-.609zm25.048 0v.609h.767v-.609zm4.678 0v3.608h.767v-3.608zm-51.236.129-.758.148v.688h-.504v.58h.504v1.43c0 .142.029.26.085.356.06.092.142.162.247.208.106.046.23.07.372.07h.722v-.654h-.41a.354.354 0 0 1-.199-.044c-.04-.033-.06-.093-.06-.179v-1.187h.67v-.58h-.67zm10.548 0-.757.148v.688h-.505v.58h.505v1.43c0 .142.028.26.084.356.06.092.142.162.247.208.106.046.23.07.372.07h.722v-.654h-.41a.354.354 0 0 1-.198-.044c-.04-.033-.06-.093-.06-.179v-1.187h.668v-.58h-.668zm29.774 0-.758.148v.688h-.505v.58h.505v1.43c0 .142.028.26.084.356.06.092.143.162.248.208a.92.92 0 0 0 .371.07h.723v-.654h-.41a.356.356 0 0 1-.199-.044c-.04-.033-.06-.093-.06-.179v-1.187h.67v-.58h-.67zm-63.862.786c-.317 0-.594.057-.831.169a1.277 1.277 0 0 0-.55.47 1.322 1.322 0 0 0-.197.733c0 .217.036.41.108.578.076.169.183.313.322.432.142.119.309.21.5.272.195.06.41.089.648.089.317 0 .593-.055.827-.164.238-.109.42-.266.55-.47.132-.208.197-.454.197-.737 0-.215-.038-.407-.113-.575a1.1 1.1 0 0 0-.322-.43 1.43 1.43 0 0 0-.5-.273 2.047 2.047 0 0 0-.639-.094zm4.96 0c-.208 0-.404.047-.589.14a.91.91 0 0 0-.41.39h-.04l-.025-.48h-.742v2.643h.767v-1.316a.87.87 0 0 1 .094-.411.71.71 0 0 1 .272-.277.802.802 0 0 1 .41-.104c.156 0 .282.03.377.093.096.06.164.15.203.268.043.116.065.259.065.43v1.317h.767v-1.45c0-.23-.028-.426-.085-.584a.938.938 0 0 0-.237-.386.876.876 0 0 0-.362-.208 1.576 1.576 0 0 0-.465-.065zm4.811 0c-.317 0-.594.057-.831.169a1.278 1.278 0 0 0-.55.47 1.322 1.322 0 0 0-.198.733c0 .217.037.41.11.578.075.169.182.313.32.432.143.119.31.21.5.272.196.06.411.089.649.089.317 0 .593-.055.827-.164.237-.109.42-.266.55-.47.131-.208.197-.454.197-.737 0-.215-.038-.407-.114-.575a1.1 1.1 0 0 0-.321-.43 1.43 1.43 0 0 0-.5-.273 2.047 2.047 0 0 0-.639-.094zm5.668 0c-.215 0-.404.045-.57.134a.892.892 0 0 0-.375.382h-.035l-.035-.466h-.737v2.643h.772v-1.37c0-.146.027-.273.08-.382a.632.632 0 0 1 .237-.262.71.71 0 0 1 .376-.094c.145 0 .26.03.346.094.086.059.147.145.183.257.04.112.06.247.06.406v1.351h.767v-1.37c0-.15.029-.278.085-.387a.638.638 0 0 1 .237-.257.715.715 0 0 1 .371-.094c.152 0 .27.03.357.094.085.059.145.145.178.257.036.109.054.238.054.386v1.371h.773v-1.47c0-.28-.045-.51-.134-.688a.879.879 0 0 0-.372-.4 1.206 1.206 0 0 0-.589-.135c-.23 0-.435.048-.613.144a.996.996 0 0 0-.421.456h-.045a.827.827 0 0 0-.356-.446 1.107 1.107 0 0 0-.594-.154zm11.761 0c-.313 0-.589.055-.826.164a1.278 1.278 0 0 0-.55.47 1.338 1.338 0 0 0-.193.727c0 .208.035.398.104.57.073.168.175.313.307.435.132.123.292.215.48.278.191.063.406.094.643.094.268 0 .512-.042.733-.124.225-.083.406-.201.545-.356a.89.89 0 0 0 .237-.545h-.767a.485.485 0 0 1-.139.233.719.719 0 0 1-.252.153c-.1.033-.21.05-.332.05a.933.933 0 0 1-.42-.09.637.637 0 0 1-.277-.266.901.901 0 0 1-.095-.426c0-.156.032-.29.095-.406a.676.676 0 0 1 .272-.273.893.893 0 0 1 .43-.099c.126 0 .236.017.332.05a.657.657 0 0 1 .247.144c.066.062.11.138.134.227h.757a.886.886 0 0 0-.208-.524 1.243 1.243 0 0 0-.51-.357 2.005 2.005 0 0 0-.746-.129zm3.082 0c-.278 0-.515.035-.713.105a1.02 1.02 0 0 0-.456.292.657.657 0 0 0-.158.445c0 .129.023.238.07.327.045.089.12.163.222.222.102.06.234.108.396.144.162.036.356.064.584.084.175.017.31.036.406.06.099.02.168.05.208.094.043.04.064.1.064.183 0 .109-.055.19-.163.243-.106.05-.254.074-.446.074-.214 0-.379-.035-.495-.104a.386.386 0 0 1-.183-.312h-.752c.016.27.143.487.38.648.238.159.582.238 1.03.238.47 0 .816-.076 1.04-.228.228-.155.341-.358.341-.609a.816.816 0 0 0-.069-.356.546.546 0 0 0-.217-.233 1.17 1.17 0 0 0-.392-.143 4.466 4.466 0 0 0-.589-.084 4.632 4.632 0 0 1-.4-.055.577.577 0 0 1-.223-.088.219.219 0 0 1-.065-.169c0-.109.053-.188.159-.237.108-.05.247-.075.416-.075.108 0 .204.015.286.045a.435.435 0 0 1 .199.124c.05.053.08.123.089.212h.727a.777.777 0 0 0-.193-.46 1.023 1.023 0 0 0-.445-.287 1.96 1.96 0 0 0-.658-.1zm13.161 0c-.208 0-.404.047-.589.14a.91.91 0 0 0-.41.39h-.04l-.025-.48h-.743v2.643h.768v-1.316c0-.155.031-.292.094-.411a.71.71 0 0 1 .272-.277.802.802 0 0 1 .411-.104c.155 0 .28.03.376.093.096.06.163.15.203.268.043.116.064.259.064.43v1.317h.768v-1.45c0-.23-.029-.426-.085-.584a.878.878 0 0 0-.6-.594 1.571 1.571 0 0 0-.464-.065zm4.643 0c-.208 0-.404.047-.589.14a.91.91 0 0 0-.41.39h-.04l-.025-.48h-.742v2.643h.767v-1.316a.87.87 0 0 1 .094-.411.71.71 0 0 1 .272-.277.802.802 0 0 1 .411-.104c.155 0 .28.03.376.093.096.06.163.15.203.268.043.116.064.259.064.43v1.317h.768v-1.45a1.77 1.77 0 0 0-.085-.584.876.876 0 0 0-.599-.594 1.575 1.575 0 0 0-.465-.065zm2.7 0c-.244 0-.46.053-.648.159-.185.102-.33.25-.436.44a1.352 1.352 0 0 0-.158.664c0 .191.028.364.084.52a1.115 1.115 0 0 0 .633.653c.152.06.322.089.51.089.208 0 .4-.041.575-.124a.799.799 0 0 0 .386-.346h.034v.435a.525.525 0 0 1-.094.327.507.507 0 0 1-.262.183c-.112.04-.244.06-.396.06-.119 0-.224-.014-.317-.04a.494.494 0 0 1-.223-.114.352.352 0 0 1-.103-.178h-.733c.017.168.08.317.188.446a.998.998 0 0 0 .46.292c.198.069.438.103.718.103.258 0 .48-.026.668-.079.192-.05.35-.125.475-.227a.913.913 0 0 0 .288-.367 1.25 1.25 0 0 0 .094-.5v-2.346h-.723l-.03.416h-.04a.824.824 0 0 0-.37-.337 1.24 1.24 0 0 0-.58-.129zm4.975 0c-.214 0-.404.045-.57.134a.892.892 0 0 0-.375.382h-.035l-.035-.466h-.737v2.643h.772v-1.37c0-.146.026-.273.079-.382a.633.633 0 0 1 .238-.262.707.707 0 0 1 .376-.094c.145 0 .26.03.346.094.086.059.147.145.184.257.04.112.06.247.06.406v1.351h.766v-1.37c0-.15.028-.278.085-.387a.64.64 0 0 1 .237-.257.713.713 0 0 1 .371-.094c.152 0 .271.03.357.094.086.059.145.145.178.257.036.109.054.238.054.386v1.371h.772v-1.47c0-.28-.044-.51-.133-.688a.878.878 0 0 0-.371-.4 1.206 1.206 0 0 0-.59-.135c-.23 0-.435.048-.613.144a.996.996 0 0 0-.42.456h-.045a.828.828 0 0 0-.356-.446 1.107 1.107 0 0 0-.594-.154zm10.486 0c-.313 0-.587.057-.822.169a1.272 1.272 0 0 0-.544.475 1.366 1.366 0 0 0-.193.742c0 .28.064.522.193.723.129.202.31.357.544.465.238.11.515.164.832.164.27 0 .513-.036.727-.109.215-.073.39-.175.525-.307a.82.82 0 0 0 .243-.465h-.728c-.036.105-.122.191-.257.257a1.11 1.11 0 0 1-.49.1 1.08 1.08 0 0 1-.431-.08.616.616 0 0 1-.282-.233.753.753 0 0 1-.11-.371h2.303c.023-.32-.024-.594-.14-.822a1.187 1.187 0 0 0-.524-.525c-.23-.122-.512-.183-.846-.183zm-46.074.005c-.257 0-.485.057-.683.169a1.138 1.138 0 0 0-.455.47 1.529 1.529 0 0 0-.164.728c0 .207.03.395.09.564.062.168.15.313.266.435.116.12.253.212.411.278.162.063.34.094.535.094.224 0 .425-.044.604-.134a.864.864 0 0 0 .39-.366h.036v.45h.767v-2.643h-.728l-.025.435h-.03a.778.778 0 0 0-.217-.247 1.004 1.004 0 0 0-.336-.168 1.492 1.492 0 0 0-.46-.065zm17.978 0c-.257 0-.485.057-.683.169a1.138 1.138 0 0 0-.455.47 1.529 1.529 0 0 0-.163.728c0 .207.03.395.089.564.063.168.152.313.267.435.116.12.253.212.411.278.162.063.34.094.534.094.225 0 .426-.044.604-.134a.864.864 0 0 0 .392-.366h.034v.45h.767v-2.643h-.728l-.024.435h-.03a.78.78 0 0 0-.218-.247 1.006 1.006 0 0 0-.336-.168 1.492 1.492 0 0 0-.46-.065zm22.344 0a1.36 1.36 0 0 0-.683.169 1.138 1.138 0 0 0-.455.47 1.529 1.529 0 0 0-.164.728c0 .207.03.395.09.564.062.168.151.313.267.435.115.12.252.212.41.278.162.062.34.094.535.094.224 0 .426-.044.604-.134a.864.864 0 0 0 .391-.366h.034v.45h.767v-2.643h-.727l-.025.435h-.03a.78.78 0 0 0-.217-.247 1.005 1.005 0 0 0-.337-.168 1.492 1.492 0 0 0-.46-.065zm12.026 0c-.257 0-.485.057-.683.169a1.138 1.138 0 0 0-.455.47 1.529 1.529 0 0 0-.164.728c0 .207.03.395.09.564.062.168.15.313.266.435.116.12.253.212.411.278.162.063.34.094.535.094.225 0 .426-.044.604-.134a.864.864 0 0 0 .39-.366h.035v.45h.768v-2.643h-.728l-.025.435h-.03a.778.778 0 0 0-.217-.247 1.008 1.008 0 0 0-.337-.168 1.489 1.489 0 0 0-.46-.065zm-59.342.005a.801.801 0 0 0-.455.129.69.69 0 0 0-.277.341h-.025l-.03-.43h-.698v2.643h.768v-1.302a.906.906 0 0 1 .093-.396.558.558 0 0 1 .243-.228.834.834 0 0 1 .367-.074 1.15 1.15 0 0 1 .242.025v-.692a.461.461 0 0 0-.104-.01c-.037-.002-.078-.005-.124-.005zm23.377 0a.801.801 0 0 0-.456.129.69.69 0 0 0-.277.341h-.025l-.03-.43h-.697v2.643h.767v-1.302a.903.903 0 0 1 .094-.396.557.557 0 0 1 .242-.228.834.834 0 0 1 .367-.074 1.162 1.162 0 0 1 .243.025v-.692a.462.462 0 0 0-.105-.01c-.036-.002-.077-.005-.123-.005zm33.035 0a.801.801 0 0 0-.456.129.69.69 0 0 0-.277.341h-.025l-.03-.43h-.697v2.643h.767v-1.302a.905.905 0 0 1 .094-.396.557.557 0 0 1 .242-.228.834.834 0 0 1 .367-.074 1.162 1.162 0 0 1 .242.025v-.692a.457.457 0 0 0-.104-.01c-.036-.002-.078-.005-.124-.005zm-72.291.04v2.643h.768v-2.643zm4.623 0v2.643h.768v-2.643zm22.587 0v2.643h.767v-2.643zm15.896 0v2.643h.768v-2.643zm4.644 0v2.643h.767v-2.643zm25.048 0v2.643h.767v-2.643zm-3.856.48c.162 0 .297.025.406.074a.57.57 0 0 1 .257.213.619.619 0 0 1 .093.292h-1.552a.705.705 0 0 1 .118-.297.635.635 0 0 1 .272-.208c.116-.049.25-.074.406-.074zm-15.198.025c.148 0 .275.028.38.084a.616.616 0 0 1 .342.57v.123a.58.58 0 0 1-.094.327.595.595 0 0 1-.253.223.855.855 0 0 1-.386.079.852.852 0 0 1-.376-.08.598.598 0 0 1-.252-.242.754.754 0 0 1-.089-.376c0-.145.03-.27.089-.372a.63.63 0 0 1 .252-.247.813.813 0 0 1 .386-.089zm-55.658.03h.03c.116 0 .22.017.313.054a.676.676 0 0 1 .242.153c.07.066.12.15.153.248a.914.914 0 0 1 .055.326c0 .169-.031.31-.094.426a.653.653 0 0 1-.267.268.845.845 0 0 1-.4.089.93.93 0 0 1-.432-.094.673.673 0 0 1-.272-.253.7.7 0 0 1-.094-.356v-.139c0-.135.032-.257.094-.366a.663.663 0 0 1 .272-.258.871.871 0 0 1 .4-.098zm4.614.004c.126 0 .238.02.337.06a.68.68 0 0 1 .416.4.902.902 0 0 1 .054.322.882.882 0 0 1-.094.416.639.639 0 0 1-.277.267.942.942 0 0 1-.436.094c-.128 0-.243-.018-.346-.054a.72.72 0 0 1-.252-.154.69.69 0 0 1-.159-.247.901.901 0 0 1-.054-.322c0-.158.031-.295.094-.41a.667.667 0 0 1 .277-.273.913.913 0 0 1 .44-.1zm9.771 0c.125 0 .238.02.337.06a.677.677 0 0 1 .416.4.902.902 0 0 1 .054.322.88.88 0 0 1-.094.416.639.639 0 0 1-.277.267.942.942 0 0 1-.436.094 1.04 1.04 0 0 1-.347-.054.717.717 0 0 1-.252-.154.69.69 0 0 1-.158-.247.901.901 0 0 1-.054-.322c0-.158.03-.295.094-.41a.667.667 0 0 1 .277-.273.913.913 0 0 1 .44-.1zm10.635 0a.9.9 0 0 1 .425.094c.12.062.21.147.273.252a.683.683 0 0 1 .094.356v.144a.71.71 0 0 1-.094.361.662.662 0 0 1-.267.263.865.865 0 0 1-.427.099.836.836 0 0 1-.405-.094.652.652 0 0 1-.268-.268.9.9 0 0 1-.094-.425.88.88 0 0 1 .094-.426.66.66 0 0 1 .268-.262.828.828 0 0 1 .401-.094zm17.978 0a.9.9 0 0 1 .426.094c.119.062.21.147.272.252a.683.683 0 0 1 .094.356v.144a.709.709 0 0 1-.361.624.863.863 0 0 1-.426.099.837.837 0 0 1-.406-.094.652.652 0 0 1-.267-.268.901.901 0 0 1-.094-.425c0-.168.032-.31.094-.426a.66.66 0 0 1 .267-.262.825.825 0 0 1 .401-.094zm22.344 0c.165 0 .307.031.426.094.119.062.21.147.272.252a.682.682 0 0 1 .093.356v.144a.71.71 0 0 1-.093.361.663.663 0 0 1-.268.263.863.863 0 0 1-.425.099.837.837 0 0 1-.406-.094.651.651 0 0 1-.267-.268.9.9 0 0 1-.094-.425c0-.168.031-.31.094-.426a.66.66 0 0 1 .267-.262.825.825 0 0 1 .4-.094zm12.025 0c.166 0 .308.031.427.094.118.062.21.147.272.252a.683.683 0 0 1 .094.356v.144a.712.712 0 0 1-.094.361.663.663 0 0 1-.268.263.863.863 0 0 1-.425.099.837.837 0 0 1-.406-.094.651.651 0 0 1-.267-.268.9.9 0 0 1-.094-.425.88.88 0 0 1 .094-.426.66.66 0 0 1 .267-.262.825.825 0 0 1 .4-.094z" transform="matrix(.85927 0 0 .85927 -22.515 -96.276)"/><path style="font-variation-settings:&quot;wdth&quot;75,&quot;wght&quot;400;fill:#999;fill-opacity:1;stroke-width:1.67352;stroke-linejoin:bevel" d="M118.747 126.285h.095v15.996h-.095z" transform="matrix(.85927 0 0 .85927 -22.515 -96.276)"/><path style="color:#000;fill:url(#d);fill-opacity:1;stroke-width:.149456;stroke-linecap:round;-inkscape-stroke:none;paint-order:stroke fill markers" d="M95.194 24.775c-.314 0-.609.2-.734.485l-2.172 4.388c-1.64.237-3.28.468-4.918.71a.798.798 0 0 0-.654.794c-.003.263.15.496.343.662l3.428 3.352c-.281 1.633-.569 3.266-.845 4.9a.8.8 0 0 0 .566.87c.23.075.472.022.682-.105l4.286-2.246c1.475.776 2.946 1.56 4.423 2.33a.8.8 0 0 0 1.047-.409c.14-.293.017-.613-.021-.913l-.75-4.414c1.186-1.156 2.379-2.308 3.562-3.468a.798.798 0 0 0 .061-1.025c-.154-.218-.42-.315-.679-.335l-4.73-.694c-.731-1.486-1.457-2.975-2.193-4.457a.805.805 0 0 0-.702-.425zm-.002 2.596.068.14c.534 1.08 1.06 2.166 1.598 3.245.132.256.406.41.689.43l3.604.53c-.9.879-1.806 1.752-2.703 2.633-.204.205-.262.514-.196.79l.61 3.59c-1.114-.585-2.224-1.178-3.34-1.76-.262-.132-.577-.085-.82.066-1.071.56-2.142 1.122-3.214 1.684.213-1.24.433-2.48.641-3.721.044-.285-.09-.57-.305-.752l-2.604-2.547c1.244-.18 2.49-.355 3.732-.54.285-.046.515-.26.622-.522l1.618-3.266zm-13.76 4.196-.002.003c-.883 0-1.624.089-2.258.308-.633.219-1.189.605-1.486 1.178l-.007.014-.007.014c-.203.436-.346.851-.414 1.258v.029l-.007.028c-.031.335-.044.787-.044 1.393v18.427c0 2.83.347 4.952 1.194 6.438.77 1.371 2.355 2.103 4.473 2.378h.007c1.293.159 2.363.229 3.236.187.873-.043 1.563-.158 2.13-.55v-.008c.493-.345.743-.878.9-1.48.155-.6.221-1.308.221-2.164 0-.796-.061-1.46-.222-2.03-.16-.565-.43-1.074-.914-1.393-.3-.209-.594-.368-.958-.429-.362-.092-.699-.1-1.236-.1-.172 0-.258-.014-.3-.02-.02-.135-.129-.612-.129-1.295V35.826c0-.59-.019-1.038-.078-1.42 0-.007-.006-.011-.006-.015-.041-.455-.197-.901-.436-1.35l-.007-.009c-.307-.553-.844-.938-1.464-1.158-.62-.22-1.34-.307-2.186-.307zm-16.673.775c-4.114 0-7.757 1.476-10.78 4.365-3.04 2.876-4.588 6.558-4.588 10.853 0 4.291 1.514 8.043 4.486 11.097 2.968 3.021 6.562 4.58 10.611 4.58 4.477 0 7.983-1.175 10.34-3.615.826-.857 1.313-1.867 1.313-2.93v-8.517c0-1.017-.12-1.837-.47-2.515-.253-.538-.724-.936-1.28-1.173-.56-.237-1.211-.35-1.972-.378h-6.845c-.856 0-1.596.123-2.222.436-.529.264-.897.774-1.073 1.336l-.007.022-.007.022c-.129.517-.178 1.127-.178 1.864 0 .713.05 1.31.178 1.823v.016c.15.565.525 1.066 1.022 1.372.581.358 1.26.429 2.13.429h2.243v2.75c-.914.31-1.876.544-3.015.544-1.744 0-3.262-.657-4.687-2.079l-.007-.008c-1.41-1.437-2.086-3.09-2.086-5.117 0-2.062.656-3.595 2.015-4.815h.007c1.394-1.276 2.91-1.88 4.68-1.88 1.366 0 2.474.316 3.415.943l.007.008h.007c1.13.727 1.925 1.179 2.8 1.179 1.276 0 2.339-.933 3.409-2.386v-.008c.65-.905 1.043-1.765 1.043-2.644 0-.938-.544-1.78-1.371-2.393-2.828-2.1-5.893-3.18-9.118-3.18zm16.671.859c.727 0 1.283.086 1.644.214.361.129.506.264.585.408.167.315.238.564.25.721l.008.029v.035c.038.227.071.653.071 1.223v17.927c0 .974-.033 1.572.343 2.2l.015.014.006.014c.387.58 1.048.715 1.686.715.516 0 .883.05.858.043l.057.014.05.008c-.027-.005.108.031.307.171l.014.008.014.008c.026.017.138.132.236.479.098.346.165.891.165 1.593 0 .77-.063 1.365-.165 1.758-.1.386-.23.53-.257.55h-.007c-.107.073-.548.23-1.272.264-.727.036-1.723-.02-2.959-.171v.008c-1.857-.242-2.847-.827-3.264-1.572-.597-1.044-.979-2.947-.979-5.638V35.798c0-.562.016-.963.036-1.2.035-.204.119-.478.264-.794l.006-.008c.065-.122.19-.253.557-.38.374-.129.96-.214 1.73-.214zm-16.67.767c2.866 0 5.552.933 8.145 2.859.566.42.722.733.722 1.086 0 .36-.206.945-.743 1.693-.94 1.271-1.712 1.714-2.087 1.714-.104 0-.882-.251-1.908-.907l-.014-.008c-1.225-.813-2.685-1.214-4.308-1.214-2.15 0-4.124.793-5.773 2.3-1.688 1.516-2.552 3.594-2.552 6.024 0 2.409.876 4.555 2.559 6.266 1.67 1.67 3.668 2.564 5.844 2.564 1.508 0 2.892-.247 4.137-.756l.508-.208v-5.58h-3.873c-.73 0-1.189-.138-1.279-.193a.573.573 0 0 1-.293-.392v-.008c-.077-.313-.128-.796-.128-1.423 0-.647.053-1.133.128-1.443.077-.226.142-.3.228-.342.303-.152.808-.265 1.501-.265h6.781c.633.023 1.108.119 1.4.242.292.124.39.244.45.373l.007.014.008.022c.156.298.293.904.293 1.786v8.517c0 .589-.232 1.16-.85 1.8-1.98 2.051-4.979 3.116-9.175 3.116-3.642 0-6.735-1.328-9.445-4.088-2.706-2.78-4.03-6.043-4.03-9.96 0-3.912 1.343-7.077 4.087-9.674 2.758-2.634 5.927-3.915 9.66-3.915zm57.054.269c-.879 0-1.61.085-2.236.285-.626.201-1.182.548-1.492 1.101v.008l-.008.008c-.211.392-.358.772-.43 1.165l-.007.037v.036c-.03.335-.042.788-.042 1.393v3.044l-2.36-.028h-.006c-.83 0-1.727.02-2.63.036v-2.858c0-.942-.049-1.642-.228-2.216l-.008-.014-.008-.014c-.241-.687-.785-1.233-1.464-1.543-.68-.31-1.485-.436-2.437-.436-.879 0-1.614.083-2.237.286-.617.2-1.154.558-1.45 1.115-.231.383-.413.763-.486 1.165v.036l-.008.035c-.03.336-.043.788-.043 1.393v3.066c-2.34-.092-3.026 1.1-3.333 2.11-.17.618-.221 1.407-.221 2.495 0 1.15.163 2.07.728 2.757l.008.014.007.009c.512.58 1.248.935 2.01.935.28 0 .536-.039.806-.057v4.859c0 2.781.79 5.036 2.43 6.559 1.622 1.506 3.872 2.229 6.594 2.229.58 0 1.018-.012 1.351-.043h.028l.028-.008a4.89 4.89 0 0 0 1.257-.415l.015-.008h.007c.58-.29.986-.833 1.215-1.464.23-.63.322-1.37.322-2.244 0-.755-.08-1.398-.272-1.957-.192-.56-.53-1.057-1.036-1.343a3.33 3.33 0 0 0-1.343-.443c-.392-.063-.864-.093-1.494-.093-.435 0-.534-.083-.57-.129-.053-.089-.166-.43-.166-1.029v-4.494l2.694.114h.014c.621 0 1.462-.06 2.287-.114v4.88c0 2.782.79 5.036 2.43 6.559 1.622 1.507 3.865 2.23 6.587 2.23.58 0 1.017-.012 1.35-.044h.036l.028-.008c.408-.068.822-.21 1.258-.414l.008-.008h.008c.58-.29.984-.833 1.214-1.464.229-.63.321-1.37.321-2.243 0-.757-.077-1.41-.278-1.973-.2-.56-.56-1.048-1.071-1.329a3.085 3.085 0 0 0-1.302-.442c-.39-.063-.865-.094-1.492-.094-.44 0-.537-.084-.572-.13-.053-.088-.164-.429-.164-1.028v-4.48l1.679.1h.028c.605 0 1.05-.006 1.386-.036l.028-.008h.036c.407-.068.815-.211 1.25-.414l.014-.008.023-.008c.57-.296.95-.846 1.17-1.473.22-.628.308-1.365.308-2.236 0-.883-.087-1.62-.308-2.25-.218-.623-.604-1.167-1.178-1.45-.422-.238-.853-.398-1.3-.437h-.008c-.37-.06-.802-.086-1.387-.086-.409 0-1.105.06-1.742.107v-2.93c0-.937-.056-1.637-.273-2.228 0-.005-.005-.005-.007-.008-.226-.688-.757-1.24-1.43-1.55-.674-.313-1.483-.437-2.434-.437zm0 1.635c.804 0 1.393.12 1.75.286.357.165.494.322.579.585v.014l.007.02c.086.23.186.83.186 1.686v4.688l.886-.086c1.124-.102 1.961-.15 2.48-.15.57 0 .985.03 1.172.064l.036.008.042.008c.157.012.385.079.671.243l.023.014.028.014c.113.055.237.165.364.529.128.364.221.945.221 1.714 0 .755-.092 1.327-.22 1.693-.127.361-.255.492-.38.559l-.007.008c-.317.145-.59.23-.794.265-.227.018-.616.034-1.142.036l-3.38-.207v6.208c0 .778.08 1.414.443 1.958l.014.022.014.014c.432.576 1.15.794 1.886.794.596 0 1.042.026 1.265.064l.028.008h.036c.191.014.398.084.643.235l.022.008.022.014c.102.056.206.156.314.457.108.302.185.786.185 1.423 0 .752-.089 1.323-.22 1.685-.133.363-.273.493-.416.565-.32.148-.594.23-.8.265-.238.02-.624.036-1.157.036-2.44 0-4.22-.616-5.488-1.794-1.25-1.161-1.908-2.882-1.908-5.366v-6.616l-.878.071c-1.21.101-2.206.157-2.994.158l-4.373-.194v6.195c0 .778.087 1.414.45 1.958l.008.022.015.014c.432.576 1.158.793 1.893.793.597 0 1.033.027 1.257.065l.036.008h.036c.193.014.427.09.707.25.087.049.196.152.3.457.105.305.18.79.18 1.428 0 .753-.09 1.325-.222 1.687-.132.363-.272.493-.415.565a3.343 3.343 0 0 1-.793.264c-.238.02-.626.037-1.165.037-2.44 0-4.218-.616-5.487-1.794-1.25-1.161-1.908-2.882-1.908-5.366v-6.673l-.936.135c-.473.071-.97.108-1.5.108-.317 0-.516-.087-.772-.371-.156-.196-.357-.758-.357-1.716 0-1.025.078-1.753.164-2.064l.008-.008v-.008c.103-.393.234-.58.286-.63.253-.2.55-.313 1.007-.314l2.101.265v-4.91c0-.554.016-.947.036-1.186.029-.151.106-.367.271-.635l.014-.022.014-.028c.042-.08.15-.209.522-.329.37-.12.963-.2 1.736-.2l-.004-.003c.804 0 1.399.119 1.765.286.362.165.498.33.593.593.078.255.157.857.157 1.714v4.51l.829-.014c1.205-.026 2.346-.044 3.422-.044l3.994.05v-4.694c0-.555.017-.947.036-1.186.033-.172.106-.396.25-.665l.008-.008c.054-.092.183-.222.557-.342.38-.122.971-.2 1.744-.2zm22.617 5.152c-.794 0-1.612.277-2.487.756a8.456 8.456 0 0 0-1.407.944c-.047-.08-.033-.18-.087-.257-.66-1-1.926-1.251-3.571-1.251-.884 0-1.625.081-2.258.3-.634.22-1.19.606-1.486 1.179v.016c-.209.417-.36.825-.43 1.236v.028l-.007.029c-.031.335-.044.788-.044 1.393v14.74l.008.029c.061.888.362 1.688.972 2.222l.014.008.008.014c.777.63 1.85.836 3.186.836.869 0 1.601-.084 2.23-.293.627-.21 1.176-.572 1.493-1.121l.008-.015.008-.008c.236-.442.393-.86.436-1.3.061-.386.086-.843.086-1.443v-8.13c0-.46.15-.78.586-1.144.5-.395.961-.565 1.465-.565.617 0 1.051.104 1.3.229h.008l.014.008a3.984 3.984 0 0 0 1.701.385c1.215 0 2.276-.756 2.858-1.921.531-1.063.822-2.085.822-3.072 0-.923-.188-1.716-.715-2.301a3.3 3.3 0 0 0-1.558-1.073 8.506 8.506 0 0 0-1.45-.327c-.486-.091-1.047-.13-1.7-.13zm-45.097.567c-.411.005-.79.403-.837.82-.026.553-.073 1.135-.402 1.605-.715 1.06-1.848 1.724-2.906 2.396-1.104-.708-2.322-1.4-3.004-2.566-.279-.457-.254-1.002-.32-1.511-.098-.402-.448-.79-.894-.738-.62.09-.857.818-.77 1.366.082 1.648 1.068 3.126 2.36 4.1.226.184.465.35.697.526-1.157.777-2.274 1.751-2.764 3.096-.614 1.555-.256 3.398.81 4.67.53.668 1.24 1.196 1.954 1.695-.97.687-1.908 1.488-2.455 2.535-.434.829-.703 1.793-.566 2.73.099.517.72.952 1.205.612.441-.277.474-.83.484-1.298.116-1.072.998-1.83 1.806-2.44.467-.348.965-.65 1.457-.962 1.106.707 2.322 1.402 3.005 2.567.279.458.254 1.002.32 1.511.093.522.716.961 1.204.624.574-.382.497-1.155.403-1.749-.172-1.08-.713-2.067-1.452-2.836-.465-.49-1.004-.898-1.548-1.294.657-.46 1.32-.953 1.812-1.527 1.112-1.225 1.564-3.04 1.028-4.622-.438-1.411-1.568-2.458-2.762-3.256-.149-.146.34-.296.444-.444 1.261-.922 2.296-2.273 2.495-3.857.09-.572.115-1.321-.457-1.656a.65.65 0 0 0-.347-.097zm45.097 1.054c.586 0 1.06.044 1.4.108h.021l.023.008c.352.044.762.135 1.215.278.351.111.595.278.807.543l.021.022.022.021c.126.135.286.513.286 1.23 0 .664-.2 1.444-.65 2.343-.399.797-.757 1.022-1.4 1.022a2.3 2.3 0 0 1-.994-.222c-.576-.288-1.252-.393-2.03-.393-.887 0-1.742.325-2.478.908l-.008.008-.008.008c-.74.61-1.186 1.48-1.186 2.408v8.132c0 .57-.026.994-.064 1.221l-.008.029v.028c-.01.118-.084.365-.243.671h-.008c-.07.122-.217.268-.592.394-.379.126-.959.207-1.716.207-1.135 0-1.833-.232-2.143-.479-.21-.19-.373-.489-.414-1.086V45.4c0-.562.016-.963.036-1.2a2.79 2.79 0 0 1 .263-.75c.064-.124.192-.257.565-.387.373-.129.96-.222 1.729-.222 1.445 0 2.106.344 2.222.522l.008.008.008.014c.208.302.176.572.279.815v2.536l1.479-2.066c.096-.134.255-.33.457-.557l.008-.008c.127-.126.624-.478 1.393-.9.725-.397 1.307-.557 1.7-.557zm-52.002.02c.039.377.07.68.197.896h5.131c.12-.245.173-.551.2-.897zm.766 1.635a7.35 7.35 0 0 0 1.1.897h1.79c.403-.279.78-.57 1.101-.897zm1.994 4.48.118.075c1.067.674 2.246 1.323 2.92 2.433.455.836.277 1.946-.4 2.613-.736.825-1.711 1.377-2.638 1.957-1.093-.695-2.31-1.344-3.018-2.473-.479-.84-.307-1.972.381-2.648.737-.824 1.71-1.376 2.637-1.956zm-.955 1.231c-.41.277-.793.567-1.122.897h4.151a7.147 7.147 0 0 0-1.122-.897zm-1.74 1.86a1.796 1.796 0 0 0-.01.897h5.403c.078-.295.083-.61.007-.897zm.623 1.86c.324.328.709.618 1.123.896h1.907c.41-.276.793-.566 1.121-.896zm1.014 5.815c-.029.02-.058.042-.086.063a7.16 7.16 0 0 0-.954.834h4.192c-.3-.329-.66-.62-1.05-.897zm-1.59 1.75a1.65 1.65 0 0 0-.093.386c-.003.154-.01.326-.036.51h5.562c-.04-.357-.059-.66-.128-.896z" transform="translate(-34.21 -17.16) scale(.69262)"/><path style="fill:#e30613;stroke:none;stroke-width:.0280368;fill-opacity:1" d="M160.41 34.236c-.822 0-1.494.673-1.494 1.495v2.188l1.657-.66a.696.696 0 0 1 .516-.646l.382-2.377h-1.06zm1.635 0-.397 2.467c.19.125.316.339.316.583l-.002.039 2.134 1.197a.696.696 0 1 1-.264.5l-2.13-1.193a.692.692 0 0 1-.92-.044l-1.867.744v1.365c0 .822.673 1.495 1.495 1.495h4.164c.822 0 1.494-.673 1.494-1.495v-4.163c0-.822-.672-1.495-1.494-1.495h-2.53z" transform="translate(-52.804 -20.164) scale(.78036)"/><path style="font-variation-settings:&quot;wdth&quot;75,&quot;wght&quot;400;opacity:1;fill:#fff;stroke-width:1.04023;stroke-linejoin:bevel" d="m161.471 34.237-.382 2.377a.695.695 0 0 0-.516.644l-1.657.662h-.001v.61l1.867-.745a.693.693 0 0 0 .92.044l2.13 1.194a.696.696 0 1 0 .264-.501l-2.134-1.196a.695.695 0 0 0-.314-.623l.397-2.466z" transform="translate(-52.804 -20.164) scale(.78036)"/></svg>