<?xml version="1.0" standalone="no"?>
<!DOCTYPE svg PUBLIC "-//W3C//DTD SVG 20010904//EN"
 "http://www.w3.org/TR/2001/REC-SVG-20010904/DTD/svg10.dtd">
<svg version="1.0" xmlns="http://www.w3.org/2000/svg"
 width="500.000000pt" height="500.000000pt" viewBox="0 0 500.000000 500.000000"
 preserveAspectRatio="xMidYMid meet">
<metadata>
Created by potrace 1.14, written by Peter Selinger 2001-2017
</metadata>
<g transform="translate(0.000000,500.000000) scale(0.100000,-0.100000)"
fill="#000000" stroke="none">
<path d="M2446 4839 c-40 -10 -88 -39 -119 -74 -10 -11 -92 -168 -181 -350
-341 -690 -478 -960 -489 -971 -7 -6 -52 -17 -102 -23 -158 -22 -286 -40 -326
-47 -24 -3 -64 -9 -134 -19 -16 -2 -50 -7 -75 -10 -25 -3 -70 -10 -100 -15
-30 -5 -77 -12 -105 -15 -27 -3 -57 -8 -65 -10 -8 -2 -40 -7 -70 -10 -30 -4
-57 -8 -60 -10 -3 -2 -37 -6 -75 -10 -39 -4 -72 -9 -75 -10 -3 -2 -30 -6 -60
-10 -174 -22 -221 -34 -267 -67 -89 -64 -121 -184 -74 -280 15 -33 107 -129
329 -346 169 -165 405 -396 525 -514 l218 -213 -10 -45 c-5 -25 -12 -61 -15
-80 -3 -19 -12 -75 -21 -125 -34 -197 -75 -431 -80 -455 -9 -50 -57 -336 -62
-365 -2 -16 -11 -66 -18 -110 -8 -44 -17 -93 -20 -110 -2 -16 -9 -52 -14 -79
-20 -108 4 -193 73 -253 79 -70 182 -73 299 -9 45 25 126 67 467 246 387 202
516 270 700 368 l55 29 125 -65 c69 -36 195 -102 280 -147 85 -45 205 -108
265 -140 61 -32 142 -75 180 -95 415 -222 462 -245 519 -246 67 -1 120 21 171
71 62 62 78 145 50 275 -3 14 -7 39 -10 55 -3 17 -7 44 -10 60 -3 17 -8 46
-11 65 -3 19 -14 85 -24 145 -11 61 -22 124 -24 140 -15 91 -87 514 -91 535
-2 13 -7 40 -10 60 -3 20 -8 47 -10 60 -3 14 -8 41 -10 60 -3 19 -8 44 -10 56
-3 12 -7 38 -11 60 l-6 38 133 128 c72 70 258 251 412 401 153 149 330 322
393 383 81 79 120 124 135 160 50 112 6 239 -102 294 -32 17 -119 34 -269 55
-25 3 -74 11 -110 16 -36 6 -77 12 -91 14 -26 3 -165 23 -209 30 -71 11 -322
48 -445 65 -77 11 -149 22 -160 24 -11 2 -62 10 -114 17 -78 11 -94 17 -101
34 -7 18 -275 564 -544 1107 -67 136 -108 206 -129 224 -61 51 -137 70 -211
53z m474 -1592 c85 -172 110 -206 179 -234 32 -14 197 -42 331 -58 30 -3 62
-8 70 -10 14 -4 70 -12 133 -21 66 -8 157 -22 197 -29 14 -2 43 -7 65 -10 121
-15 319 -46 323 -49 3 -4 -183 -189 -428 -426 -319 -308 -377 -369 -394 -422
-21 -67 -21 -67 18 -295 19 -109 37 -216 40 -238 4 -23 8 -52 11 -65 4 -21 27
-153 40 -232 3 -16 8 -43 11 -60 3 -18 7 -46 10 -63 2 -16 6 -41 9 -55 14 -68
26 -162 21 -167 -3 -3 -11 -1 -18 4 -14 11 -163 90 -493 263 -66 35 -194 102
-285 150 -183 97 -215 109 -284 104 -46 -3 -94 -26 -486 -232 -154 -81 -283
-148 -422 -221 l-137 -71 5 42 c3 24 9 59 14 78 5 19 11 53 14 75 3 22 12 81
21 130 31 177 44 250 48 270 3 11 8 42 11 68 4 27 9 58 11 69 2 11 14 74 25
141 11 67 23 136 26 152 23 131 2 188 -114 302 -44 43 -222 217 -396 387 -174
171 -313 313 -309 317 5 4 32 10 61 13 51 6 82 10 160 21 20 3 145 22 277 41
280 40 302 43 335 49 14 2 61 9 105 15 243 32 242 31 410 375 117 240 148 302
300 605 l67 135 167 -340 c92 -187 205 -415 251 -508z"/>
</g>
</svg>
