<?xml version="1.0" standalone="no"?>
<!DOCTYPE svg PUBLIC "-//W3C//DTD SVG 20010904//EN"
 "http://www.w3.org/TR/2001/REC-SVG-20010904/DTD/svg10.dtd">
<svg version="1.0" xmlns="http://www.w3.org/2000/svg"
 width="500.000000pt" height="500.000000pt" viewBox="0 0 500.000000 500.000000"
 preserveAspectRatio="xMidYMid meet">
<metadata>
Created by potrace 1.14, written by Peter Selinger 2001-2017
</metadata>
<g transform="translate(0.000000,500.000000) scale(0.100000,-0.100000)"
fill="#000000" stroke="none">
<path d="M2456 4748 c-50 -11 -100 -42 -125 -77 -20 -28 -242 -470 -488 -971
-80 -162 -146 -296 -147 -297 -3 -3 -309 -50 -376 -58 -25 -3 -56 -7 -70 -10
-24 -4 -38 -6 -145 -20 -55 -7 -73 -10 -125 -19 -38 -6 -76 -11 -155 -21 -27
-4 -57 -8 -65 -10 -8 -2 -37 -7 -65 -10 -27 -3 -61 -8 -75 -11 -14 -2 -43 -7
-64 -9 -22 -3 -51 -7 -65 -9 -14 -3 -62 -10 -106 -16 -96 -14 -130 -27 -171
-66 -49 -46 -68 -91 -68 -160 0 -87 25 -122 236 -328 100 -98 324 -316 496
-484 l313 -306 -7 -41 c-11 -70 -13 -77 -39 -230 -14 -83 -27 -160 -29 -171
-3 -12 -7 -39 -10 -60 -4 -22 -15 -88 -26 -149 -11 -60 -22 -123 -24 -140 -3
-16 -8 -46 -11 -65 -4 -19 -17 -100 -31 -180 -13 -80 -26 -158 -30 -175 -18
-95 -30 -173 -29 -197 5 -84 74 -173 154 -196 82 -25 107 -18 308 84 103 53
202 104 218 114 17 9 102 54 190 100 88 46 183 95 210 110 28 15 122 64 210
110 88 45 181 94 206 108 l46 25 119 -63 c65 -34 157 -83 204 -108 47 -24 128
-67 180 -95 52 -27 127 -67 165 -87 39 -21 111 -59 160 -85 50 -25 133 -69
185 -96 243 -128 248 -130 303 -131 130 -3 233 106 222 237 -2 33 -23 164 -39
250 -2 11 -7 40 -11 65 -4 25 -9 54 -11 65 -2 10 -6 37 -10 59 -3 22 -7 43 -9
46 -1 3 -6 25 -9 50 -3 25 -8 56 -11 70 -19 112 -85 503 -89 535 -6 38 -9 56
-22 115 -3 14 -7 48 -10 75 l-6 50 123 119 c124 118 659 639 814 792 90 88
114 135 110 215 -4 79 -63 164 -134 190 -23 9 -204 41 -301 53 -25 3 -54 8
-65 10 -18 3 -38 6 -155 22 -19 3 -62 9 -95 14 -33 5 -76 12 -95 14 -114 16
-207 30 -275 41 -16 3 -50 7 -75 10 -25 3 -56 7 -70 10 -14 3 -43 7 -65 10
-91 12 -215 32 -219 36 -2 2 -31 60 -64 129 -226 470 -558 1130 -580 1153 -54
57 -131 81 -206 65z m407 -1448 c106 -213 132 -259 161 -279 45 -30 97 -47
166 -56 76 -9 167 -22 215 -31 11 -2 40 -6 65 -9 25 -3 56 -7 70 -10 55 -8
167 -25 203 -30 20 -3 53 -7 72 -10 19 -3 52 -7 73 -10 20 -3 51 -8 67 -11 31
-5 43 -7 135 -19 30 -4 57 -9 60 -12 3 -2 -63 -70 -145 -150 -603 -586 -632
-616 -645 -663 -13 -46 -14 -106 -5 -150 3 -14 8 -41 11 -60 5 -33 26 -156 38
-225 3 -16 8 -43 10 -60 2 -16 11 -73 21 -125 23 -135 24 -143 29 -165 2 -11
7 -42 11 -70 5 -27 9 -52 10 -55 0 -3 4 -27 9 -53 4 -27 9 -58 12 -70 11 -57
14 -97 9 -97 -6 0 -193 98 -470 245 -44 23 -125 66 -180 95 -55 29 -141 74
-192 101 -111 60 -160 71 -233 52 -30 -7 -58 -17 -64 -22 -10 -8 -75 -42 -366
-194 -63 -33 -151 -79 -195 -102 -282 -149 -333 -175 -339 -175 -4 0 -5 8 -2
18 3 9 8 33 11 52 3 19 7 46 10 60 3 14 7 41 10 60 3 19 10 58 15 85 5 28 12
66 14 85 9 57 25 145 31 175 2 6 6 28 9 50 4 22 9 51 11 65 75 441 74 438 39
510 -20 40 -336 359 -712 718 -42 39 -70 72 -62 72 12 0 118 15 315 45 70 10
253 36 290 41 22 3 47 7 55 9 8 2 38 7 65 10 28 3 64 7 80 10 71 12 94 15 170
26 83 11 141 37 182 81 12 12 128 239 258 502 l237 479 117 -239 c65 -131 175
-354 244 -494z"/>
</g>
</svg>
