<?xml version="1.0" encoding="utf-8"?>
<!-- Generator: Adobe Illustrator 26.1.0, SVG Export Plug-In . SVG Version: 6.00 Build 0)  -->
<svg version="1.1" id="chosen_finb" xmlns="http://www.w3.org/2000/svg" xmlns:xlink="http://www.w3.org/1999/xlink" x="0px"
	 y="0px" viewBox="0 0 457 248" style="enable-background:new 0 0 457 248;" xml:space="preserve">
<style type="text/css">
	.st0{fill:#FFFFFF;}
	.st1{fill:#E30613;}
</style>
<g>
	<g>
		<path class="st0" d="M32.4,10.7c-7.3,0-13.2,5.8-13.2,12.9l0,112.7c0,7.1,5.9,12.9,13.2,12.9h157.3c7.3,0,13.2-5.8,13.2-12.9V23.6
			c0-7.1-5.9-12.9-13.2-12.9H32.4z"/>
	</g>
</g>
<g>
	<g>
		<path class="st1" d="M74.7,55.2c0.2-4.3,3.1-7.8,7.1-8.8l5.7-35.7H26.4c-3.9,0-7.1,3.2-7.1,7.1l0,59.5L74.7,55.2z M40.1,32.4H48
			v-7.9h7.1v7.9H63v7.1h-7.9v7.9H48v-7.9h-7.9V32.4z"/>
		<path class="st1" d="M176.5,117.2c1.1-0.4,1.9-1.1,2.4-2.1c0.4-0.7,0.7-1.6,0.7-2.5c0-1.9-0.7-3.2-2.1-3.9c-1.4-0.6-3.5-1-6.3-1
			h-6.3v10h7.1C174,117.7,175.5,117.5,176.5,117.2z"/>
		<path class="st1" d="M179.1,124.6c-1.4-0.9-3.4-1.3-6.1-1.3h-8.1v11.2h8.4c5.3,0,7.9-1.9,7.9-5.7
			C181.2,126.9,180.5,125.4,179.1,124.6z"/>
		<path class="st1" d="M196.8,10.7H95.4l-5.9,36.9c2.6,1.7,4.3,4.6,4.3,8c0,0.2,0,0.4,0,0.5l44.9,23.2c1.6-1.3,3.7-2.1,5.9-2.1
			c5.3,0,9.6,4.3,9.6,9.6c0,5.3-4.3,9.6-9.6,9.6s-9.6-4.3-9.6-9.6c0-0.2,0-0.4,0-0.6L90.2,63c-1.6,1.3-3.7,2.1-6,2.1
			c-2.6,0-4.9-1-6.7-2.7L19.3,85.6l0,56.4c0,3.9,3.2,7.1,7.1,7.1h170.4c3.9,0,7.1-3.2,7.1-7.1V17.8
			C203.9,13.9,200.7,10.7,196.8,10.7z M132,135.1c-1.2,1.8-3,3.3-5.3,4.3c-2.3,1-5,1.6-8.2,1.6c-3.8,0-6.9-0.7-9.4-2.1
			c-1.7-1-3.2-2.4-4.3-4.1c-1.1-1.7-1.6-3.4-1.6-5c0-0.9,0.3-1.7,1-2.4c0.7-0.7,1.5-1,2.5-1c0.8,0,1.5,0.3,2.1,0.8
			c0.6,0.5,1.1,1.3,1.5,2.3c0.5,1.2,1,2.2,1.6,3.1c0.6,0.8,1.4,1.5,2.4,2c1,0.5,2.4,0.8,4.1,0.8c2.3,0,4.2-0.5,5.6-1.6
			c1.4-1.1,2.2-2.4,2.2-4c0-1.3-0.4-2.3-1.2-3.1c-0.8-0.8-1.8-1.4-3-1.8c-1.2-0.4-2.9-0.9-4.9-1.3c-2.8-0.6-5.1-1.4-6.9-2.3
			c-1.9-0.9-3.3-2-4.4-3.5c-1.1-1.5-1.6-3.4-1.6-5.6c0-2.1,0.6-4,1.7-5.6c1.2-1.6,2.8-2.9,5-3.8c2.2-0.9,4.8-1.3,7.7-1.3
			c2.4,0,4.4,0.3,6.1,0.9c1.7,0.6,3.2,1.4,4.3,2.3c1.1,1,2,2,2.5,3.1c0.5,1.1,0.8,2.1,0.8,3.1c0,0.9-0.3,1.8-1,2.5
			c-0.7,0.7-1.5,1.1-2.5,1.1c-0.9,0-1.6-0.2-2-0.7c-0.5-0.4-1-1.2-1.5-2.2c-0.7-1.5-1.5-2.6-2.5-3.4c-1-0.8-2.6-1.2-4.7-1.2
			c-2,0-3.6,0.4-4.9,1.3c-1.2,0.9-1.8,1.9-1.8,3.2c0,0.8,0.2,1.4,0.6,2c0.4,0.6,1,1,1.7,1.4c0.7,0.4,1.5,0.7,2.2,0.9
			c0.7,0.2,2,0.6,3.7,1c2.2,0.5,4.1,1.1,5.9,1.7c1.8,0.6,3.3,1.4,4.5,2.2c1.2,0.9,2.2,2,2.9,3.3c0.7,1.3,1,3,1,4.9
			C133.8,131.1,133.2,133.2,132,135.1z M148.5,136.2c0,1.6-0.4,2.8-1.1,3.6c-0.7,0.8-1.7,1.2-2.9,1.2c-1.1,0-2.1-0.4-2.8-1.2
			c-0.7-0.8-1.1-2-1.1-3.5v-30.8c0-1.6,0.4-2.8,1.1-3.5c0.7-0.8,1.6-1.2,2.8-1.2c1.2,0,2.1,0.4,2.9,1.2c0.7,0.8,1.1,2,1.1,3.6V136.2
			z M187.4,135.2c-1.1,1.7-2.6,3-4.5,3.8c-1.2,0.5-2.5,0.8-4,1c-1.5,0.2-3.3,0.3-5.3,0.3h-11.8c-1.7,0-2.9-0.4-3.6-1.1
			c-0.7-0.8-1.1-2-1.1-3.6v-28.9c0-1.7,0.4-2.9,1.1-3.7c0.7-0.7,1.9-1.1,3.6-1.1h12.5c1.8,0,3.4,0.1,4.8,0.3
			c1.3,0.2,2.6,0.7,3.6,1.3c0.9,0.5,1.7,1.2,2.4,2.1c0.7,0.8,1.2,1.7,1.6,2.8c0.4,1,0.5,2.1,0.5,3.2c0,3.9-1.9,6.7-5.8,8.5
			c5.1,1.6,7.6,4.7,7.6,9.4C189.1,131.5,188.5,133.5,187.4,135.2z"/>
	</g>
	<g>
		<g>
			<path d="M120.4,168.2c-1.4-1-3.2-1.6-5.5-1.6c-0.9,0-1.8,0.1-2.7,0.3c-0.9,0.2-1.6,0.5-2.3,0.9c-0.7,0.4-1.2,1-1.6,1.7
				c-0.4,0.7-0.6,1.6-0.6,2.6c0,1,0.3,1.8,0.9,2.4c0.6,0.6,1.4,1.1,2.3,1.5c1,0.4,2.1,0.7,3.3,1c1.2,0.3,2.5,0.5,3.8,0.8
				c1.3,0.3,2.5,0.7,3.8,1.1c1.2,0.4,2.3,1,3.3,1.6c1,0.7,1.8,1.6,2.3,2.6c0.6,1.1,0.9,2.4,0.9,4c0,1.7-0.4,3.2-1.1,4.4
				c-0.8,1.2-1.7,2.2-2.9,3c-1.2,0.8-2.5,1.3-4,1.7c-1.5,0.3-3,0.5-4.4,0.5c-1.8,0-3.5-0.2-5.1-0.7c-1.6-0.5-3-1.1-4.2-2.1
				c-1.2-0.9-2.2-2.1-2.9-3.5c-0.7-1.4-1.1-3.1-1.1-5.1h4.1c0,1.4,0.3,2.5,0.8,3.5c0.5,1,1.2,1.8,2.1,2.4c0.9,0.6,1.9,1.1,3,1.4
				c1.1,0.3,2.3,0.5,3.5,0.5c1,0,1.9-0.1,2.9-0.3c1-0.2,1.9-0.5,2.6-0.9c0.8-0.4,1.4-1,1.9-1.8c0.5-0.8,0.7-1.7,0.7-2.9
				c0-1.1-0.3-2-0.9-2.7c-0.6-0.7-1.4-1.3-2.3-1.7c-1-0.4-2.1-0.8-3.3-1.1c-1.2-0.3-2.5-0.5-3.8-0.8c-1.3-0.3-2.5-0.6-3.8-1
				c-1.2-0.4-2.3-0.9-3.3-1.5c-1-0.6-1.8-1.4-2.3-2.4c-0.6-1-0.9-2.2-0.9-3.7c0-1.6,0.3-3,1-4.2c0.7-1.2,1.5-2.2,2.6-2.9
				c1.1-0.8,2.3-1.3,3.7-1.7c1.4-0.4,2.8-0.6,4.3-0.6c1.7,0,3.2,0.2,4.6,0.6c1.4,0.4,2.6,1,3.7,1.9c1.1,0.8,1.9,1.9,2.5,3.2
				c0.6,1.3,1,2.8,1,4.6h-4C122.6,170.9,121.8,169.2,120.4,168.2z"/>
			<path d="M151.8,196l-4.7-18.5H147l-4.7,18.5h-4.1l-7.5-23.2h4.2l5.3,19h0.1l4.7-19h4.2l4.9,19h0.1l5.2-19h4l-7.4,23.2H151.8z"/>
			<path d="M167.2,168.5v-4.7h3.8v4.7H167.2z M171,172.7V196h-3.8v-23.3H171z"/>
			<path d="M179.8,190.8c0.4,0.6,0.8,1,1.4,1.4c0.6,0.3,1.3,0.6,2,0.7c0.7,0.2,1.5,0.2,2.3,0.2c0.6,0,1.2,0,1.9-0.1
				c0.7-0.1,1.3-0.3,1.8-0.5c0.6-0.2,1-0.6,1.4-1.1c0.4-0.5,0.5-1.1,0.5-1.8c0-1-0.4-1.7-1.1-2.3c-0.8-0.5-1.7-0.9-2.8-1.2
				c-1.1-0.3-2.4-0.6-3.7-0.9c-1.3-0.3-2.5-0.6-3.7-1.1c-1.1-0.5-2.1-1.1-2.8-2c-0.8-0.8-1.1-2-1.1-3.5c0-1.2,0.3-2.2,0.8-3
				c0.5-0.8,1.2-1.5,2-2.1c0.8-0.5,1.8-0.9,2.8-1.2c1-0.3,2.1-0.4,3.1-0.4c1.3,0,2.5,0.1,3.6,0.3c1.1,0.2,2.1,0.6,3,1.2
				c0.9,0.6,1.5,1.3,2,2.3c0.5,0.9,0.8,2.1,0.9,3.5h-3.8c-0.1-0.8-0.3-1.4-0.6-1.9c-0.3-0.5-0.8-0.9-1.3-1.2
				c-0.5-0.3-1.1-0.5-1.7-0.7c-0.6-0.1-1.2-0.2-1.9-0.2c-0.6,0-1.2,0-1.7,0.1c-0.6,0.1-1.1,0.2-1.6,0.5c-0.5,0.2-0.9,0.5-1.2,0.9
				c-0.3,0.4-0.5,0.9-0.5,1.5c0,0.7,0.2,1.2,0.7,1.6c0.5,0.4,1.1,0.8,1.8,1.1c0.7,0.3,1.5,0.5,2.4,0.7s1.8,0.4,2.7,0.6
				c1,0.2,1.9,0.5,2.8,0.8c0.9,0.3,1.7,0.7,2.4,1.2s1.3,1.1,1.7,1.9c0.4,0.8,0.7,1.7,0.7,2.8c0,1.4-0.3,2.6-0.9,3.5
				c-0.6,0.9-1.4,1.7-2.3,2.3c-0.9,0.6-2,1-3.2,1.2c-1.2,0.2-2.4,0.3-3.5,0.3c-1.3,0-2.5-0.1-3.7-0.4c-1.2-0.3-2.2-0.7-3.1-1.3
				c-0.9-0.6-1.6-1.4-2.2-2.4c-0.5-1-0.8-2.2-0.9-3.7h3.8C179.2,189.5,179.4,190.2,179.8,190.8z"/>
			<path d="M202.3,190.8c0.4,0.6,0.8,1,1.4,1.4c0.6,0.3,1.3,0.6,2,0.7c0.7,0.2,1.5,0.2,2.3,0.2c0.6,0,1.2,0,1.9-0.1
				c0.7-0.1,1.3-0.3,1.8-0.5c0.6-0.2,1-0.6,1.4-1.1c0.4-0.5,0.5-1.1,0.5-1.8c0-1-0.4-1.7-1.1-2.3c-0.8-0.5-1.7-0.9-2.8-1.2
				s-2.4-0.6-3.7-0.9c-1.3-0.3-2.5-0.6-3.7-1.1c-1.1-0.5-2.1-1.1-2.8-2c-0.8-0.8-1.1-2-1.1-3.5c0-1.2,0.3-2.2,0.8-3
				c0.5-0.8,1.2-1.5,2-2.1c0.8-0.5,1.8-0.9,2.8-1.2c1-0.3,2.1-0.4,3.1-0.4c1.3,0,2.5,0.1,3.6,0.3c1.1,0.2,2.1,0.6,3,1.2
				c0.9,0.6,1.5,1.3,2,2.3c0.5,0.9,0.8,2.1,0.9,3.5h-3.8c-0.1-0.8-0.3-1.4-0.6-1.9c-0.3-0.5-0.8-0.9-1.3-1.2
				c-0.5-0.3-1.1-0.5-1.7-0.7c-0.6-0.1-1.2-0.2-1.9-0.2c-0.6,0-1.2,0-1.7,0.1c-0.6,0.1-1.1,0.2-1.6,0.5c-0.5,0.2-0.9,0.5-1.2,0.9
				c-0.3,0.4-0.5,0.9-0.5,1.5c0,0.7,0.2,1.2,0.7,1.6c0.5,0.4,1.1,0.8,1.8,1.1c0.7,0.3,1.5,0.5,2.4,0.7s1.8,0.4,2.7,0.6
				c1,0.2,1.9,0.5,2.8,0.8c0.9,0.3,1.7,0.7,2.4,1.2s1.3,1.1,1.7,1.9c0.4,0.8,0.7,1.7,0.7,2.8c0,1.4-0.3,2.6-0.9,3.5
				c-0.6,0.9-1.4,1.7-2.3,2.3c-0.9,0.6-2,1-3.2,1.2c-1.2,0.2-2.4,0.3-3.5,0.3c-1.3,0-2.5-0.1-3.7-0.4c-1.2-0.3-2.2-0.7-3.1-1.3
				c-0.9-0.6-1.6-1.4-2.2-2.4c-0.5-1-0.8-2.2-0.9-3.7h3.8C201.7,189.5,201.9,190.2,202.3,190.8z"/>
			<path d="M239.5,163.8V196h-4.2v-32.1H239.5z"/>
			<path d="M249.6,172.7v3.7h0.1c1.6-2.8,4.1-4.2,7.6-4.2c1.5,0,2.8,0.2,3.8,0.6c1,0.4,1.8,1,2.5,1.8c0.6,0.8,1.1,1.6,1.3,2.7
				c0.3,1,0.4,2.2,0.4,3.4V196h-3.8v-15.8c0-1.4-0.4-2.6-1.3-3.4c-0.8-0.8-2-1.3-3.5-1.3c-1.2,0-2.2,0.2-3,0.5
				c-0.9,0.4-1.6,0.9-2.1,1.5c-0.6,0.7-1,1.4-1.3,2.3c-0.3,0.9-0.4,1.9-0.4,2.9V196h-3.8v-23.3H249.6z"/>
			<path d="M274,190.8c0.4,0.6,0.8,1,1.4,1.4c0.6,0.3,1.3,0.6,2,0.7c0.7,0.2,1.5,0.2,2.3,0.2c0.6,0,1.2,0,1.9-0.1
				c0.7-0.1,1.3-0.3,1.8-0.5c0.6-0.2,1-0.6,1.4-1.1c0.4-0.5,0.5-1.1,0.5-1.8c0-1-0.4-1.7-1.1-2.3c-0.8-0.5-1.7-0.9-2.8-1.2
				c-1.1-0.3-2.4-0.6-3.7-0.9c-1.3-0.3-2.5-0.6-3.7-1.1c-1.1-0.5-2.1-1.1-2.8-2c-0.8-0.8-1.1-2-1.1-3.5c0-1.2,0.3-2.2,0.8-3
				c0.5-0.8,1.2-1.5,2-2.1c0.8-0.5,1.8-0.9,2.8-1.2c1-0.3,2.1-0.4,3.1-0.4c1.3,0,2.5,0.1,3.7,0.3c1.1,0.2,2.1,0.6,3,1.2
				c0.9,0.6,1.5,1.3,2.1,2.3c0.5,0.9,0.8,2.1,0.9,3.5h-3.8c-0.1-0.8-0.3-1.4-0.6-1.9c-0.3-0.5-0.8-0.9-1.3-1.2
				c-0.5-0.3-1.1-0.5-1.7-0.7c-0.6-0.1-1.2-0.2-1.9-0.2c-0.6,0-1.2,0-1.7,0.1c-0.6,0.1-1.1,0.2-1.6,0.5c-0.5,0.2-0.9,0.5-1.2,0.9
				s-0.5,0.9-0.5,1.5c0,0.7,0.2,1.2,0.7,1.6c0.5,0.4,1.1,0.8,1.8,1.1c0.7,0.3,1.5,0.5,2.4,0.7c0.9,0.2,1.8,0.4,2.7,0.6
				c1,0.2,1.9,0.5,2.8,0.8c0.9,0.3,1.7,0.7,2.4,1.2c0.7,0.5,1.3,1.1,1.7,1.9c0.4,0.8,0.7,1.7,0.7,2.8c0,1.4-0.3,2.6-0.9,3.5
				c-0.6,0.9-1.4,1.7-2.3,2.3c-0.9,0.6-2,1-3.2,1.2c-1.2,0.2-2.4,0.3-3.5,0.3c-1.3,0-2.5-0.1-3.7-0.4c-1.2-0.3-2.2-0.7-3.1-1.3
				c-0.9-0.6-1.6-1.4-2.2-2.4c-0.5-1-0.8-2.2-0.9-3.7h3.8C273.4,189.5,273.6,190.2,274,190.8z"/>
			<path d="M303.5,172.7v3.4h-4.6v14.4c0,0.5,0,0.8,0.1,1.1c0.1,0.3,0.2,0.5,0.4,0.6c0.2,0.2,0.5,0.2,0.9,0.3c0.4,0,0.9,0.1,1.5,0.1
				h1.8v3.4h-2.9c-1,0-1.8-0.1-2.5-0.2c-0.7-0.1-1.3-0.4-1.7-0.7c-0.4-0.4-0.8-0.9-1-1.5c-0.2-0.7-0.3-1.5-0.3-2.6l0-14.8h-4v-3.4h4
				v-7h3.8v7H303.5z"/>
			<path d="M308,168.5v-4.7h3.8v4.7H308z M311.8,172.7V196H308v-23.3H311.8z"/>
			<path d="M327.7,172.7v3.4h-4.6v14.4c0,0.5,0,0.8,0.1,1.1c0.1,0.3,0.2,0.5,0.4,0.6c0.2,0.2,0.5,0.2,0.9,0.3c0.4,0,0.9,0.1,1.5,0.1
				h1.8v3.4h-2.9c-1,0-1.8-0.1-2.5-0.2c-0.7-0.1-1.3-0.4-1.7-0.7c-0.4-0.4-0.8-0.9-1-1.5c-0.2-0.7-0.3-1.5-0.3-2.6l0-14.8h-4v-3.4h4
				v-7h3.8v7H327.7z"/>
			<path d="M347.6,196l0-3.7h-0.1c-0.8,1.4-1.8,2.5-3.1,3.2c-1.3,0.7-2.7,1-4.5,1c-1.5,0-2.8-0.2-3.8-0.6c-1-0.4-1.8-1-2.5-1.7
				s-1.1-1.6-1.3-2.7c-0.3-1-0.4-2.2-0.4-3.4v-15.3h3.8v15.8c0,1.4,0.4,2.6,1.3,3.4c0.8,0.8,2,1.3,3.5,1.3c1.2,0,2.2-0.2,3-0.5
				c0.9-0.4,1.6-0.9,2.1-1.5c0.6-0.7,1-1.4,1.3-2.3c0.3-0.9,0.4-1.9,0.4-2.9v-13.1h3.8V196H347.6z"/>
			<path d="M366.9,172.7v3.4h-4.6v14.4c0,0.5,0,0.8,0.1,1.1c0.1,0.3,0.2,0.5,0.4,0.6c0.2,0.2,0.5,0.2,0.9,0.3c0.4,0,0.9,0.1,1.5,0.1
				h1.8v3.4h-2.9c-1,0-1.8-0.1-2.5-0.2c-0.7-0.1-1.3-0.4-1.7-0.7c-0.4-0.4-0.8-0.9-1-1.5c-0.2-0.7-0.3-1.5-0.3-2.6l0-14.8h-4v-3.4h4
				v-7h3.8v7H366.9z"/>
			<path d="M387.6,194.5c-1.7,1.3-3.9,2-6.6,2c-1.9,0-3.5-0.3-4.8-0.9c-1.4-0.6-2.5-1.4-3.4-2.5c-0.9-1.1-1.6-2.4-2.1-3.9
				c-0.5-1.5-0.7-3.1-0.8-4.9c0-1.8,0.3-3.4,0.8-4.9c0.5-1.5,1.3-2.7,2.3-3.8c1-1.1,2.1-1.9,3.5-2.5c1.3-0.6,2.8-0.9,4.4-0.9
				c2.1,0,3.8,0.4,5.1,1.3c1.4,0.9,2.5,1.9,3.3,3.3c0.8,1.3,1.4,2.8,1.7,4.3c0.3,1.6,0.4,3,0.4,4.5h-17.4c0,1,0.1,2,0.4,2.9
				c0.3,0.9,0.7,1.7,1.3,2.4c0.6,0.7,1.4,1.3,2.3,1.7s2,0.6,3.3,0.6c1.6,0,2.9-0.4,4-1.1c1-0.8,1.7-1.9,2-3.4h3.8
				C390.4,191.2,389.3,193.2,387.6,194.5z M386.6,179.5c-0.3-0.8-0.8-1.5-1.4-2.1c-0.6-0.6-1.3-1-2.1-1.4c-0.8-0.3-1.7-0.5-2.6-0.5
				c-1,0-1.9,0.2-2.7,0.5c-0.8,0.3-1.5,0.8-2,1.4c-0.6,0.6-1,1.3-1.3,2.1c-0.3,0.8-0.5,1.6-0.6,2.5h13.3
				C387.2,181.2,387,180.3,386.6,179.5z"/>
			<path d="M407.2,179.5c0.5-1.5,1.2-2.8,2.2-3.9c1-1.1,2.1-2,3.6-2.6c1.4-0.6,3-0.9,4.9-0.9c1.9,0,3.5,0.3,4.9,0.9
				c1.4,0.6,2.6,1.5,3.5,2.6c1,1.1,1.7,2.4,2.2,3.9c0.5,1.5,0.7,3.1,0.7,4.8c0,1.7-0.2,3.3-0.7,4.8c-0.5,1.5-1.2,2.8-2.2,3.8
				c-1,1.1-2.1,2-3.5,2.6c-1.4,0.6-3,0.9-4.9,0.9c-1.8,0-3.4-0.3-4.9-0.9c-1.4-0.6-2.6-1.5-3.6-2.6c-1-1.1-1.7-2.4-2.2-3.8
				c-0.5-1.5-0.7-3.1-0.7-4.8C406.5,182.6,406.8,181,407.2,179.5z M411.2,188.1c0.4,1.1,0.9,2,1.5,2.7c0.7,0.7,1.4,1.3,2.3,1.7
				c0.9,0.4,1.8,0.6,2.8,0.6c1,0,1.9-0.2,2.8-0.6c0.9-0.4,1.7-1,2.3-1.7c0.7-0.7,1.2-1.7,1.5-2.7c0.4-1.1,0.6-2.4,0.6-3.8
				c0-1.4-0.2-2.7-0.6-3.8c-0.4-1.1-0.9-2-1.5-2.8c-0.7-0.8-1.4-1.3-2.3-1.7c-0.9-0.4-1.8-0.6-2.8-0.6c-1,0-1.9,0.2-2.8,0.6
				c-0.9,0.4-1.7,1-2.3,1.7c-0.7,0.8-1.2,1.7-1.5,2.8c-0.4,1.1-0.6,2.4-0.6,3.8C410.6,185.8,410.8,187,411.2,188.1z"/>
			<path d="M431.3,176.1v-3.4h3.9v-3.5c0-1.9,0.5-3.3,1.6-4.3c1.1-1,2.7-1.5,4.8-1.5c0.4,0,0.8,0,1.2,0.1c0.5,0.1,0.9,0.2,1.2,0.3
				v3.3c-0.3-0.1-0.7-0.2-1.1-0.2c-0.4,0-0.8-0.1-1.1-0.1c-0.9,0-1.7,0.2-2.2,0.5c-0.5,0.4-0.8,1.1-0.8,2.1v3.3h4.5v3.4H439V196
				h-3.8v-19.9H431.3z"/>
			<path d="M115.9,204.8c0.7,0,1.4,0,2.2,0c0.8,0,1.6,0.1,2.4,0.1c0.8,0.1,1.5,0.2,2.2,0.3c0.7,0.2,1.3,0.4,1.7,0.7
				c1,0.6,1.9,1.5,2.7,2.6c0.7,1.1,1.1,2.5,1.1,4.1c0,1.7-0.4,3.2-1.2,4.4c-0.8,1.2-2,2.2-3.6,2.8v0.1c2,0.4,3.5,1.3,4.5,2.7
				c1,1.4,1.6,3.1,1.6,5c0,1.2-0.2,2.3-0.6,3.4c-0.4,1.1-1,2.1-1.9,2.9c-0.8,0.9-1.8,1.5-3.1,2.1c-1.2,0.5-2.6,0.8-4.2,0.8h-15.5
				v-32.1H115.9z M117.1,218.6c2.4,0,4.2-0.4,5.3-1.3c1.1-0.9,1.6-2.1,1.6-3.8c0-1.1-0.2-2-0.5-2.7c-0.4-0.7-0.9-1.2-1.5-1.5
				c-0.6-0.4-1.4-0.6-2.2-0.7c-0.8-0.1-1.7-0.2-2.6-0.2h-8.6v10.2H117.1z M119.2,233.3c1.9,0,3.4-0.5,4.4-1.5c1.1-1,1.6-2.4,1.6-4.2
				c0-1-0.2-1.9-0.6-2.6c-0.4-0.7-0.9-1.2-1.6-1.6c-0.6-0.4-1.4-0.7-2.2-0.9c-0.8-0.2-1.7-0.2-2.6-0.2h-9.8v11.1H119.2z"/>
			<path d="M134.7,209.5v-4.7h3.8v4.7H134.7z M138.5,213.7v23.3h-3.8v-23.3H138.5z"/>
			<path d="M143.9,220.5c0.5-1.5,1.2-2.8,2.2-3.9s2.1-2,3.6-2.6c1.4-0.6,3-0.9,4.9-0.9c1.9,0,3.5,0.3,4.9,0.9
				c1.4,0.6,2.6,1.5,3.5,2.6c1,1.1,1.7,2.4,2.2,3.9c0.5,1.5,0.7,3.1,0.7,4.8c0,1.7-0.2,3.3-0.7,4.8c-0.5,1.5-1.2,2.8-2.2,3.8
				c-1,1.1-2.1,2-3.5,2.6c-1.4,0.6-3,0.9-4.9,0.9c-1.8,0-3.4-0.3-4.9-0.9c-1.4-0.6-2.6-1.5-3.6-2.6c-1-1.1-1.7-2.4-2.2-3.8
				c-0.5-1.5-0.7-3.1-0.7-4.8C143.2,223.6,143.4,222,143.9,220.5z M147.8,229.1c0.4,1.1,0.9,2,1.5,2.7c0.7,0.7,1.4,1.3,2.3,1.7
				c0.9,0.4,1.8,0.6,2.8,0.6c1,0,1.9-0.2,2.8-0.6c0.9-0.4,1.7-1,2.3-1.7c0.7-0.7,1.2-1.7,1.5-2.7c0.4-1.1,0.6-2.4,0.6-3.8
				c0-1.4-0.2-2.7-0.6-3.8c-0.4-1.1-0.9-2-1.5-2.8c-0.7-0.8-1.4-1.3-2.3-1.7c-0.9-0.4-1.8-0.6-2.8-0.6c-1,0-1.9,0.2-2.8,0.6
				c-0.9,0.4-1.7,1-2.3,1.7c-0.7,0.8-1.2,1.7-1.5,2.8c-0.4,1.1-0.6,2.4-0.6,3.8C147.3,226.7,147.4,228,147.8,229.1z"/>
			<path d="M170.5,209.5v-4.7h3.8v4.7H170.5z M174.3,213.7v23.3h-3.8v-23.3H174.3z"/>
			<path d="M183.9,213.7v3.7h0.1c1.6-2.8,4.1-4.2,7.6-4.2c1.5,0,2.8,0.2,3.8,0.6c1,0.4,1.8,1,2.5,1.8c0.6,0.8,1.1,1.6,1.3,2.7
				c0.3,1,0.4,2.2,0.4,3.4v15.3h-3.8v-15.8c0-1.4-0.4-2.6-1.3-3.4c-0.8-0.8-2-1.3-3.5-1.3c-1.2,0-2.2,0.2-3,0.5
				c-0.9,0.4-1.6,0.9-2.1,1.5c-0.6,0.7-1,1.4-1.3,2.3c-0.3,0.9-0.4,1.9-0.4,2.9v13.1h-3.8v-23.3H183.9z"/>
			<path d="M202.9,217.1v-3.4h3.9v-3.5c0-1.9,0.5-3.3,1.6-4.3c1.1-1,2.7-1.5,4.8-1.5c0.4,0,0.8,0,1.2,0.1c0.5,0.1,0.9,0.2,1.2,0.3
				v3.3c-0.3-0.1-0.7-0.2-1.1-0.2c-0.4,0-0.8-0.1-1.1-0.1c-0.9,0-1.7,0.2-2.2,0.5c-0.5,0.4-0.8,1.1-0.8,2.1v3.3h4.5v3.4h-4.5v19.9
				h-3.8v-19.9H202.9z"/>
			<path d="M218.1,220.5c0.5-1.5,1.2-2.8,2.2-3.9s2.1-2,3.6-2.6c1.4-0.6,3-0.9,4.9-0.9c1.9,0,3.5,0.3,4.9,0.9
				c1.4,0.6,2.6,1.5,3.5,2.6c1,1.1,1.7,2.4,2.2,3.9c0.5,1.5,0.7,3.1,0.7,4.8c0,1.7-0.2,3.3-0.7,4.8c-0.5,1.5-1.2,2.8-2.2,3.8
				c-1,1.1-2.1,2-3.5,2.6c-1.4,0.6-3,0.9-4.9,0.9c-1.8,0-3.4-0.3-4.9-0.9c-1.4-0.6-2.6-1.5-3.6-2.6c-1-1.1-1.7-2.4-2.2-3.8
				c-0.5-1.5-0.7-3.1-0.7-4.8C217.4,223.6,217.6,222,218.1,220.5z M222,229.1c0.4,1.1,0.9,2,1.5,2.7c0.7,0.7,1.4,1.3,2.3,1.7
				c0.9,0.4,1.8,0.6,2.8,0.6c1,0,1.9-0.2,2.8-0.6c0.9-0.4,1.7-1,2.3-1.7c0.7-0.7,1.2-1.7,1.5-2.7c0.4-1.1,0.6-2.4,0.6-3.8
				c0-1.4-0.2-2.7-0.6-3.8c-0.4-1.1-0.9-2-1.5-2.8c-0.7-0.8-1.4-1.3-2.3-1.7c-0.9-0.4-1.8-0.6-2.8-0.6c-1,0-1.9,0.2-2.8,0.6
				c-0.9,0.4-1.7,1-2.3,1.7c-0.7,0.8-1.2,1.7-1.5,2.8c-0.4,1.1-0.6,2.4-0.6,3.8C221.4,226.7,221.6,228,222,229.1z"/>
			<path d="M247.9,213.7v4.9h0.1c0.9-1.9,2.1-3.3,3.4-4.2c1.3-0.9,3.1-1.3,5.1-1.3v4.1c-1.5,0-2.8,0.2-3.9,0.6c-1.1,0.4-2,1-2.6,1.8
				c-0.7,0.8-1.1,1.8-1.4,2.9c-0.3,1.2-0.4,2.5-0.4,4v10.3h-3.8v-23.3H247.9z"/>
			<path d="M263,213.7v3.4h0.1c1.7-2.6,4.2-4,7.5-4c1.4,0,2.7,0.3,3.9,0.9c1.2,0.6,2,1.6,2.5,3.1c0.8-1.3,1.8-2.2,3.1-2.9
				c1.3-0.7,2.7-1,4.2-1c1.2,0,2.2,0.1,3.2,0.4c0.9,0.3,1.8,0.7,2.4,1.2c0.7,0.5,1.2,1.2,1.6,2.1c0.4,0.9,0.6,1.9,0.6,3.1v17.1h-3.8
				v-15.3c0-0.7-0.1-1.4-0.2-2c-0.1-0.6-0.3-1.2-0.7-1.6c-0.3-0.5-0.8-0.8-1.4-1.1c-0.6-0.3-1.3-0.4-2.3-0.4c-1.9,0-3.4,0.5-4.4,1.6
				c-1.1,1.1-1.6,2.5-1.6,4.3v14.5h-3.8v-15.3c0-0.8-0.1-1.4-0.2-2.1c-0.1-0.6-0.4-1.2-0.7-1.6c-0.3-0.5-0.8-0.8-1.3-1.1
				c-0.6-0.3-1.3-0.4-2.1-0.4c-1.1,0-2.1,0.2-2.9,0.7c-0.8,0.5-1.4,1-1.9,1.6c-0.5,0.6-0.9,1.3-1.1,2c-0.2,0.7-0.3,1.2-0.3,1.7v14.5
				h-3.8v-23.3H263z"/>
			<path d="M315.6,237.4c-1,0-1.8-0.3-2.3-0.8c-0.6-0.6-0.9-1.5-0.9-2.7c-1,1.3-2.3,2.2-3.7,2.7c-1.4,0.6-2.9,0.8-4.5,0.8
				c-1.1,0-2-0.1-3-0.3c-0.9-0.2-1.7-0.6-2.5-1.1s-1.3-1.2-1.7-2c-0.4-0.8-0.6-1.8-0.6-3c0-1.3,0.2-2.4,0.7-3.2c0.4-0.8,1-1.5,1.8-2
				c0.7-0.5,1.6-0.9,2.5-1.2c0.9-0.3,1.9-0.5,2.9-0.7c1-0.2,2-0.4,3-0.5c0.9-0.1,1.8-0.3,2.5-0.5c0.7-0.2,1.3-0.5,1.7-0.9
				c0.4-0.4,0.6-0.9,0.6-1.6c0-0.8-0.2-1.5-0.5-2c-0.3-0.5-0.7-0.9-1.2-1.2c-0.5-0.3-1.1-0.5-1.7-0.5c-0.6-0.1-1.2-0.1-1.8-0.1
				c-1.6,0-3,0.3-4.1,0.9c-1.1,0.6-1.7,1.8-1.8,3.5h-3.8c0.1-1.4,0.4-2.7,0.9-3.7c0.5-1,1.3-1.8,2.2-2.4c0.9-0.6,1.9-1.1,3.1-1.3
				c1.2-0.3,2.4-0.4,3.7-0.4c1,0,2.1,0.1,3.1,0.2c1,0.2,2,0.5,2.8,0.9c0.8,0.5,1.5,1.1,2,2c0.5,0.8,0.8,1.9,0.8,3.3v12
				c0,0.9,0.1,1.6,0.2,2c0.1,0.4,0.5,0.6,1.1,0.6c0.3,0,0.7-0.1,1.2-0.2v3C317.7,237.2,316.8,237.4,315.6,237.4z M310.3,225.7
				c-0.8,0.2-1.6,0.3-2.4,0.4c-0.9,0.1-1.7,0.2-2.6,0.4c-0.9,0.1-1.6,0.4-2.3,0.7c-0.7,0.3-1.2,0.7-1.7,1.3
				c-0.4,0.6-0.7,1.3-0.7,2.3c0,0.6,0.1,1.2,0.4,1.6c0.3,0.4,0.6,0.8,1,1.1c0.4,0.3,0.9,0.5,1.4,0.6c0.6,0.1,1.1,0.2,1.7,0.2
				c1.3,0,2.3-0.2,3.2-0.5c0.9-0.3,1.6-0.8,2.2-1.3c0.6-0.5,1-1.1,1.3-1.7c0.3-0.6,0.4-1.2,0.4-1.7v-3.9
				C311.7,225.3,311.1,225.6,310.3,225.7z"/>
			<path d="M331.9,213.7v3.4h-4.6v14.4c0,0.5,0,0.8,0.1,1.1c0.1,0.3,0.2,0.5,0.4,0.6c0.2,0.2,0.5,0.2,0.9,0.3c0.4,0,0.9,0.1,1.5,0.1
				h1.8v3.4H329c-1,0-1.8-0.1-2.5-0.2c-0.7-0.1-1.3-0.4-1.7-0.7c-0.4-0.4-0.8-0.9-1-1.5c-0.2-0.7-0.3-1.5-0.3-2.6l0-14.8h-4v-3.4h4
				v-7h3.8v7H331.9z"/>
			<path d="M336.4,209.5v-4.7h3.8v4.7H336.4z M340.2,213.7v23.3h-3.8v-23.3H340.2z"/>
			<path d="M360.1,217.7c-1-0.8-2.2-1.2-3.9-1.2c-1.4,0-2.5,0.3-3.5,0.8c-0.9,0.5-1.7,1.2-2.2,2c-0.6,0.8-1,1.8-1.2,2.9
				c-0.2,1.1-0.4,2.2-0.4,3.4c0,1.1,0.1,2.1,0.4,3.2c0.3,1,0.7,1.9,1.2,2.7c0.5,0.8,1.2,1.4,2.1,1.9c0.9,0.5,1.9,0.7,3.1,0.7
				c1.9,0,3.4-0.5,4.4-1.5c1.1-1,1.7-2.4,2-4.2h3.9c-0.4,2.9-1.5,5.1-3.2,6.7c-1.7,1.6-4.1,2.3-7,2.3c-1.8,0-3.3-0.3-4.7-0.9
				c-1.4-0.6-2.5-1.4-3.4-2.4c-0.9-1.1-1.6-2.3-2.1-3.8c-0.5-1.5-0.7-3.1-0.7-4.8c0-1.7,0.2-3.4,0.7-4.9c0.5-1.5,1.1-2.8,2.1-4
				c0.9-1.1,2.1-2,3.4-2.7c1.4-0.6,3-1,4.8-1c1.3,0,2.6,0.2,3.7,0.5c1.2,0.3,2.2,0.8,3.1,1.5c0.9,0.7,1.6,1.5,2.2,2.5
				c0.6,1,0.9,2.2,1.1,3.6h-4C361.6,219.7,361,218.5,360.1,217.7z"/>
			<path d="M373.2,231.8c0.4,0.6,0.8,1,1.4,1.4c0.6,0.3,1.3,0.6,2,0.7c0.7,0.2,1.5,0.2,2.3,0.2c0.6,0,1.2,0,1.9-0.1
				c0.7-0.1,1.3-0.3,1.8-0.5c0.6-0.2,1-0.6,1.4-1.1c0.4-0.5,0.5-1.1,0.5-1.8c0-1-0.4-1.7-1.1-2.3c-0.8-0.5-1.7-0.9-2.8-1.2
				c-1.1-0.3-2.4-0.6-3.7-0.9c-1.3-0.3-2.5-0.6-3.7-1.1c-1.1-0.5-2.1-1.1-2.8-2c-0.8-0.8-1.1-2-1.1-3.5c0-1.2,0.3-2.2,0.8-3
				c0.5-0.8,1.2-1.5,2-2.1c0.8-0.5,1.8-0.9,2.8-1.2c1-0.3,2.1-0.4,3.1-0.4c1.3,0,2.5,0.1,3.7,0.3s2.1,0.6,3,1.2
				c0.9,0.6,1.5,1.3,2.1,2.3c0.5,0.9,0.8,2.1,0.9,3.5h-3.8c-0.1-0.8-0.3-1.4-0.6-1.9c-0.3-0.5-0.8-0.9-1.3-1.2
				c-0.5-0.3-1.1-0.5-1.7-0.7c-0.6-0.1-1.2-0.2-1.9-0.2c-0.6,0-1.2,0-1.7,0.1c-0.6,0.1-1.1,0.2-1.6,0.5c-0.5,0.2-0.9,0.5-1.2,0.9
				c-0.3,0.4-0.5,0.9-0.5,1.5c0,0.7,0.2,1.2,0.7,1.6c0.5,0.4,1.1,0.8,1.8,1.1c0.7,0.3,1.5,0.5,2.4,0.7c0.9,0.2,1.8,0.4,2.7,0.6
				c1,0.2,1.9,0.5,2.8,0.8c0.9,0.3,1.7,0.7,2.4,1.2s1.3,1.1,1.7,1.9c0.4,0.8,0.7,1.7,0.7,2.8c0,1.4-0.3,2.6-0.9,3.5
				c-0.6,0.9-1.4,1.7-2.3,2.3c-0.9,0.6-2,1-3.2,1.2c-1.2,0.2-2.4,0.3-3.5,0.3c-1.3,0-2.5-0.1-3.7-0.4c-1.2-0.3-2.2-0.7-3.1-1.3
				c-0.9-0.6-1.6-1.4-2.2-2.4c-0.5-1-0.8-2.2-0.9-3.7h3.8C372.6,230.5,372.8,231.2,373.2,231.8z"/>
		</g>
	</g>
</g>
</svg>
