<?xml version="1.0" encoding="utf-8"?>
<!-- Generator: Adobe Illustrator 22.1.0, SVG Export Plug-In . SVG Version: 6.00 Build 0)  -->
<svg version="1.1" id="Calque_1" xmlns="http://www.w3.org/2000/svg" xmlns:xlink="http://www.w3.org/1999/xlink" x="0px" y="0px"
	 viewBox="0 0 92.3 69.3" style="enable-background:new 0 0 92.3 69.3;" xml:space="preserve" width="92" height="69">
<style type="text/css">
	.st0{fill:url(#SVGID_1_);}
	.st1{fill:url(#SVGID_2_);}
	.st2{fill:url(#SVGID_3_);}
	.st3{fill:url(#SVGID_4_);}
</style>
<g>

		<radialGradient id="SVGID_1_" cx="1988.703" cy="288.446" r="26.8379" gradientTransform="matrix(-1 0 0 1 2021.1758 -266)" gradientUnits="userSpaceOnUse">
		<stop  offset="0" style="stop-color:#F3997B"/>
		<stop  offset="1" style="stop-color:#E30613"/>
	</radialGradient>
	<path class="st0" d="M27.7,22.3c0.1-2.1,1.6-3.9,3.5-4.4L34.1,0H3.6C1.6,0,0,1.6,0,3.6v29.7L27.7,22.3z M10.4,10.9h3.9V6.9h3.6v3.9
		h3.9v3.6h-3.9v3.9h-3.6v-3.9h-3.9V10.9z"/>

		<radialGradient id="SVGID_2_" cx="1988.7029" cy="288.4467" r="26.8363" gradientTransform="matrix(-1 0 0 1 2021.1758 -266)" gradientUnits="userSpaceOnUse">
		<stop  offset="0" style="stop-color:#F3997B"/>
		<stop  offset="1" style="stop-color:#E30613"/>
	</radialGradient>
	<path class="st1" d="M78.6,53.3c0.5-0.2,0.9-0.5,1.2-1.1c0.2-0.4,0.3-0.8,0.3-1.2c0-1-0.3-1.6-1-1.9c-0.7-0.3-1.7-0.5-3.2-0.5h-3.2
		v5h3.6C77.4,53.5,78.1,53.4,78.6,53.3z"/>

		<radialGradient id="SVGID_3_" cx="1988.7029" cy="288.4473" r="26.838" gradientTransform="matrix(-1 0 0 1 2021.1758 -266)" gradientUnits="userSpaceOnUse">
		<stop  offset="0" style="stop-color:#F3997B"/>
		<stop  offset="1" style="stop-color:#E30613"/>
	</radialGradient>
	<path class="st2" d="M79.9,57c-0.7-0.4-1.7-0.7-3.1-0.7h-4v5.6H77c2.6,0,3.9-0.9,3.9-2.8C81,58.1,80.6,57.4,79.9,57z"/>

		<radialGradient id="SVGID_4_" cx="1988.7026" cy="288.446" r="26.8379" gradientTransform="matrix(-1 0 0 1 2021.1758 -266)" gradientUnits="userSpaceOnUse">
		<stop  offset="0" style="stop-color:#F3997B"/>
		<stop  offset="1" style="stop-color:#E30613"/>
	</radialGradient>
	<path class="st3" d="M88.8,0H38.1l-3,18.4c1.3,0.9,2.2,2.3,2.2,4c0,0.1,0,0.2,0,0.3l22.5,11.6c0.8-0.6,1.8-1,3-1
		c2.6,0,4.8,2.1,4.8,4.8c0,2.6-2.1,4.8-4.8,4.8c-2.6,0-4.8-2.1-4.8-4.8c0-0.1,0-0.2,0-0.3L35.5,26.2c-0.8,0.7-1.9,1.1-3,1.1
		c-1.3,0-2.5-0.5-3.3-1.4L0,37.5l0,28.2c0,2,1.6,3.6,3.6,3.6h85.2c2,0,3.6-1.6,3.6-3.6V3.6C92.3,1.6,90.7,0,88.8,0z M56.4,62.2
		c-0.6,0.9-1.5,1.6-2.6,2.2c-1.2,0.5-2.5,0.8-4.1,0.8c-1.9,0-3.5-0.4-4.7-1.1c-0.9-0.5-1.6-1.2-2.1-2.1c-0.5-0.9-0.8-1.7-0.8-2.5
		c0-0.5,0.2-0.9,0.5-1.2c0.3-0.3,0.7-0.5,1.2-0.5c0.4,0,0.8,0.1,1,0.4c0.3,0.3,0.5,0.7,0.7,1.2c0.2,0.6,0.5,1.1,0.8,1.5
		c0.3,0.4,0.7,0.7,1.2,1c0.5,0.3,1.2,0.4,2,0.4c1.2,0,2.1-0.3,2.8-0.8c0.7-0.5,1.1-1.2,1.1-2c0-0.6-0.2-1.2-0.6-1.6
		c-0.4-0.4-0.9-0.7-1.5-0.9c-0.6-0.2-1.4-0.4-2.5-0.7c-1.4-0.3-2.5-0.7-3.5-1.1c-0.9-0.4-1.7-1-2.2-1.8c-0.5-0.7-0.8-1.7-0.8-2.8
		c0-1.1,0.3-2,0.9-2.8c0.6-0.8,1.4-1.5,2.5-1.9c1.1-0.4,2.4-0.7,3.9-0.7c1.2,0,2.2,0.1,3.1,0.4c0.9,0.3,1.6,0.7,2.1,1.2
		c0.6,0.5,1,1,1.2,1.5c0.3,0.5,0.4,1.1,0.4,1.6c0,0.5-0.2,0.9-0.5,1.3c-0.3,0.4-0.7,0.6-1.2,0.6c-0.4,0-0.8-0.1-1-0.3
		c-0.2-0.2-0.5-0.6-0.8-1.1c-0.3-0.7-0.8-1.3-1.3-1.7c-0.5-0.4-1.3-0.6-2.4-0.6c-1,0-1.8,0.2-2.4,0.7c-0.6,0.4-0.9,1-0.9,1.6
		c0,0.4,0.1,0.7,0.3,1c0.2,0.3,0.5,0.5,0.9,0.7c0.4,0.2,0.7,0.4,1.1,0.5c0.4,0.1,1,0.3,1.9,0.5c1.1,0.3,2.1,0.5,2.9,0.8
		c0.9,0.3,1.6,0.7,2.2,1.1c0.6,0.4,1.1,1,1.4,1.7c0.3,0.7,0.5,1.5,0.5,2.5C57.3,60.2,57,61.3,56.4,62.2z M64.6,62.8
		c0,0.8-0.2,1.4-0.5,1.8c-0.4,0.4-0.8,0.6-1.4,0.6c-0.6,0-1-0.2-1.4-0.6c-0.4-0.4-0.5-1-0.5-1.8V47.4c0-0.8,0.2-1.4,0.5-1.8
		c0.4-0.4,0.8-0.6,1.4-0.6c0.6,0,1.1,0.2,1.4,0.6c0.4,0.4,0.5,1,0.5,1.8V62.8z M84.1,62.3c-0.6,0.9-1.3,1.5-2.2,1.9
		c-0.6,0.2-1.3,0.4-2,0.5c-0.8,0.1-1.6,0.2-2.7,0.2h-5.9c-0.8,0-1.5-0.2-1.8-0.6c-0.4-0.4-0.5-1-0.5-1.8V48c0-0.8,0.2-1.5,0.6-1.8
		c0.4-0.4,1-0.6,1.8-0.6h6.2c0.9,0,1.7,0.1,2.4,0.2c0.7,0.1,1.3,0.3,1.8,0.7c0.5,0.3,0.9,0.6,1.2,1c0.3,0.4,0.6,0.9,0.8,1.4
		c0.2,0.5,0.3,1,0.3,1.6c0,1.9-1,3.3-2.9,4.2c2.5,0.8,3.8,2.4,3.8,4.7C84.9,60.4,84.6,61.4,84.1,62.3z"/>
</g>
</svg>
