<svg xmlns="http://www.w3.org/2000/svg"  viewBox="0 0 36 27" id="sib-mark">
	<path d="m19.3621622 17.7081081c-.5110896-.012949-1.0198688.0729488-1.4983784.252973-.3866493.1514409-.7235366.4074753-.972973.7394594-.2186886.3210706-.3341066.7012711-.3308108 1.0897298-.0155664.3872096.093571.7691906.3113514 1.0897297.2215886.2973631.5166313.5320561.8562162.6810811.4271655.2045648.8782313.3549201 1.3427027.4475675.3227182.0647193.6411557.1492028.9535135.252973.2194865.0691027.4195231.1891246.5837838.3502703.1595179.1590926.2443382.3782116.2335135.6032432-.0090171.3132646-.1683756.6030073-.4281081.7783784-.3180446.2230619-.7018479.33272-1.0897298.3113514-.2743101.0092803-.5471378-.0439544-.7978378-.1556757-.1837704-.0917262-.3436656-.2249722-.467027-.3891892-.1230706-.190526-.227344-.3925556-.3113514-.6032432-.0600701-.1704025-.1601726-.3238929-.2918919-.4475676-.1129171-.0995877-.2580918-.1548923-.4086486-.1556757-.1824533-.0072508-.3593657.0635142-.4864865.1945946-.1260426.1224867-.1963736.2912813-.1946275.467027.0071161.3476803.1153052.6857715.3113843.972973.213592.326972.49999.6000491.8367567.7978378.5645096.2910664 1.194481.4318047 1.8291892.4086487.5477262.007975 1.0911246-.0980539 1.5956757-.3113514.4175263-.1732162.7758028-.4638934 1.0313513-.8367567.2272281-.3626363.3547629-.7788024.3697298-1.2064865.0136568-.3289345-.0531392-.6562346-.1945946-.9535135-.139231-.2525033-.3318051-.4716395-.5643244-.6421622-.2716054-.1809214-.5660828-.3248882-.8756756-.4281081-.376877-.1295679-.7600698-.2399794-1.1481081-.3308108l-.72-.1945946c-.1490405-.0414946-.2927185-.100272-.4281082-.1751351-.1302898-.0633301-.2436724-.156704-.3308108-.2724325-.0787774-.1142718-.1196231-.2504242-.1167567-.3891891.0020836-.2539434.1343324-.4890524.3502703-.6227027.2836777-.1817015.6170713-.2701528.9535135-.252973.3221876-.0241552.6434215.0578619.9145946.2335135.2117669.1793721.3784098.4060066.4864864.6616216.0690101.1600641.1680997.3053956.2918919.4281081.1015771.1033169.2453534.1536386.3891892.1362162.1849529-.0002175.3613714-.0778416.4864865-.214054.1271417-.1297254.1971969-.3048634.1945946-.4864865-.0078685-.2099421-.0609701-.4157107-.1556757-.6032432-.1200772-.2316642-.2855196-.4368128-.4864865-.6032433-.2516521-.1953571-.5345711-.3466859-.8367567-.4475676-.3829217-.1250978-.7842936-.1843166-1.187027-.1751351zm5.04-.1362162c-.2077473-.0094287-.4084186.0765733-.5448649.2335135-.1568572.1907416-.2335929.4349007-.2140541.6810811l.0005392 6.1157686c.0131594.2025899.0870737.3975922.2135149.558826.138117.1546327.3376363.2401409.5448649.2335135.2134379.0097496.4201816-.0757995.5643243-.2335135.1546673-.1994548.2308261-.4487016.214054-.7005406l.0007086-6.0800795c-.0115036-.2080532-.0858732-.4088433-.2147626-.5750556-.1471062-.1534317-.3518152-.2381388-.5643243-.2335135zm3.3664864.214054c-.2524818-.0226308-.5038273.0541692-.7005405.2140541-.1559932.2062579-.232031.4620212-.214054.72l-.0007086 5.7492688c.0115036.2080531.0858731.4088432.2147626.5750555.1967132.1598849.4480587.2366849.7005405.2140541h2.2962163c.3446839.0028401.6891896-.0166603 1.0313513-.0583784.2669264-.0301404.5286714-.0955766.7783784-.1945946.3608086-.1508668.6665104-.409015.8756757-.7394595.2168353-.3282502.3256908-.7160478.3113513-1.1091891 0-.9145946-.4864865-1.5178379-1.4789189-1.8291892.7589189-.3502703 1.1286487-.8951352 1.1286487-1.6540541.0103405-.4259403-.1349453-.8410426-.4086487-1.1675676-.126673-.1661787-.2855039-.3051558-.467027-.4086486-.2156573-.1273522-.4532727-.2131577-.7005406-.252973-.3096019-.0412904-.6217203-.0607978-.934054-.0583784zm2.1794595 4.1643244c.5254054 0 .9145946.0778378 1.187027.2529729.2788274.1741312.4366402.4897568.4086487.8172973 0 .7394595-.505946 1.1091892-1.5372973 1.1091892h-1.6345946v-2.1794594zm-1.5762162-3.0356757 1.4760904.0004642c.3328701.0135953.6621209.0789378.9758015.1941304.2766339.1475806.4377147.4467306.4086486.7589189-.0035435.1710708-.0504095.3384494-.1362162.4864865-.095896.1923192-.2636802.3391304-.467027.4086486-.2859895.0727629-.5806892.1055073-.8756757.0972973h-1.3816216zm-17.0757393-8.7325668c.3402541.3211223.7990624.5179722 1.3038474.5179722.5134531 0 .9793368-.2036684 1.3212704-.5346244l8.5787299 4.6336116c-.0000002.0003376-.0000003.0006752-.0000003.0010128 0 1.049341.850659 1.9 1.9 1.9s1.9-.850659 1.9-1.9-.850659-1.9-1.9-1.9l-.1484839.0057164c-.4199757.032464-.8016793.2014731-1.100777.4626938l-8.6567391-4.7154102-.000789-.01475843c-.0494514-.58655267-.365364-1.09724702-.8262576-1.41060312l1.1611547-7.22763845h19.6718919c.8284271 0 1.5.67157288 1.5 1.5v24c0 .8284271-.6715729 1.5-1.5 1.5h-33c-.82842712 0-1.5-.6715729-1.5-1.5v-10.7zm-4.2961526-7.4820278h-1.5v1.45h-1.45v1.5h1.45v1.45h1.5v-1.45h1.45v-1.5h-1.45zm-7-1.2c0-.82842712.67157288-1.5 1.5-1.5h11.7713514l-1.1614375 6.96380778c-.7716328.20542283-1.3501793.88431607-1.4055641 1.70660448l-10.7043498 4.22958774z" fill="#656565" fill-rule="evenodd" />
</svg>