<svg xml:space="preserve" width="132.613" height="101.867" xmlns="http://www.w3.org/2000/svg"><defs><radialGradient fx="0" fy="0" cx="0" cy="0" r="1" gradientUnits="userSpaceOnUse" gradientTransform="rotate(180 180.173 251.968) scale(268.378)" spreadMethod="pad" id="b"><stop style="stop-opacity:1;stop-color:#f6846c" offset="0"/><stop style="stop-opacity:1;stop-color:#ed1c24" offset="1"/></radialGradient><radialGradient fx="0" fy="0" cx="0" cy="0" r="1" gradientUnits="userSpaceOnUse" gradientTransform="rotate(180 180.173 251.968) scale(268.366)" spreadMethod="pad" id="d"><stop style="stop-opacity:1;stop-color:#f6846c" offset="0"/><stop style="stop-opacity:1;stop-color:#ed1c24" offset="1"/></radialGradient><radialGradient fx="0" fy="0" cx="0" cy="0" r="1" gradientUnits="userSpaceOnUse" gradientTransform="rotate(180 180.173 251.968) scale(268.383)" spreadMethod="pad" id="f"><stop style="stop-opacity:1;stop-color:#f6846c" offset="0"/><stop style="stop-opacity:1;stop-color:#ed1c24" offset="1"/></radialGradient><radialGradient fx="0" fy="0" cx="0" cy="0" r="1" gradientUnits="userSpaceOnUse" gradientTransform="rotate(180 180.179 251.968) scale(268.378)" spreadMethod="pad" id="h"><stop style="stop-opacity:1;stop-color:#f6846c" offset="0"/><stop style="stop-opacity:1;stop-color:#ed1c24" offset="1"/></radialGradient><clipPath clipPathUnits="userSpaceOnUse" id="a"><path d="M139.883 619.594h39.414v39.414h35.644v-39.414h39.434V583.93h-39.434v-39.414h-35.644v39.414h-39.414zm172.832-113.77c.84 21.309 15.586 38.985 35.43 44.239l28.652 178.339H71.367c-19.648 0-35.742-16.074-35.742-35.722V395.277l277.09 110.547"/></clipPath><clipPath clipPathUnits="userSpaceOnUse" id="c"><path d="M822.031 195.863c5.313 1.856 9.356 5.352 12.149 10.528 2.168 3.672 3.281 7.812 3.281 12.363 0 9.746-3.457 16.211-10.371 19.414-6.895 3.203-17.422 4.805-31.543 4.805h-31.582v-49.864h35.625c9.707 0 17.187.918 22.441 2.754"/></clipPath><clipPath clipPathUnits="userSpaceOnUse" id="e"><path d="M834.961 158.809c-6.816 4.355-16.992 6.523-30.508 6.523h-40.488v-56.016h41.777c26.289 0 39.434 9.473 39.434 28.418 0 9.668-3.399 16.719-10.215 21.075"/></clipPath><clipPath clipPathUnits="userSpaceOnUse" id="g"><path d="M876.484 105.762c-5.527-8.594-12.988-14.961-22.363-19.063-5.859-2.46-12.598-4.18-20.215-5.176-7.597-1.015-16.484-1.523-26.64-1.523h-58.77c-8.476 0-14.551 1.895-18.164 5.703-3.633 3.809-5.449 9.883-5.449 18.164v144.535c0 8.477 1.875 14.59 5.586 18.301 3.711 3.692 9.726 5.567 18.027 5.567h62.344c9.16 0 17.109-.547 23.867-1.7 6.738-1.132 12.773-3.32 18.106-6.582a47.147 47.147 0 0 0 12.089-10.312 45.523 45.523 0 0 0 8.028-13.789c1.836-5.02 2.754-10.332 2.754-15.957 0-19.258-9.649-33.36-28.946-42.305 25.352-8.027 38.028-23.656 38.028-46.859 0-10.743-2.774-20.411-8.282-29.004zm-194.492-5.157c0-7.91-1.836-13.867-5.449-17.793-3.652-3.906-8.398-5.878-14.277-5.878-5.625 0-10.274 1.992-13.887 5.957-3.652 3.964-5.469 9.882-5.469 17.714v153.911c0 7.851 1.797 13.75 5.41 17.656 3.594 3.945 8.223 5.898 13.946 5.898 5.879 0 10.625-1.933 14.277-5.8 3.613-3.887 5.449-9.805 5.449-17.754zm-82.656 5.782c-6.016-9.2-14.766-16.426-26.309-21.64-11.543-5.196-25.234-7.813-41.054-7.813-18.985 0-34.629 3.535-46.973 10.625-8.711 5.156-15.781 12.011-21.25 20.566-5.449 8.594-8.184 16.914-8.184 25.02 0 4.707 1.661 8.73 4.922 12.089 3.262 3.34 7.442 5.02 12.5 5.02 4.082 0 7.559-1.309 10.391-3.906 2.832-2.637 5.273-6.524 7.285-11.68 2.461-6.113 5.078-11.23 7.91-15.313 2.852-4.121 6.836-7.48 11.992-10.156 5.137-2.676 11.895-3.984 20.293-3.984 11.524 0 20.879 2.656 28.106 8.047 7.207 5.371 10.801 12.07 10.801 20.097 0 6.368-1.934 11.563-5.821 15.528-3.886 3.984-8.925 7.011-15.078 9.101-6.152 2.11-14.394 4.336-24.687 6.68-13.789 3.227-25.313 7.035-34.629 11.352-9.317 4.335-16.66 10.214-22.129 17.695-5.449 7.461-8.164 16.777-8.164 27.871 0 10.586 2.851 19.98 8.633 28.203 5.781 8.223 14.121 14.531 25.039 18.945 10.937 4.434 23.75 6.621 38.535 6.621 11.797 0 21.992-1.464 30.605-4.394 8.614-2.93 15.762-6.836 21.465-11.68 5.664-4.843 9.824-9.941 12.442-15.273 2.617-5.371 3.925-10.567 3.925-15.606 0-4.648-1.66-8.828-4.922-12.578-3.281-3.691-7.402-5.566-12.324-5.566-4.433 0-7.851 1.133-10.156 3.32-2.344 2.227-4.863 5.84-7.578 10.899-3.477 7.265-7.676 12.949-12.578 17.011-4.883 4.082-12.754 6.114-23.574 6.114-10.059 0-18.145-2.207-24.297-6.622-6.172-4.394-9.239-9.707-9.239-15.898 0-3.867 1.055-7.168 3.145-9.961s4.98-5.215 8.633-7.207c3.672-2.031 7.383-3.594 11.152-4.726 3.731-1.133 9.941-2.774 18.594-4.981 10.859-2.519 20.683-5.332 29.472-8.379 8.79-3.066 16.29-6.777 22.461-11.133 6.153-4.375 10.977-9.882 14.454-16.586 3.437-6.66 5.175-14.882 5.175-24.55 0-11.563-3.007-21.954-8.984-31.172zm323.887 622.015H416.172L386.504 543.91c13.047-8.515 21.68-23.222 21.68-39.98 0-.918-.098-1.817-.137-2.715l224.707-115.918c8.144 6.406 18.379 10.254 29.512 10.254 26.406 0 47.793-21.387 47.793-47.774 0-26.386-21.387-47.793-47.793-47.793-26.368 0-47.774 21.407-47.774 47.793 0 1.055.098 2.09.156 3.125L390.254 466.664c-8.184-6.562-18.535-10.508-29.863-10.508-12.969 0-24.707 5.176-33.321 13.574L35.625 353.441l.02-282.093c0-19.63 16.074-35.723 35.722-35.723h851.856c19.648 0 35.722 16.094 35.722 35.723V692.68c0 19.648-16.074 35.722-35.722 35.722"/></clipPath></defs><path d="M71.367 764.027C32.012 764.027 0 732.016 0 692.68L.02 71.348C.02 32.012 32.03 0 71.367 0h851.856c39.336 0 71.347 32.012 71.347 71.348V692.68c0 39.336-32.011 71.347-71.347 71.347H71.367" style="fill:#fff;fill-opacity:1;fill-rule:nonzero;stroke:none" transform="matrix(.13333 0 0 -.13333 0 101.867)"/><g clip-path="url(#a)" transform="matrix(.13333 0 0 -.13333 0 101.867)"><path d="M139.883 619.594h39.414v39.414h35.644v-39.414h39.434V583.93h-39.434v-39.414h-35.644v39.414h-39.414zm172.832-113.77c.84 21.309 15.586 38.985 35.43 44.239l28.652 178.339H71.367c-19.648 0-35.742-16.074-35.742-35.722V395.277l277.09 110.547" style="fill:url(#b);fill-opacity:1;fill-rule:nonzero;stroke:none"/></g><g clip-path="url(#c)" transform="matrix(.13333 0 0 -.13333 0 101.867)"><path d="M822.031 195.863c5.313 1.856 9.356 5.352 12.149 10.528 2.168 3.672 3.281 7.812 3.281 12.363 0 9.746-3.457 16.211-10.371 19.414-6.895 3.203-17.422 4.805-31.543 4.805h-31.582v-49.864h35.625c9.707 0 17.187.918 22.441 2.754" style="fill:url(#d);fill-opacity:1;fill-rule:nonzero;stroke:none"/></g><g clip-path="url(#e)" transform="matrix(.13333 0 0 -.13333 0 101.867)"><path d="M834.961 158.809c-6.816 4.355-16.992 6.523-30.508 6.523h-40.488v-56.016h41.777c26.289 0 39.434 9.473 39.434 28.418 0 9.668-3.399 16.719-10.215 21.075" style="fill:url(#f);fill-opacity:1;fill-rule:nonzero;stroke:none"/></g><g clip-path="url(#g)" transform="matrix(.13333 0 0 -.13333 0 101.867)"><path d="M876.484 105.762c-5.527-8.594-12.988-14.961-22.363-19.063-5.859-2.46-12.598-4.18-20.215-5.176-7.597-1.015-16.484-1.523-26.64-1.523h-58.77c-8.476 0-14.551 1.895-18.164 5.703-3.633 3.809-5.449 9.883-5.449 18.164v144.535c0 8.477 1.875 14.59 5.586 18.301 3.711 3.692 9.726 5.567 18.027 5.567h62.344c9.16 0 17.109-.547 23.867-1.7 6.738-1.132 12.773-3.32 18.106-6.582a47.147 47.147 0 0 0 12.089-10.312 45.523 45.523 0 0 0 8.028-13.789c1.836-5.02 2.754-10.332 2.754-15.957 0-19.258-9.649-33.36-28.946-42.305 25.352-8.027 38.028-23.656 38.028-46.859 0-10.743-2.774-20.411-8.282-29.004zm-194.492-5.157c0-7.91-1.836-13.867-5.449-17.793-3.652-3.906-8.398-5.878-14.277-5.878-5.625 0-10.274 1.992-13.887 5.957-3.652 3.964-5.469 9.882-5.469 17.714v153.911c0 7.851 1.797 13.75 5.41 17.656 3.594 3.945 8.223 5.898 13.946 5.898 5.879 0 10.625-1.933 14.277-5.8 3.613-3.887 5.449-9.805 5.449-17.754zm-82.656 5.782c-6.016-9.2-14.766-16.426-26.309-21.64-11.543-5.196-25.234-7.813-41.054-7.813-18.985 0-34.629 3.535-46.973 10.625-8.711 5.156-15.781 12.011-21.25 20.566-5.449 8.594-8.184 16.914-8.184 25.02 0 4.707 1.661 8.73 4.922 12.089 3.262 3.34 7.442 5.02 12.5 5.02 4.082 0 7.559-1.309 10.391-3.906 2.832-2.637 5.273-6.524 7.285-11.68 2.461-6.113 5.078-11.23 7.91-15.313 2.852-4.121 6.836-7.48 11.992-10.156 5.137-2.676 11.895-3.984 20.293-3.984 11.524 0 20.879 2.656 28.106 8.047 7.207 5.371 10.801 12.07 10.801 20.097 0 6.368-1.934 11.563-5.821 15.528-3.886 3.984-8.925 7.011-15.078 9.101-6.152 2.11-14.394 4.336-24.687 6.68-13.789 3.227-25.313 7.035-34.629 11.352-9.317 4.335-16.66 10.214-22.129 17.695-5.449 7.461-8.164 16.777-8.164 27.871 0 10.586 2.851 19.98 8.633 28.203 5.781 8.223 14.121 14.531 25.039 18.945 10.937 4.434 23.75 6.621 38.535 6.621 11.797 0 21.992-1.464 30.605-4.394 8.614-2.93 15.762-6.836 21.465-11.68 5.664-4.843 9.824-9.941 12.442-15.273 2.617-5.371 3.925-10.567 3.925-15.606 0-4.648-1.66-8.828-4.922-12.578-3.281-3.691-7.402-5.566-12.324-5.566-4.433 0-7.851 1.133-10.156 3.32-2.344 2.227-4.863 5.84-7.578 10.899-3.477 7.265-7.676 12.949-12.578 17.011-4.883 4.082-12.754 6.114-23.574 6.114-10.059 0-18.145-2.207-24.297-6.622-6.172-4.394-9.239-9.707-9.239-15.898 0-3.867 1.055-7.168 3.145-9.961s4.98-5.215 8.633-7.207c3.672-2.031 7.383-3.594 11.152-4.726 3.731-1.133 9.941-2.774 18.594-4.981 10.859-2.519 20.683-5.332 29.472-8.379 8.79-3.066 16.29-6.777 22.461-11.133 6.153-4.375 10.977-9.882 14.454-16.586 3.437-6.66 5.175-14.882 5.175-24.55 0-11.563-3.007-21.954-8.984-31.172zm323.887 622.015H416.172L386.504 543.91c13.047-8.515 21.68-23.222 21.68-39.98 0-.918-.098-1.817-.137-2.715l224.707-115.918c8.144 6.406 18.379 10.254 29.512 10.254 26.406 0 47.793-21.387 47.793-47.774 0-26.386-21.387-47.793-47.793-47.793-26.368 0-47.774 21.407-47.774 47.793 0 1.055.098 2.09.156 3.125L390.254 466.664c-8.184-6.562-18.535-10.508-29.863-10.508-12.969 0-24.707 5.176-33.321 13.574L35.625 353.441l.02-282.093c0-19.63 16.074-35.723 35.722-35.723h851.856c19.648 0 35.722 16.094 35.722 35.723V692.68c0 19.648-16.074 35.722-35.722 35.722" style="fill:url(#h);fill-opacity:1;fill-rule:nonzero;stroke:none"/></g></svg>
